<svg xmlns="http://www.w3.org/2000/svg" viewBox="0 0 144.8 95.39"><defs><style>.cls-1,.cls-2{fill:none;stroke:#000;stroke-linejoin:round;}.cls-1{stroke-width:0.5px;}.cls-2{stroke-width:0.25px;}</style></defs><g id="Layer_2" data-name="Layer 2"><g id="Layer_1-2" data-name="Layer 1"><polygon class="cls-1" points="4.16 51.21 18.93 59.84 37.39 49.11 22.45 40.67 4.16 51.21"/><polyline class="cls-1" points="4.16 51.21 4.16 66.08 18.83 74.61 18.93 59.84"/><polyline class="cls-1" points="18.83 74.61 37.39 64.26 37.39 49.11"/><polygon class="cls-1" points="17.14 62.91 14.86 58.83 8.1 54.98 5.7 56.32 5.7 65.8 17.14 72.38 17.14 62.91"/><polygon class="cls-1" points="8.17 63.05 15.14 67.09 15.14 62.68 8.17 58.72 8.17 63.05"/><line class="cls-1" x1="8.17" y1="58.72" x2="11.42" y2="56.87"/><line class="cls-1" x1="15.14" y1="62.68" x2="16.55" y2="61.86"/><line class="cls-1" x1="15.14" y1="67.09" x2="17.14" y2="65.9"/><ellipse class="cls-1" cx="52.38" cy="79.3" rx="3.1" ry="5.34" transform="translate(-31.12 33.92) rotate(-28.03)"/><ellipse class="cls-1" cx="52.86" cy="79.05" rx="0.75" ry="1.3" transform="translate(-30.95 34.12) rotate(-28.03)"/><line class="cls-1" x1="52.25" y1="77.9" x2="54.38" y2="76.67"/><line class="cls-1" x1="53.47" y1="80.19" x2="55.61" y2="78.93"/><polygon class="cls-1" points="46.77 70.09 46.77 85.27 57.76 91.77 57.76 76.39 46.77 70.09"/><polyline class="cls-1" points="46.77 70.09 51.26 67.34 62.17 73.97 57.76 76.39"/><polyline class="cls-1" points="62.17 73.97 62.17 89.27 57.76 91.77"/><path class="cls-1" d="M54.89,69.54s9.54-5.28,10.34-5.74C67.75,62.33,74,67,74,72.49v9.78L62.17,89"/><polygon class="cls-1" points="92.65 61.18 95.78 62.98 120.35 48.59 117.39 46.9 92.65 61.18"/><polyline class="cls-1" points="92.65 61.18 92.65 71.5 95.78 73.32 120.35 59.1 120.35 48.59"/><line class="cls-1" x1="95.78" y1="62.98" x2="95.78" y2="73.32"/><polygon class="cls-1" points="55.4 14.52 58.54 16.32 83.1 1.94 80.14 0.25 55.4 14.52"/><polyline class="cls-1" points="56.62 25.55 58.54 26.66 83.1 12.45 83.1 1.94"/><line class="cls-1" x1="55.4" y1="14.52" x2="55.4" y2="16.53"/><line class="cls-1" x1="58.54" y1="16.32" x2="58.54" y2="26.66"/><polygon class="cls-1" points="22.41 33.41 25.55 35.2 56.62 17.23 53.66 15.54 22.41 33.41"/><polyline class="cls-1" points="35.87 39.63 56.62 27.74 56.62 17.23"/><line class="cls-1" x1="22.41" y1="33.41" x2="22.41" y2="40.67"/><line class="cls-1" x1="25.55" y1="35.2" x2="25.55" y2="35.61"/><polygon class="cls-1" points="120.42 44.95 123.56 46.75 141.94 35.92 138.97 34.23 120.42 44.95"/><polyline class="cls-1" points="120.42 44.95 120.42 55.27 123.56 57.09 141.94 46.42 141.94 35.92"/><line class="cls-1" x1="123.56" y1="46.75" x2="123.56" y2="57.09"/><polygon class="cls-1" points="34.27 34.55 35.05 35.01 35.87 34.55 35.87 43.15 35.07 43.68 34.27 43.18 34.27 34.55"/><line class="cls-1" x1="35.05" y1="35.01" x2="35.05" y2="43.68"/><polyline class="cls-1" points="34.27 34.55 34.53 33.86 35.05 34.2 35.6 33.86 35.87 34.55"/><polyline class="cls-1" points="34.53 33.86 35.05 33.52 35.6 33.86"/><line class="cls-1" x1="35.05" y1="34.2" x2="35.05" y2="35.01"/><polygon class="cls-1" points="31.17 36.38 31.95 36.85 32.77 36.38 32.77 44.99 31.97 45.51 31.17 45.02 31.17 36.38"/><line class="cls-1" x1="31.95" y1="36.85" x2="31.95" y2="45.51"/><polyline class="cls-1" points="31.17 36.38 31.43 35.7 31.95 36.04 32.5 35.7 32.77 36.38"/><polyline class="cls-1" points="31.43 35.7 31.95 35.35 32.5 35.7"/><line class="cls-1" x1="31.95" y1="36.04" x2="31.95" y2="36.85"/><polyline class="cls-1" points="28.07 43.85 28.07 38.22 28.86 38.68 29.67 38.22 29.67 44.75"/><line class="cls-1" x1="28.85" y1="38.68" x2="28.85" y2="44.29"/><polyline class="cls-1" points="28.07 38.22 28.33 37.53 28.86 37.88 29.4 37.53 29.67 38.22"/><polyline class="cls-1" points="28.33 37.53 28.86 37.19 29.4 37.53"/><line class="cls-1" x1="28.85" y1="37.88" x2="28.85" y2="38.68"/><polyline class="cls-1" points="31.17 36.44 31.17 32.8 31.95 33.26 32.77 32.8 32.77 36.47"/><line class="cls-1" x1="31.95" y1="33.26" x2="31.95" y2="35.35"/><polyline class="cls-1" points="31.17 32.8 31.43 32.11 31.95 32.45 32.5 32.11 32.77 32.8"/><polyline class="cls-1" points="31.43 32.11 31.95 31.77 32.5 32.11"/><line class="cls-1" x1="31.95" y1="32.45" x2="31.95" y2="33.26"/><polyline class="cls-1" points="28.07 38.28 28.07 34.63 28.86 35.1 29.67 34.63 29.67 38.22"/><line class="cls-1" x1="28.85" y1="35.1" x2="28.85" y2="37.19"/><polyline class="cls-1" points="28.07 34.63 28.33 33.95 28.86 34.29 29.4 33.95 29.67 34.63"/><polyline class="cls-1" points="28.33 33.95 28.86 33.6 29.4 33.95"/><line class="cls-1" x1="28.85" y1="34.29" x2="28.85" y2="35.1"/><polyline class="cls-1" points="24.97 42.1 24.97 36.47 25.75 36.94 26.57 36.47 26.57 43"/><line class="cls-1" x1="25.75" y1="36.94" x2="25.75" y2="42.54"/><polyline class="cls-1" points="24.97 36.47 25.23 35.78 25.75 36.13 26.3 35.78 26.57 36.47"/><polyline class="cls-1" points="25.23 35.78 25.75 35.44 26.3 35.78"/><line class="cls-1" x1="25.75" y1="36.13" x2="25.75" y2="36.94"/><line class="cls-1" x1="29.67" y1="40.95" x2="31.17" y2="40.04"/><line class="cls-1" x1="26.57" y1="42.71" x2="28.07" y2="41.84"/><line class="cls-1" x1="31.15" y1="42.79" x2="29.67" y2="41.86"/><polyline class="cls-1" points="35.87 41.91 37.39 42.8 37.39 43.68 35.87 44.55 34.27 44.55 32.77 43.68"/><line class="cls-1" x1="32.77" y1="40.08" x2="34.27" y2="40.97"/><polyline class="cls-1" points="37.39 43.68 37.39 47.38 35.87 48.26"/><line class="cls-1" x1="35.87" y1="48.26" x2="35.87" y2="44.55"/><line class="cls-1" x1="34.27" y1="44.55" x2="34.27" y2="47.35"/><line class="cls-1" x1="34.27" y1="45.43" x2="32.6" y2="46.4"/><polygon class="cls-1" points="104.35 14.62 105.13 15.08 105.94 14.62 105.94 23.22 105.14 23.75 104.35 23.25 104.35 14.62"/><line class="cls-1" x1="105.13" y1="15.08" x2="105.13" y2="23.75"/><polyline class="cls-1" points="104.35 14.62 104.6 13.93 105.13 14.27 105.67 13.93 105.94 14.62"/><polyline class="cls-1" points="104.6 13.93 105.13 13.59 105.67 13.93"/><line class="cls-1" x1="105.13" y1="14.27" x2="105.13" y2="15.08"/><polygon class="cls-1" points="107.43 16.39 108.21 16.85 109.03 16.39 109.03 25 108.23 25.52 107.43 25.03 107.43 16.39"/><line class="cls-1" x1="108.21" y1="16.85" x2="108.21" y2="25.52"/><polyline class="cls-1" points="107.43 16.39 107.69 15.7 108.21 16.05 108.75 15.7 109.03 16.39"/><polyline class="cls-1" points="107.69 15.7 108.21 15.36 108.75 15.7"/><line class="cls-1" x1="108.21" y1="16.05" x2="108.21" y2="16.85"/><polyline class="cls-1" points="110.52 24.63 110.52 18.16 111.3 18.63 112.12 18.16 112.12 23.71"/><polyline class="cls-1" points="110.52 18.16 110.77 17.48 111.3 17.82 111.84 17.48 112.12 18.16"/><polyline class="cls-1" points="110.77 17.48 111.3 17.14 111.84 17.48"/><line class="cls-1" x1="111.3" y1="17.82" x2="111.3" y2="18.63"/><line class="cls-1" x1="111.3" y1="18.63" x2="111.3" y2="24.14"/><polyline class="cls-1" points="107.43 16.44 107.43 12.79 108.21 13.26 109.03 12.79 109.03 16.55"/><line class="cls-1" x1="108.21" y1="13.26" x2="108.21" y2="15.4"/><polyline class="cls-1" points="107.43 12.79 107.69 12.11 108.21 12.45 108.75 12.11 109.03 12.79"/><polyline class="cls-1" points="107.69 12.11 108.21 11.76 108.75 12.11"/><line class="cls-1" x1="108.21" y1="12.45" x2="108.21" y2="13.26"/><polyline class="cls-1" points="110.52 18.37 110.52 14.58 111.3 15.05 112.12 14.58 112.12 18.2"/><line class="cls-1" x1="111.3" y1="15.05" x2="111.3" y2="17.14"/><polyline class="cls-1" points="110.52 14.58 110.77 13.9 111.3 14.24 111.84 13.9 112.12 14.58"/><polyline class="cls-1" points="110.77 13.9 111.3 13.55 111.84 13.9"/><line class="cls-1" x1="111.3" y1="14.24" x2="111.3" y2="15.05"/><polyline class="cls-1" points="113.58 22.83 113.58 16.35 114.36 16.82 115.18 16.35 115.18 21.9"/><line class="cls-1" x1="114.36" y1="16.82" x2="114.36" y2="22.41"/><polyline class="cls-1" points="113.58 16.35 113.84 15.67 114.36 16.01 114.91 15.67 115.18 16.35"/><polyline class="cls-1" points="113.84 15.67 114.36 15.32 114.91 15.67"/><line class="cls-1" x1="114.36" y1="16.01" x2="114.36" y2="16.82"/><line class="cls-1" x1="110.52" y1="20.99" x2="109.03" y2="20.11"/><line class="cls-1" x1="113.58" y1="22.83" x2="112.12" y2="21.95"/><line class="cls-1" x1="110.52" y1="21.89" x2="109.03" y2="22.77"/><polyline class="cls-1" points="104.35 21.89 102.83 22.78 102.83 23.75 104.35 24.62 105.9 24.63 107.43 23.72"/><line class="cls-1" x1="107.43" y1="20.1" x2="105.96" y2="20.96"/><line class="cls-1" x1="105.9" y1="24.63" x2="105.9" y2="27.25"/><line class="cls-1" x1="105.9" y1="25.44" x2="107.43" y2="26.39"/><polyline class="cls-1" points="102.83 23.75 102.83 27.31 104.29 28.2"/><line class="cls-1" x1="104.35" y1="24.62" x2="104.35" y2="28.2"/><line class="cls-1" x1="105.94" y1="20.48" x2="106.36" y2="20.72"/><line class="cls-1" x1="25.76" y1="70.75" x2="46.77" y2="82.87"/><line class="cls-1" x1="46.77" y1="85.27" x2="23.75" y2="71.87"/><path class="cls-1" d="M141.93,44.69,144.16,46c.52.35.58,1-.18,1.39l-78,45a2.86,2.86,0,0,1-2.74,0L60,90.52"/><path class="cls-1" d="M144.55,49.05a1,1,0,0,1-.57.72l-78,45a2.86,2.86,0,0,1-2.74,0L58,91.63"/><line class="cls-1" x1="144.55" y1="46.64" x2="144.55" y2="49.07"/><path class="cls-1" d="M4.16,58.43l-3.26-2c-.76-.51-1-1.06,0-1.69L4.16,53"/><path class="cls-1" d="M.25,55.62V58c0,.27.28.52.64.76l3.26,2"/><polyline class="cls-1" points="83.1 10.78 95.94 18.25 102.18 18.25 104.35 19.54"/><ellipse class="cls-1" cx="84.11" cy="61.22" rx="4.91" ry="2.75"/><path class="cls-1" d="M88.29,69A2,2,0,0,0,89,67.54"/><path class="cls-1" d="M80.64,69.49a7.35,7.35,0,0,0,3.47.8,7.86,7.86,0,0,0,2.67-.44"/><line class="cls-1" x1="79.2" y1="61.22" x2="79.2" y2="64.24"/><line class="cls-1" x1="89.02" y1="61.22" x2="89.02" y2="67.54"/><polyline class="cls-1" points="80.67 69.5 84.05 71.45 91.14 67.33 89.03 66.01"/><polyline class="cls-1" points="82.86 72.33 84.06 73.07 91.14 68.95 91.14 67.33"/><line class="cls-1" x1="84.05" y1="71.45" x2="84.05" y2="73.07"/><path class="cls-1" d="M72.84,68.41a7.64,7.64,0,0,0,2.92.54c2.71,0,4.91-1.23,4.91-2.75s-2.2-2.75-4.91-2.75c-2.51,0-4.58,1-4.88,2.41"/><path class="cls-1" d="M80,74a1.9,1.9,0,0,0,.64-1.36"/><path class="cls-1" d="M74,75.15a8.66,8.66,0,0,0,1.81.19A8.07,8.07,0,0,0,78.2,75"/><line class="cls-1" x1="80.67" y1="66.2" x2="80.67" y2="72.59"/><polyline class="cls-1" points="80.67 70.95 82.86 72.33 75.66 76.45 73.95 75.34"/><polyline class="cls-1" points="82.86 72.33 82.86 73.83 75.63 78.01 73.95 76.99"/><line class="cls-1" x1="75.66" y1="76.45" x2="75.66" y2="78.01"/><path class="cls-1" d="M83.71,73.82s4.57-2.68,4.58-2.71,2.86,1.62,2.86,1.62l-4.67,2.78Z"/><polyline class="cls-1" points="91.14 72.73 91.28 74.17 91.18 75.43 86.48 78.17 86.37 76.88 86.48 75.51"/><polygon class="cls-1" points="85.15 76.77 84.18 76.21 84.18 77.55 85.15 78.11 85.15 76.77"/><polyline class="cls-1" points="85.15 76.77 85.5 76.54 84.53 75.98 84.18 76.21"/><polyline class="cls-1" points="85.15 78.11 85.5 77.88 85.5 76.54"/><path class="cls-1" d="M84.18,76.84l-.47-.27-.16-1.23.16-1.52"/><path class="cls-1" d="M86.48,78.17l-1-.57"/><ellipse class="cls-1" cx="78.55" cy="81.58" rx="2.89" ry="1.59"/><path class="cls-1" d="M80.87,82.52a4.53,4.53,0,0,0-4.64,0"/><path class="cls-1" d="M104.35,20.89a3.74,3.74,0,0,0-2.51-.8c-1.6,0-2.89.71-2.89,1.58s1.29,1.59,2.89,1.59a4.49,4.49,0,0,0,1-.1"/><path class="cls-1" d="M103.62,22.32a4.41,4.41,0,0,0-1.78-.34,4,4,0,0,0-2.32.64"/><path class="cls-1" d="M125.76,23.35a4.32,4.32,0,0,1-1.61.3c-1.44,0-2.61-.62-2.61-1.38a1.19,1.19,0,0,1,.72-.94l-3-1.74L74,45.7l9.74,5.58,45.22-26.12Z"/><polyline class="cls-1" points="122.26 21.34 122.26 22.55 124.05 23.64"/><polyline class="cls-1" points="87.01 55.43 83.7 57.33 73.96 51.68 73.42 48.59 73.96 45.7"/><line class="cls-1" x1="123.36" y1="34.55" x2="122.51" y2="35.04"/><line class="cls-1" x1="126.58" y1="32.71" x2="125.67" y2="33.23"/><polyline class="cls-1" points="128.92 25.16 129.6 28.66 129.06 31.28 128.07 31.85"/><polyline class="cls-1" points="83.7 51.28 84.28 54.59 83.7 57.33"/><path class="cls-1" d="M125.44,34.58a9.41,9.41,0,0,0,.25-2.61,3.78,3.78,0,0,0-.76-.83l-2.09,1.28s.8.47.88.85a17.19,17.19,0,0,1-.27,2.45"/><path class="cls-1" d="M122.84,32.42v.37s.49.28.57.52a16.86,16.86,0,0,1-.2,2.5"/><path class="cls-1" d="M122.34,36.37a9.86,9.86,0,0,0,.25-2.61,3.88,3.88,0,0,0-.76-.84l-2.09,1.28s.8.47.88.85a19.15,19.15,0,0,1-.27,2.47"/><path class="cls-1" d="M119.74,34.2v.37s.49.29.57.52a17,17,0,0,1-.21,2.53"/><path class="cls-1" d="M119.24,38.16a9.94,9.94,0,0,0,.25-2.62,3.77,3.77,0,0,0-.77-.83L116.63,36s.8.47.89.86a19.11,19.11,0,0,1-.28,2.48"/><path class="cls-1" d="M116.63,36v.38s.5.28.58.52a17.31,17.31,0,0,1-.22,2.55"/><path class="cls-1" d="M116.15,40a9.79,9.79,0,0,0,.23-2.64,3.78,3.78,0,0,0-.76-.83l-2.09,1.28s.8.47.89.85a19.47,19.47,0,0,1-.28,2.5"/><path class="cls-1" d="M113.53,37.77v.37s.5.28.58.52a17.61,17.61,0,0,1-.22,2.57"/><path class="cls-1" d="M113.05,41.75a9.87,9.87,0,0,0,.23-2.65,3.78,3.78,0,0,0-.76-.83l-2.09,1.28s.8.47.88.85a18.34,18.34,0,0,1-.27,2.52"/><path class="cls-1" d="M110.43,39.55v.37s.5.28.57.52a16.62,16.62,0,0,1-.22,2.6"/><path class="cls-1" d="M110,43.55a10,10,0,0,0,.23-2.66,3.88,3.88,0,0,0-.76-.84l-2.09,1.28s.8.47.88.86a20,20,0,0,1-.28,2.53"/><path class="cls-1" d="M107.33,41.33v.37s.49.29.57.52a18.09,18.09,0,0,1-.23,2.62"/><path class="cls-1" d="M106.86,45.34a10.55,10.55,0,0,0,.22-2.67,3.77,3.77,0,0,0-.77-.83l-2.09,1.27s.8.47.89.86a20.39,20.39,0,0,1-.28,2.55"/><path class="cls-1" d="M104.22,43.11v.38s.5.28.58.52a18.38,18.38,0,0,1-.24,2.64"/><path class="cls-1" d="M103.76,47.14a10.73,10.73,0,0,0,.22-2.69,4,4,0,0,0-.77-.83l-2.09,1.28s.8.47.89.85a20.35,20.35,0,0,1-.29,2.56"/><path class="cls-1" d="M101.12,44.9v.37s.5.28.58.52a18.69,18.69,0,0,1-.24,2.66"/><path class="cls-1" d="M100.66,48.93a10.39,10.39,0,0,0,.21-2.69,3.88,3.88,0,0,0-.76-.84L98,46.68s.8.47.88.85a19,19,0,0,1-.28,2.58"/><path class="cls-1" d="M98,46.68v.37s.5.29.58.52a18.86,18.86,0,0,1-.25,2.69"/><path class="cls-1" d="M97.57,50.72a10.56,10.56,0,0,0,.2-2.7,3.78,3.78,0,0,0-.76-.83l-2.09,1.27s.8.47.88.86a19.14,19.14,0,0,1-.29,2.59"/><path class="cls-1" d="M94.92,48.46v.38s.49.28.57.52a19.16,19.16,0,0,1-.25,2.7"/><path class="cls-1" d="M94.47,52.52a11.17,11.17,0,0,0,.2-2.72A3.77,3.77,0,0,0,93.9,49l-2.09,1.28s.81.47.89.85a21.29,21.29,0,0,1-.29,2.61"/><path class="cls-1" d="M91.81,50.25v.37s.5.28.58.52a19.63,19.63,0,0,1-.25,2.73"/><path class="cls-1" d="M91.37,54.31a11.21,11.21,0,0,0,.2-2.72,4.14,4.14,0,0,0-.77-.84L88.71,52s.8.47.89.85a21.67,21.67,0,0,1-.29,2.63"/><path class="cls-1" d="M88.71,52v.37s.5.29.58.52A19.65,19.65,0,0,1,89,55.67"/><polyline class="cls-1" points="129.16 39.9 129.16 32.37 85.62 57.65 84.38 56.94"/><polyline class="cls-1" points="74.17 51.8 74.17 57.86 79.05 60.89"/><line class="cls-1" x1="85.62" y1="57.65" x2="85.62" y2="58.68"/><line class="cls-1" x1="89.02" y1="62.98" x2="129.16" y2="39.9"/><path class="cls-1" d="M127.87,33.12a9.08,9.08,0,0,0,.2-2.52,3.88,3.88,0,0,0-.76-.84l-1.25.78s.8.47.88.86a17,17,0,0,1-.27,2.44"/><path class="cls-1" d="M126.06,30.54v.37s.49.29.57.53a16.86,16.86,0,0,1-.2,2.5"/><path class="cls-1" d="M88.43,56a12.3,12.3,0,0,0,0-2.59,4,4,0,0,0-.77-.83l-1.25.78s.8.47.88.85,0,2.45,0,2.45"/><path class="cls-1" d="M86.4,53.38v.37s.49.28.57.52a22,22,0,0,1,0,2.61"/><line class="cls-1" x1="129.16" y1="32.37" x2="128.12" y2="31.85"/><line class="cls-1" x1="89.23" y1="54.16" x2="88.5" y2="54.57"/><line class="cls-1" x1="92.31" y1="52.39" x2="91.57" y2="52.81"/><line class="cls-1" x1="95.44" y1="50.59" x2="94.65" y2="51.04"/><line class="cls-1" x1="98.55" y1="48.8" x2="97.78" y2="49.24"/><line class="cls-1" x1="101.65" y1="47.02" x2="100.89" y2="47.46"/><line class="cls-1" x1="104.7" y1="45.27" x2="103.95" y2="45.7"/><line class="cls-1" x1="107.86" y1="43.46" x2="107.06" y2="43.91"/><line class="cls-1" x1="110.92" y1="41.7" x2="110.15" y2="42.14"/><line class="cls-1" x1="114.02" y1="39.92" x2="113.27" y2="40.35"/><line class="cls-1" x1="117.15" y1="38.12" x2="116.37" y2="38.57"/><line class="cls-1" x1="120.27" y1="36.33" x2="119.49" y2="36.78"/><polyline class="cls-1" points="62.17 65.5 59.55 63.84 62.91 61.87 65.69 63.61"/><polyline class="cls-1" points="59.55 63.84 59.55 65.34 60.89 66.22"/><line class="cls-1" x1="62.49" y1="59.49" x2="62.49" y2="58.83"/><path class="cls-1" d="M57.07,54.61A3.91,3.91,0,0,1,59,54.17c1.45,0,2.62.64,2.62,1.42a1.09,1.09,0,0,1-.53.86L54,60.57l-.29.14a4.24,4.24,0,0,1-1.54.27c-1.44,0-2.61-.64-2.61-1.42a1.25,1.25,0,0,1,.77-1h0l6.76-3.94Z"/><path class="cls-1" d="M61.58,57.23a1.87,1.87,0,0,1,0,3.2l-.08,0-7.1,4.15-.34.15a5.16,5.16,0,0,1-1.92.36c-2,0-3.52-1-3.52-2.34a2,2,0,0,1,.91-1.6"/><path class="cls-1" d="M62.49,59.49a2,2,0,0,1-.9,1.6l-.08,0-7.1,4.14-.34.16a5.15,5.15,0,0,1-1.92.35c-2,0-3.52-1-3.52-2.33"/><path class="cls-1" d="M61.57,59a1.15,1.15,0,0,1-.52.74L54,63.81l-.29.14a4.24,4.24,0,0,1-1.54.27c-1.44,0-2.61-.64-2.61-1.43"/><line class="cls-1" x1="49.54" y1="62.79" x2="49.54" y2="59.56"/><line class="cls-1" x1="61.58" y1="55.59" x2="61.58" y2="58.96"/><line class="cls-1" x1="48.63" y1="63.46" x2="48.63" y2="62.79"/><polygon class="cls-1" points="52.95 53.48 46.65 49.93 40.35 53.48 46.65 57.02 52.95 53.48"/><polyline class="cls-1" points="52.95 53.48 52.95 54.69 46.65 58.24 40.35 54.69 40.35 53.48"/><line class="cls-1" x1="46.65" y1="57.02" x2="46.65" y2="58.24"/><ellipse class="cls-1" cx="47" cy="56.13" rx="0.58" ry="0.37"/><polygon class="cls-1" points="44.75 67.91 41.28 66.02 39.65 66.88 43.04 68.79 44.75 67.91"/><polyline class="cls-1" points="44.75 67.91 44.75 69.13 43.04 70.01 39.65 68.09 39.65 66.88"/><line class="cls-1" x1="43.04" y1="68.79" x2="43.04" y2="70.01"/><line class="cls-1" x1="37.94" y1="73.29" x2="37.94" y2="74.5"/><polygon class="cls-1" points="44.46 62.27 43.34 61.59 41.38 62.72 42.42 63.42 44.46 62.27"/><polyline class="cls-1" points="44.46 62.27 44.46 63.48 42.42 64.64 41.38 63.94 41.38 62.72"/><line class="cls-1" x1="42.42" y1="63.42" x2="42.42" y2="64.64"/><polygon class="cls-1" points="49.49 59.79 48.38 59.11 46.42 60.24 47.46 60.94 49.49 59.79"/><polyline class="cls-1" points="49.49 59.79 49.49 61 47.46 62.15 46.42 61.45 46.42 60.24"/><line class="cls-1" x1="47.46" y1="60.94" x2="47.46" y2="62.15"/><path class="cls-1" d="M39.47,73.22a.82.82,0,0,1,.62-.24,1,1,0,0,1,.41.09l1.32-.73V71.13"/><path class="cls-1" d="M39.39,72.22c0-.25.31-.45.7-.45a.91.91,0,0,1,.41.09l1.32-.73-5.46-3-1.43.81a.34.34,0,0,1,0,.17c0,.25-.31.45-.7.45a.93.93,0,0,1-.34-.06l-1.38.77,5.38,3.07,1.53-.86A.32.32,0,0,1,39.39,72.22Z"/><polyline class="cls-1" points="32.56 70.22 32.56 71.44 37.94 74.5 39.48 73.64 39.47 73.65 39.47 72.44"/><line class="cls-1" x1="40.51" y1="73.07" x2="40.51" y2="71.86"/><polygon class="cls-2" points="27.18 33.4 25.4 32.35 23.67 33.36 25.45 34.4 27.18 33.4"/><polyline class="cls-2" points="24.37 33.73 25.39 33.12 26.53 33.77"/><line class="cls-2" x1="25.39" y1="33.12" x2="25.39" y2="32.35"/><polygon class="cls-2" points="30.31 31.61 28.52 30.56 26.8 31.57 28.57 32.62 30.31 31.61"/><polyline class="cls-2" points="27.49 31.94 28.52 31.34 29.66 31.99"/><line class="cls-2" x1="28.52" y1="31.34" x2="28.52" y2="30.56"/><polygon class="cls-2" points="33.43 29.82 31.65 28.77 29.93 29.78 31.7 30.83 33.43 29.82"/><polyline class="cls-2" points="30.62 30.15 31.64 29.55 32.78 30.2"/><line class="cls-2" x1="31.64" y1="29.55" x2="31.64" y2="28.77"/><polygon class="cls-2" points="36.56 28.04 34.78 26.99 33.05 28 34.83 29.04 36.56 28.04"/><polyline class="cls-2" points="33.74 28.37 34.77 27.76 35.91 28.41"/><line class="cls-2" x1="34.77" y1="27.76" x2="34.77" y2="26.99"/><polygon class="cls-2" points="39.68 26.25 37.9 25.2 36.18 26.21 37.95 27.26 39.68 26.25"/><polyline class="cls-2" points="36.87 26.58 37.89 25.98 39.04 26.63"/><line class="cls-2" x1="37.89" y1="25.98" x2="37.89" y2="25.2"/><polygon class="cls-2" points="42.81 24.46 41.03 23.41 39.3 24.42 41.08 25.47 42.81 24.46"/><polyline class="cls-2" points="39.99 24.79 41.02 24.19 42.16 24.84"/><line class="cls-2" x1="41.02" y1="24.19" x2="41.02" y2="23.41"/><polygon class="cls-2" points="45.94 22.68 44.15 21.63 42.43 22.64 44.2 23.68 45.94 22.68"/><polyline class="cls-2" points="43.12 23.01 44.14 22.4 45.29 23.05"/><line class="cls-2" x1="44.14" y1="22.4" x2="44.14" y2="21.63"/><polygon class="cls-2" points="49.06 20.89 47.28 19.84 45.55 20.85 47.33 21.9 49.06 20.89"/><polyline class="cls-2" points="46.25 21.22 47.27 20.62 48.41 21.27"/><line class="cls-2" x1="47.27" y1="20.62" x2="47.27" y2="19.84"/><polygon class="cls-2" points="52.19 19.11 50.41 18.05 48.68 19.06 50.45 20.11 52.19 19.11"/><polyline class="cls-2" points="49.37 19.43 50.4 18.83 51.54 19.48"/><line class="cls-2" x1="50.4" y1="18.83" x2="50.4" y2="18.05"/><polygon class="cls-2" points="55.31 17.32 53.53 16.27 51.81 17.28 53.58 18.32 55.31 17.32"/><polyline class="cls-2" points="52.5 17.65 53.52 17.04 54.66 17.69"/><line class="cls-2" x1="53.52" y1="17.04" x2="53.52" y2="16.27"/><polygon class="cls-2" points="60.17 14.52 58.39 13.46 56.66 14.47 58.44 15.52 60.17 14.52"/><polyline class="cls-2" points="57.36 14.85 58.38 14.24 59.52 14.89"/><line class="cls-2" x1="58.38" y1="14.24" x2="58.38" y2="13.46"/><polygon class="cls-2" points="63.36 12.7 61.58 11.64 59.85 12.65 61.63 13.7 63.36 12.7"/><polyline class="cls-2" points="60.54 13.02 61.57 12.42 62.71 13.07"/><line class="cls-2" x1="61.57" y1="12.42" x2="61.57" y2="11.64"/><polygon class="cls-2" points="66.44 10.95 64.65 9.9 62.93 10.91 64.7 11.95 66.44 10.95"/><polyline class="cls-2" points="63.62 11.28 64.64 10.67 65.79 11.32"/><line class="cls-2" x1="64.64" y1="10.67" x2="64.64" y2="9.9"/><polygon class="cls-2" points="69.54 9.13 67.76 8.08 66.03 9.09 67.81 10.13 69.54 9.13"/><polyline class="cls-2" points="66.73 9.46 67.75 8.85 68.89 9.5"/><line class="cls-2" x1="67.75" y1="8.85" x2="67.75" y2="8.08"/><polygon class="cls-2" points="72.61 7.35 70.82 6.3 69.1 7.31 70.87 8.36 72.61 7.35"/><polyline class="cls-2" points="69.79 7.68 70.81 7.08 71.96 7.73"/><line class="cls-2" x1="70.81" y1="7.08" x2="70.81" y2="6.3"/><polygon class="cls-2" points="75.74 5.55 73.96 4.49 72.23 5.5 74.01 6.55 75.74 5.55"/><polyline class="cls-2" points="72.93 5.87 73.95 5.27 75.09 5.92"/><line class="cls-2" x1="73.95" y1="5.27" x2="73.95" y2="4.49"/><polygon class="cls-2" points="78.85 3.77 77.06 2.72 75.34 3.73 77.11 4.78 78.85 3.77"/><polyline class="cls-2" points="76.03 4.1 77.06 3.5 78.2 4.15"/><line class="cls-2" x1="77.06" y1="3.5" x2="77.06" y2="2.72"/><polygon class="cls-2" points="81.94 1.97 80.15 0.91 78.43 1.92 80.2 2.97 81.94 1.97"/><polyline class="cls-2" points="79.12 2.29 80.14 1.69 81.29 2.34"/><line class="cls-2" x1="80.14" y1="1.69" x2="80.14" y2="0.91"/><polygon class="cls-2" points="97.42 61.17 95.64 60.12 93.91 61.13 95.68 62.17 97.42 61.17"/><polyline class="cls-2" points="94.6 61.5 95.63 60.9 96.77 61.55"/><line class="cls-2" x1="95.63" y1="60.9" x2="95.63" y2="60.12"/><polygon class="cls-2" points="100.61 59.35 98.82 58.3 97.1 59.31 98.87 60.35 100.61 59.35"/><polyline class="cls-2" points="97.79 59.68 98.81 59.08 99.96 59.73"/><line class="cls-2" x1="98.81" y1="59.07" x2="98.81" y2="58.3"/><polygon class="cls-2" points="103.68 57.6 101.9 56.55 100.17 57.56 101.95 58.61 103.68 57.6"/><polyline class="cls-2" points="100.87 57.93 101.89 57.33 103.03 57.98"/><line class="cls-2" x1="101.89" y1="57.33" x2="101.89" y2="56.55"/><polygon class="cls-2" points="106.79 55.78 105 54.73 103.28 55.74 105.05 56.79 106.79 55.78"/><polyline class="cls-2" points="103.97 56.11 105 55.51 106.14 56.16"/><line class="cls-2" x1="105" y1="55.51" x2="105" y2="54.73"/><polygon class="cls-2" points="109.85 54.01 108.07 52.95 106.34 53.96 108.12 55.01 109.85 54.01"/><polyline class="cls-2" points="107.04 54.33 108.06 53.73 109.2 54.38"/><line class="cls-2" x1="108.06" y1="53.73" x2="108.06" y2="52.95"/><polygon class="cls-2" points="112.99 52.2 111.21 51.15 109.48 52.16 111.25 53.2 112.99 52.2"/><polyline class="cls-2" points="110.17 52.53 111.2 51.92 112.34 52.58"/><line class="cls-2" x1="111.2" y1="51.93" x2="111.2" y2="51.15"/><polygon class="cls-2" points="116.09 50.43 114.31 49.38 112.59 50.38 114.36 51.43 116.09 50.43"/><polyline class="cls-2" points="113.28 50.76 114.3 50.15 115.44 50.8"/><line class="cls-2" x1="114.3" y1="50.15" x2="114.3" y2="49.38"/><polygon class="cls-2" points="119.18 48.62 117.4 47.57 115.67 48.58 117.45 49.62 119.18 48.62"/><polyline class="cls-2" points="116.37 48.95 117.39 48.34 118.53 48.99"/><line class="cls-2" x1="117.39" y1="48.34" x2="117.39" y2="47.57"/><polygon class="cls-2" points="125.2 44.94 123.41 43.89 121.69 44.9 123.46 45.95 125.2 44.94"/><polyline class="cls-2" points="122.38 45.27 123.4 44.67 124.55 45.32"/><line class="cls-2" x1="123.4" y1="44.67" x2="123.4" y2="43.89"/><polygon class="cls-2" points="128.38 43.12 126.6 42.07 124.88 43.08 126.65 44.13 128.38 43.12"/><polyline class="cls-2" points="125.57 43.45 126.59 42.85 127.73 43.5"/><line class="cls-2" x1="126.59" y1="42.85" x2="126.59" y2="42.07"/><polygon class="cls-2" points="131.46 41.38 129.68 40.32 127.95 41.33 129.73 42.38 131.46 41.38"/><polyline class="cls-2" points="128.64 41.7 129.67 41.1 130.81 41.75"/><line class="cls-2" x1="129.67" y1="41.1" x2="129.67" y2="40.32"/><polygon class="cls-2" points="134.57 39.55 132.78 38.5 131.06 39.51 132.83 40.56 134.57 39.55"/><polyline class="cls-2" points="131.75 39.88 132.77 39.28 133.92 39.93"/><line class="cls-2" x1="132.77" y1="39.28" x2="132.77" y2="38.5"/><polygon class="cls-2" points="137.63 37.78 135.85 36.73 134.12 37.74 135.9 38.78 137.63 37.78"/><polyline class="cls-2" points="134.81 38.11 135.84 37.5 136.98 38.16"/><line class="cls-2" x1="135.84" y1="37.5" x2="135.84" y2="36.73"/><polygon class="cls-2" points="140.77 35.97 138.99 34.92 137.26 35.93 139.03 36.98 140.77 35.97"/><polyline class="cls-2" points="137.95 36.3 138.97 35.7 140.12 36.35"/><line class="cls-2" x1="138.98" y1="35.7" x2="138.98" y2="34.92"/></g></g></svg>