<svg xmlns="http://www.w3.org/2000/svg" viewBox="0 0 136.01 136.01"><defs><style>.cls-1,.cls-2,.cls-3{fill:none;stroke:#000333;stroke-miterlimit:10;}.cls-1{stroke-width:0.5px;}.cls-2{stroke-width:0.25px;}.cls-4{fill:#000333;}</style></defs><g id="Layer_2" data-name="Layer 2"><g id="HOME"><path class="cls-1" d="M54.28,43a4.2,4.2,0,0,0-.77,2.36c0,4,6.46,7.27,14.42,7.27s14.43-3.25,14.43-7.27A4.14,4.14,0,0,0,81.58,43"/><ellipse class="cls-1" cx="67.93" cy="36.53" rx="13.65" ry="6.83"/><line class="cls-1" x1="54.28" y1="36.53" x2="54.28" y2="47.83"/><line class="cls-1" x1="81.58" y1="36.53" x2="81.58" y2="47.71"/><ellipse class="cls-1" cx="91.59" cy="43.28" rx="3.38" ry="1.77"/><line class="cls-1" x1="88.21" y1="43.28" x2="88.21" y2="44.3"/><line class="cls-1" x1="94.97" y1="43.28" x2="94.97" y2="44.26"/><path class="cls-1" d="M88.21,44.28c0,1,1.51,1.77,3.38,1.77S95,45.26,95,44.28"/><ellipse class="cls-1" cx="44.52" cy="45.33" rx="3.38" ry="1.77"/><line class="cls-1" x1="41.14" y1="45.33" x2="41.14" y2="46.35"/><line class="cls-1" x1="47.89" y1="45.33" x2="47.89" y2="46.31"/><path class="cls-1" d="M41.14,46.33c0,1,1.51,1.78,3.38,1.78s3.37-.8,3.37-1.78"/><ellipse class="cls-1" cx="70.13" cy="56.03" rx="3.38" ry="1.77"/><line class="cls-1" x1="66.76" y1="56.03" x2="66.76" y2="57.04"/><line class="cls-1" x1="73.51" y1="56.03" x2="73.51" y2="57.01"/><path class="cls-1" d="M66.76,57c0,1,1.51,1.77,3.37,1.77S73.51,58,73.51,57"/><path class="cls-1" d="M41.14,45.44s-2.07,1.3,1,2.49,23.68,9.86,24.59,10.25c1.63.69,3.76,1.72,6.9-.27,3.77-2.38,20.81-12.34,21-12.44s1.65-1.07.35-2.06"/><path class="cls-2" d="M40.46,48.33c0,.45.35,1,1.71,1.52C45.26,51,65.85,59.71,66.76,60.1c1.63.69,3.76,1.72,6.9-.26,3.77-2.39,20.81-12.35,21-12.44s.89-.58.87-1.23"/><line class="cls-1" x1="95.49" y1="61.12" x2="95.49" y2="44.3"/><path class="cls-1" d="M77.15,74.44C82,71.52,89.77,67,93.06,65.05"/><path class="cls-1" d="M40.46,46.5V65.07c0,.44.35,1,1.71,1.51,3.09,1.2,23.68,9.87,24.59,10.25,1.57.67,3.62,1.66,6.58-.07"/><path class="cls-1" d="M95.23,61a3.45,3.45,0,0,1,2,3c.24,2.4.72,7.45.72,7.45a10,10,0,0,0,.49,1.77c.28.66,1.12,2.42.86,3.69s-1.41,2.32-1.42,3.85-.08,4.18-.08,4.45,0,.26-.49.51-1.15.67-1.37.77-.3.17-.42.14-.3,0-.33-.43-.32-3.77-.34-4.66a3,3,0,0,1,.76-2.11c.58-.85.17-2.41-.13-3.07a11.85,11.85,0,0,1-1.11-2.8c-.12-.91-.73-5.61-.9-6.88s-.55-2.61-1.37-2.88c-.18-.12-.1-.78-.1-.78Z"/><path class="cls-1" d="M75.51,72.71a3.43,3.43,0,0,1,2,3c.24,2.4.72,7.45.72,7.45A10,10,0,0,0,78.68,85c.28.66,1.12,2.42.86,3.69S78.13,91,78.12,92.48s-.07,4.18-.07,4.46,0,.25-.5.51-1.15.67-1.37.77-.3.17-.42.14-.3,0-.33-.43-.32-3.77-.34-4.66a3.08,3.08,0,0,1,.76-2.11c.58-.85.17-2.41-.13-3.08a11.6,11.6,0,0,1-1.11-2.79c-.12-.91-.73-5.61-.9-6.88s-.55-2.61-1.37-2.89c-.18-.11-.1-.77-.1-.77Z"/><path class="cls-1" d="M75.86,98.37c0-.55-.33-3.94-.35-4.86a3.17,3.17,0,0,1,.8-2.2c.6-.9.18-2.83-.14-3.53A12.44,12.44,0,0,1,75,84.85c-.13-.95-.73-5.58-.94-6.91-.28-1.76-.61-2.51-1.83-3.19"/><path class="cls-1" d="M95.58,86.65c0-.55-.33-3.94-.35-4.85A3.16,3.16,0,0,1,96,79.59c.61-.89.19-2.83-.13-3.53a11.63,11.63,0,0,1-1.16-2.93c-.13-.95-.74-5.58-1-6.91-.27-1.76-.6-2.51-1.82-3.19"/><line class="cls-1" x1="44.35" y1="43.56" x2="54.28" y2="37.65"/><line class="cls-1" x1="81.58" y1="37.69" x2="90.79" y2="41.55"/><path class="cls-1" d="M40.46,61.28a1.25,1.25,0,0,0-1.33.63c-.4.81-.34,1.68-.68,4.49s-.36,3.73-.87,4.47a3.76,3.76,0,0,0-.87,2.52,6.17,6.17,0,0,0,.79,2.72,4.24,4.24,0,0,1,.65,2.37c0,1.06.09,3.38.07,3.68s0,.45.21.51.2.1.58-.09,1.37-.73,1.56-.87.25-.13.27-.49.3-2.67.33-4.33a6.3,6.3,0,0,0-.71-3.12,3.59,3.59,0,0,1-.25-2.46c.41-1.36,1.31-1.86,1.46-3.08s.16-1.79.16-1.79"/><path class="cls-1" d="M40.46,62a.72.72,0,0,0-.86.46c-.39.78-.33,1.46-.67,4.18s-.36,3.61-.86,4.33a3.54,3.54,0,0,0-.86,2.43A5.84,5.84,0,0,0,38,76a4.1,4.1,0,0,1,.64,2.3c0,1,0,4.06,0,4.35"/><rect class="cls-3" x="0.5" y="0.5" width="135.01" height="135.01" rx="12"/><path class="cls-4" d="M15.34,125.46H11.66v-8.39h3.27a4.57,4.57,0,0,1,1.47.21,2,2,0,0,1,.92.55,2.15,2.15,0,0,1,.57,1.46,1.72,1.72,0,0,1-.62,1.46A2.89,2.89,0,0,1,17,121l-.3.13a2.23,2.23,0,0,1,1.24.71,1.91,1.91,0,0,1,.46,1.32,2.25,2.25,0,0,1-.6,1.55A3.15,3.15,0,0,1,15.34,125.46Zm-2.26-4.91h1.8c1,0,1.54-.35,1.54-1a1,1,0,0,0-.38-.87,2,2,0,0,0-1.15-.26H13.08Zm0,3.6H15.3a2.38,2.38,0,0,0,1.19-.24,1,1,0,0,0,.42-.93c0-.75-.6-1.12-1.79-1.12h-2Z"/><path class="cls-4" d="M24.41,122.53v-3.45h1.34v6.38H24.41V124.3a2.46,2.46,0,0,1-2.13,1.26,2.35,2.35,0,0,1-1.74-.66,2.56,2.56,0,0,1-.67-1.91v-3.91h1.35v3.5c0,1.17.48,1.76,1.46,1.76a1.74,1.74,0,0,0,1.21-.46A1.71,1.71,0,0,0,24.41,122.53Z"/><path class="cls-4" d="M29.35,120.16v3.24a1,1,0,0,0,.24.72.86.86,0,0,0,.67.27,1.14,1.14,0,0,0,.83-.42l.55,1a2.3,2.3,0,0,1-1.56.64,2,2,0,0,1-1.47-.6,2.14,2.14,0,0,1-.6-1.6v-3.2H27.2v-1.08H28v-2h1.34v2H31v1.08Z"/><path class="cls-4" d="M34.37,120.16v3.24a1,1,0,0,0,.24.72.85.85,0,0,0,.67.27,1.15,1.15,0,0,0,.83-.42l.55,1a2.31,2.31,0,0,1-1.57.64,2,2,0,0,1-1.46-.6,2.15,2.15,0,0,1-.61-1.6v-3.2h-.8v-1.08H33v-2h1.35v2h1.68v1.08Z"/><path class="cls-4" d="M43,124.6a3.48,3.48,0,0,1-4.8,0,3.15,3.15,0,0,1-1-2.33,3.18,3.18,0,0,1,1-2.34,3.51,3.51,0,0,1,4.8,0,3.18,3.18,0,0,1,1,2.34A3.15,3.15,0,0,1,43,124.6Zm-3.85-.83a2.08,2.08,0,0,0,2.9,0,2,2,0,0,0,.57-1.5,2.07,2.07,0,0,0-.57-1.51,2.1,2.1,0,0,0-2.9,0,2.07,2.07,0,0,0-.57,1.51A2,2,0,0,0,39.17,123.77Z"/><path class="cls-4" d="M46.85,122v3.46H45.5v-6.38h1.35v1.16A2.43,2.43,0,0,1,49,119a2.39,2.39,0,0,1,1.75.66,2.59,2.59,0,0,1,.66,1.91v3.91H50V122c0-1.18-.49-1.77-1.46-1.77a1.81,1.81,0,0,0-1.22.46A1.73,1.73,0,0,0,46.85,122Z"/></g></g></svg>