<svg xmlns="http://www.w3.org/2000/svg" viewBox="0 0 63.1 69.16"><defs><style>.cls-1,.cls-2{fill:none;stroke:#000;stroke-miterlimit:10;}.cls-1{stroke-width:0.5px;}.cls-2{stroke-width:0.25px;}</style></defs><g id="Layer_2" data-name="Layer 2"><g id="Layer_1-2" data-name="Layer 1"><g id="Button"><path class="cls-1" d="M17.83,13.55a4.19,4.19,0,0,0-.78,2.36c0,4,6.46,7.27,14.43,7.27S45.9,19.92,45.9,15.91a4.17,4.17,0,0,0-.77-2.36"/><ellipse class="cls-1" cx="31.48" cy="7.08" rx="13.65" ry="6.83"/><line class="cls-1" x1="17.83" y1="7.08" x2="17.83" y2="18.38"/><line class="cls-1" x1="45.13" y1="7.08" x2="45.13" y2="18.26"/><ellipse class="cls-1" cx="55.13" cy="13.83" rx="3.38" ry="1.77"/><line class="cls-1" x1="51.76" y1="13.83" x2="51.76" y2="14.84"/><line class="cls-1" x1="58.51" y1="13.83" x2="58.51" y2="14.81"/><path class="cls-1" d="M51.76,14.83c0,1,1.51,1.77,3.37,1.77s3.38-.79,3.38-1.77"/><ellipse class="cls-1" cx="8.06" cy="15.88" rx="3.38" ry="1.77"/><line class="cls-1" x1="4.68" y1="15.88" x2="4.68" y2="16.89"/><line class="cls-1" x1="11.44" y1="15.88" x2="11.44" y2="16.86"/><path class="cls-1" d="M4.68,16.88c0,1,1.52,1.77,3.38,1.77s3.38-.79,3.38-1.77"/><ellipse class="cls-1" cx="33.68" cy="26.58" rx="3.38" ry="1.77"/><line class="cls-1" x1="30.3" y1="26.58" x2="30.3" y2="27.59"/><line class="cls-1" x1="37.06" y1="26.58" x2="37.06" y2="27.56"/><path class="cls-1" d="M30.3,27.58c0,1,1.51,1.77,3.38,1.77s3.38-.79,3.38-1.77"/><path class="cls-1" d="M4.68,16s-2.06,1.3,1,2.5S29.4,28.34,30.3,28.72c1.64.69,3.77,1.73,6.91-.26C41,26.07,58,16.12,58.16,16S59.82,15,58.51,14"/><path class="cls-2" d="M4,18.88c0,.45.34,1,1.7,1.52C8.8,21.59,29.4,30.26,30.3,30.65c1.64.68,3.77,1.72,6.91-.27C41,28,58,18,58.16,17.94s.89-.58.88-1.22"/><line class="cls-1" x1="59.04" y1="31.67" x2="59.04" y2="14.84"/><path class="cls-1" d="M40.7,45c4.86-2.92,12.61-7.46,15.9-9.39"/><path class="cls-1" d="M4,17.05V35.62c0,.44.34,1,1.7,1.51C8.8,38.33,29.4,47,30.3,47.38c1.58.67,3.62,1.66,6.59-.07"/><path class="cls-1" d="M58.78,31.54a3.45,3.45,0,0,1,2,3C61,37,61.45,42,61.45,42a10,10,0,0,0,.49,1.77c.29.66,1.12,2.42.86,3.69s-1.4,2.32-1.42,3.84-.07,4.18-.07,4.46,0,.25-.49.51-1.15.67-1.38.77-.29.17-.42.14-.29,0-.33-.43-.31-3.77-.33-4.66A3,3,0,0,1,59.12,50c.57-.85.17-2.41-.13-3.08a11.6,11.6,0,0,1-1.11-2.79c-.12-.91-.73-5.61-.9-6.88s-.55-2.61-1.38-2.89c-.18-.11-.1-.77-.1-.77Z"/><path class="cls-1" d="M39.06,43.26a3.45,3.45,0,0,1,2,3c.24,2.39.72,7.45.72,7.45a10.54,10.54,0,0,0,.48,1.76c.29.66,1.12,2.43.87,3.69S41.68,61.51,41.66,63s-.07,4.18-.07,4.45,0,.26-.49.52-1.15.67-1.38.77-.29.17-.41.14-.3,0-.33-.43-.32-3.77-.34-4.66a3,3,0,0,1,.76-2.11c.57-.85.17-2.42-.13-3.08a11.6,11.6,0,0,1-1.11-2.79c-.12-.91-.73-5.61-.9-6.88s-.55-2.62-1.37-2.89c-.18-.11-.11-.77-.11-.77Z"/><path class="cls-1" d="M39.41,68.91c0-.54-.33-3.93-.35-4.85a3.19,3.19,0,0,1,.79-2.21c.61-.89.18-2.83-.13-3.52a11.63,11.63,0,0,1-1.16-2.93c-.13-.95-.74-5.59-1-6.92-.27-1.75-.6-2.5-1.83-3.18"/><path class="cls-1" d="M59.13,57.2c-.05-.55-.33-3.94-.35-4.86a3.15,3.15,0,0,1,.79-2.2c.61-.9.18-2.83-.13-3.53a12,12,0,0,1-1.17-2.93c-.12-1-.73-5.58-.94-6.91-.27-1.76-.6-2.51-1.83-3.19"/><line class="cls-1" x1="7.9" y1="14.1" x2="17.83" y2="8.19"/><line class="cls-1" x1="45.13" y1="8.23" x2="54.34" y2="12.1"/><path class="cls-1" d="M4,31.83a1.25,1.25,0,0,0-1.33.63c-.4.81-.34,1.67-.69,4.49s-.36,3.73-.86,4.47a3.71,3.71,0,0,0-.87,2.52,6.25,6.25,0,0,0,.79,2.72A4.24,4.24,0,0,1,1.7,49c0,1.06.08,3.38.07,3.68s0,.45.21.51.2.1.57-.1,1.38-.73,1.56-.86.25-.13.28-.49.3-2.67.32-4.33A6.21,6.21,0,0,0,4,44.32a3.65,3.65,0,0,1-.26-2.46C4.16,40.5,5.07,40,5.22,38.78S5.37,37,5.37,37"/><path class="cls-1" d="M4,32.56a.72.72,0,0,0-.86.46c-.4.78-.33,1.46-.68,4.18s-.35,3.6-.86,4.32A3.63,3.63,0,0,0,.75,44a6,6,0,0,0,.79,2.63,4.06,4.06,0,0,1,.64,2.29c0,1,0,4.07,0,4.36"/></g></g></g></svg>