<svg xmlns="http://www.w3.org/2000/svg" viewBox="0 0 136.01 136.01"><defs><style>.cls-1,.cls-2{fill:none;stroke:#000333;stroke-miterlimit:10;}.cls-2{stroke-width:0.5px;}.cls-3{fill:#000333;}</style></defs><g id="Layer_2" data-name="Layer 2"><g id="HOME"><rect class="cls-1" x="0.5" y="0.5" width="135.01" height="135.01" rx="12"/><ellipse class="cls-2" cx="68" cy="45.41" rx="3.92" ry="1.96"/><ellipse class="cls-2" cx="68" cy="45.41" rx="27.09" ry="11.25"/><path class="cls-2" d="M40.91,68.44C40.91,74.65,53,79.69,68,79.69s27.1-5,27.1-11.25"/><line class="cls-2" x1="40.91" y1="68.44" x2="40.91" y2="45.41"/><line class="cls-2" x1="95.1" y1="68.44" x2="95.1" y2="45.41"/><path class="cls-2" d="M51.61,77.39s.55,14.16.68,15S52,93.85,53,93.85s1.73-.18,1.67-1.91S54.15,81.55,54,78.08"/><path class="cls-2" d="M82.05,78.06s0,6.59,0,10.2-.37,4.43.36,4.74,2.14-.24,2.14-1.12V77.35"/><path class="cls-3" d="M15.34,125.46H11.66v-8.39h3.27a4.57,4.57,0,0,1,1.47.21,2,2,0,0,1,.92.55,2.15,2.15,0,0,1,.57,1.46,1.72,1.72,0,0,1-.62,1.46A2.89,2.89,0,0,1,17,121l-.3.13a2.23,2.23,0,0,1,1.24.71,1.91,1.91,0,0,1,.46,1.32,2.25,2.25,0,0,1-.6,1.55A3.15,3.15,0,0,1,15.34,125.46Zm-2.26-4.91h1.8c1,0,1.54-.35,1.54-1a1,1,0,0,0-.38-.87,2,2,0,0,0-1.15-.26H13.08Zm0,3.6H15.3a2.38,2.38,0,0,0,1.19-.24,1,1,0,0,0,.42-.93c0-.75-.6-1.12-1.79-1.12h-2Z"/><path class="cls-3" d="M24.41,122.53v-3.45h1.34v6.38H24.41V124.3a2.46,2.46,0,0,1-2.13,1.26,2.35,2.35,0,0,1-1.74-.66,2.56,2.56,0,0,1-.67-1.91v-3.91h1.35v3.5c0,1.17.48,1.76,1.46,1.76a1.74,1.74,0,0,0,1.21-.46A1.71,1.71,0,0,0,24.41,122.53Z"/><path class="cls-3" d="M27.49,120.25V119.1h5v1.21l-3.58,4h3.78v1.16H27.25v-1.31l3.49-3.9Z"/><path class="cls-3" d="M34,120.25V119.1h5v1.21l-3.58,4h3.78v1.16H33.74v-1.31l3.5-3.9Z"/><path class="cls-3" d="M46.62,122.86h-5a1.46,1.46,0,0,0,.63,1.12,2.5,2.5,0,0,0,3.17-.33l.77.84a3.59,3.59,0,0,1-2.69,1.07,3.19,3.19,0,0,1-2.29-.9,3.49,3.49,0,0,1,0-4.79,3.22,3.22,0,0,1,2.26-.89,3.31,3.31,0,0,1,2.22.78,2.75,2.75,0,0,1,.91,2.17Zm-5-1.06h3.65a1.53,1.53,0,0,0-.5-1.24,1.89,1.89,0,0,0-1.24-.43,2.14,2.14,0,0,0-1.33.45A1.46,1.46,0,0,0,41.62,121.8Z"/><path class="cls-3" d="M51.44,120.34a1.79,1.79,0,0,0-1.5.64,2.83,2.83,0,0,0-.5,1.74v2.74H48.1v-6.38h1.34v1.28a2.77,2.77,0,0,1,.88-1,2.12,2.12,0,0,1,1.18-.4l0,1.36Z"/></g></g></svg>