<svg xmlns="http://www.w3.org/2000/svg" viewBox="0 0 54.69 60.2"><defs><style>.cls-1{fill:none;stroke:#000;stroke-miterlimit:10;stroke-width:0.5px;}</style></defs><g id="Layer_2" data-name="Layer 2"><g id="Layer_1-2" data-name="Layer 1"><ellipse class="cls-1" cx="27.34" cy="11.5" rx="3.92" ry="1.96"/><ellipse class="cls-1" cx="27.34" cy="11.5" rx="27.09" ry="11.25"/><path class="cls-1" d="M.25,34.53c0,6.21,12.13,11.25,27.09,11.25s27.1-5,27.1-11.25"/><line class="cls-1" x1="0.25" y1="34.53" x2="0.25" y2="11.5"/><line class="cls-1" x1="54.44" y1="34.53" x2="54.44" y2="11.5"/><path class="cls-1" d="M11,43.49s.55,14.15.68,14.94S11.36,60,12.35,60,14.08,59.77,14,58s-.53-10.38-.64-13.86"/><path class="cls-1" d="M41.39,44.15s0,6.6,0,10.2-.37,4.44.35,4.74,2.15-.24,2.15-1.12V43.44"/></g></g></svg>