<?xml version="1.0" encoding="utf-8"?>
<!-- Generator: Adobe Illustrator 25.0.1, SVG Export Plug-In . SVG Version: 6.00 Build 0)  -->
<svg version="1.1" id="Layer_1" xmlns="http://www.w3.org/2000/svg" xmlns:xlink="http://www.w3.org/1999/xlink" x="0px" y="0px"
	 viewBox="0 0 298.1 211" style="enable-background:new 0 0 298.1 211;" xml:space="preserve">
<style type="text/css">
	.st0{fill:none;stroke:#000000;stroke-width:0.5;stroke-miterlimit:10;}
	.st1{fill:none;stroke:#000000;stroke-width:0.25;stroke-miterlimit:10;}
</style>
<g id="Layer_2_1_">
	<g id="Layer_1-2">
		<path class="st0" d="M43.1,126.3c-4.4-1.9-9.4-4.4-12.6-9.8c-1.4-2.4-3.6-5.8-1.2-9.6c3-4.7,5.6-1.5,6.8-0.8
			c0.9,0.6,2.6,1.8,4.2,2.7c2.8,1.2,5.8,2.2,8.8,2.9c1.4,0.2,5.4,0,7.5,3.9c2,3.9,4.9,10.3,6.4,12.8c1.5,2.5,3.8,6.1,4.3,9.1
			s-2.3,7.4-5,16s-4.3,11.2-4.1,13.3s1.9,8.3,2.2,10.6c0.3,2.3,1.8,12,2.5,17.4l2.2,16"/>
		<path d="M43.2,126.1c0.7,0.2,1.4,0.2,2.1,0.1c0.7-0.1,1.4-0.5,1.8-1.1c-0.4,0.6-1,1.1-1.8,1.3c-0.7,0.2-1.5,0.3-2.3,0.2
			L43.2,126.1z"/>
		<path class="st0" d="M30.6,105.3c0,0-3.3,0.9-4.8,2.9s-3.2,2.4-0.6,9.9c0.7,2,1.5,4,2.5,5.9c0.7,1.3,2.5,4.8,3.8,7.4
			c0.6,1.3,4.3,5.1,7.1,6.9c1.5,1.1,3.5,1.3,5.1,0.5c2.7-1.3,4-6.1,1.4-9.4c-0.8-1-1.6-2.1-2.1-3.2"/>
		<path class="st0" d="M24.5,115.9c-1-0.6-2.3-0.8-3.5-0.4c-1.8,0.6-4,1.1-5.5,4.1c-0.8,2.1-0.9,4.4-0.3,6.5c0.9,2.3,2,4.5,3.3,6.6
			c0.6,0.9,3.2,4.8,4.3,6.3s2.3,4.9,5,6.4c2.1,1.1,5.1,4.1,8.3,3.8c3.1-0.2,4.2-1.3,4.8-3.4c0.7-2.3,1-4.4-1.5-6.9"/>
		<path class="st1" d="M33.9,104.7c0,0-1,0.5-1.1,2.8c0,2,0.6,5.1,1.1,5.5s3.2,2,4.2,1.6c0.9-0.4,0.9-2.8,1.2-3.7
			c0.3-0.7,0.5-1.6,0.4-2.4"/>
		<path class="st1" d="M39.1,137.3c0,0-3.5-3.2-2.5-3.9c1.3-0.8,2.5-1.8,3.6-2.7c1-0.8,2.1-0.5,3,0.2c0.7,0.5,1.4,1,2,1.6
			c0.5,0.4,1,4-0.8,5.2C42.7,138.5,40.6,138.5,39.1,137.3z"/>
		<path class="st1" d="M35.7,149.1c0,0-2.3-2.1-1.5-2.5c1.2-0.7,2.2-1.5,3.2-2.5c0.4-0.5,0.8-1.5,3.7,1"/>
		<path class="st0" d="M15.2,126.1c-1.8-0.5-3.7-0.3-5.3,0.5c-2.5,1.5-4,2.8-3.7,6c0.3,3.2,0.5,3.9,2.5,6.5c3.1,3.9,7.1,9.2,8.4,11
			c1.6,2.2,3.9,3,6.8,6c1.3,1.6,3.3,2.5,5.3,2.5c2.7-0.1,3.1-1,3.4-1.5c0.6-1.3,1-2.8,1.1-4.2c0-1.4,0.2-2.8-2.1-5"/>
		<path class="st1" d="M29.1,158.5c0,0-2.2-2-1.5-2.6c1.1-1,2.1-2,3-3.1c0.6-0.9,1.3-0.4,3.1,0.4"/>
		<path class="st0" d="M6.5,134.8c-1.6-0.1-3.2,0.5-4.4,1.5c-2,2.1-2.4,5.2-1,7.7c1.4,2.5,2.8,3.4,4.6,6c0.8,1.1,2.5,2.2,4.5,5.4
			c1,1.6,4.2,3.5,7.5,4.6c3.3,1,5.3,1.2,6.1,0c0.7-1.1,0.9-2.4,0.5-3.6"/>
		<path class="st1" d="M20.4,160.7c0,0-2.1-1.5-1.3-2.6s1.7-2.6,1.9-2.7c0.2-0.1,1-0.3,3.3,1.3"/>
		<path class="st0" d="M0.5,142.5c-0.2,0.8-0.3,1.7-0.1,2.5c0.2,0.8,0.4,1.7,0.6,2.5c0.2,0.4,0.1,2.2,0.3,3.5
			c0.1,0.7,0.3,1.4,0.5,2.1c1.3,3.7,2.8,7.3,4.6,10.7c0.2,0.3,0.4,0.6,0.7,0.8c4.3,4.9,3.9,6.2,6.8,8.3c2.4,1.6,4.4,3.6,6.1,6
			c1.4,2.1,2.5,4.2,3.6,5.2c0.5,1,1.9,2.8,1.9,4.5c0,1.7,1.8,11.3,2.2,15.3l0.7,7"/>
		<path d="M23.7,183.9c0.4,0.1,0.7,0.2,1.1,0.2c0.4,0,0.8-0.1,1.3-0.2c0.8-0.2,1.7-0.4,2.5-0.7c-0.8,0.4-1.6,0.7-2.4,0.9
			c-0.4,0.1-0.9,0.2-1.3,0.3c-0.5,0.1-1,0.1-1.4-0.1L23.7,183.9z"/>
		<path d="M25.4,140.8c0-0.1,0.1-0.2,0.2-0.2l0.2-0.1c0.2-0.1,0.3-0.1,0.5-0.2l0,0c0.3-0.1,0.6-0.3,0.8-0.5l0,0
			c0.3-0.1,0.5-0.4,0.8-0.6l0,0c0.3-0.2,0.6-0.6,0.9-0.8l0,0c0.4-0.4,0.8-0.7,1.2-1l0,0c0.4-0.2,0.7-0.5,1.1-0.8
			c0.3-0.3,0.6-0.6,0.9-1c-0.2,0.4-0.5,0.8-0.8,1.1c-0.3,0.3-0.6,0.6-1,0.9l0,0c-0.4,0.3-0.8,0.6-1.2,1l0,0
			c-0.3,0.3-0.6,0.6-0.9,0.8l0,0c-0.2,0.2-0.5,0.5-0.9,0.6l0,0c-0.3,0.2-0.6,0.3-0.9,0.5l0,0c-0.2,0.1-0.3,0.1-0.5,0.2l-0.3,0.1
			C25.5,140.6,25.4,140.7,25.4,140.8z"/>
		<path d="M25.8,138.3c0.1-0.1,0.2-0.1,0.2-0.2l0.2-0.2c0.2-0.1,0.3-0.2,0.5-0.3l0,0c0.2-0.2,0.5-0.4,0.7-0.5l0.8-0.4
			c0.2-0.2,0.5-0.3,0.7-0.5c0.2-0.2,0.5-0.3,0.7-0.5l0,0c0.1-0.1,0.2-0.1,0.2-0.2c0.1-0.1,0.2-0.2,0.3-0.1c-0.1,0-0.2,0.1-0.2,0.2
			c-0.1,0.1-0.1,0.2-0.2,0.3l0,0c-0.2,0.2-0.5,0.4-0.7,0.6c-0.2,0.2-0.4,0.4-0.7,0.6c-0.5,0.2-1,0.5-1.5,0.8l0,0
			c-0.2,0.1-0.3,0.2-0.5,0.3l-0.3,0.1C26,138.1,25.8,138.2,25.8,138.3z"/>
		<path d="M26.7,141.4c0.4-0.2,0.8-0.4,1.2-0.4l0,0l1.1-0.4l0,0c0.4-0.1,0.8-0.4,1-0.8l0,0l0,0l0.8-0.8c0.2-0.3,0.4-0.7,0.7-1l0,0
			c0.1-0.2,0.2-0.4,0.4-0.6c0.1-0.1,0.1-0.2,0.2-0.2c0.1-0.1,0.2-0.2,0.3-0.1c-0.1-0.1-0.2,0.1-0.3,0.1c-0.1,0.1-0.1,0.2-0.2,0.3
			l-0.3,0.6l0,0c-0.2,0.3-0.4,0.7-0.6,1l-0.8,0.9l0,0c-0.3,0.4-0.7,0.7-1.1,0.8l0,0l-1.1,0.4l0,0C27.5,141.1,27.1,141.2,26.7,141.4z
			"/>
		<path d="M32.3,129.5c0.1-0.3,0.3-0.6,0.5-0.9c0.2-0.3,0.5-0.5,0.8-0.7l0,0c0.4-0.2,0.7-0.4,1-0.7c0.3-0.3,0.6-0.5,1-0.7
			c0.7-0.4,1.5-0.7,2.2-1.1c-0.7,0.4-1.4,0.8-2.2,1.2c-0.4,0.2-0.7,0.5-1,0.7c-0.3,0.3-0.6,0.5-1,0.7l0,0
			C33.1,128.5,32.6,129,32.3,129.5L32.3,129.5z"/>
		<path d="M23.5,142.8c-0.1,0.2-0.2,0.3-0.4,0.4l-0.4,0.4l0,0c-0.2,0.4-0.6,0.5-0.9,0.8l-0.9,0.8l0,0l0,0l-0.1,0.1l-0.1,0.2
			l-0.3,0.3l0,0c-0.2,0.2-0.3,0.3-0.5,0.5c-0.2,0.2-0.3,0.3-0.4,0.5c-0.2,0.4-0.5,0.7-0.8,1.1l0,0c-0.1,0.1-0.1,0.2-0.2,0.4
			l-0.1,0.2c0,0-0.1,0.1-0.1,0.1c0.1,0,0.1-0.1,0.1-0.2l0.1-0.2c0.1-0.1,0.1-0.3,0.2-0.4l0,0c0.2-0.4,0.5-0.8,0.7-1.2
			c0.1-0.2,0.2-0.4,0.4-0.6c0.2-0.2,0.4-0.3,0.5-0.5l0,0l0.3-0.3l0.2-0.2c0.1-0.1,0.1-0.1,0.2-0.2l0,0l0.9-0.8
			c0.3-0.3,0.7-0.5,0.9-0.8l0,0l0.4-0.4C23.2,143,23.3,142.9,23.5,142.8z"/>
		<path d="M23.5,144.3c0,0.1-0.1,0.2-0.2,0.3l-0.2,0.3l0,0c-0.1,0.2-0.3,0.3-0.5,0.5l-0.5,0.5h0l0,0L22,146l-0.2,0.2l0,0
			c-0.2,0.2-0.4,0.3-0.5,0.5l0,0c-0.2,0.2-0.4,0.4-0.5,0.6l0,0l-0.2,0.2c0,0.1-0.1,0.1-0.2,0.2c0.1,0,0.1-0.1,0.1-0.2l0.1-0.2l0,0
			c0.1-0.3,0.3-0.4,0.5-0.7l0,0c0.1-0.3,0.4-0.4,0.5-0.6l0,0l0.2-0.2l0.1-0.1c0-0.1,0.1-0.1,0.1-0.1l0,0l0.5-0.5
			c0.2-0.2,0.4-0.3,0.5-0.5l0,0l0.2-0.2C23.4,144.4,23.4,144.3,23.5,144.3z"/>
		<path d="M11.2,154.6c0.1-0.3,0.3-0.6,0.5-0.9c0.2-0.3,0.3-0.6,0.6-0.8c0.2-0.3,0.4-0.6,0.6-0.8c0.2-0.3,0.5-0.5,0.8-0.6l0,0
			c0.3-0.2,0.6-0.4,0.9-0.6c-0.3,0.2-0.6,0.4-0.9,0.7l0,0c-0.3,0.2-0.5,0.4-0.8,0.6c-0.2,0.2-0.4,0.6-0.6,0.8
			c-0.2,0.2-0.4,0.5-0.6,0.8C11.6,154,11.4,154.3,11.2,154.6z"/>
		<path d="M13.3,152.8c0.1-0.2,0.3-0.5,0.5-0.7c0.2-0.2,0.4-0.3,0.6-0.5l0,0c0.2-0.2,0.5-0.4,0.9-0.5l0,0l0.7-0.2
			c-0.2,0.1-0.4,0.3-0.7,0.4l0,0c-0.3,0.1-0.5,0.3-0.8,0.5l0,0c-0.2,0.2-0.4,0.4-0.6,0.5C13.7,152.4,13.5,152.6,13.3,152.8z"/>
	</g>
</g>
<g id="Layer_2_3_">
	<g id="Layer_1-2_2_">
		<path class="st0" d="M273.9,126.3c-4.4-1.9-9.4-4.4-12.6-9.8c-1.4-2.4-3.6-5.8-1.2-9.6c3-4.7,5.6-1.5,6.8-0.8
			c0.9,0.6,2.6,1.8,4.2,2.7c2.8,1.2,5.8,2.2,8.8,2.9c1.4,0.2,5.4,0,7.5,3.9c2,3.9,4.9,10.3,6.4,12.8s3.8,6.1,4.3,9.1s-2.3,7.4-5,16
			c-2.7,8.6-4.3,11.2-4.1,13.3s1.9,8.3,2.2,10.6c0.3,2.3,1.9,12,2.5,17.4l2.2,16"/>
		<path d="M273.9,126.1c0.7,0.2,1.4,0.2,2.1,0.1c0.7-0.1,1.4-0.5,1.8-1.1c-0.4,0.6-1,1.1-1.8,1.3c-0.7,0.2-1.5,0.3-2.3,0.2
			L273.9,126.1z"/>
		<path class="st0" d="M261.4,105.3c0,0-3.3,0.9-4.8,2.9c-1.5,2-3.2,2.4-0.6,9.9c0.7,2,1.5,4,2.5,5.9c0.7,1.3,2.5,4.8,3.8,7.4
			c0.6,1.3,4.3,5.1,7.1,6.9c1.5,1.1,3.5,1.3,5.1,0.5c2.7-1.3,4-6.1,1.4-9.4c-0.8-1-1.6-2.1-2.1-3.2"/>
		<path class="st0" d="M255.2,115.9c-1-0.6-2.3-0.8-3.5-0.4c-1.8,0.6-4,1.1-5.5,4.1c-0.8,2.1-0.9,4.4-0.3,6.5c0.9,2.3,2,4.5,3.3,6.6
			c0.6,0.9,3.2,4.8,4.3,6.3c1.1,1.5,2.3,4.9,5,6.4c2.1,1.1,5.1,4.1,8.3,3.8c3.1-0.2,4.2-1.3,4.8-3.4c0.7-2.3,1-4.4-1.5-6.9"/>
		<path class="st1" d="M264.7,104.7c0,0-1,0.5-1.1,2.8c0,2,0.6,5.1,1.1,5.5c0.5,0.4,3.2,2,4.2,1.6c0.9-0.4,0.9-2.8,1.2-3.7
			c0.3-0.7,0.5-1.6,0.4-2.4"/>
		<path class="st1" d="M269.9,137.3c0,0-3.5-3.2-2.5-3.9c1.3-0.8,2.5-1.8,3.6-2.7c1-0.8,2.1-0.5,3,0.2c0.7,0.5,1.4,1,2,1.6
			c0.5,0.4,1,4-0.8,5.2C273.5,138.5,271.4,138.5,269.9,137.3z"/>
		<path class="st1" d="M266.5,149.1c0,0-2.3-2.1-1.5-2.5c1.2-0.7,2.2-1.5,3.2-2.5c0.4-0.5,0.8-1.5,3.7,1"/>
		<path class="st0" d="M246,126.1c-1.8-0.5-3.7-0.3-5.3,0.5c-2.5,1.5-4,2.8-3.7,6c0.3,3.2,0.5,3.9,2.5,6.5c3.1,3.9,7.1,9.2,8.4,11
			c1.6,2.2,3.9,3,6.8,6c1.3,1.6,3.3,2.5,5.3,2.5c2.7-0.1,3.1-1,3.4-1.5c0.6-1.3,1-2.8,1.1-4.2c0-1.4,0.2-2.8-2.1-5"/>
		<path class="st1" d="M259.9,158.5c0,0-2.2-2-1.5-2.6c1.1-1,2.1-2,3-3.1c0.6-0.9,1.3-0.4,3.1,0.4"/>
		<path class="st0" d="M237.3,134.8c-1.6-0.1-3.2,0.5-4.4,1.5c-2,2.1-2.4,5.2-1,7.7c1.4,2.5,2.8,3.4,4.6,6c0.8,1.1,2.5,2.2,4.5,5.4
			c1,1.6,4.2,3.5,7.5,4.6c3.3,1,5.3,1.2,6.1,0c0.7-1.1,0.9-2.4,0.5-3.6"/>
		<path class="st1" d="M251.2,160.7c0,0-2.1-1.5-1.3-2.6c0.9-1.1,1.7-2.6,1.9-2.7c0.2-0.1,1.1-0.3,3.3,1.3"/>
		<path class="st0" d="M231.3,142.5c-0.2,0.8-0.3,1.7-0.1,2.5c0.2,0.8,0.4,1.7,0.6,2.5c0.2,0.4,0.1,2.2,0.3,3.5
			c0.1,0.7,0.3,1.4,0.6,2.1c1.3,3.7,2.8,7.3,4.6,10.7c0.2,0.3,0.4,0.6,0.6,0.8c4.3,4.9,3.9,6.2,6.8,8.3c2.4,1.6,4.4,3.6,6.1,6
			c1.4,2.1,2.5,4.2,3.6,5.2c0.6,1,1.9,2.8,1.9,4.5c0,1.7,1.8,11.3,2.2,15.3l0.7,7"/>
		<path d="M254.5,183.9c0.4,0.1,0.7,0.2,1.1,0.2c0.4,0,0.8-0.1,1.3-0.2c0.8-0.2,1.7-0.4,2.5-0.7c-0.8,0.4-1.6,0.7-2.4,0.9
			c-0.4,0.1-0.9,0.2-1.3,0.3c-0.5,0.1-1,0.1-1.4-0.1L254.5,183.9z"/>
		<path d="M256.2,140.8c0-0.1,0.1-0.2,0.2-0.2l0.2-0.1c0.2-0.1,0.3-0.1,0.5-0.2l0,0c0.3-0.1,0.6-0.3,0.8-0.5l0,0
			c0.3-0.1,0.5-0.4,0.8-0.6l0,0c0.3-0.2,0.6-0.6,0.9-0.8l0,0c0.4-0.4,0.8-0.7,1.2-1l0,0c0.4-0.2,0.7-0.5,1.1-0.8
			c0.3-0.3,0.6-0.6,0.9-1c-0.2,0.4-0.5,0.8-0.8,1.1c-0.3,0.3-0.6,0.6-1,0.9l0,0c-0.4,0.3-0.8,0.6-1.2,1l0,0
			c-0.3,0.3-0.6,0.6-0.9,0.8l0,0c-0.2,0.2-0.5,0.5-0.9,0.6l0,0c-0.3,0.2-0.6,0.3-0.9,0.5l0,0c-0.2,0.1-0.3,0.1-0.5,0.2l-0.3,0.1
			C256.3,140.6,256.2,140.7,256.2,140.8z"/>
		<path d="M256.6,138.3c0.1-0.1,0.2-0.1,0.2-0.2l0.2-0.2c0.2-0.1,0.3-0.2,0.5-0.3l0,0c0.2-0.2,0.5-0.4,0.7-0.5l0.8-0.4
			c0.2-0.2,0.5-0.3,0.7-0.5c0.2-0.2,0.5-0.3,0.7-0.5l0,0c0.1-0.1,0.2-0.1,0.2-0.2c0.1-0.1,0.2-0.2,0.3-0.1c-0.1,0-0.2,0.1-0.2,0.2
			c-0.1,0.1-0.1,0.2-0.2,0.3l0,0c-0.2,0.2-0.5,0.4-0.7,0.6c-0.2,0.2-0.4,0.4-0.7,0.6c-0.5,0.2-1,0.5-1.5,0.8l0,0
			c-0.2,0.1-0.3,0.2-0.5,0.3l-0.3,0.1C256.8,138.1,256.6,138.2,256.6,138.3z"/>
		<path d="M257.5,141.4c0.4-0.2,0.8-0.4,1.2-0.4l0,0l1.1-0.4l0,0c0.4-0.1,0.8-0.4,1-0.8l0,0l0,0l0.8-0.8c0.2-0.3,0.4-0.7,0.7-1l0,0
			c0.1-0.2,0.2-0.4,0.4-0.6c0.1-0.1,0.1-0.2,0.2-0.2c0.1-0.1,0.2-0.2,0.3-0.1c-0.1-0.1-0.2,0.1-0.3,0.1c-0.1,0.1-0.1,0.2-0.2,0.3
			l-0.3,0.6l0,0c-0.2,0.3-0.4,0.7-0.6,1l-0.8,0.9l0,0c-0.3,0.4-0.7,0.7-1.1,0.8l0,0l-1.1,0.4l0,0
			C258.3,141.1,257.9,141.2,257.5,141.4z"/>
		<path d="M263,129.5c0.1-0.3,0.3-0.6,0.5-0.9c0.2-0.3,0.5-0.5,0.8-0.7l0,0c0.4-0.2,0.7-0.4,1-0.7c0.3-0.3,0.6-0.5,1-0.7
			c0.7-0.4,1.5-0.7,2.2-1.1c-0.7,0.4-1.4,0.8-2.2,1.2c-0.4,0.2-0.7,0.5-1,0.7c-0.3,0.3-0.6,0.5-1,0.7l0,0
			C263.8,128.5,263.4,129,263,129.5L263,129.5z"/>
		<path d="M254.2,142.8c-0.1,0.2-0.2,0.3-0.4,0.4l-0.4,0.4l0,0c-0.2,0.4-0.6,0.5-0.9,0.8l-0.9,0.8l0,0l0,0l-0.1,0.1l-0.1,0.2
			l-0.3,0.3l0,0c-0.2,0.2-0.3,0.3-0.5,0.5c-0.2,0.2-0.3,0.3-0.4,0.5c-0.2,0.4-0.6,0.7-0.8,1.1l0,0c-0.1,0.1-0.2,0.2-0.2,0.4
			l-0.1,0.2c0,0-0.1,0.1-0.1,0.1c0.1,0,0.1-0.1,0.1-0.2l0.1-0.2c0.1-0.1,0.1-0.3,0.2-0.4l0,0c0.2-0.4,0.5-0.8,0.7-1.2
			c0.1-0.2,0.2-0.4,0.4-0.6c0.2-0.2,0.3-0.3,0.5-0.5l0,0l0.3-0.3l0.2-0.2c0.1-0.1,0.1-0.1,0.2-0.2l0,0l0.9-0.8
			c0.3-0.3,0.7-0.5,0.9-0.8l0,0l0.4-0.4C254,143,254.1,142.9,254.2,142.8z"/>
		<path d="M254.2,144.3c0,0.1-0.1,0.2-0.2,0.3l-0.2,0.3l0,0c-0.1,0.2-0.3,0.3-0.5,0.5l-0.5,0.5h-0.1l0,0l-0.1,0.1l-0.2,0.2l0,0
			c-0.2,0.2-0.4,0.3-0.5,0.5l0,0c-0.2,0.2-0.4,0.4-0.5,0.6l0,0l-0.2,0.2c-0.1,0.1-0.1,0.1-0.2,0.2c0.1,0,0.1-0.1,0.1-0.2l0.1-0.2
			l0,0c0.1-0.3,0.3-0.4,0.4-0.7l0,0c0.1-0.3,0.4-0.4,0.5-0.6l0,0l0.2-0.2l0.1-0.1c0-0.1,0.1-0.1,0.2-0.1l0,0l0.5-0.5
			c0.2-0.2,0.4-0.3,0.5-0.5l0,0l0.2-0.2C254.2,144.4,254.2,144.3,254.2,144.3z"/>
		<path d="M242,154.6c0.1-0.3,0.3-0.6,0.5-0.9c0.2-0.3,0.3-0.6,0.6-0.8c0.2-0.3,0.4-0.6,0.6-0.8c0.2-0.3,0.5-0.5,0.8-0.6l0,0
			c0.3-0.2,0.6-0.4,0.9-0.6c-0.3,0.2-0.6,0.4-0.9,0.7l0,0c-0.3,0.2-0.5,0.4-0.8,0.6c-0.2,0.2-0.4,0.6-0.6,0.8
			c-0.2,0.2-0.4,0.5-0.6,0.8C242.4,154,242.2,154.3,242,154.6z"/>
		<path d="M244.1,152.8c0.1-0.2,0.3-0.5,0.5-0.7c0.2-0.2,0.4-0.3,0.6-0.5l0,0c0.2-0.2,0.5-0.4,0.9-0.5l0,0l0.7-0.2
			c-0.2,0.1-0.4,0.3-0.7,0.4l0,0c-0.3,0.1-0.5,0.3-0.8,0.5l0,0c-0.2,0.2-0.4,0.4-0.6,0.5C244.5,152.4,244.3,152.6,244.1,152.8z"/>
	</g>
</g>
<g id="Layer_2_2_">
	<g id="Layer_1-2_1_">
		<path class="st0" d="M165.8,83c-6-2.5-12.7-6-17-13.1c-1.9-3.2-4.9-7.8-1.6-12.9c4-6.3,7.5-2.1,9.1-1c1.2,0.8,3.5,2.4,5.7,3.7
			c3.8,1.7,7.8,3,11.8,3.9c1.9,0.3,7.3,0,10,5.2c2.7,5.2,6.6,13.8,8.7,17.2c2.1,3.4,5.1,8.3,5.8,12.3c0.7,4-3.1,10-6.7,21.5
			s-5.8,15-5.4,17.9c0.3,2.9,2.5,11.2,3,14.2c0.4,3,2.5,16.1,3.3,23.4l3.2,35.2"/>
		<path d="M165.8,82.7c0.9,0.2,1.9,0.3,2.8,0.1c1-0.2,1.8-0.7,2.5-1.4c-0.6,0.8-1.4,1.5-2.4,1.7c-1,0.3-2,0.4-3.1,0.2L165.8,82.7z"
			/>
		<path class="st0" d="M149,54.8c0,0-4.5,1.3-6.4,4s-4.3,3.3-0.8,13.3c0.9,2.7,2.1,5.4,3.4,8c0.9,1.8,3.4,6.5,5.1,10
			c0.8,1.7,5.7,6.9,9.6,9.3c2,1.5,4.7,1.7,6.9,0.6c3.7-1.8,5.4-8.1,1.8-12.6c-1.1-1.4-2.1-2.8-2.8-4.4"/>
		<path class="st0" d="M140.7,69.1c-1.4-0.8-3.1-1.1-4.7-0.6c-2.4,0.9-5.4,1.5-7.3,5.5c-1.1,2.8-1.2,5.8-0.4,8.7
			c1.2,3.1,2.7,6.1,4.5,8.9c0.9,1.2,4.3,6.4,5.8,8.5s3.1,6.6,6.7,8.6c2.8,1.5,6.8,5.5,11.2,5.2c4.1-0.3,5.6-1.8,6.5-4.6
			c0.9-2.9,1.3-6-2-9.3"/>
		<path class="st1" d="M153.5,53.9c0,0-1.3,0.6-1.5,3.8c0,2.7,0.8,6.7,1.5,7.4c0.7,0.6,4.4,2.7,5.6,2.2c1.3-0.5,1.1-3.7,1.7-5
			c0.4-1,0.6-2.1,0.5-3.2"/>
		<path class="st1" d="M160.4,97.8c0,0-4.8-4.3-3.4-5.3c1.7-1.1,3.3-2.4,4.9-3.7c1.3-1.1,2.8-0.7,4,0.2c1,0.6,1.8,1.3,2.7,2.1
			c0.6,0.6,1.3,5.4-1.1,7C165.2,99.5,162.4,99.3,160.4,97.8z"/>
		<path class="st1" d="M155.8,113.8c0,0-3.1-2.9-2.1-3.3c1.6-0.9,3-2,4.3-3.3c0.5-0.7,1-2,5,1.3"/>
		<path class="st0" d="M128.3,82.7c-2.4-0.7-5-0.5-7.2,0.7c-3.3,2-5.4,3.8-4.9,8.1c0.5,4.2,0.7,5.3,3.3,8.7
			c4.2,5.3,9.6,12.4,11.2,14.8c2.2,3,5.2,4,9.2,8.1c1.8,2.1,4.4,3.4,7.2,3.4c3.6-0.2,4.2-1.3,4.6-2c0.8-1.8,1.3-3.7,1.4-5.7
			c0-1.9,0.3-3.8-2.9-6.7"/>
		<path class="st1" d="M146.9,126.3c0,0-3-2.7-2-3.6c1.4-1.3,2.8-2.7,4-4.2c0.8-1.2,1.7-0.6,4.2,0.6"/>
		<path class="st0" d="M116.6,94.5c-2.2-0.1-4.3,0.6-5.9,2c-2.7,2.8-3.2,7-1.3,10.4c1.9,3.4,3.7,4.5,6.2,8.1c1,1.5,3.3,3,6.1,7.3
			c1.3,2.2,5.7,4.7,10.1,6.1c4.4,1.4,7.1,1.6,8.2,0c0.9-1.5,1.2-3.3,0.6-4.9"/>
		<path class="st1" d="M135.3,129.3c0,0-2.9-2-1.7-3.5c1.2-1.5,2.3-3.5,2.6-3.6c0.3-0.2,1.3-0.4,4.4,1.7"/>
		<path class="st0" d="M116.5,133.4c0.3,0.4,0.6,0.8,0.9,1.1c5.8,6.6,5.2,8.3,9.2,11.1c3.2,2.2,6,4.9,8.1,8.1c1.9,2.9,3.4,5.6,4.8,7
			c0.7,1.3,2.5,3.8,2.6,6.1c0,2.3,2.4,15.1,2.9,20.6l1.2,23"/>
		<path class="st0" d="M108.4,104.7c-0.3,1.1-0.4,2.2-0.1,3.3c0.5,1.2,0.6,2.9,0.8,3.4c0.2,0.5,0.1,3,0.4,4.7
			c0.1,0.4,0.3,1.4,0.7,2.8"/>
		<path class="st0" d="M170,62.5c1.3-0.8,2.5-1.8,3.6-2.9c0.2-0.5,0.1-2.9,0.6-3.3c0.5-0.4,1.5-1.6,1.7-1.3c0.2,0.2,2.5,3.7,3.4,4.8
			c0.9,1.1,3.5,4.7,5.3,6.9c1.9,2.3,4.1,5.1,5.8,6.9c1.7,1.8,4.8,5.1,4.5,5.4s-1.7,1.5-2,1.4c-0.3-0.1-2.8-0.2-3-0.2l-0.3,0.1"/>
		<path class="st0" d="M176.5,55.8c0,0,0-1.4,0-1.6c0-0.2,0-0.3,0.5-0.7l2.1-1.4l19.1,23.8c0,0-2.2,2.1-2.3,2.2
			c-0.5,0-1.1,0-1.6-0.2"/>
		<path class="st0" d="M191.9,67.2c2.3,3,4.8,6.4,6.3,8.8"/>
		<path class="st0" d="M179,52.1c2.1,2.1,4.6,4.9,7.1,7.8"/>
		<path class="st0" d="M185.6,60.3l59.5-49.4c1.7,0.6,3.2,1.8,4.1,3.3c0.9,1.2,1.6,2.6,2.1,4l-59.9,49.3"/>
		<path class="st0" d="M244.4,11.4c2.8,1.8,4.9,4.4,6.2,7.4"/>
		<path class="st0" d="M247.8,12.5c0,0,7.4-6.5,8.1-6.9c0.7-0.4,8.4-6,8.7-5.6s-5.9,7.8-6.7,8.5s-7.9,6.9-7.9,6.9"/>
		<path class="st0" d="M115.3,114.6l-16.8,14.9c0,0-1.5,2.4,2.6,7.4c4,5,6.3,3.1,6.3,3.1l19-13.8"/>
		<path class="st0" d="M98.8,133.4c-0.3,0.5-8.8,12.3-8.2,23.7c0.7,11.6,2.8,23,6.3,34c0,0,1.6,3.7,4.9,19.3"/>
		<path class="st0" d="M102,137.9c-1.2,1.3-6.7,10.2-6.3,18.8c0.7,10.9,2.8,21.7,6.1,32.1c1.6,5.4,2.7,10.5,5.3,21.6"/>
		<path d="M139.7,160.5c0.5,0.2,1,0.3,1.5,0.2c0.6,0,1.1-0.1,1.7-0.2c1.1-0.2,2.2-0.5,3.3-0.9c-1.1,0.5-2.1,0.9-3.3,1.3
			c-0.6,0.2-1.1,0.3-1.7,0.4c-0.6,0.1-1.3,0.1-1.9-0.1L139.7,160.5z"/>
		<path d="M142,102.5c0-0.1,0.1-0.2,0.2-0.3l0.3-0.1c0.2-0.1,0.4-0.2,0.7-0.3l0,0c0.4-0.2,0.8-0.4,1.1-0.6l0,0
			c0.4-0.1,0.7-0.5,1-0.8l0,0c0.4-0.3,0.8-0.8,1.2-1.1l0,0c0.5-0.5,1.1-1,1.7-1.3l0,0c0.5-0.3,1-0.6,1.4-1c0.4-0.4,0.8-0.8,1.2-1.3
			c-0.3,0.5-0.6,1-1,1.5c-0.4,0.5-0.9,0.8-1.4,1.2l0,0c-0.6,0.4-1.1,0.8-1.6,1.3l0,0c-0.4,0.3-0.8,0.8-1.3,1.1l0,0
			c-0.3,0.3-0.6,0.7-1.2,0.8l0,0c-0.4,0.2-0.8,0.5-1.2,0.6l0,0c-0.2,0.1-0.5,0.2-0.7,0.3l-0.3,0.1
			C142.1,102.3,141.9,102.4,142,102.5z"/>
		<path d="M142.5,99.1c0.1-0.1,0.2-0.1,0.3-0.2l0.3-0.2c0.2-0.1,0.4-0.3,0.6-0.5l0,0c0.3-0.3,0.6-0.6,1-0.7l1.1-0.5
			c0.3-0.2,0.6-0.5,0.9-0.7c0.3-0.3,0.7-0.4,1-0.7l0,0c0.1-0.1,0.2-0.2,0.3-0.3c0.1-0.1,0.2-0.2,0.4-0.2c-0.2,0-0.3,0.1-0.3,0.2
			c-0.1,0.1-0.2,0.3-0.3,0.4l0,0c-0.3,0.3-0.6,0.5-0.9,0.8c-0.3,0.3-0.6,0.5-0.9,0.8c-0.7,0.3-1.4,0.7-2,1.1l0,0
			c-0.2,0.2-0.4,0.3-0.7,0.4l-0.4,0.2C142.7,98.9,142.6,99,142.5,99.1z"/>
		<path d="M143.7,103.3c0.5-0.3,1.1-0.5,1.7-0.6l0,0l1.5-0.6l0,0c0.6-0.2,1-0.6,1.3-1.1l0,0l0,0l1.1-1.1c0.3-0.4,0.6-0.9,0.9-1.3
			l0,0c0.2-0.3,0.3-0.5,0.5-0.7c0.1-0.1,0.2-0.2,0.3-0.3c0.1-0.1,0.3-0.3,0.4-0.2c-0.2,0-0.3,0.1-0.4,0.2c-0.1,0.1-0.2,0.2-0.2,0.4
			l-0.4,0.8l0,0c-0.3,0.4-0.5,0.9-0.9,1.3l-1.1,1.2l0,0c-0.4,0.6-0.9,1-1.5,1.1l0,0l-1.5,0.5l0,0C144.8,102.9,144.2,103,143.7,103.3
			z"/>
		<path d="M151.2,87.3c0.2-0.4,0.4-0.8,0.7-1.2c0.3-0.3,0.7-0.7,1-0.9l0,0c0.5-0.3,0.9-0.6,1.3-1c0.4-0.4,0.9-0.7,1.3-1
			c1-0.5,2-1,3-1.4c-1,0.6-1.9,1.1-2.9,1.7c-0.5,0.3-0.9,0.6-1.3,1c-0.4,0.4-0.9,0.7-1.3,1l0,0C152.3,85.9,151.6,86.6,151.2,87.3
			L151.2,87.3z"/>
		<path d="M139.4,105.1c-0.1,0.2-0.3,0.4-0.5,0.6l-0.6,0.6l0,0c-0.3,0.5-0.8,0.7-1.2,1.1l-1.2,1.1l0,0l0,0l-0.2,0.2l-0.2,0.2
			l-0.4,0.4l0,0c-0.2,0.2-0.4,0.4-0.7,0.6c-0.2,0.2-0.4,0.5-0.5,0.7c-0.3,0.6-0.7,1-1,1.5l0,0c-0.1,0.2-0.2,0.3-0.3,0.5l-0.1,0.2
			c0,0-0.1,0.2-0.2,0.2c-0.1,0,0.1-0.1,0.2-0.2l0.1-0.3c0.1-0.2,0.2-0.3,0.2-0.5l0,0c0.2-0.6,0.6-1,0.9-1.6c0.1-0.3,0.3-0.6,0.5-0.8
			c0.2-0.2,0.5-0.4,0.6-0.6l0,0l0.4-0.4l0.2-0.2c0.1-0.1,0.2-0.2,0.3-0.2l0,0l1.1-1c0.4-0.4,0.9-0.6,1.2-1l0,0l0.6-0.5
			C139,105.5,139.2,105.3,139.4,105.1z"/>
		<path d="M139.4,107.2c0,0.1-0.1,0.3-0.2,0.4l-0.3,0.4l0,0c-0.1,0.3-0.5,0.5-0.6,0.7l-0.7,0.7l0,0h-0.1l-0.1,0.1l-0.3,0.2l0,0
			c-0.3,0.3-0.6,0.4-0.7,0.7l0,0c-0.2,0.3-0.5,0.6-0.7,0.8l0,0l-0.2,0.3c-0.1,0.1-0.1,0.2-0.2,0.2c-0.1,0,0.1-0.2,0.2-0.2l0.2-0.3
			l0,0c0.2-0.3,0.4-0.6,0.6-0.9l0,0c0.1-0.4,0.5-0.6,0.7-0.8l0,0l0.2-0.3l0.1-0.1c0.1-0.1,0.1-0.1,0.2-0.1l0,0l0.7-0.6
			c0.2-0.3,0.5-0.4,0.7-0.6l0,0l0.3-0.3C139.2,107.4,139.3,107.3,139.4,107.2z"/>
		<path d="M122.9,121c0.2-0.4,0.4-0.8,0.6-1.2c0.2-0.4,0.5-0.8,0.8-1.1c0.3-0.3,0.5-0.8,0.8-1.1c0.3-0.3,0.7-0.6,1.1-0.8l0,0
			c0.4-0.3,0.8-0.5,1.3-0.8l-1.2,0.9l0,0c-0.4,0.2-0.7,0.5-1,0.8c-0.3,0.3-0.5,0.7-0.8,1.1c-0.3,0.3-0.6,0.7-0.8,1.1
			C123.4,120.2,123.2,120.6,122.9,121z"/>
		<path d="M125.7,118.6c0.2-0.3,0.4-0.6,0.6-0.9c0.2-0.3,0.6-0.5,0.8-0.7l0,0c0.3-0.3,0.7-0.5,1.2-0.6l0,0l1-0.3
			c-0.3,0.2-0.6,0.4-0.9,0.5l0,0c-0.4,0.1-0.7,0.4-1,0.6l0,0c-0.3,0.3-0.5,0.5-0.8,0.7C126.2,118.2,125.9,118.4,125.7,118.6z"/>
	</g>
</g>
</svg>
