<svg xmlns="http://www.w3.org/2000/svg" viewBox="0 0 144.76 96.24"><defs><style>.cls-1{isolation:isolate;}.cls-2{fill:#fff;stroke:#000;stroke-linejoin:round;stroke-width:0.5px;}</style></defs><g id="Layer_2" data-name="Layer 2"><g id="SECTION"><g class="cls-1"><polygon class="cls-2" points="142.44 41.7 142.43 45.55 142.39 49.14 142.4 45.28 142.44 41.7"/><polygon class="cls-2" points="144.51 46.53 144.5 50.38 64.33 95.99 64.34 92.14 144.51 46.53"/><polygon class="cls-2" points="64.34 92.14 64.33 95.99 0.25 58.21 0.26 54.36 64.34 92.14"/><polygon class="cls-2" points="78.8 9.67 82.89 9.7 96.77 17.88 102.11 17.91 142.44 41.7 142.4 45.28 144.51 46.53 64.34 92.14 0.26 54.36 78.8 9.67"/></g><g class="cls-1"><polygon class="cls-2" points="57.83 76.74 57.78 92.13 46.07 85.14 46.12 69.76 57.83 76.74"/><polygon class="cls-2" points="74.92 67.14 74.86 82.52 57.78 92.13 57.83 76.74 74.92 67.14"/><polygon class="cls-2" points="57.83 76.74 46.12 69.76 63.21 60.15 74.92 67.14 57.83 76.74"/></g><g class="cls-1"><polygon class="cls-2" points="84.85 56.81 84.95 64.47 74.11 58.01 74 50.35 84.85 56.81"/><polygon class="cls-2" points="131.31 29.99 131.42 37.64 84.95 64.47 84.85 56.81 131.31 29.99"/><polygon class="cls-2" points="84.85 56.81 74 50.35 120.47 23.52 131.31 29.99 84.85 56.81"/></g><g class="cls-1"><polygon class="cls-2" points="141.98 35 141.95 46.56 122.33 57.43 122.36 45.87 141.98 35"/><polygon class="cls-2" points="122.36 45.87 122.33 57.43 118.91 55.36 118.94 43.8 122.36 45.87"/><polygon class="cls-2" points="138.56 32.94 141.98 35 122.36 45.87 118.94 43.8 138.56 32.94"/></g><g class="cls-1"><polygon class="cls-2" points="119.13 47.57 119.1 59.12 92.84 73.67 92.87 62.11 119.13 47.57"/><polygon class="cls-2" points="92.87 62.11 92.84 73.67 89.43 71.61 89.47 60.05 92.87 62.11"/><polygon class="cls-2" points="115.72 45.51 119.13 47.57 92.87 62.11 89.47 60.05 115.72 45.51"/></g><g class="cls-1"><polygon class="cls-2" points="84.35 2.31 84.31 13.87 58.59 28.12 58.62 16.57 84.35 2.31"/><polygon class="cls-2" points="58.62 16.57 58.59 28.12 55.18 26.06 55.21 14.5 58.62 16.57"/><polygon class="cls-2" points="80.94 0.25 84.35 2.31 58.62 16.57 55.21 14.5 80.94 0.25"/></g><g class="cls-1"><polygon class="cls-2" points="56.96 17.36 56.93 28.91 24.58 46.83 24.61 35.28 56.96 17.36"/><polygon class="cls-2" points="24.61 35.28 24.58 46.83 21.17 44.77 21.2 33.22 24.61 35.28"/><polygon class="cls-2" points="53.56 15.29 56.96 17.36 24.61 35.28 21.2 33.22 53.56 15.29"/></g><g class="cls-1"><polygon class="cls-2" points="37.43 49.53 37.38 64.08 18.73 74.58 18.78 60.03 37.43 49.53"/><polygon class="cls-2" points="18.78 60.03 18.73 74.58 3.84 65.71 3.89 51.16 18.78 60.03"/><polygon class="cls-2" points="22.54 40.66 37.43 49.53 18.78 60.03 3.89 51.16 22.54 40.66"/></g><g class="cls-1"><polygon class="cls-2" points="84.56 53.65 130.87 26.73 130.41 29.44 84.09 56.36 84.56 53.65"/><polygon class="cls-2" points="84.11 50.59 130.42 23.68 130.87 26.73 84.56 53.65 84.11 50.59"/><polygon class="cls-2" points="74.67 45.15 120.99 18.23 130.42 23.68 84.11 50.59 74.67 45.15"/><polygon class="cls-2" points="84.11 50.59 84.56 53.65 84.09 56.36 74.66 50.91 74.2 47.67 74.67 45.15 84.11 50.59"/></g></g></g></svg>