<svg xmlns="http://www.w3.org/2000/svg" viewBox="0 0 206.94 326.68"><defs><style>.cls-1{fill:#eab292;}.cls-2,.cls-24,.cls-3,.cls-5,.cls-6,.cls-9{fill:none;}.cls-2,.cls-24,.cls-5,.cls-6{stroke:#0a0a0a;}.cls-2,.cls-22,.cls-24,.cls-3,.cls-5,.cls-6,.cls-9{stroke-miterlimit:10;}.cls-22,.cls-3,.cls-9{stroke:#000;}.cls-4,.cls-7,.cls-8{font-size:12px;}.cls-11,.cls-13,.cls-19,.cls-4,.cls-7{font-family:AbrilDisplay-Italic, Abril Display;font-style:italic;}.cls-5{stroke-dasharray:6.36 4.24;}.cls-6,.cls-9{stroke-width:0.5px;}.cls-7{letter-spacing:0.04em;}.cls-10,.cls-12,.cls-14,.cls-15,.cls-16,.cls-18,.cls-20,.cls-8{font-family:AbrilDisplay-Regular, Abril Display;}.cls-10,.cls-12,.cls-13{font-size:7.56px;}.cls-10,.cls-14{letter-spacing:0.04em;}.cls-11,.cls-13{letter-spacing:0.04em;}.cls-14,.cls-20{font-style:normal;}.cls-15,.cls-16{font-size:6px;}.cls-16{letter-spacing:-0.01em;}.cls-17{letter-spacing:0em;}.cls-18,.cls-19{font-size:5px;}.cls-21{letter-spacing:-0.02em;}.cls-22{fill:#fc6;}.cls-23{font-size:24.9px;font-family:Montserrat-Bold, Montserrat;font-weight:700;}.cls-23,.cls-25{fill:#0a0a0a;}.cls-24{stroke-width:2px;}</style></defs><g id="Layer_2" data-name="Layer 2"><g id="Layer_7" data-name="Layer 7"><path class="cls-1" d="M153.89,158h0a2.49,2.49,0,0,0,.48-1.4c0-5.67-22.75-10.28-50.82-10.28S52.72,151,52.72,156.62a2.39,2.39,0,0,0,.38,1.23h0l.08.11a2.11,2.11,0,0,0,.21.31l43.18,62h0v36.57c6.15,0,10.44-4,14-9.55v-27l43.2-62.07.16-.23Z"/><ellipse class="cls-2" cx="103.55" cy="156.62" rx="50.82" ry="10.28"/><path class="cls-2" d="M53.09,157.85l43.47,62.47a27.78,27.78,0,0,0,14,0L153.89,158"/><path class="cls-2" d="M110.53,220.32v27c-3.53,5.57-7.82,9.53-14,9.55V220.32"/><ellipse class="cls-3" cx="182.1" cy="90.44" rx="24.34" ry="8.13"/><path class="cls-3" d="M206.44,90.44v24.67c0,4.49-10.9,8.13-24.34,8.13s-24.34-3.64-24.34-8.13V90.44"/><circle cx="182.1" cy="90.44" r="2.09"/><line class="cls-3" x1="182.38" y1="90.44" x2="194.56" y2="83.4"/><text class="cls-4" transform="translate(191.24 93.33)">r</text><path class="cls-2" d="M77.57,90.91c0,5.68,12.51,10.27,28,10.27s28-4.59,28-10.27"/><path class="cls-2" d="M133.48,90.91a4.6,4.6,0,0,0-1-2.76"/><path class="cls-5" d="M129.21,85.46c-4.94-2.89-13.7-4.82-23.69-4.82-11.29,0-21,2.46-25.43,6"/><path class="cls-2" d="M78.59,88.15a4.54,4.54,0,0,0-1,2.76"/><polyline class="cls-2" points="133.18 89.49 105.52 32 77.92 89.28"/><polyline class="cls-2" points="105.52 32 105.52 90.91 133.48 90.91"/><rect class="cls-6" x="105.52" y="83.72" width="7.19" height="7.19"/><text class="cls-4" transform="translate(109.12 69.71)">h</text><text class="cls-4" transform="translate(116.99 88.93)">r</text><text class="cls-4" transform="translate(81.84 16.86)"><tspan xml:space="preserve">V  =</tspan></text><text class="cls-7" transform="translate(113.28 16.86)">πr²h</text><text class="cls-8" transform="translate(104.83 10.2)">1</text><text class="cls-8" transform="translate(104.14 25.28)">3</text><line class="cls-9" x1="103.65" y1="13.85" x2="110.95" y2="13.85"/><polygon class="cls-3" points="51.36 90.44 51.36 118.68 1.89 118.68 51.36 90.44"/><text class="cls-10" transform="translate(18.53 101.25)">2<tspan class="cls-11" x="4.13" y="0">x</tspan></text><text class="cls-12" transform="translate(39.36 102.7)">60º</text><text class="cls-12" transform="translate(14.71 116.91)">30º</text><text class="cls-13" transform="translate(53.32 107.17)">x</text><text class="cls-13" transform="translate(22.75 128.58)">x<tspan class="cls-14" x="4.53" y="0">√3</tspan></text><rect class="cls-9" x="46.37" y="113.69" width="5" height="5"/><polyline class="cls-9" points="12.89 58.03 12.89 18.57 56.66 18.57"/><text class="cls-15" transform="translate(3.44 27.64)">sin</text><text class="cls-15" transform="translate(15.2 17.06)">30º</text><text class="cls-15" transform="translate(29.53 17.06)">45º</text><text class="cls-15" transform="translate(43.74 17.06)">60º</text><text class="cls-15" transform="translate(2.91 41)">cos</text><text class="cls-16" transform="translate(2.39 53.82)">t<tspan class="cls-17" x="2.27" y="0">an</tspan></text><text class="cls-18" transform="translate(18.68 24.49)">1</text><text class="cls-18" transform="translate(18.4 31.12)">2</text><line class="cls-9" x1="18.02" y1="26.22" x2="21.35" y2="26.22"/><text class="cls-18" transform="translate(46.92 37.74)">1</text><text class="cls-18" transform="translate(46.63 44.37)">2</text><line class="cls-9" x1="46.25" y1="39.47" x2="49.58" y2="39.47"/><text class="cls-18" transform="translate(31.19 24.49)">√2</text><text class="cls-18" transform="translate(32.56 31.12)">2</text><line class="cls-9" x1="30.45" y1="26.22" x2="37.23" y2="26.22"/><text class="cls-18" transform="translate(31.19 37.74)">√2</text><text class="cls-18" transform="translate(32.56 44.37)">2</text><line class="cls-9" x1="30.45" y1="39.47" x2="37.23" y2="39.47"/><text class="cls-18" transform="translate(45.26 24.49)">√3</text><text class="cls-18" transform="translate(46.63 31.12)">2</text><line class="cls-9" x1="44.53" y1="26.22" x2="51.31" y2="26.22"/><text class="cls-18" transform="translate(17.02 37.74)">√3</text><text class="cls-18" transform="translate(18.4 44.37)">2</text><line class="cls-9" x1="16.29" y1="39.47" x2="23.07" y2="39.47"/><text class="cls-18" transform="translate(17.02 51)">√3</text><text class="cls-18" transform="translate(18.39 57.64)">3</text><line class="cls-9" x1="16.29" y1="52.74" x2="23.07" y2="52.74"/><text class="cls-18" transform="translate(32.87 53.82)">1</text><text class="cls-18" transform="translate(45.29 53.82)">√3</text><text class="cls-19" transform="translate(154.16 42.38)">ax2 <tspan class="cls-20" x="8.13" y="0">+</tspan><tspan class="cls-21" x="10.88" y="0">b</tspan><tspan x="13.39" y="0">x </tspan><tspan class="cls-20" x="17.17" y="0">+</tspan><tspan x="19.92" y="0" xml:space="preserve"> c </tspan><tspan class="cls-20" x="24.23" y="0">= 0</tspan><tspan x="30.83" y="0"> </tspan></text><text class="cls-19" transform="translate(154.3 52.18)">a<tspan class="cls-20" x="2.77" y="0">(</tspan><tspan x="4.3" y="0">x2 </tspan><tspan class="cls-20" x="9.67" y="0">+</tspan><tspan x="12.42" y="0" xml:space="preserve">     x </tspan><tspan class="cls-20" x="21.2" y="0">+</tspan><tspan x="23.95" y="0" xml:space="preserve">    </tspan><tspan class="cls-20" x="27.95" y="0">)</tspan><tspan x="29.49" y="0"> </tspan><tspan class="cls-20" x="30.49" y="0">= 0</tspan><tspan x="37.09" y="0"> </tspan></text><text class="cls-19" transform="translate(168.27 48.83)">b</text><text class="cls-19" transform="translate(168.19 55.6)">a</text><line class="cls-9" x1="167.82" y1="50.73" x2="171.05" y2="50.73"/><text class="cls-19" transform="translate(179.58 48.83)">c</text><text class="cls-19" transform="translate(179.35 55.6)">a</text><line class="cls-9" x1="178.98" y1="50.73" x2="182.21" y2="50.73"/><circle class="cls-22" cx="181.69" cy="303.29" r="22.89"/><circle class="cls-22" cx="103.55" cy="303.29" r="22.89"/><circle class="cls-22" cx="25.4" cy="303.29" r="22.89"/><text class="cls-23" transform="translate(20.52 311.63)">1</text><text class="cls-23" transform="translate(96.15 311.63)">2</text><text class="cls-23" transform="translate(174.32 311.63)">3</text><line class="cls-24" x1="53.41" y1="303.29" x2="73.36" y2="303.29"/><polygon class="cls-25" points="66.74 311.47 65.37 310 72.59 303.29 65.37 296.57 66.74 295.11 75.53 303.29 66.74 311.47"/><line class="cls-24" x1="131.56" y1="303.29" x2="151.51" y2="303.29"/><polygon class="cls-25" points="144.88 311.47 143.52 310 150.74 303.29 143.52 296.57 144.88 295.11 153.68 303.29 144.88 311.47"/></g></g></svg>