<svg xmlns="http://www.w3.org/2000/svg" viewBox="0 0 229.88 219.82"><defs><style>.cls-1{fill:#48516b;}.cls-2{fill:#556181;}.cls-3{fill:#535e7d;}.cls-4{fill:#5f6a85;}.cls-5{fill:#485570;}.cls-6{fill:#4e5978;}.cls-7{fill:#5c698b;}.cls-8{fill:#6d779a;}.cls-9{fill:#5b6a89;}.cls-10{fill:#5c6b85;}.cls-11{fill:#616f8c;}.cls-12{fill:#5d6b8f;}.cls-13{fill:#677491;}.cls-14{fill:#5a6787;}.cls-15{fill:#5f6b8f;}.cls-16{fill:#647192;}.cls-17{fill:#68789c;}.cls-18{fill:#9aa7c1;}.cls-19{fill:#7381a6;}.cls-20{fill:#7685a5;}.cls-21{fill:#7f8eb0;}.cls-22{fill:#7f8aac;}.cls-23{fill:#6e7a97;}.cls-24{fill:#79869d;}.cls-25{fill:#707c9a;}.cls-26{fill:#7d8ba8;}.cls-27{fill:#68769b;}.cls-28{fill:#68769a;}.cls-29{fill:#7481a0;}.cls-30{fill:#6d7b9a;}.cls-31{fill:#7c8aad;}.cls-32{fill:#65718d;}.cls-33{fill:#737ea3;}.cls-34{fill:#99a4ba;}.cls-35{fill:#5e6782;}.cls-36{fill:#949096;}.cls-37{fill:#8e9bb7;}.cls-38{fill:#808aa7;}.cls-39{fill:#a6b5cc;}.cls-40,.cls-88{fill:#b9bad2;}.cls-41{fill:#9faeca;}.cls-42{fill:#8396b4;}.cls-43{fill:#8391ad;}.cls-44{fill:#7684a7;}.cls-45{fill:#7a89a2;}.cls-46{fill:#8f9fb5;}.cls-47{fill:#8c95ac;}.cls-48{fill:#8a96b0;}.cls-49{fill:#8491b0;}.cls-50{fill:#8b96b5;}.cls-51{fill:#7785ae;}.cls-52{fill:#7482a6;}.cls-53{fill:#8f898d;}.cls-54{fill:#bdaea0;}.cls-55{fill:#a19693;}.cls-56{fill:#c8c7d0;}.cls-57{fill:#b3bbcf;}.cls-58{fill:#acb8c9;}.cls-59{fill:#b2adad;}.cls-60{fill:#6e7b9b;}.cls-61{fill:#727585;}.cls-62{fill:#7e8eb1;}.cls-63{fill:#92a0bb;}.cls-64{fill:#677593;}.cls-65{fill:#999a9f;}.cls-66{fill:#9aa8c1;}.cls-67{fill:#a2a2a7;}.cls-68{fill:#a6acc6;}.cls-69{fill:#dac7ac;}.cls-70{fill:#d0d1d9;}.cls-71{fill:#b4bad0;}.cls-72{fill:#d6cebd;}.cls-73{fill:#8e888d;}.cls-74{fill:#bab0a1;}.cls-75,.cls-89{fill:#596380;}.cls-76{fill:#a5b4cb;}.cls-77{fill:#b5b7d2;}.cls-78,.cls-90{fill:#f0dcb2;}.cls-79{fill:#fcedce;}.cls-80{fill:none;}.cls-80,.cls-88,.cls-89,.cls-90,.cls-91{stroke:#0a0a0a;stroke-miterlimit:10;}.cls-81{fill:#252525;}.cls-82{fill:#b8b7b7;}.cls-83{fill:#fc6;}.cls-84{fill:#dcdcdc;}.cls-85{fill:#0a0a0a;}.cls-86{fill:#c7c7c7;}.cls-87{fill:#aaa;}.cls-91{fill:#ae82b0;}</style></defs><g id="Layer_2" data-name="Layer 2"><g id="Layer_7" data-name="Layer 7"><path class="cls-1" d="M144.17,141.64a145,145,0,0,0-19-.18c-4,1.07-7.52-1.12-11.6-1.64-1.28-.17-3.15-.31-4.41-.49-1.84-.26-4.93-1-6.72.49l-1.91,2c-.06-1-1.44-1.84-3.37-2.82-3.71-.6-7.7-1.68-11.31-1.81,5.09.87,10,3.43,14.49,4.84l0,0,.21,0h0a128,128,0,0,0,27.59,1.61c1.58-.08,3.93-.25,5.81-.25,2.54,0,5.07-.25,7.6-.47,2.2-.19,4.85.32,7-.38C147.59,141.63,145.43,141.71,144.17,141.64Z"/><path class="cls-2" d="M28.92,97.11c.11-.18.31.16.5.1,1.08-.35,2.2.24,3.29.18A16.35,16.35,0,0,0,36,96.66a8.32,8.32,0,0,1,1.83-.46C42,96,43.8,94.81,46.44,94c5.14-1.93,11-3.58,16.53-5.35a21,21,0,0,1,5-.81c3.55-.23,7.08-.53,10.46-1.06a63.72,63.72,0,0,1,15.2-.23c2,.18,3.62.66,4,1.46s-.74,1.35-2.8,1.69a5.36,5.36,0,0,0-1.71.51c-3.4,1.91-8.66,2.91-14,4a57.34,57.34,0,0,0-7.3,1.84,11.24,11.24,0,0,0-2.72,1.21,9.28,9.28,0,0,1-2.93,1.79,4.92,4.92,0,0,0-1.41.49,1.09,1.09,0,0,0-.52,1.27c.13.31.44.5.57.81.24.57-.24,1.18-.73,1.57-1.82,1.45-4.17,2.15-6,3.65A3.58,3.58,0,0,0,57,108.33a1.73,1.73,0,0,0,.29,1.79c.4.41,1.05.57,1.31,1.08a1.39,1.39,0,0,1-.16,1.29c-.24.38-.58.7-.85,1.06-1.15,1.59-.72,3.8-1.25,5.69-.11.36-.39.8-.75.69a.7.7,0,0,1-.31-.23,7.4,7.4,0,0,1-1.51-3.17,18.85,18.85,0,0,1-.48-6.73,12.57,12.57,0,0,1,2.6-5.64c4.63-6.47,12.58-9.11,19.72-11.93a80.35,80.35,0,0,1,9.69-3.48c.28-.08.74-.14.49-.29a1.9,1.9,0,0,0-1-.09c-5.67,1.07-13.11,1.16-18,2.29a75.18,75.18,0,0,0-8.6,2.89c-4.49,1.57-8.5,2.85-11.1,3.93-3,1.22-5.61,2.69-9.13,2.88-2,.1-3.68-.6-5.34-.47a10.31,10.31,0,0,0-3.44.84c-2.17.93-1.59-1-1.37-1.54A9,9,0,0,1,28.92,97.11Z"/><path class="cls-3" d="M108.62,142.33c-2.44-.7-5-1.32-8.31-.23l0-.19c-.07-.36-1.84-1.15-2.18-1.34a17.51,17.51,0,0,0-2.76-1.24c-2-.66-4-.85-6.06-1.32-1.69-.4-3.38-.75-5.08-1.08a16.51,16.51,0,0,1-3.69-1c-1.15-.48-1.91-.79-2.23-.9-.85-.26-.63-1.28-1.11-2.07-.63-1.07.71-1.84,1.51-2.25a6.93,6.93,0,0,1,3.84-.67c2.14.21,4.11.48,5.19,1.36,2.26,1.85,4,3.82,8.08,5.51a10.56,10.56,0,0,0,5.28.4,44.53,44.53,0,0,1,10.59.44,16,16,0,0,0,4.25.39,22.69,22.69,0,0,1,3.5.05c3.52.17,6.9.52,10.22,1,7.21,1,14.64.91,22.31.92,5.64-.38,11.11-.84,16.73-1.11a29.84,29.84,0,0,0,5.71-.65c5.61-.91,11.61-1.45,17.28-2.32a56.91,56.91,0,0,0,10.42-2.26c3-1.11,7.17-1.79,10.42-2.85a6.06,6.06,0,0,1,2.52-.12c.34.11.38.22.11.35-5.89,2.31-13.66,3.76-20.55,5.62-5.23,1.21-11.84,1.65-17.52,2.71-5.39,1-11.61,1.14-17.6,1.28a18.22,18.22,0,0,0-7.45,1.54c-8.91-.1-17-1.2-25.26-1.33-3.11-.55-6.27-.64-9.35-.91-2-.17-3.77.15-4.12.85C112.79,141.85,110.89,142.13,108.62,142.33Z"/><path class="cls-4" d="M32.61,93.46c.35-.28.71-.54,1.08-.79.82-.56,1.57-1,2.36-1.54.38-.25.71-.47,1.26-.88.13-.09-.18.85,0,.88.87.4.81.82.67,1.24s-.29.69.88.84a3.62,3.62,0,0,0,2.27-.36c2-1.4,6-2.13,8.34-3.44,2-1.14,5.72-1.71,8.42-2.65a7.4,7.4,0,0,1,5,.38.74.74,0,0,1,.31.37c-2.25,1.5-4.3,3.13-8.68,3.94-3.73.69-5.89,1.68-7.43,3-2.29,2.37-10.29,2.23-14.29,4a1.46,1.46,0,0,1-2-.47c-.28-.31-2.14-.31-1.94-.68a9.07,9.07,0,0,1,1.11-1.38,13.9,13.9,0,0,1,1.47-1.4C31.78,94.14,32.19,93.79,32.61,93.46Z"/><path class="cls-5" d="M108.62,142.33c4.08-.26,1.36-1.77,3.59-2.41,4.71-1.37,9.82-.46,13.89.15,14,1.71,27.54.84,41.36-.09,9-.59,17.91-2.63,26.92-3.25-1.42.79-3.64,1-5.27,1.29-1.79.32-3.6.55-5.4.75-3.84.44-7.64,1.18-11.47,1.71s-7.77.65-11.66,1c-2.34.19-4.67.42-7,.67a43.57,43.57,0,0,1-6.63.53q-3.41-.15-6.79-.5a50.23,50.23,0,0,0-6.58-.57c-4.19.14-8.23-.11-12,.5C117.52,143.91,112.91,142.14,108.62,142.33Z"/><path class="cls-6" d="M215.13,131.1v-.27c-.82-.28-.87-.6-.34-.94a36.63,36.63,0,0,0,8.8-4.33c1.11-.88,7.24-4.56,5.48-1.28a8.45,8.45,0,0,1-.67.72h0C225.58,127.55,221.33,129.57,215.13,131.1Z"/><path class="cls-7" d="M55.78,120.12l0-.31a57.2,57.2,0,0,1,.29-5.93c1.35-1.4.27-2.84-.53-4.33-1-1.86,1.81-3.54,5-5,2.09-1.2,4.06-2.39,2.6-3.43-.82-.58,1-2.09,2.89-2.74,2.91,2.22,2.47,4.37-1.22,6.42-1.56.87-3.24,1.7-4.86,2.55-.22.11-.79.19-.47.39a5.52,5.52,0,0,0,.69-.32,10.71,10.71,0,0,1,6.46-.88c2.89.45,4.14,1.31,3.92,2.38s.16,2.39-1,3.55a.7.7,0,0,0,0,1.06c2.87,2.92,3.16,6.1,7.4,8.88a9.11,9.11,0,0,0,5.61,4.12,4,4,0,0,1,2,1.26c.8,1,2.26,1.74,5.05,2.17a4.32,4.32,0,0,1,2.58,1.09c2.3,2.62,7.6,3.89,15.13,4.27A61,61,0,0,1,121.8,138c-.51.58-2.31.35-3.29.64a4.3,4.3,0,0,1-2.28,0,61.1,61.1,0,0,0-12.3-1.45,6.92,6.92,0,0,0-3.16.35c-2.35,1.4-3.64.56-5.17,0a34.83,34.83,0,0,1-7.91-5.8,2.93,2.93,0,0,0-1.63-.88c-4.67-.92-6.66-2.63-9.67-4a8.31,8.31,0,0,0-4.16-1c-2,0-3.48-.46-3.22-1.2,1-2.9-1.87-5.58-3.72-8.31-.32-.47-.74-.52-1.72-.24a3.05,3.05,0,0,0-2.2,1.67C60.81,118.61,59.34,119.78,55.78,120.12Z"/><path class="cls-8" d="M75.92,122.53c-5.66-4.3-8.52-8.78-6.93-13.54.34-1-.87-1.66-3.31-2a5.33,5.33,0,0,0-4.47,1c-1,.58-2.61,1.41-4.11,1.06-2.05-.48,0-1.25,1-1.82,3.27-1.82,7.83-3.39,8.27-5.74.2-1.05-2.1-2-.35-3.08l.77-.27c2.89-1.43,6.92-2.41,10.85-3.43a21.78,21.78,0,0,1,7.1-1c1.81.05,3.79-.17,5.16.52,1.2.61-1.16,1.17,0,1.76-.41,1-3.25,1.41-4.88,2.11-2.53,1.08-4.71,2.2-5.61,3.58-.54.81-3,1.37-2.37,2.32-1,1.39-2.55,2.73-3,4.17a2.37,2.37,0,0,1-1,2.48c-2.34,2.1.43,4,1.57,6,.57,1,.69,2,2,2.95.11.21.24.42.36.63a1.93,1.93,0,0,0,1.12,1.38c2.27,1.26,2.92,2.8,5.71,4,.81.34,1,.81,0,1.22-3.8-.33-4.56-1.57-6-2.57C77,123.7,76.78,123.07,75.92,122.53Z"/><path class="cls-9" d="M78.2,95.22,66.79,98.16c2.3-2.47,7.9-3.62,14.11-4.73,3.76-.68,8-1.48,9.58-3.12.58-.59,2.18-.7,3.48-.94s2.58-.54,2.47-1.2-1.48-.9-2.91-1.08a55.88,55.88,0,0,0-15.12.12c-6.12.93-13.29,1-18.33,2.86C56,91.61,51.38,93,47,94.41c.08-1.62,1.87-2.78,6.64-3.26,5.2-.52,4.44-2.83,8.58-3.7a10.82,10.82,0,0,1,5.1-.53,22,22,0,0,0,5.09-.34c4.52-.59,9.15-.93,14-1.14a63.77,63.77,0,0,0,14.05-1.78c2.3-.66,5.55-.41,8.39-.5a3.09,3.09,0,0,1,2.38.77c.63,1,2.51,1.11,4.86,1.08a23.17,23.17,0,0,1,3.74.15c1.52.24,2.52.62,2.35,1.24s-1.3,1-2.71,1c-4,0-8,.6-11.88-.15-1.53-.29-2.2-.14-1.9.44.73,1.4-.8,2.1-4.86,2.24-1.29,0-2.88.22-3.44.72-2.28,2-7.85,2.56-12.77,3.19A22.41,22.41,0,0,0,78.2,95.22Z"/><path class="cls-2" d="M55.93,120.2a9,9,0,0,0,2.44-1c.63-.33,1.46-.84,1.35-1.67-.28-1.31,2.74-1.9,4.42-2.65.84-.37,3.16.35,2.9.8-1.12,1.91,3,3.33,3.57,5.09a2.72,2.72,0,0,1-.29,2.15c-1.69,2.83,7.72,2.45,9.41,4.41,2.07,2.41,9.6,3.76,11.34,6.46.8,1.27,3.88,2.4,5.93,3.79a4.27,4.27,0,0,0,2.73-.07c5.52-1.24,12.4-.74,16.5,1.08L105,137.68a9.61,9.61,0,0,0-1.83-.12c-4,1.36-7.06,1.57-9.15-.46-1.62-1.51-4.48-2.41-5.27-3.76a7.82,7.82,0,0,0-3-2.25,8,8,0,0,0-4.3-.61c-2.55.37-2.42,1.39-3.17,2.26-.49.57,0,1.5,2,1.53,2.34-.13,2.71.33,2.82,1,.19,1-1.88.52-2.4.4a43.46,43.46,0,0,1-10.31-3.91c-3.13-1.61-6.51-3.39-9-5.94C59.65,124,58.74,120.69,55.93,120.2Z"/><path class="cls-2" d="M118.51,138.59l3-.53c3.46-.49,6.73.11,9.92.34a250.07,250.07,0,0,0,37.63-.08,20.67,20.67,0,0,1,5.56-.06,2.57,2.57,0,0,1,.9.34c-6.47,1.06-13.57,1.13-20.41,1.63C142.35,141.16,130.56,139.58,118.51,138.59Z"/><path class="cls-10" d="M175.57,138.6h-.77c-.58-.61.55-1,1.85-1.09,4.54-.42,8.13-1.5,12.4-2.07,2.23-.44,4.92-.46,7-1,6.07-1.3,10.81-3.2,16.76-4.56a6.75,6.75,0,0,1,3.12-.15c.25.11.24.23,0,.34l-.76.8c-5.59,1.5-10.78,3.26-16.88,4.44C191.1,136.64,183.16,137.51,175.57,138.6Z"/><path class="cls-11" d="M36.83,91c1-1.94,4.84-3.42,8.81-4.49,9.59-2.57,19-5.37,30.15-7.06,8.47-1.29,17.16-2.7,26.55-3,14.84-.43,29.78-.75,44,1.32a114.94,114.94,0,0,1,14.49,2.75c.39.11,2.13.53,1.19,1a45.87,45.87,0,0,1-12.2-1.19c-1.52-.29-2.63-.82-4.33-1a18.25,18.25,0,0,1-2.48-.31c-6.71-1.81-14.26-1.71-22-1.21a11.75,11.75,0,0,1-1.87.05c-6.41-.72-12.83-.19-19.12.14-4.66.24-9.34.76-13.72,1.35-3.12.42-5.74,1.38-9.17,1.75a55.73,55.73,0,0,0-6.76.84c-5,1.44-10.7,2.47-15.85,3.82-2.82.74-6,1.28-8,2.39-.94.53-1.88,1-2.2,1.65-.7,1.39-3.27,1.83-7.51,1.19Z"/><path class="cls-12" d="M78.2,95.22C81,93.29,87.71,93.43,91.64,92c1.5-.53,3.65-.61,3.73-1.7s3.39-1,5.5-1c3.12,0,4.15-.41,3.16-1.47-.64-.68-1.38-1.42,1-1.88s2.34.61,3.51.76a63.15,63.15,0,0,0,12.06-.1c.21,0,.54-.46.3-.56a5.76,5.76,0,0,0-2-.49c-2.26-.07-4.55,0-6.82-.05-1,0-2,0-2.42-.45-1.3-1.6-5.9-2-9.81-.82A35.58,35.58,0,0,1,90,85.81c-9.47.14-18.2,1.74-27.74,1.64v-.27c.35-.71,2.12-.83,3.62-1,8.44-1.1,17.2-1.74,26-2.33,4.94-.33,9.65-1,14.53-1.43a77.49,77.49,0,0,1,14.49.33A15.12,15.12,0,0,0,123,83c6-.24,10.83,1,16.28,1.49a16.35,16.35,0,0,1,3.91.79,37.25,37.25,0,0,0,9.91,2.1c2.68.2,4.41,1.39,3.68,2.06-.9.83-4.65,1.45-7.07,1.19a15,15,0,0,1-3.35-.6c-2.87-1.14-6.59-1.11-10.46-1.13-6,0-12,.17-18.09-.4-3.5-.32-8-.61-10.2,1.12-1.52.71-4,1.19-4.09,2.25,0,.38-1.39.6-2.43.77-4,.63-7.77,1.44-12.48,1.2a14.77,14.77,0,0,0-3.58.3C81.92,93.85,80.39,94.79,78.2,95.22Z"/><path class="cls-13" d="M106.35,89.59c1.86-2.51,7.94-1.8,11.89-1.49,6.72.53,13.33.34,20,.4a28.8,28.8,0,0,1,8,.92c2,.58,4,1.43,7.83.33s.71-1.69-.61-1.77c-7.91-.49-12.18-3.16-20.1-3.79-10-.8-19.84-2-30.21-1-13.59,1.38-27.59,2.23-40.88,4-6.15-.43-8.4,1.55-11.36,2.65s-6.9,2-8.69,3.51a5.91,5.91,0,0,1-4.73.5c-1.88-.52-2-1.08-.87-1.83.38-.27.21-.65.3-1,5.72.23,5.28-1.42,7-2.55,3.54-2.3,10.58-3.26,16.22-4.75,2.89-.77,6-1.45,8.95-2.17a18.4,18.4,0,0,1,3,.8,20.17,20.17,0,0,0,8.1,1,59.62,59.62,0,0,0,14.31-.8c2.81-.47,5.85-.52,8.62-1,2.42,0,4.68-.38,7.05-.54a30.63,30.63,0,0,0,7-.3c1.45-.3,3.21-.12,3.71.5.69.87,2.53.88,4.43.93,5.71.14,10.86,1,16.32,1.51a8.6,8.6,0,0,1,4,1.34c1.51.9,3.48,1.42,6.72,1.42,3.61,0,7.2,1.42,7.54,2.74.24,1-2.54,2.11-6,2.46a9.6,9.6,0,0,1-3.64-.14c-7.68-2.55-17.38-2.21-26.74-2.35-2.38,0-4.74,0-7.14-.11a24.44,24.44,0,0,0-7.26.49A5.14,5.14,0,0,1,106.35,89.59Z"/><path class="cls-14" d="M205.32,117.86c-3.18,3-7.48,6.54-18,7.57a60.54,60.54,0,0,0-7.58,1.49c-.9.21-2.84.36-1.84,1,.78.46,2.25.19,3.48.09,10-.82,18.6-2.75,27.7-4.26,7.76-1.29,21-7,20.29-.17-4.62,2.12-9.06,5-13.48,6.5v-.27c-.76-.38-.33-.75,0-1.13,1-1.34.13-1.83-3.76-2.11-.72,0-1.49,0-2.24,0-4.82-.15-8.52.94-12,1.74a109.41,109.41,0,0,1-16.9,2.45c-6.35.47-12.66,1.11-19.24,1.09a11.53,11.53,0,0,1-1.19-.07c-3.59-.41-7.23-.77-10.94-1-1.56-.1-3.07-.34-3.15-1s1.44-1,3.09-1.17c2.8-.27,5.7-.39,8.56-.57,5.47-.35,10.83-.7,14.71-2.36,1.84-.78,4.77-1,7.6-1a57.24,57.24,0,0,0,10.78-1.13,14.77,14.77,0,0,0,2.61-.67c1.85-1.14,4.38-2.12,6.31-3.25A7.8,7.8,0,0,1,205.32,117.86Z"/><path class="cls-15" d="M183.16,86.68a35.39,35.39,0,0,1,9.38,3.95,28.29,28.29,0,0,1,5.63,5.24,17,17,0,0,1,4.08,6.72c.14.34.24.7.41,1.07a4.65,4.65,0,0,1,.12,2.37c-.61,2-5.32,7.42-1,5.1,2.34-1.26,4.55-1.19,7.37-5.38,1.61-2.39,3.05,1.52.81,6.43a10.13,10.13,0,0,1-2.36,2.93,9.92,9.92,0,0,0-1.31,1.57,7.53,7.53,0,0,1-1.39,1.59,10.28,10.28,0,0,1-2.19,1.12L200,120.61l-2.71,1.23c-.69.31-2,1.22-2.72,1.22-3-.08-1.85-.72-1.18-1.22s1.87-.72,2.38-1.19c.31-.3.61-.62-.16-.87a5,5,0,0,0-2.46,0c-.55.1-1,.26-1.57.37a9.55,9.55,0,0,1-5.19-.14c-1.64-.62-1.11-1.22.1-1.92,2.61-1.5,4.76-3.06,5.67-4.86,1-2,3.42-3.89,2.81-6,1.07-2.35,2.25-4.69.79-7.07a22.34,22.34,0,0,0-7.64-8A53.83,53.83,0,0,0,175,86.35c-3.86-1.2-8.44-2.06-12.47-3.19-.47-.19-1.83-.62-1.3-1.32.74-1,3.69.19,4.64.41q2.84.63,5.65,1.31c3.63.88,7.35,1.86,11,2.92Z"/><path class="cls-16" d="M190,135.92c-5.2.8-10.57,1.48-15.21,2.67-12.37,1-24.65,1.69-37.47.8-5.38-.24-10.71-.6-15.77-1.33-7.13-1.78-16-2-23.72-3.22a8.22,8.22,0,0,1-1.94-.37c-5.52-4-15.9-6.94-19.86-11.28-.19-.2-.09-.44-.12-.66,3,1.33,3.66,3.17,7.61,4.28a3.25,3.25,0,0,1,2.46.4c3.11,2.4,10,3.71,13.77,5.92a10.76,10.76,0,0,0,5.31.8,27.76,27.76,0,0,1,9.05,1.13,38.35,38.35,0,0,0,12.49,1.76c5-.17,9.63.68,14.6.6a3.67,3.67,0,0,1,1.09.09c3.58,1.15,7.35.51,11.09.16a90.89,90.89,0,0,0,11.37-.78,9.88,9.88,0,0,1,2.55-.2,45.33,45.33,0,0,0,13-.78C183.33,135.4,186.79,134.75,190,135.92Z"/><path class="cls-17" d="M106.35,89.59c8.29-2.31,17.49-.37,26.23-.66a61.42,61.42,0,0,1,18.51,2.18c3,.83,4.41-.65,6.62-1,2.06-.33.56-1.07-.07-1.53a6.87,6.87,0,0,0-5.43-1.52c-3.21.24-5.47-.25-6.8-1-4.64-2.8-13.11-2.6-20.34-3.36-2.26-.24-5.37.15-5.47-1.25,0-.34-1.22-.46-1.69-.26-2.29,1-5.23.19-7.76.42-.24-.54.82-.71,1.95-.8,2.2-.19,4.37-.42,6.64-.5a7.6,7.6,0,0,1,2.51.18C125.27,82,131,81.63,136,82c4.49.36,8.87.69,12.15,1.93a13,13,0,0,0,3.42.49,34.93,34.93,0,0,1,4.94.8c5.71,2.25,10.84,4.71,14,7.47,2.58,2.23,7.82,4.16,8.05,6.58.27,2.89,3.64,5.68,1.95,8.62a2.21,2.21,0,0,1-1,1.14c-4.49,2.16-6.83,4.73-10.87,7-1.45.81-3.94.93-5.88,1.36a82.56,82.56,0,0,1-20.33,2.06c-4.41-.12-4.5-.15-4.13-1.76.05-.23-.23-.44-.33-.65,1.39-1,3.66-1.17,6.21-.47a21,21,0,0,0,12.15,0c3.15-.8,6.81-1.34,9.28-2.49,2.09-1,4.06-1.91,4.74-3.14.6-1.07,2.33-2,4-2.87.52-.28,1.7-.59.84-.92a5.76,5.76,0,0,0-2.37.25c-4.34.68-5.33.58-8.17-.83.16-1.19-3-1.27-4.85-1.78-.4-.26-.43-.52-.16-.8a4.18,4.18,0,0,1,1.67-.58,44.09,44.09,0,0,0,5.4-1.21c2.24-.53,2.81-2.13.77-2.89a8.3,8.3,0,0,1-4.84-4c-.48-.76-1.35-1.1-3.64-.88a13.21,13.21,0,0,1-7.09-1,31.85,31.85,0,0,0-8.72-2.24c-7.34-.85-14.78-1.88-22.77-.89a60.22,60.22,0,0,0-7.48.17c-1.27.19-1.74.29-1,.84,1.55,1.13.37,2-3.08,2.11A92.78,92.78,0,0,0,91.08,96,6.51,6.51,0,0,1,89.6,96l-2.53,0c.18-.15.27-.33.56-.45,3.89-1.57-.12-1.3-2.59-1.39,4.73-1.16,11-.89,15.75-2,1.31-.32,2.3-.28,1.26-1.11C100.36,89.65,105.39,90.28,106.35,89.59Z"/><path class="cls-18" d="M75.17,120.38l-.08-.53c-.53-.35-.29-.72-.21-1.09.09-1.77-1-3.49-1.8-5.21a3.27,3.27,0,0,1-.34-2.5c.66-.4.4-.85.69-1.27-.09-1.72,1.77-3.3,2.7-5,.56-1,2.72-1.82,4.36-2.58a68.49,68.49,0,0,1,7.1-3.16c5-1.75,11.06-3,16.6-4.42a13.48,13.48,0,0,1,5.69-.21c.08,0,.25.07.24.1-.36,1.42-.36,1.42,4.45,1.7a14.62,14.62,0,0,1,2.83.3,1.49,1.49,0,0,1,.61.32c0,.14-.16.26-.38.37-3.64.68-7.69,1-11.46,1.55-4.6.7-6.86,2.27-10.77,3.19-5.21.46-5.71.67-6.34,2.65a.84.84,0,0,1-.55.62c-3.27,1.24-3.12,3-5.54,4.39a4.82,4.82,0,0,1-3.26.9l-.29-.08c-.82-.25-.52-.62-.73-.94a1.2,1.2,0,0,0-.64.46c-.35.63.85.73,2.17.78,3.29.92,3.89,1.62,1.61,2.82-1.58.83-1.2,1.28.87,1.88,3,.85,3,2.2,2.39,3.31s0,1.91,1.46,2.63a37,37,0,0,1,5.91,4c.14.38-.2.69-1,1-4.58.32-5.73.15-7.7-1.23-.62-.43-1.55-.79-2.2-1.22A38.3,38.3,0,0,0,75.17,120.38Z"/><path class="cls-19" d="M89.6,96c4.52-1.64,10.22-2.49,16.44-2.92,2.12-.15,4.76,0,5.54-.84s-1.72-1-3.07-1.32a5.38,5.38,0,0,1-1-.48,10.76,10.76,0,0,1,1.54-.31c3.64-.21,7.22-.76,11-.29a7.8,7.8,0,0,0,4,.83,11.83,11.83,0,0,1,3.74.56c1.25.44,2,1,1.13,1.56s-2.12.66-3.8.63c-4.65-.09-9.14.34-13.7.56-3.27.39-7.17.22-9.65,1.32-8.53.26-12.7,2.51-17.07,4.66-1,1.23-4.06,2-5.42,3.21a5.53,5.53,0,0,1-3.4.6C77.92,100.65,81.79,97.9,89.6,96Z"/><path class="cls-20" d="M75.17,120.38c3.13.9,6,1.87,7.59,3.22,1.19,1.18,1.45,2.53,5.38,3.17,1.2.2,2,.72,2.13,1.22s1.38,1,2.74,1.37c4.12.2,6.28,1.16,7.71,2.43,1,.86,2.61,1.29,5.46,1.33a52,52,0,0,1,10.89,1.71,37.37,37.37,0,0,0,7.56.93c4.06.08,8.17.39,12.15.8a53.35,53.35,0,0,0,12.9.23,10.85,10.85,0,0,1,5,.19c.69.5.14.84-1.14,1.08a17.83,17.83,0,0,1-7.51.47,139.58,139.58,0,0,0-22.85-1.1,17.23,17.23,0,0,1-3.7-.59c-5.28-1-9.32-2.74-16.46-2.56-3.33.09-5.75-1.33-7.91-2.31-3.78-1.74-8.76-3.15-11.55-5.16Z"/><path class="cls-21" d="M101,95c2.44-1.22,6.55-.93,9.88-1.34a13.45,13.45,0,0,1,5.38.38c-.06,1.26-3,.62-4.55.84-.56,0-1.06-.1-1.59-.15-4-.25-6.6.78-9.5,1.39C90.86,98.15,83,101,78,104.57c-2.15,1.53-2.44,3.39-3.57,5.1-2.4-.31-.29-1.15-1.52-1.6l3-4.28a19.92,19.92,0,0,0,7.65-4C89.07,98,93.11,95.62,101,95Z"/><path class="cls-22" d="M72.87,108.07l1.52,1.6c0,.45,0,.9,0,1.35-1.44.83-1.36,1.64-.7,2.61,1.15,1.68,2.11,3.4,1.5,5.16,0,.35,0,.71-.08,1.06C72.76,116,69.28,112.1,72.87,108.07Z"/><path class="cls-23" d="M210.54,126c3.44-.56,5.33.92,8.44.79.27,1.15-2,2-3.1,2.95l-19,5.08a1.43,1.43,0,0,1-.92-.52c-.11-1.18,3.09-1.25,4.87-1.8,3.24-.74,4.15-2.2,7.4-2.94a2.73,2.73,0,0,0,.55-.18,7.54,7.54,0,0,1-.93.16c-4.86-.06-7.56,1.18-10.62,2.2A7.65,7.65,0,0,1,195,132c-3.6,0-6.72.12-9.46,1.22-2.57,1-6.66.51-10.14.52a62.31,62.31,0,0,1-13.43-1,29.43,29.43,0,0,0-8.14-.09c-1.55.13-3.26.58-4.42-.07s.39-1.22,1.79-1.68c3.36,0,6.6.26,9.88.46h0a23,23,0,0,0,5.17.09c3.72-.3,7.14-.62,10.75.27a10.54,10.54,0,0,0,5.16-.49,48.22,48.22,0,0,1,7.84-1.53c5.49-.83,11.3-1.51,15.65-3.07C207.06,126.15,209,126.27,210.54,126Z"/><path class="cls-24" d="M196.83,134.3c0,.18,0,.36,0,.54L190,135.92c-6.74-.49-12,1.61-18.42,1.37s-11.78,1.39-18.08.77l.75-1.07c.38-.93,1.67-1.68,3.72-2.29a12.7,12.7,0,0,1,5-.2,36.39,36.39,0,0,0,5.52,1.52,14,14,0,0,0,5.6-.29c1.56-.35.1-.85-.28-1.28s.38-.95,1.77-1.21c3.82-.24,8.49.73,11-1.41.78-.66,5.7-.5,8.8-.19.6.35.23.69-.32,1C193.34,133.49,194.61,134,196.83,134.3Z"/><path class="cls-25" d="M151.2,85c-8.29-2.05-18.39-2.13-27.35-3.26-5.36-.67-9-.9-13.7-.22a28.43,28.43,0,0,1-6.85.54c-8.1.25-15.39,1.76-23.58,1.87-5.27.14-9-.56-10.65-2.41,16.05-2.32,31.63-5.33,50.05-4.13a30.51,30.51,0,0,0,5.24-.18c8.37-1,15,.89,22.3,1.63.31,1-1.4,1.12-3.52,1a13.54,13.54,0,0,1-3-.53,43.33,43.33,0,0,0-14.67-1.1,67.18,67.18,0,0,1-11.61,0c-3.51-.28-7.26.14-10.92.15-.37,0-.86,0-.93.19s.41.2.68.29a24.79,24.79,0,0,0,6.78.7c3.89.07,7.83.06,11.72-.12a62.65,62.65,0,0,1,15.46.84,20.23,20.23,0,0,0,3.61.29c5.18.11,11.12,2.23,11.41,4C151.65,84.81,151.44,84.93,151.2,85Z"/><path class="cls-26" d="M151.2,85c-1.77-1.4-3.9-3.28-7.56-3.49-7.2-.4-13.51-2.12-21.36-1.57a102.09,102.09,0,0,1-23.17-.73c-.6-.09-1.46-.46-1.34-.54a4,4,0,0,1,1.8-.57c4.85-.21,9.83-.65,14.55-.42a81,81,0,0,0,11.13,0,43.4,43.4,0,0,1,16.21,1.37c2,.57,3.71.79,5.2-.18,4.26,1.46,10,1.92,15.18,2.7l1.56,1.31c1.89.81,5.15,1.21,5.7,2.41-1.65.48-2.49.93-.17,1.52,2.51.64,1.33,1.82,2.73,2.64A6.68,6.68,0,0,0,175,91.92c.79.35,1.68.68.79,1.16-1.75.37-2.69-.28-4.07-.39a6.32,6.32,0,0,1-2.84-1c-1.78-1.79-5.84-3.17-7.16-5-.28-.4-.78-.46-1.77-.49a23.62,23.62,0,0,1-4.15-.57Z"/><path class="cls-17" d="M79.72,84c7.9-.56,15.23-2,23.58-1.87C95.49,82.8,88.16,84.24,79.72,84Z"/><path class="cls-27" d="M196.1,107.26c-.7,4-2.15,8-9.13,11.42-.92.45-.62.83.49,1.16a5.31,5.31,0,0,0,3.34-.14c2-.67,4.42-1.39,6.72-.39,2,.89-.19,1.7-1.82,2.45-.76.35-3.58.58-1.13,1.3-.24.45-1.17.54-2.27.54-2.55-.19-3.91.7-6.21.83-3.21.2-6.49.22-9.65.52-2.6.24-5.09.59-6.58,1.42-1.7.94-4.13,1.2-7.06,1.13.4-1.31-3.68-2.79,1.16-3.94a43.67,43.67,0,0,0,8.88-1.63,53.79,53.79,0,0,0,11.2-4.39c2.87-1.56,5.33-3.34,6.61-5.29,1.11-1.69,1.66-3.49,4.39-5A2.22,2.22,0,0,1,196.1,107.26Z"/><path class="cls-28" d="M162.62,127.35c2.84-.06,4.77-.41,6-1.44,1.45-1.18,5.09-1,8.16-1.28,4.45-.33,9.38-.07,13.2-1.27.82-.26,1.89-.29,2.28.24a22,22,0,0,1-3.88.78c-13.93.47-24,4.89-38.61,4.66a4.79,4.79,0,0,0-2.31.53c-.32.47,1.23.47,2.09.57,3.82.42,7.67.82,11.51,1.23l-9.88-.27a11.13,11.13,0,0,1-5.9.11,17.13,17.13,0,0,0-5-.33,9,9,0,0,1-4.87-.77,16.79,16.79,0,0,0-6-1.53,11,11,0,0,1-2.3-.46c-1.08-.35-1.83-.77-1-1.29a6.43,6.43,0,0,1,3.84-.56c5.24.37,10.49.72,15.62,1.24a14,14,0,0,0,3.69-.17c3.6-.57,7.47-.31,11.21-.45A4,4,0,0,1,162.62,127.35Z"/><path class="cls-28" d="M210.54,126c-7.6,3-19.4,3.61-28.26,5.94-2.49.66-5.93,1.08-8.52-.24-1.09-.55-2.69-.32-4.16-.23a38.13,38.13,0,0,1-8.48-.12c12.45-.72,25.07-1.08,36-3.79A45.44,45.44,0,0,1,210.54,126Z"/><path class="cls-29" d="M196.1,107.26h-.74a2.24,2.24,0,0,1-1.18-.43c-1.11-.67-1.46-1.42-1-2.16.69-1,.43-2-.58-3,.11-2.52-.68-4.89-4.94-7.13-2.63-1.39-4.27-3-7.36-4.36-.4-.22-.74-.45-1.12-.67a.86.86,0,0,1-.29-.36c-.7-1.23-3.49-1.73-6.24-2.28-1.83-.36-4.51-.51-4-1.61l-5.32-2.42C186.8,87.3,202.38,96.67,196.1,107.26Z"/><path class="cls-30" d="M210.07,108.93c.09,2.08-2.57,4.29-5.91,5.45a7,7,0,0,1-4.35-.1c-1.59-.41-.51-.75.37-1.09,2.29-.9,3.89-1.19,5.34-1.91C209.53,109.29,209.93,105.57,210.07,108.93Z"/><path class="cls-31" d="M116.23,94.15l-5.33-.54c4.27-.26,8.53-.54,12.81-.78,1.57-.09,4.36.67,4.29-.49,0-.88-2.46-1.28-5.09-1.06a7.83,7.83,0,0,1-3.74-.36c-.92-.44.47-.71.87-1.06,10-1.23,19-.15,27.5,1.6,2.66.54,6.08,1,7.11,2.32.37.48,2.36.4,3.72.17,4-.68,5.27-.09,6,1.3s1.41,2.62,4.48,3.71c4.37,1.55.78,3.9-7,4.82-.62-.32-.2-.61.26-.87.94-.54.56-1-.51-1.46a3.17,3.17,0,0,1-1.73-1.16c-.43-1-2.15-1.48-4.76-1.84-3.48-.48-6.12-1.52-9.8-1.94a30.77,30.77,0,0,1-7.19-1.35,7.8,7.8,0,0,0-2.78-.35c-6,.21-11.78-.84-17.83-.42A3.13,3.13,0,0,1,116.23,94.15Z"/><path class="cls-32" d="M165.68,106.46c2.57,1.56,5.35.77,8,.07,1-.25,1.66-.8,3.08-.35,1.13.37,1.5,1,.54,1.35-5.77,2.32-5.26,6-12.9,7.83-5.26,1.29-9.89,3.23-17.54,2.63-1.26-.1-2.57-.08-3.1-.59-1.16-1.12-3.31-.84-5.52-.5a8.93,8.93,0,0,1-7.61-.2c-.37-.87,1.25-1.22,3.07-1.62,4.1-.91,8.76-1.54,11.95-2.91,1.39-1.28,4.75-2,6.86-3.09a5.94,5.94,0,0,1,3.2-.56c1.35.39,1,.87.37,1.32a9.7,9.7,0,0,0-1.4,1.08c-.4.45-1.53.8-1.52,1.3a10.37,10.37,0,0,0,4.06-1.08c2-1.31,5.09-2.39,6.07-3.9A3.26,3.26,0,0,1,165.68,106.46Z"/><path class="cls-33" d="M131.42,116.39c1.62,1.29,4.48.5,6.87.51,2.91,0,4.55.19,1.61,1.19-1.92.66-.78.93,1.23,1,12.7.12,26.58-1.79,32.06-6.69,2.8-2.51,8.56-4.72,6.16-7.72s-.81-6.68-7.63-9.46a11.39,11.39,0,0,1-3.95-3.08c-2.6-2.55-8.78-4.17-12-6.51,2.23-.23,5.18.64,6.85-.62.34-.26,1.07.08,1,.39-.59,2.87,4.46,4.85,8.87,6.92A3.59,3.59,0,0,1,174.28,94a1.34,1.34,0,0,0,1.14,1.1c3.77,1,4.08,2.57,6,3.87.3.2.71.42.49.62-1.78,1.65.36,3.35-.51,5-.47.9.84,1.8.42,2.76a6.38,6.38,0,0,1-3.9,4.08c-.65.28-.63.67-1,1a25.94,25.94,0,0,1-11.53,5.28c-6.09,1.31-12.61,2.73-20.13,2.7-4.84,0-9.75-.31-14.58-.58-5.13-.29-5.79-1-3.35-2.71A5.31,5.31,0,0,1,131.42,116.39Z"/><path class="cls-34" d="M116.23,94.15a116.07,116.07,0,0,1,29.55,1.95c6.36,1.32,14.05,1.91,16.76,4.94,1,1.13,1.45,1.87-.68,2.74l-1.48.28c-1.84,1.55-2.17,1.59-4.92.65-.4-.59,1.08-.82,1.84-1.19,2.46-.6,3-1.22.94-2.17-1.66-.75-2.34-1.78-5.35-2.11-2.27-1.62-6.69-2.09-11.13-2.54a29.61,29.61,0,0,0-7.09-1.11c-.65,0-1.64-.2-1.56.26,0,.27.74.38,1.39.27a15,15,0,0,1,7.71.78A21.07,21.07,0,0,1,145,98.4c2,1.82,1.69,2.18-2.15,2.52a1.66,1.66,0,0,1-1.22-.71c-2.4-1.4-6.32-2.08-10.54-2.41-4-.3-7.84-.94-12.09-.66a2.37,2.37,0,0,1-1.16-.31l-.08,0c-.14-.81,1.46-1.22,3-1.64.39-.11,1.46,0,1.11-.29a4.27,4.27,0,0,0-1.67.15l-.29.08c-3.78,1.2-6.3,1-9-.7C112.5,93.85,114.68,94.77,116.23,94.15Z"/><path class="cls-35" d="M165.68,106.46c-2.26,2.5-5,4.9-11.68,6.39-1.13.25-2.6.68-3.73.29-1.33-.45.41-.82,1-1.24,1.6-1.08,3-2.2,4.48-3.3-.51-1.55,1.14-2.78,4.52-3.76C164.81,104.25,166.16,105,165.68,106.46Z"/><path class="cls-36" d="M160.29,104.84l-4.52,3.76-9.1,3.75a10.27,10.27,0,0,1-5.71.2c-.13-.12-.35-.3-.14-.38,5-2,4.78-4.87,9.44-6.93a7.6,7.6,0,0,1,5.56-.66c2.58,1,3.09-.3,4.56-.52Z"/><path class="cls-37" d="M91.91,129.76c-2.94-2.08-9.4-3.5-9.15-6.16,1.54,1.38,3.79,2.48,8.35,2.69,1.53,0,2.26.37,2.4.81.25.81,1.64.53,2.89.44,4.3-.41,7.7-.08,9.79,1.42a5.22,5.22,0,0,0,2.31.66,7.13,7.13,0,0,1,1.63.32c4,1.41,4,1.42,9.64,1.76a26.61,26.61,0,0,1,7,1.28c2.36.78,1.64,1.66-1.47,2a36.1,36.1,0,0,1-9.26-.31c-4.09-.56-7.67-1.9-12.85-1.47A3.43,3.43,0,0,1,100,132C97.75,129.84,97.79,129.84,91.91,129.76Z"/><path class="cls-37" d="M91.89,125.47c-3.93-.87-8.69-5.42-8.08-7,.41-1,.64-2.24-2.68-3-2.22-.48-2.91-1.11-1-1.86,2.46-1,2.1-1.82-.48-2.65-.44-.19-.36-.36.08-.53,4.11-1.57,3.8-3.91,7.77-5.51.28-.12.38-.35.32-.51-.57-1.82,1.07-2.48,7.09-2.82-.18,1.29-2.81,2.19-4.29,3.27A18.42,18.42,0,0,0,85.32,111c-1.18,1.1-.81,2.28-1.29,3.41-.35.83,1.92,1.71,2.47,2.68.86,1.52,2.78,3,4.85,4.33s4.9,2.76,6.35,4.34c.59.63,1.14,1.19-.73,1.65C93.35,127.4,93.4,126.19,91.89,125.47Z"/><path class="cls-38" d="M84.27,111c1.32-3.43,4.59-6.6,10.68-9.36,5.77-2.64,13.48-4.1,22.77-4.57l.27.18c-.82,1.49-4.84,1.34-7.62,1.79-8,1.31-15.66,2.86-18.08,6a35.13,35.13,0,0,1-5.4,5.77,2.62,2.62,0,0,1-2.12,1C83.53,111.67,83.77,111.35,84.27,111Z"/><path class="cls-39" d="M110.92,94.41c1.21.23,2.57.39,3.6.69,1.88.56,3.21.8,4.37-.27.81-.75,2.89-.79,4.81-.6.7.07,1.8.43,1.7.57-.48.69-1.94.82-3.93.9a14.41,14.41,0,0,0-3.76,1.11c-3.41-.1-6.82-.18-10.21-.33-.63,0-1.63-.38-1.63-.58,0-1,2.84-.8,4.27-1.22Z"/><path class="cls-38" d="M117.79,96.83A96.54,96.54,0,0,1,140,98.6c1.71.29,2.95.69,2.84,1.43a11.36,11.36,0,0,1-7.32,1.31,1.63,1.63,0,0,1-.71-.3c.62-1.08-1.85-1.58-3.51-2.22a40.55,40.55,0,0,0-10.38-1.14,6.36,6.36,0,0,1-3.16-.58l0,0A1.17,1.17,0,0,1,117.79,96.83Z"/><path class="cls-40" d="M79.77,110.49c0,.17,0,.35-.08.53-1.14.14-2.55.48-3.31,0-.49-.33-.18-.84.06-1.25.13-.23.78-.44,1.29-.63.9-.33,0-1.35,2.3-1,1.87.26.86,1,.25,1.5A2.56,2.56,0,0,0,79.77,110.49Z"/><path class="cls-41" d="M91.89,125.47c3.14.14,2.93,1.29,4.57,1.88.47.18.39.36,0,.53-1.48.19-2.2,1.11-3.89.81-1.45-.26-.28-1-.32-1.46,0-.32-.71-.63-1.11-.94Z"/><path class="cls-42" d="M75.17,118.79c-.44-1.9-.79-3.81-2.64-5.62-.93-.91.23-1.54,1.84-2.15-1.35,2,1.21,3.89,1.2,5.85C75.57,117.52,76.31,118.17,75.17,118.79Z"/><path class="cls-31" d="M101,95c-7,1.1-11,3.5-17.5,4.82C88.27,97.67,92.21,95.22,101,95Z"/><path class="cls-43" d="M96.43,127.88l0-.53c1.61-1-.28-2.09-1.58-2.68-6.36-2.9-8.65-6.38-11.87-9.7-1.1-1.14.76-2.63,1.26-4l.76.81c2.17.49,1.9,1.29,2.11,2,.32,1.1.46,2.22,3.15,3,.48.14.82.35.88.58.76,2.54,4.74,4.7,8.14,6.78a50.51,50.51,0,0,0,14.41,5.55,18.67,18.67,0,0,0,2.86.32,67.84,67.84,0,0,1,11,1.7,34.1,34.1,0,0,0,9.44,1.15l1.14,0c2.33,0,3.73.76,5.59,1s2.62-1,5.08-1c2.84,0,8.38,1.2,9.2,2.19-1.44.59-.66,1.73-3.82,1.88-9.39,1.45-18.26-.48-27.23-.47-9.73,0-14.8-3.51-24.31-3.1a3.39,3.39,0,0,1-2.76-1c-1.13-1.49-3.4-2.51-8-2.67,5.14-.65,7.6.15,8.43,1.9.42.89,1.56,1.07,4.57,1.16a76.36,76.36,0,0,1,13.26,1.68c3.41.72,5.64-.45,8.46-.18.08-.2.44-.51.2-.6a19.06,19.06,0,0,0-6.58-1.42c-2.59,0-5.41-.84-8,.21a2.68,2.68,0,0,1-2.6-.65C108.65,129.1,103.7,128,96.43,127.88Z"/><path class="cls-44" d="M158.08,135.11c-2.12-.72-5.31-.78-7.41-1.66-1-.44-3.79,0-4.5.84-.28.33,2,.76,0,1a7.7,7.7,0,0,1-3.16-.56c-1.81-1.13-4.56-1.24-7.77-1.2-6.32.08-10-2-15.65-2.49-15.39-1.43-21.34-6-27.18-10.49a53.36,53.36,0,0,1-6.27-5.31c-1-1.06-.78-2.25-1.12-3.38.72-6.35,12-11.72,28.64-13.62a11.2,11.2,0,0,0,4.09-1.1A78.92,78.92,0,0,1,133,98.43c-2,.66-4.51.4-6.48.21-5.29-.5-9.68.26-14.09,1-4,.66-7.63,1.56-11.53,2.29-2.71.5-3.18,1.56-4.92,2.3-.43.19,0,.32.64.22a11.37,11.37,0,0,0,1.57-.37,8.13,8.13,0,0,1,4-.46c1.91.32,1.52.95,1.33,1.52a2.3,2.3,0,0,1-.9.59c-5.64,2-6,4.58-6.57,7.13-.25,1.12,1,1.27,4.06,1.07,2.53-.16,3.85-1.1,6.52-1,1.46.82-.6,1.23-1.62,1.76a44.26,44.26,0,0,0-5.81,2.1C97.09,117.5,99,120,102,120c4.56.1,7,1.21,9.9,2a96.33,96.33,0,0,0,15.35,3.09c.72.09,1.35.25,2,.39a4.18,4.18,0,0,0,1.36.21c5-1.09,9.08-.09,12.95.76s7.35.06,11-.07c1.22,0,.33-.41-.26-.54-1.38-.33-3.07-.61-2.65-1.31s2.51-.71,4.18-.91a149.49,149.49,0,0,0,16.93-2.93,8.25,8.25,0,0,1,3.75-.41c1.08.62-.52.89-1.45,1.16a46.92,46.92,0,0,1-10.81,2.37c-1.11.56-2.21,1.1-.37,1.77,2,.74-.34,1.17-1.17,1.71-5.06,0-10,.39-14.93.57-5.58.19-11.5-.63-17.2-1.11-1.49-.12-2.93-.34-3.54.23s1.09.86,2.41.92a16.6,16.6,0,0,1,7.68,1.92,6.78,6.78,0,0,0,1.4.55c4.87-1.14,8.31,1,12.78.67-.36.45-1.38,1.16-.95,1.29,1.36.43,2.18-.32,3.45-.45,5.87-.6,10.53.83,15.85,1.1,2,.1,4,.14,6,.2l-.76,1.33c-.07.34-.62.57-1.4.74a28.08,28.08,0,0,1-10-.46Z"/><path class="cls-45" d="M196.87,131.37c2.5-2.42,10.09-1.91,14.68-3.12a4.2,4.2,0,0,1,1.44.29c.14.05-.18.37-.49.42-5,.83-6.52,2.79-10.37,4C200.37,132.43,197.23,132.47,196.87,131.37Z"/><path class="cls-46" d="M196.87,131.37c1.4.67,5.49.24,5.26,1.58-1.31.68-4.82.27-5.3,1.35-1.09.22-2.14.75-3.44.15-1.1-.51-1.58-1.11-.57-1.7a26.15,26.15,0,0,1,2.56-1.11Z"/><path class="cls-47" d="M163.4,134.85c3.8-.07,7.74.5,11.41-.28,2.54.14,1.73.75,1.6,1.32-.16.73-1.55.49-2.79.64C168.47,137.15,165.28,136.55,163.4,134.85Z"/><path class="cls-48" d="M93.14,80.69c.06.38-.58.66-1.29.48-1.67-.4-4.6-.18-5.07-1.14-.26-.53,1.14-.57,2.33-.62C91.9,79.32,92.17,80.15,93.14,80.69Z"/><path class="cls-49" d="M128.39,117.18c-2.73,2.12,1.18,2.17,5.54,2.44a109.9,109.9,0,0,0,27-1.48c7.35-1.33,10.61-3.61,14.67-5.79,4.69-2.12,5.85-4.54,5.92-7.19,0-1.79-.18-3.59.43-5.38.08-.23.14-.46-.28-.64-2.44-1-2.72-2.45-5.27-3.48-1.83-.73-2.43-1.65-.81-2.59-1.49-1.21-4.73-2.09-5.32-3.48a5.68,5.68,0,0,1,3.89.72c1.29.71,3.1,1.26,4.48,1.94a1.67,1.67,0,0,0,1,.31c.5-.06.29-.3.39-.46.46-.74-1.1-1.58.86-2.24,6.36,3,12.08,6.12,13.45,9.94.21.6-.33,1.23-.52,1.84a3.51,3.51,0,0,1-2.76-.43c-1.08-1.44-4.55-2.6-4-4.22a.52.52,0,0,0,.06-.26c-.14-.73-1.14-1.36-2-2-.17-.13-.18-.1-.42,0-.54.21-1,2.46-.35,2.71,6,2.25,3.56,4.72,1.9,7.23-1,1.46-3,2.82-2.8,4.38.11.81-.85,1.55-2.05,2.24-1.45.85-2.58,1.73-2.32,2.76-.55,1.11-3.39,1.64-5.26,2.35a38.6,38.6,0,0,1-10.71,2.84,4.79,4.79,0,0,0-1,.15C155,122,146,120.87,137.56,121c-2.78-.22-5.63-.32-8.39-.52-3.73-.27-7.91-.45-10-1.88.25-1.32,3-1.72,6-2A6,6,0,0,1,128.39,117.18Z"/><path class="cls-50" d="M180.9,89.86c.25,1,.54,2,.73,3,.08.39.1.86-1.22,1-1.66.18-1.5-.42-2.12-.7-2.64-1.21-5.36-2.39-8-3.59-2-.92.09-2.77-5.3-2.94a5.16,5.16,0,0,1,.72-1.12c.62-.63,1.88-.41,3.06-.22,2.19,1.15,6.8,1.08,9.08,2.26,1.08.56,2.3,1,2.34,1.75a3.5,3.5,0,0,1-.67.09c-1.12.06-1.75-.41-2.87-.31,0,0,.09.15.27.21a5.4,5.4,0,0,0,3.28,0Z"/><path class="cls-51" d="M175.56,93.07c.89,2.34,5.42,4.21,7.18,6.35,2.29,2.8.13,5.74-1.34,8.62-.85,1.66-2,3.19-5.83,4.31,6.22-3.27,4.25-6.86,4.29-10.49,0-2.76-.91-4.92-6.51-6.87-1.95-.67-.55-1.8-.83-2.72Z"/><path class="cls-52" d="M164.16,123.87c3.9-1.23,9.66-1.65,12.17-3.48-.59-.43.36-.64,1-.9A56.46,56.46,0,0,0,188.45,113c.91-.64.48-1.39.84-2.08,1.19-1.08,1.88-2.21,3.06-3.29a4.65,4.65,0,0,1,3-.86c0,.18,0,.36,0,.54a22.6,22.6,0,0,1-8.73,9.67,45.17,45.17,0,0,1-11.76,4.94C171.55,122.82,169,124,164.16,123.87Z"/><path class="cls-50" d="M195.33,106.73l-1.44,1.09c-2.56-.7-3.76-1.61-3.5-2.75a.45.45,0,0,0-.16-.52c-.39.18,0,.36,0,.55,0,.42-.31.81-1.14,1.09-2.94,1-3.68,2.27-3.61,3.65.08,1.76-3.32,2.89-6.25,4.09a2.79,2.79,0,0,1-1.39,0c.36-2.46,4.73-4.49,5.6-7,.82-2.3,2.89-4.57,3.27-6.92a1,1,0,0,0-.86-1c-6.08-1.56-2.58-3.67-2.65-5.57,0-.23.41-.47.63-.71a7.82,7.82,0,0,1,1.28.57c1.8,1.43,3.38,2.81,4,4.46.41,1.12,1.24,2.85,4.73,3.81,2.79,1.11.66,2.36.81,3.54A6.2,6.2,0,0,0,195.33,106.73Z"/><path class="cls-53" d="M128.39,117.18l-3-.27c-1.47-.87.75-1.14,2-1.55,2.42-.76,6.06-.82,8.24-1.73,1.83-.39,2.89-1.32,5.71-1,1.59-.56,3.49-.33,5.34-.26-2.13,1.82-7.75,2-11.53,3-1.27.35-2.48.72-3.72,1.08Z"/><path class="cls-54" d="M141.33,112.61,136.75,114c-7.74.86-13.28,3.19-21.24,3.9a3,3,0,0,1-1.41-.34.53.53,0,0,1-.24-.4c.64-1.05,2.91-1.51,5.47-1.85,5.94-.8,11.23-2,16.53-3.22,4.32-1,6.72-2.42,7.91-4.08,1-1.42,3.27-2.58,5.18-3.81,1.23-.8,3.52-1.12,6.19-.92.57.05,1.12.12,1.68.18a2.35,2.35,0,0,1,1.26.4l-2.26.76c-6.92.49-7.39,2.79-9,4.48C145.48,110.42,144.77,111.72,141.33,112.61Z"/><path class="cls-55" d="M135.28,101.1c3.1.15,5.08-.68,7.56-1.07l0,.81c0,.46-1,.67-1.82,1-4.47,1.18-9.17,2.25-13.75,3.38s-6,2.92-7.85,4.58a21.05,21.05,0,0,1-5.57,3.29,5.74,5.74,0,0,1-4.42.32c-.94-.55-.82-1.07.33-1.56a7.31,7.31,0,0,0,4.55-2c2.43-1.73,3.68-3.68,8-5,1.12-.36,1.52-.92,1.38-1.48s.38-.86,1.56-1.13C128.87,102.1,131.9,101.4,135.28,101.1Z"/><path class="cls-56" d="M158.08,103.82l-1.57,0c-.84-1.67-4.91-2.22-8.37-3-.52-.59-.33-1.23-.82-1.82s0-.89,1.28-1.14a3.56,3.56,0,0,1,2.88.52,10.48,10.48,0,0,0,2,.6c6.1.33,6.29,2.33,8.13,3.77C162.51,103.43,159.42,103.49,158.08,103.82Z"/><path class="cls-57" d="M153.47,99c-4.58-.8-4.58-.8-4.53,1.87a3,3,0,0,1-1,.07c-1.1-.21-1.62-.55-1.63-1,0-.69-1-1.16-2.67-1.49-1.15-.36-2.52-.68-2.29-1.34-.79-.39-.27-.62.76-.8C147.23,96.47,151.43,97.15,153.47,99Z"/><path class="cls-58" d="M142.09,96.29l-.76.8a10,10,0,0,0-6.83-.23,3.51,3.51,0,0,1-2.61-.06c-.68-.58-1.25-1.25-1.08-1.85.09-.34,1.85-.25,3-.16A46.74,46.74,0,0,1,142.09,96.29Z"/><path class="cls-59" d="M143.62,98.43c4.74,0,3.43,1.52,4.58,2.4.19.41-.59.54-1.46.65-2.07.12-4.2.64-6.15-.1l2.28-.54C146.38,100.16,144.48,99.28,143.62,98.43Z"/><path class="cls-60" d="M102.54,105.12c-.19-.41.58-1-1-1.16-.65-.06-1.62.52-2.59.61-2,.19-2.57,1.67-4.83,1s0-1.47,1.46-2.2c7.93-3.94,24-6.08,37.35-4.92,0,.89,5.7,1.11,2.31,2.4a7.56,7.56,0,0,1-2.2,0c-2.6-.82-5.13-.35-7.69,0-3.81.24-7.34.8-11.26,1-2.85.14-4.29,1.51-6.35,2.33a9.53,9.53,0,0,1-4.28,1.19A3.47,3.47,0,0,1,102.54,105.12Z"/><path class="cls-61" d="M125.36,100.3a17.31,17.31,0,0,1,9.91.53c0,.09,0,.18,0,.27-2.18,1.48-6,1.44-9.93,1.35a3,3,0,0,1-1.42.09c-1-.52.12-.86,1-1.1C126.39,101.07,125.84,100.7,125.36,100.3Z"/><path class="cls-62" d="M190.77,111c-2.13,3.64-7.07,6.74-14.44,9.38A101.79,101.79,0,0,1,155,124.21a6.14,6.14,0,0,0-2.37.51c-.25.44,1.27.44,2.12.59,1.58.29,3.73.56,3.51,1.24s-2.71.36-4.09.55A42.82,42.82,0,0,1,137.35,126c-3.15-.78-6,.88-8.94,0,.41-.81-1.59-1-2.81-1.44-1.69-.57-3.44-1.16-1.8-2.06a10.66,10.66,0,0,1,7-.21c3.6,1.69,7.79.89,11.94.69a76.26,76.26,0,0,0,15.56-1.13c4.45-.81,9.47-1.16,13.68-2.16a12.19,12.19,0,0,0,1.46-.41,8.19,8.19,0,0,1,.86-.23c1.77-.37,3.29-.78,3.65-1.58.22-.48,1.21-.87,2.15-1.23a21.45,21.45,0,0,0,6.14-3.78C187.15,111.78,187.72,110.9,190.77,111Z"/><path class="cls-63" d="M142.86,123.33c-4.25.2-8.82,1.42-12.34-.6a8,8,0,0,0-4.48-.29c-.71.14-1.77.44-1.7.61.29.71,2,1.29,3.57,1.43,4.71.41,2.62.93.5,1.53a92.16,92.16,0,0,1-19.78-4.07c-3-1-7-.66-8.91-1.61-5.82-3-4.06-3.63,4.35-5.83a4.93,4.93,0,0,1,2.09-.14,1.15,1.15,0,0,1,.63.3c.2.38-.39.68-.8,1-1.09.87-.55,1.64,1.27,2.33l.4.34c3.17,1.88,9,2.29,14,3.18a2.8,2.8,0,0,0,1.41-.07c3.24-1.67,6-.16,8.62.25a51,51,0,0,0,8.36,1,8.41,8.41,0,0,1,1.58.2A2.51,2.51,0,0,1,142.86,123.33Z"/><path class="cls-64" d="M102.54,105.12h.78c1.16.49.3.9-.35,1.34-2.18,1.48-3.19,3.08-3.3,4.74,0,.44,0,1,1.52,1.11a3.91,3.91,0,0,0,3.09-.76,25.31,25.31,0,0,1,2.34-1.82,4.53,4.53,0,0,1,3.87-.6c.24,1.48-.61,2.81-4.21,3.75-1.66,1.12-4.88,1.63-7.87,2-4.22.45-4.18-1.06-4-1.78C95.12,110.19,96.06,107.28,102.54,105.12Z"/><path class="cls-65" d="M106.28,112.89l3.78-3.76c0-.27.45-.38,1.12-.42,3.18.51,3.67.87,2.09,1.84-.72.43-.75,1-2.39,1.26l-.73,1.6c-.33.77-2.08.92-3.82,1.07l-2.26,0C104.88,114,106.64,113.61,106.28,112.89Z"/><path class="cls-66" d="M139.83,123.32a62.65,62.65,0,0,1-10.05-1.44c-1.37-.35-4.21-1.59-5.92.1a5.2,5.2,0,0,1-1.68.09c-5.58-1-12.43-1.34-15.82-3.56a5.29,5.29,0,0,1,3.57.26c2.17.78,5.13,1,7.76,1.46,2,.36,3.23.08,3.68-.68a5.88,5.88,0,0,1,2.79.12c2.73.85,6.4.6,9.41,1.08,1.91.3,2.8-.82,4.71-.36,7.37,0,14.34.56,21.7-1.11A113.33,113.33,0,0,0,177.85,114c3.05-1.69,7.15-3.18,6.29-5.5-.33-.9,1.06-1.9,3.53-2.54,1.33-.34,2.92-.79,0-1.17-1-.12-1.09-.4-.39-.61a26.45,26.45,0,0,1,3.44-.78c.79-.12,1.75.19,1.42.43-2.13,1.52,1.74,2.67,1.8,4L190.77,111c-3.83,2.28-7.74,4.55-11.44,6.85a18.39,18.39,0,0,1-4.5,1.73c-1.25-.19-.21-1-1.76-1-.94,0-1.5.32.06.49a7,7,0,0,1,1.7.48c-5.65,1.71-12.93,2.4-19.46,3.41-3,.45-8.16,1.35-12.51.33h-1.53c-.24-.67,1.36-.63,2.44-.77.85-.1,1.87-.15,1.61-.58s-1.4-.43-2.43-.41C139.47,121.61,140.51,122.66,139.83,123.32Z"/><path class="cls-67" d="M115.48,117.69A188.24,188.24,0,0,1,136.75,114c-2.19,1-6.13,1-8.67,1.76-1.11.36-2.52.59-2.73,1.19-1.77.54-4.4.72-5.32,1.61a4.57,4.57,0,0,1-1.64.3C116.58,118.72,115,118.53,115.48,117.69Z"/><path class="cls-63" d="M118.5,118.52H120c4.41,1.55,10.12,1.62,15.81,1.74.81,0,1.62.08,2.44.13-6.51,2.14-11.19-.46-16.74-.8C119.14,119.72,118.12,119.36,118.5,118.52Z"/><path class="cls-68" d="M180.15,89.32c-.67.45-.31,1.46-2.45,1.16-1.95-.27-3.92-1-3.4-2,.4-.75,1.69-.79,3.13-.24.92.35,1.81.71,2.71,1.07Z"/><path class="cls-69" d="M155,103.76c-6.74-.18-7.88,2-8.82,3.31-3.56,5-14.65,6.84-26.09,8.69a18.76,18.76,0,0,0-5.38,1.39A2.83,2.83,0,0,1,113,117c-1.62-.83-4.13-1.4-5.49-2.31,0-.18.15-.4.63-.46,7.61-.88,9.72-3.39,12.16-5.57s6.84-3.69,12.17-4.85c4-.88,7.53-2.11,12.37-2.49a7.91,7.91,0,0,1,1.82,0c1.33,1-1.85,1.22-2.3,1.9a43,43,0,0,1-10.13,2.24,17.75,17.75,0,0,0-8.35,2.79,57.52,57.52,0,0,0-5.5,4.39c-.87.76,0,1.09,2.07.78,8.33-1.27,16.69-2.37,19.4-6.09a11.82,11.82,0,0,1,5.66-4.41,19.18,19.18,0,0,1,5.42-.21C154.26,102.87,155.4,103.15,155,103.76Z"/><path class="cls-70" d="M107.94,114.75c3.89.23,4.78,1.51,6.75,2.4l0,.3c-.15.53,1,1.15-.82,1.58a8.41,8.41,0,0,1-4.36-.36c-1-.22-2.17-.21-3.13-.43-4.37-1.16-3.34-2.32,0-3.49A3,3,0,0,1,107.94,114.75Z"/><path class="cls-71" d="M106.35,118.24a20,20,0,0,1,3.27.07c3.41.87,4.45.21,5-.86l.82.24,3,.83,3,1.07c.4.47,2.87.72,1.5,1.34-1.15.51-2.83.1-4.26,0-4.93-.31-8.55-1.45-12.42-2.43A.82.82,0,0,1,106.35,118.24Z"/><path class="cls-72" d="M143.62,103l3-1.59c-.49-.08-.5-.18,0-.27l1.57-.28c.25,0,.49,0,.74,0,5.77,0,9,.71,7.57,3l-1.53,0c-2-1.15-5-.36-7.53-.51A5.75,5.75,0,0,1,143.62,103Z"/><path class="cls-73" d="M110.88,111.81c-1.16-1,5.14-2-.06-3-1.1-.29-1.26-.72-.77-1.08,3.12-2.24,6.89-4.29,13.8-5.32h1.5c-1.11,3.64-9.48,6.1-12.44,9.45A1.6,1.6,0,0,1,110.88,111.81Z"/><path class="cls-74" d="M146.63,101.11c0,.09,0,.18,0,.27-11.78,2.08-23.13,4.26-27.85,9.09-1.81,1.86-4.76,3.64-10.85,4.28h-1.59a2.45,2.45,0,0,1,0-.27l3.82-1.07c4.62-.71,6.67-2.2,7.83-3.71,3.29-4.26,13.73-6,22.61-8.32Z"/><path class="cls-75" d="M123.85,102.45c-3.25,1.71-8.73,2.75-11.26,4.69-.73.56-1.94,1-1.77,1.71l-.76.28c-2.92.57-2.69,1.74-4,2.61a7.26,7.26,0,0,1-5.36,1.35C98,112.87,98,112,98,111.24c.06-2.22,1.76-4.27,5.33-6.11l8.16-3.66a5.28,5.28,0,0,1,1.45-.51c4.57.71,8.17-.74,12.43-.66,1.29.07,3.23-.21,3.71.32s-1.49.8-2.64,1.1C125.55,102,124.71,102.21,123.85,102.45Z"/><path class="cls-76" d="M139.83,123.32c-.9-.53-3.16-1-1.24-1.7a16.65,16.65,0,0,1,7.34-.57c2,.22,1.63,1,1.42,1.5-.6,1.52-4.62-.08-6,.78Z"/><path class="cls-77" d="M174.83,119.59c-1.93.07-4-.4-5.82.14a6.56,6.56,0,0,1-1.19-.14c1.5-.61,2.91-1.26,4.56-1.83a5.38,5.38,0,0,1,3.07.16c1.9.62-.71,1.09-.62,1.67Z"/><path class="cls-78" d="M143.62,103l3.82.28c-2.81,4.81-8.77,8.77-22.84,10.56-2,.25-4.28.78-6.07.21-2-.66.19-1.4.79-2.08C123.24,107.56,132.07,104.81,143.62,103Z"/><path class="cls-79" d="M125.38,109.44c.93-1.51,4.49-2.77,9.32-3.4,3.1-.4,4.75.42,4.65,1.61-.15,1.72-3.29,2.76-6.83,3.6C128.72,112.14,125.3,111.41,125.38,109.44Z"/><path class="cls-80" d="M229.37,123.3c.35-6.44-12.63-.87-20.3.4-9.1,1.51-17.73,3.44-27.7,4.26-1.23.1-2.7.37-3.48-.09-1-.59.94-.74,1.84-1a60.54,60.54,0,0,1,7.58-1.49c10.35-1,14.68-4.43,17.85-7.42a.86.86,0,0,0,.14-.13s0,0,0,0a9.81,9.81,0,0,0,1-1.18,9.92,9.92,0,0,1,1.31-1.57,10.13,10.13,0,0,0,2.36-2.93c2.24-4.91.8-8.82-.81-6.43-2.82,4.19-5,4.12-7.37,5.38-4.3,2.32.41-3.07,1-5.1a4.65,4.65,0,0,0-.12-2.37c-.17-.37-.27-.73-.41-1.07a17,17,0,0,0-4.08-6.72,28.29,28.29,0,0,0-5.63-5.24,35.39,35.39,0,0,0-9.38-3.95l-.68-.2c-3.63-1.06-7.35-2-11-2.92-2.81-.68-5.6-1.41-8.4-2.2l-.51-.15c-2.59-.73-5.05-1.57-7.72-2.07-2.82-.52-5.66-.9-8.5-1.31-14.25-2.07-29.19-1.76-44-1.32-9.39.27-18.08,1.68-26.55,3C64.68,81.17,55.23,84,45.64,86.54c-3.48.94-6.83,2.19-8.3,3.78,0,0,0-.08,0-.07-.55.41-.88.63-1.26.88-.79.53-1.54,1-2.36,1.54-.37.25-.73.51-1.08.79s-.83.68-1.22,1.05a13.9,13.9,0,0,0-1.47,1.4c-.32.39-.7.76-1,1.18,0,0,0,0,0,0a9,9,0,0,0-1.19,2.08c-.22.55-.8,2.47,1.37,1.54a10.31,10.31,0,0,1,3.44-.84c1.66-.13,3.36.57,5.34.47,3.52-.19,6.17-1.66,9.13-2.88,2.6-1.08,6.61-2.36,11.1-3.93a75.18,75.18,0,0,1,8.6-2.89c4.91-1.13,12.35-1.22,18-2.29a1.9,1.9,0,0,1,1,.09c.25.15-.21.21-.49.29a80.35,80.35,0,0,0-9.69,3.48c-7.14,2.82-15.09,5.46-19.72,11.93a12.57,12.57,0,0,0-2.6,5.64,18.85,18.85,0,0,0,.48,6.73c.34,1.34.85,2.81,2.2,3.44l.34.15a6.51,6.51,0,0,1,2.78,2.39,27.32,27.32,0,0,0,2.34,3.3c2.48,2.55,5.86,4.33,9,5.94A47.71,47.71,0,0,0,78.25,135h0c.32.11,1.08.42,2.23.9a16.51,16.51,0,0,0,3.69,1c1.39.28,2.79.56,4.18.88,4.18,1.12,8.21,3.07,11.93,4.25v0l.22,0a128,128,0,0,0,27.59,1.61c1.58-.08,3.93-.25,5.81-.25,2.54,0,5.07-.25,7.6-.47,2.2-.19,4.85.32,7-.38,1.69-.07,3.39-.35,5.07-.53,2.34-.25,4.67-.48,7-.67,3.89-.32,7.79-.43,11.66-1s7.63-1.27,11.47-1.71c1.8-.2,3.61-.43,5.4-.75a19.35,19.35,0,0,0,5.16-1.23l.31-.07c6.89-1.86,14.66-3.31,20.55-5.62,6.2-1.53,10.45-3.55,13.26-6.1a8.45,8.45,0,0,0,.67-.72,2.5,2.5,0,0,0,.3-.75A.61.61,0,0,0,229.37,123.3Z"/><path class="cls-81" d="M194,141.88c-1.62-.74-6.69-2.74-7.65-3.1-1.71,2.48-3.35,5-4.95,7.56-2.18,3.49-2.89,4.52-6.31,10,.73.47,4,2.59,5.43,3.61.81.59,1.26.54,1.83-.35,1.82-2.82,3.73-5.58,5.6-8.37C190,148.12,192.09,145.08,194,141.88Z"/><path class="cls-82" d="M211.39,96.4a9.56,9.56,0,0,1-3.13-1.65c-.68-.49-1.25-1.42-2-1.89s-1.45-.9-2.17-1.4c-.52-.36-.9-.12-1.2.36-.79,1.24-1.6,2.47-2.4,3.71-.24.36-.36.74.1,1s1.77,1.14,2.25,1.45c1,.62,1.42.38,2.61,1a9.57,9.57,0,0,1,2.4,1.74,6,6,0,0,1,1.34,1.7,4.53,4.53,0,0,1,.47,1.57,4.05,4.05,0,0,1-.76,2.62c-2.67,4.06-5.27,8.18-7.89,12.27.44.21,3.19,2.22,3.63,2.36,2.75-3.93,5.25-8,7.86-12a4.88,4.88,0,0,1,2.93-2.31l.41-.07c2.74.22,4,2.07,4.72,4.42a20.49,20.49,0,0,1,1,6c0,.79,0,1.58,0,2.37a.78.78,0,0,0,.69.83c.42.06.36-.37.42-.64a27.66,27.66,0,0,0,.77-9.67,25.22,25.22,0,0,0-.81-4.12c-1.06-3.66-2.07-4.63-3.55-5.59l-4.44-2.87A8,8,0,0,0,211.39,96.4Zm-.41,7.51,0,0h0Z"/><path class="cls-83" d="M205.06,122.87c.28-.49.48-1.18-.18-1.61L201,118.75a1.3,1.3,0,0,0-1.61.66C197,123,188.1,135.77,186.32,138.79c.86.43,6,2.35,7.65,3.1C195.84,139.28,204.72,123.46,205.06,122.87Z"/><path class="cls-80" d="M222.7,119.72a27.66,27.66,0,0,0,.77-9.67,25.22,25.22,0,0,0-.81-4.12c-1.06-3.66-2.07-4.63-3.55-5.59l-4.44-2.87a8,8,0,0,0-3.28-1.07,9.56,9.56,0,0,1-3.13-1.65c-.68-.49-1.25-1.42-2-1.89s-1.45-.9-2.17-1.4c-.52-.36-.9-.12-1.2.36-.79,1.24-1.6,2.47-2.4,3.71-.24.36-.36.74.1,1s1.77,1.14,2.25,1.45c1,.62,1.42.38,2.61,1a9.57,9.57,0,0,1,2.4,1.74,6,6,0,0,1,1.34,1.7,4.53,4.53,0,0,1,.47,1.57,4.05,4.05,0,0,1-.76,2.62c-2.66,4-5.25,8.14-7.86,12.22l-.07,0a1.3,1.3,0,0,0-1.61.66C197,123,188.1,135.77,186.32,138.79h0c-1.71,2.48-3.35,5-4.95,7.55-2.18,3.49-2.89,4.52-6.31,10,.73.47,4,2.59,5.43,3.61.81.59,1.26.54,1.83-.35,1.82-2.82,3.73-5.58,5.6-8.37,2.06-3.08,4.17-6.12,6.05-9.32h0c1.88-2.61,10.75-18.42,11.09-19s.48-1.18-.18-1.61l-.17-.12c2.73-3.91,5.23-8,7.82-12a4.88,4.88,0,0,1,2.93-2.31l.41-.07c2.74.22,4,2.07,4.72,4.42a20.49,20.49,0,0,1,1,6c0,.79,0,1.58,0,2.37a.78.78,0,0,0,.69.83C222.7,120.42,222.64,120,222.7,119.72Z"/><path class="cls-84" d="M75.52,129.39,6,98.4c-.75-.33-1.14-.13-1.48.56C3.72,100.64,2,104,2,104l72.36,58Z"/><path class="cls-82" d="M2,104,.76,106.44l2,.25.57,2,2.2.18.52,2,2.15.16.52,2,2.21.12.5,2,2.15.14.58,2.08,2.15.06.5,2.07,2.12.19.61,2,2.08.16.58,2,2.16.14.59,2,2.07.16.6,2,2.05.19.68,2,2.06.09.61,2,2.1.24.57,1.94,2.08.13.58,2.07,2.1.13.6,2,2.14.22.57,1.95,2,.15.6,1.94,2.13.24.61,2,2.12.15.53,2.12,2.18.08.54,1.93,2.08.23.53,2,2.21.13.54,2,2.07.18.57,2,2.18.16.56,2,2.13.14.52,2,2.15.19.59,1.94,2,.21a11.39,11.39,0,0,0,.63,1.95c.1-.07,2.81-2.36,2.81-2.36Z"/><path class="cls-83" d="M74.86,129.1c.7.33,14.29,5.41,21,7.51,3.81,1.19,4.74,2.89,3,6.75a24.92,24.92,0,0,0-2.35,6.88c-.72,4.56-1.15,9.15-1.47,13.76-.24,3.33-1,5.3-5.29,3.51-4.46-1.84-14.8-5.32-15.36-5.58,0-.19-4.11-11.78-6-17.1a2.54,2.54,0,0,1,.06-2.14C69.84,139.67,74.19,130.47,74.86,129.1Zm8.36,9.48c-2.63.43-4.76,3-5.12,6-.72,5.88-.73,11.92,3,16.88a4.87,4.87,0,0,0,3.49,1.41,3.51,3.51,0,0,0,3.35-4.09,4.31,4.31,0,0,1,.22-3.75,3.62,3.62,0,0,0,.27-2.2,3,3,0,0,1,.61-3.05,2,2,0,0,0,.18-2.26,2.24,2.24,0,0,1,.49-2.77,2.93,2.93,0,0,0,.19-3.29,7.1,7.1,0,0,0-4.16-2.8A8.48,8.48,0,0,0,83.22,138.58Z"/><circle class="cls-85" cx="76" cy="136.01" r="1.16"/><circle class="cls-85" cx="72.35" cy="144.38" r="1.16"/><circle class="cls-85" cx="75.17" cy="155.68" r="1.16"/><path class="cls-80" d="M95,164c.32-4.61.75-9.2,1.47-13.76a24.92,24.92,0,0,1,2.35-6.88c1.79-3.86.86-5.56-3-6.75-6.7-2.1-20.29-7.18-21-7.51L6,98.4c-.75-.33-1.14-.13-1.48.56C3.72,100.64,2,104,2,104H2L.76,106.44l2,.25.57,2,2.2.18.52,2,2.15.16.52,2,2.21.12.5,2,2.15.14.58,2.08,2.15.06.5,2.07,2.12.19.61,2,2.08.16.58,2,2.16.14.59,2,2.07.16.6,2,2.05.19.68,2,2.06.09.61,2,2.1.24.57,1.94,2.08.13.58,2.07,2.1.13.6,2,2.14.22.57,1.95,2,.15.6,1.94,2.13.24.61,2,2.12.15.53,2.12,2.18.08.54,1.93,2.08.23.53,2,2.21.13.54,2,2.07.18.57,2,2.18.16.56,2,2.13.14.52,2,2.15.19.59,1.94,2,.21a11.39,11.39,0,0,0,.63,1.95c.1-.07,2.81-2.36,2.81-2.36h0c3.27,1.15,10.15,3.53,13.57,4.94C94,169.3,94.75,167.33,95,164Zm-10.44-1.16a4.87,4.87,0,0,1-3.49-1.41c-3.69-5-3.68-11-3-16.88.36-2.92,2.49-5.54,5.12-6a8.48,8.48,0,0,1,2.48,0,7.1,7.1,0,0,1,4.16,2.8,2.93,2.93,0,0,1-.19,3.29,2.24,2.24,0,0,0-.49,2.77,2,2,0,0,1-.18,2.26,3,3,0,0,0-.61,3.05,3.62,3.62,0,0,1-.27,2.2,4.31,4.31,0,0,0-.22,3.75A3.51,3.51,0,0,1,84.55,162.84Z"/><path class="cls-86" d="M78.52,42.16c-1.92-2.56-3.59-5.29-5.32-8,.72-.49,1.43-1,2.16-1.46L122.15,1.92l3.59,5.5,1,1.5.66,1-25,16.47Z"/><path class="cls-87" d="M78.52,42.16l23.89-15.79,25-16.47c1.2,1.8,2.38,3.63,3.61,5.4.57.82.58,1.42-.35,1.93a12.7,12.7,0,0,0-1.09.71L84.85,47.37c-2.19,1.44-2,1.59-3.42-.65C80.45,45.21,79.49,43.68,78.52,42.16Z"/><path class="cls-84" d="M122.15,1.92,75.36,32.73c-.73.48-1.44,1-2.16,1.46-1.23-1.82-1.24-1.83.46-2.95q22.77-15,45.55-30C120.91.15,120.92.16,122.15,1.92Z"/><path class="cls-87" d="M126.75,8.92l-1-1.5a31.19,31.19,0,0,1,2.84-1.57c2.2-.79,4-.43,5.34,1.49,1.79,2.54,3.55,5.11,5.1,7.81a6.71,6.71,0,0,1,.09,6.65L129.93,40c-.68,1.35-1.34,2.72-2.09,4a6.42,6.42,0,0,0-.34,6.41l-1.26.89a6.91,6.91,0,0,1-.28-7.38c2.73-5.34,5.42-10.69,8.13-16q1.75-3.48,3.54-7a5.3,5.3,0,0,0-.45-5.54c-1.34-2.15-2.76-4.25-4.16-6.36s-2.58-2.5-4.85-1.11C127.68,8.24,127.22,8.59,126.75,8.92Z"/><path class="cls-83" d="M137.78,69.13h0Z"/><path class="cls-83" d="M131.22,48.87c-.54-.35-1-.19-1.6.23l-5.32,3.5a1.18,1.18,0,0,0-.45,1.5c.77,1.84,2,3.77,3.92,4,.83.09,1.59,1.08,2,1.69,1.82,3,3.52,6.11,5.34,9.13a9.7,9.7,0,0,1,2.81.14,1,1,0,0,1,1,0h0l.77-.35a5.87,5.87,0,0,0,2.78-.45c-2.89-4.07-5.07-7-7.57-10.58-.87-1.22-1.51-2.32-1.06-3.95S132.6,49.77,131.22,48.87Z"/><path class="cls-81" d="M156.63,87.59c-2.2-3-11.8-16.08-14.23-19.39-.89.36-6.94.68-7.33.71.15.23,12,20.2,13.67,23,1.3,2.11,1.48,2.25,3.15,1.13,1.38-.93,2.78-1.81,4.17-2.72C157.76,89.17,157.78,89.16,156.63,87.59Z"/><path class="cls-80" d="M133.92,7.34c-1.35-1.92-3.14-2.28-5.34-1.49a31.19,31.19,0,0,0-2.84,1.57l-3.59-5.5c-1.23-1.76-1.24-1.77-2.94-.65q-22.78,15-45.55,30C72,32.36,72,32.37,73.2,34.19c1.73,2.68,3.4,5.41,5.32,8,1,1.52,1.93,3.05,2.91,4.56,1.46,2.24,1.23,2.09,3.42.65l44.73-29.43a12.7,12.7,0,0,1,1.09-.71c.93-.51.92-1.11.35-1.93-1.23-1.77-2.41-3.6-3.61-5.4l-.66-1c.47-.33.93-.68,1.42-1C130.44,6.54,131.52,6.78,133,9s2.82,4.21,4.16,6.36a5.3,5.3,0,0,1,.45,5.54q-1.78,3.48-3.54,7c-2.71,5.35-5.4,10.7-8.13,16a6.91,6.91,0,0,0,.28,7.38l1.26-.89a6.42,6.42,0,0,1,.34-6.41c.75-1.32,1.41-2.69,2.09-4l9.18-18.18a6.71,6.71,0,0,0-.09-6.65C137.47,12.45,135.71,9.88,133.92,7.34Z"/><path class="cls-80" d="M123.85,54.1c.77,1.84,2,3.77,3.92,4,.83.09,1.59,1.08,2,1.69,1.82,3,3.52,6.11,5.34,9.12.15.24,12,20.21,13.67,23,1.3,2.11,1.48,2.25,3.15,1.13,1.38-.93,2.78-1.82,4.17-2.72,1.7-1.12,1.72-1.13.57-2.7-2.2-3-11.8-16.08-14.23-19.39-2.89-4.07-5.07-7-7.57-10.58-.87-1.22-1.51-2.32-1.06-3.95s-1.17-3.9-2.55-4.8c-.54-.35-1-.19-1.6.23l-3.38,2.22L124.3,52.6A1.18,1.18,0,0,0,123.85,54.1Z"/><path class="cls-88" d="M21.62,11.77a6.54,6.54,0,0,1,.61,1.56c.63,5.48,3.8,8.4,9.15,9.16a6.35,6.35,0,0,1,1.18.41c-.39.25-.76.68-1.17.73-5.56.74-8.51,4-9.25,9.42a4,4,0,0,1-.55,1.14,4.82,4.82,0,0,1-.47-1.14Q20,24.64,11.61,23.6a3.48,3.48,0,0,1-.9-.42c.2-.19.39-.53.61-.55,6-.67,9.15-4.15,9.94-10A4.24,4.24,0,0,1,21.62,11.77Z"/><path class="cls-89" d="M44.63,6.17c.2.59.35.94.43,1.3.61,3.08,3,4.17,5.58,5.09-2.8.59-4.89,2-5.61,5a4.11,4.11,0,0,1-.51,1c-.1-.32-.22-.64-.31-1s-.08-.51-.16-.76c-.73-2.51-3.13-3.2-4.95-4.51,2.73-.66,4.61-2.19,5.17-5.06A10.45,10.45,0,0,1,44.63,6.17Z"/><path class="cls-90" d="M48.16,30.63c-1.1.95-2.24,2.69-3.51,2.78-.94.07-2-2-3.07-3.09,1.18-1,2.28-2.69,3.59-2.89C46,27.31,47.11,29.43,48.16,30.63Z"/><path class="cls-89" d="M218.05,39.69a3.51,3.51,0,0,1-.56.64c-4.72,3.25-6.33,7.48-4.13,12.93a2.16,2.16,0,0,1,0,.8,2.79,2.79,0,0,1-.67-.48q-4.8-7.11-12.8-4a2.86,2.86,0,0,1-.93,0,4.05,4.05,0,0,1,.66-.76c4.68-3.15,6-7.34,4-12.61a4.19,4.19,0,0,1-.14-1c.23.13.55.2.68.4,3.27,5,7.69,6.17,13.14,4.07A3.35,3.35,0,0,1,218.05,39.69Z"/><path class="cls-91" d="M205.42,59.25a4.92,4.92,0,0,1-.73.85c-3.52,2.47-4.66,5.68-3.12,9.76a3.35,3.35,0,0,1,.07,1,3.37,3.37,0,0,1-.75-.57c-2.48-3.5-5.69-4.65-9.77-3.1a3.35,3.35,0,0,1-1,.07,2.94,2.94,0,0,1,.58-.75c3.64-2.53,4.53-5.88,3.08-10a3.46,3.46,0,0,1-.07-.8,3.25,3.25,0,0,1,.77.56c2.52,3.65,5.87,4.55,10,3.1A5.35,5.35,0,0,1,205.42,59.25Z"/><path class="cls-88" d="M178.53,50.63c.43.43.76.77,1.1,1.1,1.5,1.44,3.35,1.24,5.19,1.12a5,5,0,0,0-2.15,4.54c0,.54.17,1.07.26,1.61-.43-.39-.84-.81-1.28-1.17a4.6,4.6,0,0,0-3.43-1c-.49,0-1,.11-1.48.17.32-.35.64-.7.94-1.05a5,5,0,0,0,1-4.41C178.67,51.24,178.61,51,178.53,50.63Z"/><path class="cls-90" d="M192.52,47.67c-.92-.32-2.06-.4-2.31-.91a2.22,2.22,0,0,1,.73-2.08,2.22,2.22,0,0,1,2.12.66C193.33,45.88,192.74,46.84,192.52,47.67Z"/><path class="cls-90" d="M134,209.94a10.63,10.63,0,0,1-.1-1.23c.38-4.68-1.54-7.86-6-9.39a4.5,4.5,0,0,1-.91-.55c.34-.12.69-.38,1-.35,4.89.52,7.9-1.76,9.47-6.25a4.74,4.74,0,0,1,.44-.75c.12.34.38.7.35,1-.47,4.84,1.63,8,6.23,9.47.25.08.43.38.64.58-.22.08-.46.26-.67.24-4.87-.44-8.19,1.48-9.7,6.25A5,5,0,0,1,134,209.94Z"/><path class="cls-90" d="M190.89,191.41a9.16,9.16,0,0,1-.93.17,10.48,10.48,0,0,0-8.78,5.48c-.18.31-.36.62-.55.93a4.85,4.85,0,0,1-.36-1,10.28,10.28,0,0,0-5.72-8.6,3.84,3.84,0,0,1-.67-.55,8.85,8.85,0,0,1,.87-.16,10.41,10.41,0,0,0,8.59-5.41,5.49,5.49,0,0,1,.72-.81,4.18,4.18,0,0,1,.21.77,10.4,10.4,0,0,0,5.91,8.75C190.37,191.06,190.55,191.19,190.89,191.41Z"/><path class="cls-91" d="M163.64,183.81c-.75,0-1.13,0-1.5,0-8.06-.77-6.58-.19-9.3,6l-.36.8a3.18,3.18,0,0,1,0-.81c1.3-5.38-1-8.42-6.21-9.54a6.55,6.55,0,0,1-.85-.29c.28,0,.55.06.83.06a4.33,4.33,0,0,1,1.13,0c5.22,1.55,7.26-1.38,8.29-5.81a6.67,6.67,0,0,1,.54-1.23c0,.42.07.83,0,1.25-.25,6.62-.25,6.62,6.09,9.06C162.65,183.37,163,183.52,163.64,183.81Z"/><path class="cls-88" d="M196.56,172.4c.06.85.12,1.24.1,1.63a5.17,5.17,0,0,0,3.65,5.6,4.33,4.33,0,0,1,.95.72,3.5,3.5,0,0,1-1,.24,5.17,5.17,0,0,0-5.75,3.74,4.82,4.82,0,0,1-.57.87,3.92,3.92,0,0,1-.35-1.19c.17-2.91-1.19-4.72-3.87-5.67-.29-.11-.49-.47-.73-.71a3.09,3.09,0,0,1,.83-.15,5.33,5.33,0,0,0,6.05-4A8.46,8.46,0,0,1,196.56,172.4Z"/><path class="cls-88" d="M161.91,203.89a11.39,11.39,0,0,1-1.17.07c-2.72-.12-4.69.9-5.64,3.58a3.84,3.84,0,0,1-.83,1,11.29,11.29,0,0,1-.12-1.28c.07-2.55-.92-4.38-3.4-5.29a6.17,6.17,0,0,1-1.17-.79,4.31,4.31,0,0,1,1.29-.27c2.9.25,4.51-1.3,5.5-3.78a8.73,8.73,0,0,1,.42-.8c.14.25.41.52.39.75-.3,3.2,1.2,5.17,4.11,6.23C161.48,203.38,161.61,203.61,161.91,203.89Z"/><path class="cls-91" d="M173.64,219.17s-.15-.06-.15-.09a6,6,0,0,0-4-6.14,1.26,1.26,0,0,1,.34-.15,5.58,5.58,0,0,0,5.66-3.67,1.52,1.52,0,0,1,.26-.32,2.6,2.6,0,0,1,.22.79,4.51,4.51,0,0,0,2.08,4.28c2.89,1.62.56,1.23-.46,1.55a5.22,5.22,0,0,0-3.56,3.22A2.92,2.92,0,0,1,173.64,219.17Z"/><path class="cls-88" d="M120,192.59a7,7,0,0,1,.07,1.38c-.54,2.43,1.14,3.14,2.9,3.81-1.29.64-3.41-.57-3.94,1.82a6,6,0,0,1-.88,1.51c0-.53,0-1.05.1-1.57a2.23,2.23,0,0,0-1.84-2.69,9.38,9.38,0,0,1-1.3-.58,6,6,0,0,1,1.32-.11c1.78.26,2.71-.56,3.07-2.23A12.19,12.19,0,0,1,120,192.59Z"/><path class="cls-91" d="M213.93,174.32c-.53.36-1.64,1.71-2.54,1.58a3.37,3.37,0,0,1-1.94-2.79c.2-.89,1.85-1.46,2.86-2.16C212.86,172.08,213.41,173.22,213.93,174.32Z"/><path class="cls-88" d="M123.9,205.21l2.25,3c-1,.67-2.16,2.07-2.84,1.86-1-.3-1.55-1.8-2.29-2.79Z"/><path class="cls-88" d="M170.12,195.92l-2.76,2.21-2-3.12,3.11-2Z"/><path class="cls-90" d="M220.53,161.07c.52.83,1.53,1.75,1.35,2.27-.24.72-1.38,1.12-2.14,1.66-.5-.72-1.53-1.63-1.37-2.13C218.62,162.14,219.73,161.69,220.53,161.07Z"/><path class="cls-88" d="M198.55,195.31l-1.43-2c.79-.47,1.61-1.35,2.37-1.3.54,0,1,1.33,1.48,2.06Z"/><path class="cls-90" d="M102.6,209.18c-.52-.87-1.42-1.72-1.35-2.48,0-.56,1.42-1.47,2.09-1.38a2.47,2.47,0,0,1,1.38,2C104.51,208.09,103.38,208.55,102.6,209.18Z"/><path class="cls-91" d="M189.39,212.13c-.72.43-1.56,1.31-2.34,1.26a2.56,2.56,0,0,1-1.34-2.08c.27-.73,1.42-1.13,2.2-1.67C188.39,210.46,188.88,211.28,189.39,212.13Z"/><path class="cls-88" d="M137.45,180.07c-.62.36-1.47,1.26-2.11,1.13s-1.05-1.3-1.57-2L136,177.6Z"/></g></g></svg>