<?xml version="1.0" encoding="utf-8"?>
<!-- Generator: Adobe Illustrator 25.0.1, SVG Export Plug-In . SVG Version: 6.00 Build 0)  -->
<svg version="1.1" id="Layer_1" xmlns="http://www.w3.org/2000/svg" xmlns:xlink="http://www.w3.org/1999/xlink" x="0px" y="0px"
	 viewBox="0 0 183.6 133.5" style="enable-background:new 0 0 183.6 133.5;" xml:space="preserve">
<style type="text/css">
	.st0{fill:none;stroke:#000000;stroke-width:0.5;stroke-linecap:round;stroke-linejoin:round;}
	.st1{fill:none;stroke:#000000;stroke-width:0.25;stroke-linecap:round;stroke-linejoin:round;}
</style>
<g id="Layer_2_1_">
	<g id="Layer_1-2">
		<path d="M64.4,65.3c-1.8-0.8-3.7-1.4-5.7-1.7c-1.9-0.4-3.9-0.3-5.8,0.3c-1.8,0.7-3.5,1.7-4.9,3.1c-1.5,1.2-3,2.6-4.4,4
			c-0.7,0.7-1.3,1.4-2.1,2.2s-1.5,1.3-2.2,2c-1.5,1.2-2.9,2.7-4,4.3c-1.1,1.6-1.9,3.4-2.3,5.4c-0.3,1.9-0.4,3.9-0.2,5.9
			c0.1,2,0.2,4,0.4,6s0.4,4,1.6,5.5s2.9,2.7,4.1,4.3c0.3,0.4,0.6,0.9,0.8,1.3c0.2,0.5,0.3,1,0.5,1.4c0.3,0.9,0.7,1.8,1.2,2.6
			c0.5,0.8,1.3,1.3,2.3,1.3c0.9-0.1,1.8-0.4,2.6-0.9c1.6-1.1,2.8-2.7,3.3-4.6c0.5-1.9,0.5-3.9,0-5.8c-0.3-1.9-0.9-3.8-1.8-5.6l0,0
			l0,0c0,0,0-0.1,0-0.1c0.3-1.3,0.8-2.4,0.9-3.6c0.2-1.2,0.3-2.4,0.2-3.7c0-1.2-0.3-2.4-0.7-3.6c-0.4-1.2-1-2.3-1.6-3.4
			c0.7,1,1.3,2.1,1.8,3.2c0.5,1.2,0.8,2.4,0.9,3.6c0.1,1.2,0,2.5-0.2,3.7c-0.1,0.6-0.2,1.2-0.4,1.8c-0.2,0.6-0.4,1.2-0.5,1.7v-0.1
			l0,0c0.9,1.8,1.5,3.7,1.8,5.7c0.5,2,0.5,4,0,6c-0.6,2-1.8,3.7-3.6,4.9c-0.9,0.6-1.9,0.9-2.9,1c-0.6,0-1.1-0.1-1.6-0.4
			c-0.5-0.3-0.9-0.7-1.2-1.1c-0.6-0.9-1-1.8-1.3-2.8c-0.2-0.5-0.3-0.9-0.5-1.4c-0.2-0.4-0.4-0.8-0.7-1.2c-1.2-1.6-2.8-2.7-4.1-4.3
			c-0.6-0.8-1-1.8-1.2-2.8c-0.2-1-0.3-2-0.4-3c-0.2-2-0.3-4-0.4-6c-0.2-2-0.1-4,0.2-6c0.4-2,1.2-3.9,2.4-5.6c1.1-1.6,2.5-3.1,4-4.3
			c0.8-0.7,1.5-1.3,2.2-2s1.4-1.4,2.1-2.2c1.4-1.5,2.8-2.8,4.4-4.1l1.2-1c0.4-0.3,0.8-0.6,1.2-0.9l0.6-0.4l0.7-0.3
			c0.5-0.2,0.9-0.4,1.4-0.5c2-0.5,4-0.6,6-0.1C60.8,63.7,62.7,64.4,64.4,65.3z"/>
		<path d="M48,96.2c-0.2-0.4-0.4-0.8-0.6-1.2c-0.2-0.4-0.5-0.7-0.8-1.1c-0.6-0.7-1.2-1.4-1.9-2c0.7,0.6,1.4,1.2,2.1,1.8
			c0.3,0.3,0.6,0.7,0.9,1c0.3,0.4,0.6,0.8,0.8,1.2c0.1,0.1,0,0.3-0.1,0.3c0,0,0,0,0,0C48.3,96.4,48.1,96.3,48,96.2L48,96.2L48,96.2z
			"/>
		<path class="st0" d="M34.9,102.7c0,0,1.3,4.4,1.6,6.5s0.3,5.7,2.9,7.1s4.9,4.2,6.3,4.9s3.2,1.3,4.1,1.9c1.8,1.3,4.1,1.7,6.1,0.8
			c2.9-1.2,7.3-3.7,9.5-4.6s7.2-2.8,7.9-4s1.3-5-3.6-7c-2.7-1.1-4.4-0.3-6-0.3c-1.8-0.1-3.6,0.2-5.2,0.9c-1.1,0-2.2,0.1-3.3,0.3
			c-1.5-1.3-3.2-2.2-5-2.8"/>
		<path class="st1" d="M40.8,111.1c-0.4-1.3-0.8-2.7-1.1-4.1c-0.2-1.3-0.9-2.3,0-4s1.8-2.6,3-2.1s2.1,1.6,1.8,2.7
			c-0.6,2.4-2.9,5-3.1,8.5"/>
		<path d="M35.7,103.7c-0.2-0.8-0.2-1.7-0.2-2.5c0-0.8,0.1-1.7,0.3-2.5c0.1-0.8,0.3-1.7,0.5-2.5c0.3-0.8,0.8-1.5,1.6-1.9
			c-0.7,0.5-1.2,1.1-1.5,1.9c-0.2,0.8-0.3,1.6-0.4,2.5c-0.1,0.8-0.2,1.7-0.2,2.5c0,0.8,0.1,1.7,0.3,2.5l0,0c0,0.1,0,0.1-0.1,0.1
			c0,0,0,0,0,0C35.8,103.8,35.7,103.7,35.7,103.7L35.7,103.7z"/>
		<path d="M34.2,101.9c0.3-0.8,0.3-1.7,0-2.5C34.1,99,34,98.6,34,98.1c0-0.4,0.2-0.9,0.4-1.3l0.5-1.2c0.1-0.2,0.2-0.4,0.3-0.6
			c0.2-0.1,0.3-0.3,0.5-0.4c0.7-0.6,1.4-1.1,2.1-1.5c-0.7,0.5-1.4,1-2.1,1.6c-0.2,0.2-0.4,0.2-0.5,0.4c-0.1,0.2-0.2,0.4-0.3,0.6
			l-0.5,1.2c-0.2,0.4-0.3,0.8-0.3,1.2c0,0.4,0.1,0.9,0.3,1.2c0.1,0.2,0.2,0.4,0.2,0.6c0,0.2,0,0.5,0,0.7c0,0.4-0.1,0.9-0.2,1.3
			c0,0.1-0.1,0.1-0.1,0.1C34.2,102.1,34.2,102,34.2,101.9L34.2,101.9z"/>
		<path d="M33.1,98.5c0.1-0.7,0.2-1.3,0.3-1.9l0.4-1.8c0.2-0.6,0.5-1.2,1-1.6c0.4-0.5,0.9-0.9,1.5-1c-0.6,0.1-1.1,0.5-1.5,1
			c-0.4,0.5-0.7,1-0.9,1.6l-0.3,1.9c-0.1,0.6-0.2,1.3-0.3,1.8v0.1c0,0.1-0.1,0.1-0.1,0.1c0,0,0,0,0,0C33.2,98.6,33.2,98.5,33.1,98.5
			L33.1,98.5z"/>
		<path d="M38.4,94.9c-0.5,0.7-0.9,1.4-1.3,2.1c-0.2,0.4-0.3,0.8-0.4,1.2c-0.1,0.4-0.1,0.8-0.1,1.2c-0.2,1.6-0.2,3.3,0.1,4.9
			c0,0.1,0,0.1-0.1,0.1c0,0,0,0,0,0c-0.1,0-0.1,0-0.2-0.1l0,0c-0.2-1.7-0.2-3.3,0.1-5c0.1-0.4,0.1-0.8,0.2-1.2
			c0.1-0.4,0.2-0.8,0.4-1.2C37.4,96.2,37.9,95.5,38.4,94.9z"/>
		<path d="M49.1,92.6c1.1-0.9,1.9-2,2.5-3.2c-0.5,1.3-1.3,2.5-2.3,3.4c-0.1,0-0.1,0-0.2,0C49,92.7,49,92.7,49.1,92.6L49.1,92.6
			L49.1,92.6z"/>
		<path d="M49.9,100.6c2.9,0.4,5.9,0.6,8.8,0.6c2.9,0,5.9-0.1,8.8-0.5c-2.9,0.4-5.9,0.6-8.8,0.6c-3,0-5.9-0.1-8.8-0.5
			c-0.1,0-0.1-0.1-0.1-0.1c0,0,0,0,0,0C49.7,100.7,49.8,100.6,49.9,100.6C49.9,100.6,49.9,100.6,49.9,100.6L49.9,100.6z"/>
		<path d="M54.2,101.1c1.6-0.1,3.2-0.6,4.6-1.4c2.9-1.4,5.5-3.6,7.4-6.2c1-1.3,1.8-2.7,2.5-4.2c-0.7,1.5-1.5,2.9-2.5,4.2
			c-1,1.3-2.1,2.5-3.3,3.6c-1.2,1.1-2.6,2-4.1,2.7c-1.4,0.8-3,1.3-4.7,1.4C54.1,101.2,54.1,101.2,54.2,101.1
			C54.1,101.1,54.2,101.1,54.2,101.1L54.2,101.1L54.2,101.1z"/>
		<path d="M39.2,108.4c-0.4,0.7-0.7,1.5-0.8,2.3c-0.1,0.4-0.1,0.8,0,1.2c0.1,0.4,0.2,0.8,0.3,1.2c0.4,1.6,1.3,3.1,2.5,4.2
			c0,0,0,0.1,0,0.2c0,0,0,0,0,0c0,0-0.1,0.1-0.2,0c0,0,0,0,0,0l0,0c-1.2-1.2-2.1-2.7-2.5-4.3c-0.1-0.4-0.2-0.8-0.3-1.2
			c-0.1-0.4-0.1-0.8,0-1.3C38.4,109.9,38.7,109.1,39.2,108.4z"/>
		<path d="M49,122.8c-0.7-0.4-1.4-0.9-2-1.5c-0.6-0.5-1.1-1.2-1.3-2c-0.2-0.8-0.3-1.6-0.2-2.4c0.1-0.8,0.3-1.6,0.6-2.4
			c-0.3,0.8-0.4,1.6-0.5,2.4c-0.1,0.8,0,1.6,0.2,2.4c0.3,0.7,0.7,1.4,1.3,1.9c0.6,0.5,1.3,1,2,1.4l0,0c0.1,0,0.1,0.1,0.1,0.2
			C49.1,122.8,49.1,122.8,49,122.8L49,122.8z"/>
		<path d="M55.5,124.2c-0.2,0-0.3,0-0.4-0.1l-0.4-0.1l-0.7-0.3c-0.5-0.2-0.9-0.4-1.4-0.7c-0.9-0.5-1.7-1.2-2.4-1.9
			c-0.7-0.7-1.4-1.5-2-2.4c-0.2-0.5-0.4-0.9-0.5-1.4l-0.4-1.5l0.5,1.5c0.1,0.5,0.3,1,0.5,1.4c0.6,0.8,1.3,1.6,2,2.3
			c0.7,0.7,1.5,1.4,2.4,1.9c0.4,0.2,0.9,0.4,1.4,0.7l0.7,0.3l0.7,0.2h0.1c0.1,0,0.1,0.1,0.1,0.1c0,0,0,0,0,0
			C55.6,124.2,55.5,124.2,55.5,124.2C55.5,124.2,55.5,124.2,55.5,124.2z"/>
		<path d="M46.4,116.1c0.1,0.6,0.2,1.3,0.4,1.9c0.2,0.6,0.5,1.2,0.7,1.8c0.1,0.3,0.2,0.6,0.4,0.9c0.1,0.3,0.3,0.5,0.5,0.8
			c0.3,0.5,0.8,1,1.3,1.4c0,0,0,0.1,0,0.2c0,0,0,0,0,0c-0.1,0-0.1,0-0.2,0l0,0c-0.5-0.4-0.9-0.9-1.3-1.5c-0.2-0.3-0.3-0.5-0.5-0.8
			c-0.1-0.3-0.2-0.6-0.3-0.9c-0.2-0.6-0.5-1.2-0.7-1.8C46.5,117.4,46.4,116.7,46.4,116.1z"/>
		<path d="M57.9,114.9c0.4,0.6,0.9,1.2,1.4,1.7c0.5,0.5,1.1,1,1.7,1.4c0.6,0.5,1.2,0.8,1.9,1c0.7,0.2,1.4,0.4,2.1,0.4
			c0.1,0,0.1,0,0.1,0.1c0,0,0,0,0,0c0,0.1-0.1,0.1-0.1,0.1l0,0c-0.7-0.1-1.5-0.2-2.2-0.5c-0.7-0.2-1.4-0.6-1.9-1.1
			c-0.6-0.5-1.1-1-1.6-1.5C58.8,116,58.3,115.5,57.9,114.9z"/>
		<path d="M56.4,114.5c0.5,0.7,1,1.2,1.5,1.9c0.4,0.7,0.9,1.3,1.5,1.8c0.7,0.4,1.4,0.8,2.2,1.1c0.7,0.3,1.5,0.5,2.3,0.7
			c0.1,0,0.1,0.1,0.1,0.2c0,0.1-0.1,0.1-0.1,0.1c0,0,0,0,0,0l0,0c-0.8-0.2-1.6-0.4-2.3-0.8c-0.7-0.3-1.5-0.7-2.2-1.2
			c-0.6-0.5-1.2-1.2-1.5-1.9C57.4,115.7,56.8,115.1,56.4,114.5z"/>
		<path class="st1" d="M72.1,115.7c-1.1-0.3-2.2-0.8-3.2-1.4c-0.9-0.7-2.7-2.2-3.5-1.9s-2.4,1.6-1.4,2.9s2.6,2.3,3.8,2
			S72.6,115.9,72.1,115.7z"/>
		<path class="st0" d="M55.1,124.2c-0.1,1.7,0.9,3.3,2.5,3.9c2.8,1.4,5.8,2.7,8.5,1.8s5.7-1.9,8-4c2.2-1.9,4.5-3.8,6.9-5.4
			c0.7-0.5,3.4-3.3,4.4-4.1s3-3,0.2-6.2s-5.5-2.4-7.7-1.4s-4.8,2.2-4.8,2.2"/>
		<path d="M58.4,123.9c-0.1,0.9,0.1,1.8,0.6,2.5c0.6,0.6,1.3,1.2,2,1.7c0.4,0.2,0.7,0.6,1,0.9c0.4,0.3,0.7,0.5,1.2,0.6
			c0.8,0.2,1.7,0.4,2.6,0.3c0.1,0,0.1,0,0.1,0.1c0,0.1-0.1,0.1-0.1,0.1l0,0c-0.9,0-1.8-0.1-2.7-0.4c-0.4-0.1-0.8-0.4-1.2-0.6
			c-0.4-0.3-0.6-0.6-1-0.9c-0.7-0.5-1.4-1.1-2-1.8C58.5,125.7,58.3,124.8,58.4,123.9z"/>
		<path d="M60.8,124.4c0.1,0.3,0.4,0.6,0.5,0.8c0.1,0.3,0.4,0.5,0.6,0.8c0.5,0.5,1.1,0.8,1.7,1.2c0.5,0.5,1,0.9,1.6,1.3
			c0.6,0.3,1.3,0.5,1.9,0.6c-0.7,0-1.4-0.1-2-0.4c-0.6-0.4-1.2-0.8-1.7-1.2c-0.6-0.3-1.2-0.7-1.7-1.2c-0.3-0.2-0.5-0.5-0.6-0.9
			C61.2,125,60.9,124.7,60.8,124.4z"/>
		<path d="M59.3,124l0.5,1.2c0.1,0.4,0.3,0.8,0.5,1.1c0.2,0.3,0.5,0.6,0.9,0.8c0.3,0.3,0.6,0.6,0.9,0.8c0.6,0.6,1.3,1,2.1,1.3
			c0.8,0.3,1.6,0.4,2.4,0.5c0.1,0,0.1,0,0.1,0.1c0,0,0,0,0,0c0,0.1-0.1,0.1-0.1,0.1c0,0,0,0,0,0l0,0c-0.8-0.1-1.7-0.3-2.5-0.6
			c-0.8-0.3-1.5-0.8-2.1-1.4c-0.3-0.3-0.6-0.6-0.9-0.9c-0.3-0.2-0.6-0.5-0.9-0.9c-0.2-0.4-0.4-0.7-0.5-1.2L59.3,124z"/>
		<path d="M71.1,118c0.5,0.6,1,1.2,1.5,1.8c0.6,0.6,1.3,1,2,1.2c0.7,0.3,1.5,0.5,2.3,0.6l2.4,0.1l0,0c0.1,0,0.1,0.1,0.1,0.1
			c0,0,0,0,0,0c0,0.1-0.1,0.1-0.1,0.1c0,0,0,0,0,0l0,0l-2.4-0.1c-0.8-0.1-1.6-0.3-2.3-0.6c-0.8-0.3-1.4-0.7-2-1.3
			C72,119.3,71.5,118.7,71.1,118z"/>
		<path d="M70.9,119.2c0.4,0.6,1,1.1,1.5,1.6c0.6,0.4,1.2,0.8,1.9,1.1c0.6,0.3,1.3,0.6,2,0.6l2.2-0.2c0.1,0,0.1,0,0.1,0.1
			c0,0,0,0,0,0c0,0.1,0,0.1-0.1,0.1c0,0,0,0,0,0l0,0l-2.2,0.2c-0.7-0.1-1.5-0.3-2.1-0.7c-0.7-0.3-1.3-0.7-1.9-1.2
			C71.8,120.3,71.3,119.8,70.9,119.2z"/>
		<path d="M71.3,121.1c0.4,0.2,0.8,0.3,1.2,0.5s0.8,0.4,1.2,0.6s0.8,0.3,1.2,0.4c0.4,0.1,0.8,0.2,1.2,0.3c-0.9,0-1.7-0.2-2.6-0.5
			c-0.4-0.2-0.8-0.4-1.2-0.6S71.6,121.4,71.3,121.1z"/>
		<path class="st1" d="M85.4,115.1c0.6-0.1-2.1,2.1-2.9,2.6c-1.4,0.7-3,0.7-4.4,0c-1.4-0.9-1.9-1.7-1.3-3s1.5-2.6,2.2-2.1
			s1.7,2,3.2,2.3C83.2,115.1,84.3,115.2,85.4,115.1z"/>
		<path class="st0" d="M68.3,129.2c-0.3,1.5,0.6,3,2.2,3.5c2.7,1.1,5.6,0.5,8.1-0.2c0.7-0.3,1.4-0.6,2.1-1c1.3-0.5,2.6-1.2,3.6-2.2
			c1.6-1.6,5-4.6,6.2-5.5c1.4-0.9,2.4-2.3,2.5-4c0.5-2.1-0.4-4.3-2.1-5.6c-1-0.9-2.4-1.3-3.7-1.2"/>
		<path d="M70.1,130c0.3,0.5,0.8,0.9,1.3,1.2c0.6,0.2,1.2,0.3,1.7,0.6c1,0.6,2.2,0.9,3.4,1c0.1,0,0.1,0.1,0.1,0.1c0,0,0,0,0,0
			c0,0.1-0.1,0.1-0.1,0.1l0,0c-1.2-0.1-2.4-0.5-3.5-1.2c-0.6-0.2-1.1-0.4-1.7-0.6C70.9,130.9,70.4,130.5,70.1,130z"/>
		<path d="M71.9,129.6c0.2,0.3,0.5,0.5,0.8,0.6c0.3,0.2,0.6,0.4,0.9,0.6c0.6,0.4,1.2,0.7,1.9,0.9c0.7,0.1,1.4,0.2,2.1,0.1
			c0.7,0,1.4-0.1,2.1-0.2l0,0c0.1,0,0.1,0,0.2,0.1s0,0.1-0.1,0.2c0,0,0,0-0.1,0l0,0c-0.7,0.1-1.4,0.1-2.2,0.1
			c-0.7,0-1.5-0.1-2.2-0.2c-0.7-0.2-1.3-0.6-1.9-1c-0.3-0.2-0.6-0.4-0.9-0.6C72.4,130.1,72.1,129.9,71.9,129.6z"/>
		<path d="M78.9,124.6c0.4,0.6,0.9,1.1,1.5,1.4c0.6,0.3,1.2,0.6,1.9,0.8c0.6,0.2,1.3,0.4,2,0.5c0.3,0,0.7,0,1,0h1
			c-0.7,0.1-1.4,0.2-2.1,0.2c-0.7,0-1.4-0.2-2.1-0.4c-0.7-0.2-1.3-0.5-1.9-0.9C79.6,125.9,79.1,125.3,78.9,124.6z"/>
		<path d="M79.2,122.8c0.1,0.5,0.4,1,0.8,1.4c0.4,0.3,0.9,0.7,1.4,0.9c0.5,0.3,1,0.5,1.5,0.6c0.5,0.1,1.1,0.2,1.7,0.1
			c-0.5,0.2-1.1,0.2-1.7,0.1c-0.6-0.1-1.1-0.3-1.6-0.6c-0.5-0.3-0.9-0.6-1.4-1C79.5,123.9,79.3,123.3,79.2,122.8z"/>
		<path d="M79.1,124c0.3,0.5,0.7,0.9,1.3,1.1c0.5,0.3,1,0.6,1.5,0.8c0.3,0.1,0.5,0.2,0.8,0.3c0.3,0.1,0.6,0.1,0.8,0.2
			c0.6,0.1,1.1,0.3,1.7,0.3c-0.6,0-1.2,0-1.7-0.1l-0.9-0.1c-0.3-0.1-0.6-0.2-0.8-0.3c-0.5-0.3-1-0.5-1.5-0.9
			C79.8,125,79.3,124.6,79.1,124z"/>
		<path class="st1" d="M84.8,118.2l-1.4,2.4c-0.2,1.2,0.3,2.5,1.3,3.2c1.5,0.9,3.3,0.7,4.6-0.5c1.2-1.2,2.3-2.4,1.8-2.3
			c-1.2,0.2-2.5-0.1-3.5-0.7C86.2,119.3,85,117.8,84.8,118.2z"/>
		<path class="st0" d="M93,118.8c1,0.3,1.7,1.2,1.8,2.3c-0.1,1.1-0.3,2.3-0.6,3.4c-0.1,1-0.6,3.3-2,3.9c-1.4,0.5-2.7,1.4-3.8,1.5
			c-1.4,0-2.8-0.2-4.2-0.6"/>
		<path class="st1" d="M89.7,124.3c0.5,0.5,1.1,0.9,1.8,1c0.7,0,1.4-0.2,2-0.6c-0.5,0.6-1.2,1-1.9,1.3c-1.1,0.5-2.4,0.3-3.3-0.5"/>
		<path d="M85.9,128.4c0.3,0.2,0.6,0.4,1,0.5c0.4,0.1,0.7,0.2,1.1,0.2c0.8,0.1,1.5,0.1,2.3-0.1c0.1,0,0.1,0.1,0.1,0.2
			c0,0,0,0.1-0.1,0.1l0,0c-0.8,0.1-1.6,0.1-2.3-0.1c-0.4-0.1-0.8-0.2-1.1-0.3C86.5,128.8,86.2,128.6,85.9,128.4z"/>
		<path d="M77.5,69.2l-4.1-2.4c-0.7-0.4-1.3-0.8-2-1.3c-0.7-0.4-1.4-0.7-2.1-1c-1.5-0.6-3-1-4.5-1.4c-1.5-0.4-3.1-0.7-4.6-0.9
			c1.6,0.1,3.1,0.4,4.6,0.8c1.5,0.4,3,0.8,4.5,1.4c0.7,0.3,1.5,0.6,2.2,1c0.6,0.5,1.3,0.9,2,1.3l4.1,2.3c0.1,0,0.1,0.1,0.1,0.2
			C77.7,69.2,77.7,69.3,77.5,69.2C77.6,69.2,77.6,69.2,77.5,69.2L77.5,69.2z"/>
		<path class="st1" d="M91.8,115.1c-0.2-1.3-0.2-2.7,0-4c0.3-2.1,0.5-2.9,0.2-3.5s-0.4-1.1-0.4-1.1c0.1-0.8,0.1-1.6,0.1-2.3"/>
		<path d="M62.6,107.5c1.2-0.4,2.4-0.7,3.6-0.9c1.2-0.2,2.5-0.2,3.7-0.3c1.2-0.1,2.4-0.3,3.6-0.5c1.2-0.3,2.4-0.6,3.6-0.8
			c2.4-0.5,4.9-0.6,7.4-0.3c1.2,0.2,2.4,0.3,3.7,0.5c1.2,0.2,2.4,0.6,3.5,1.2c0,0,0,0.1,0,0.2c0,0,0,0,0,0c0,0.1-0.1,0.1-0.2,0.1
			l0,0c-1.1-0.6-2.2-1-3.4-1.2c-1.2-0.2-2.4-0.4-3.7-0.5c-2.4-0.3-4.9-0.2-7.3,0.2c-1.2,0.2-2.4,0.4-3.6,0.8
			c-1.2,0.3-2.4,0.4-3.7,0.5c-1.2,0.1-2.5,0.1-3.7,0.3C64.9,106.8,63.7,107.1,62.6,107.5z"/>
		<path d="M55.9,102c1.6,0.1,3.1,0.4,4.5,1.1c0.5,0.2,0.9,0.5,1.3,0.8c-0.9-0.5-1.9-0.9-2.8-1.2C57.9,102.4,56.9,102.2,55.9,102z"/>
		<path d="M50.1,101.6l2.3,0.9c0.8,0.3,1.5,0.7,2.2,1.1s1.5,0.6,2.3,1c0.8,0.3,1.5,0.8,2,1.4c-0.6-0.6-1.3-1-2-1.4
			c-0.7-0.4-1.6-0.6-2.3-0.9s-1.5-0.7-2.3-1l-2.4-0.9l0,0c-0.1,0-0.1-0.1-0.1-0.2C50,101.6,50,101.6,50.1,101.6
			C50.1,101.6,50.1,101.6,50.1,101.6L50.1,101.6z"/>
		<path d="M50.5,104.1c0.9,0.2,1.8,0.7,2.5,1.3c0.7,0.6,1.3,1.3,1.8,2.1c-0.5-0.8-1.1-1.5-1.8-2c-0.7-0.5-1.6-0.9-2.5-1.1l0,0
			c-0.1,0-0.1-0.1-0.1-0.2C50.4,104.1,50.4,104.1,50.5,104.1L50.5,104.1z"/>
		<path d="M52.3,104.9c1.2,0.5,2.3,1,3.4,1.7c-1.1-0.6-2.3-1.1-3.5-1.6L52.3,104.9z"/>
		<path class="st0" d="M113.7,30.2c4-8.1,10.6-29.2,10.6-30"/>
		<path class="st0" d="M66.7,44.7c-2.2-5.8-5.2-14.2-6.1-16c-1.8-3.5-7.5-24.6-9-27.8"/>
		<path d="M110.1,62.4c1.9-0.6,3.9-1,5.9-1.1c-2,0.2-3.9,0.6-5.8,1.3c-0.1,0-0.1,0-0.2,0C110,62.5,110,62.4,110.1,62.4
			C110.1,62.4,110.1,62.4,110.1,62.4L110.1,62.4z"/>
		<path d="M110.4,66.3c1.4-1.5,3.1-2.6,5-3.2c1.9-0.6,4-0.8,6-0.6c2,0.1,4,0.5,5.8,1.3c1.9,0.8,3.6,1.8,5.4,2.6L138,69
			c0.9,0.4,1.8,0.9,2.6,1.4c0.8,0.6,1.6,1.2,2.4,1.9c1.5,1.3,2.8,2.9,3.7,4.7c0.2,0.5,0.4,1,0.5,1.5c0.1,0.5,0.2,1,0.2,1.5l0.4,3
			c0.1,1,0.3,1.9,0.7,2.8c0.3,1,0.5,2,0.5,3c0.1,2-0.1,4-0.5,6c-0.2,1-0.4,2-0.8,2.9c-0.2,0.5-0.5,1-0.8,1.4
			c-0.4,0.4-0.8,0.7-1.2,0.9c-0.2,0.1-0.3,0.2-0.5,0.4c0,0.2,0,0.4,0,0.6c0,0.5,0,1-0.1,1.5c-0.1,1-0.2,2-0.4,3
			c-0.1,0.5-0.2,1-0.4,1.5c-0.1,0.3-0.2,0.5-0.4,0.7c-0.2,0.2-0.4,0.4-0.7,0.5c-0.9,0.6-1.9,0.8-3,0.7c-1-0.2-2-0.6-2.8-1.3
			c-0.8-0.7-1.4-1.5-1.9-2.4c-1-1.8-1.5-3.8-1.5-5.9c0-1,0.1-2,0.1-3c0-1,0.2-2,0.5-3v0.2c-0.7-1.5-1.3-3.1-1.8-4.7l0,0l0.1,0.1
			c-0.4-0.3-0.7-0.5-1.1-0.8c-0.4-0.3-0.6-0.7-0.8-1.2c-0.4-0.8-0.6-1.7-0.7-2.7c0.2,0.9,0.5,1.7,0.9,2.5c0.2,0.4,0.5,0.7,0.9,1
			c0.4,0.3,0.8,0.5,1.2,0.7c0,0,0.1,0.1,0.1,0.1v0.1c0.4,1.6,1,3.1,1.7,4.6c0,0.1,0,0.1,0,0.2l0,0l0,0c-0.3,0.9-0.4,1.9-0.4,2.9
			c0,1-0.1,2-0.1,3c0,2,0.5,3.9,1.4,5.6c0.4,0.8,1.1,1.6,1.8,2.2c0.7,0.6,1.6,1,2.6,1.1c0.9,0.1,1.9-0.1,2.6-0.6
			c0.2-0.1,0.4-0.2,0.5-0.4c0.1-0.2,0.2-0.4,0.3-0.6c0.2-0.5,0.3-0.9,0.4-1.4c0.2-1,0.3-1.9,0.4-2.9c0-0.5,0.1-1,0.1-1.5v-0.4
			c0-0.2,0-0.3,0.1-0.5c0.2-0.2,0.4-0.4,0.7-0.6c0.4-0.2,0.8-0.5,1.1-0.8c0.3-0.4,0.5-0.8,0.7-1.2c0.3-0.9,0.6-1.9,0.8-2.8
			c0.4-1.9,0.6-3.9,0.5-5.9c-0.1-1-0.2-2-0.5-2.9c-0.4-0.9-0.6-1.9-0.7-2.9l-0.3-3c-0.1-0.5-0.1-1-0.2-1.5c-0.1-0.5-0.3-0.9-0.5-1.3
			c-0.9-1.7-2.2-3.3-3.6-4.6c-0.7-0.7-1.5-1.3-2.3-1.8c-0.8-0.5-1.7-1-2.6-1.4l-5.4-2.6c-0.9-0.4-1.8-0.9-2.7-1.3s-1.8-0.9-2.7-1.3
			c-1.8-0.8-3.7-1.3-5.7-1.4c-2-0.2-4-0.1-5.9,0.5C113.5,63.8,111.8,64.9,110.4,66.3z"/>
		<path d="M132.8,88.8c-0.2-1.3-0.1-2.6,0.2-3.8c0.3-1.2,0.7-2.4,1.4-3.5c-0.6,1.1-0.9,2.3-1.1,3.5c-0.2,1.2-0.2,2.4,0,3.6l0,0
			c0,0.1-0.1,0.3-0.2,0.3C132.9,89,132.8,88.9,132.8,88.8L132.8,88.8z"/>
		<path d="M134.6,93.4c0.4-1.5,1.1-2.8,2-4c0.5-0.6,1-1.1,1.6-1.5c0.6-0.4,1.3-0.7,2-0.9c-0.7,0.2-1.3,0.6-1.9,1
			c-0.6,0.4-1.1,1-1.5,1.6c-0.8,1.2-1.4,2.5-1.7,3.9l0,0c0,0.1-0.2,0.2-0.3,0.2C134.7,93.6,134.6,93.5,134.6,93.4L134.6,93.4z"/>
		<path d="M146.4,89.3c0.6,0.7,1.1,1.5,1.4,2.4c0.4,0.9,0.6,1.8,0.6,2.7c0,0.1-0.1,0.1-0.1,0.1c0,0,0,0,0,0c-0.1,0-0.1-0.1-0.1-0.1
			l0,0c0.1-0.9-0.1-1.8-0.4-2.7C147.4,90.8,147,90,146.4,89.3z"/>
		<path d="M145.5,90.2c0.3,0.4,0.6,0.8,0.9,1.2c0.3,0.4,0.4,0.9,0.6,1.4c0.3,1,0.5,2,0.4,3c0-0.5-0.1-1-0.2-1.5
			c-0.1-0.5-0.2-1-0.4-1.4c-0.1-0.5-0.3-1-0.5-1.4C146,91,145.8,90.6,145.5,90.2z"/>
		<path class="st1" d="M144.9,100.5c0,0,0.1-2.7-0.8-3.6c-0.5-0.6-1.3-0.7-1.9-0.2c-0.3,0.2-0.4,0.5-0.5,0.9
			c-0.2,0.8-0.1,1.6,0.3,2.3c0.9,1.3,1.5,2.8,1.6,4.4c0.2,1.3,0,2.6-0.6,3.7"/>
		<path class="st0" d="M37.4,76.6c0,0-10.1-16.2-14.1-22.2C15.9,43.5,6.7,18.6,0.2,8.7"/>
		<path class="st0" d="M140.2,70.4c3-8.2,6.6-16.1,10.7-23.7c7.2-12.8,17.4-34.7,21.3-45.9"/>
		<path d="M134.3,97.4c-1.2-0.2-2.4-0.1-3.6,0.2c-1.1,0.5-2.3,0.9-3.5,1.2c-1.2,0.2-2.5,0.3-3.7,0.6c-1.2,0.2-2.4,0.6-3.4,1.3
			c1-0.7,2.2-1.2,3.4-1.4c1.2-0.3,2.5-0.4,3.7-0.6c1.2-0.4,2.3-0.8,3.5-1.3c1.2-0.4,2.5-0.5,3.7-0.3c0.1,0,0.1,0.1,0.1,0.1
			C134.4,97.4,134.4,97.5,134.3,97.4L134.3,97.4L134.3,97.4z"/>
		<path d="M126.7,98.2c-1.7,0-3.5-0.2-5.1-0.8c-1.6-0.5-3.2-1.3-4.6-2.3c-1.4-1-2.8-2-4.1-3.2c-1.3-1.1-2.5-2.4-3.7-3.7
			c1.2,1.3,2.4,2.5,3.8,3.6c1.3,1.1,2.7,2.2,4.2,3.1c1.4,1,2.9,1.8,4.6,2.4C123.3,97.8,125,98.1,126.7,98.2z"/>
		<path d="M92,109.2c0.7-1,1.6-1.9,2.6-2.6c0.5-0.3,1.1-0.5,1.7-0.7c0.6-0.1,1.2-0.2,1.8-0.3c1.2-0.1,2.4-0.2,3.7-0.3
			c1.2-0.1,2.5-0.1,3.7,0.1c1.2,0.2,2.4,0.2,3.7,0.2c1.2,0,2.4-0.1,3.7-0.1s2.4-0.1,3.7-0.2c1.2-0.1,2.4-0.7,3.1-1.7
			c-0.8,1-1.9,1.6-3.1,1.8c-1.2,0.1-2.4,0.1-3.7,0.2s-2.4,0.1-3.7,0.2c-1.2,0.1-2.5,0-3.7-0.1c-1.2-0.1-2.4-0.1-3.7,0
			c-1.2,0.2-2.4,0.2-3.7,0.4c-0.6,0.1-1.2,0.2-1.8,0.3c-0.6,0.1-1.2,0.3-1.7,0.6c-1,0.7-1.9,1.5-2.5,2.5l0,0c-0.1,0-0.1,0-0.2,0
			C92,109.3,92,109.2,92,109.2L92,109.2z"/>
		<path d="M124.8,103.3c0.7-0.6,1.5-1.1,2.2-1.5c0.8-0.4,1.7-0.7,2.5-1c0.4-0.2,0.8-0.4,1.1-0.7c0.3-0.3,0.7-0.6,1.1-0.8
			c0.7-0.6,1.6-0.9,2.5-1.1c0.1,0,0.1,0,0.1,0.1c0,0,0,0,0,0c0,0.1,0,0.1-0.1,0.1l0,0c-0.9,0.1-1.7,0.5-2.4,1
			c-0.4,0.3-0.7,0.5-1.1,0.8c-0.4,0.3-0.8,0.5-1.2,0.7c-0.8,0.4-1.8,0.5-2.5,1C126.2,102.3,125.5,102.8,124.8,103.3z"/>
		<path d="M134.2,100.8c0,0,0,0.1,0.1,0.1s0,0,0,0l0,0h-0.1h-0.1l-0.2,0.1l-0.4,0.2l-0.9,0.4c-0.3,0.1-0.6,0.2-0.9,0.3
			c-0.3,0.1-0.6,0.2-0.9,0.4c-0.6,0.3-1.1,0.6-1.7,0.9c-0.6,0.3-1.1,0.7-1.5,1.1c0.5-0.5,1-0.9,1.5-1.2c0.5-0.3,1.1-0.7,1.7-1
			c0.3-0.2,0.6-0.3,0.9-0.4c0.3-0.1,0.6-0.2,0.9-0.3l0.9-0.4l0.4-0.2l0.2-0.1h0.1h0.1h0.1c0.1,0,0.1,0.1,0.1,0.1
			c0,0.1,0,0.1-0.1,0.1c0,0,0,0,0,0C134.2,100.9,134.2,100.9,134.2,100.8z"/>
		<path d="M138.7,109.4c-0.6-0.5-1.2-1-1.9-1.3c-0.7-0.3-1.4-0.5-2.2-0.6c-1.5-0.2-3-0.4-4.6-0.4l0,0c0,0-0.1,0-0.1,0
			c-1.2-0.6-2.5-0.9-3.8-0.9c-1.3-0.2-2.7-0.3-4-0.3c-1.3,0-2.6,0.4-3.7,1.2c-1.1,0.8-1.7,1.9-1.8,3.2c0,0.6,0.2,1.2,0.6,1.7
			c0.5,0.5,1,0.9,1.5,1.3c0.5,0.4,1.1,0.9,1.6,1.3s1,0.9,1.5,1.3c1.1,0.8,2.3,1.4,3.6,1.8c1.3,0.6,2.4,1.3,3.5,2.2
			c1.1,0.7,2.4,1.2,3.7,1.3c0.3,0,0.6,0,0.9-0.1c0.3-0.1,0.6-0.2,0.9-0.3c0.6-0.2,1.3-0.4,1.9-0.7c0.6-0.3,1.1-0.7,1.5-1.2
			c0.2-0.3,0.5-0.5,0.8-0.7c0.3-0.1,0.6-0.2,0.9-0.4c1.1-0.6,2.1-1.6,2.8-2.7c1.4-2.3,2.7-4.7,3.1-7.4c0.4-2.7,0.5-5.4,0.3-8.1
			c0-0.1,0.1-0.2,0.2-0.3c0,0,0,0,0,0c0.1,0,0.2,0.1,0.3,0.2l0,0c0.1,2.7,0,5.5-0.3,8.2c-0.4,2.8-1.8,5.2-3.1,7.6
			c-0.7,1.2-1.8,2.2-3,2.9c-0.3,0.2-0.7,0.2-1,0.4c-0.3,0.2-0.5,0.4-0.7,0.6c-0.5,0.5-1,1-1.7,1.3c-0.6,0.3-1.3,0.5-1.9,0.7
			c-0.3,0.1-0.6,0.2-1,0.3c-0.4,0.1-0.7,0.1-1.1,0.1c-1.4-0.1-2.8-0.6-3.9-1.4c-1-0.9-2.1-1.6-3.3-2.1c-1.3-0.5-2.5-1.1-3.7-1.9
			c-0.6-0.4-1-0.9-1.5-1.4s-1-0.9-1.5-1.3c-0.6-0.4-1.1-0.9-1.6-1.4c-0.5-0.6-0.7-1.3-0.7-2.1c0-0.7,0.2-1.4,0.6-2.1
			c0.4-0.6,0.8-1.1,1.4-1.6c1.2-0.8,2.6-1.3,4-1.3c1.4,0,2.7,0.1,4.1,0.3c1.4,0.1,2.7,0.4,4,1H130l0,0c1.6,0,3.2,0.1,4.7,0.5
			C136.2,107.3,137.7,108.2,138.7,109.4L138.7,109.4z"/>
		<path d="M130,106.8c0.7-0.8,1.4-1.4,2.3-1.9c0.4-0.3,0.9-0.5,1.3-0.7c0.5-0.2,0.9-0.4,1.4-0.5c-0.5,0.2-0.9,0.4-1.4,0.6
			c-0.4,0.2-0.9,0.5-1.3,0.7c-0.4,0.3-0.8,0.5-1.2,0.8S130.4,106.4,130,106.8z"/>
		<path d="M130,106.5c0.6,0.2,1.2,0.6,1.7,1c0.5,0.4,0.9,0.9,1.2,1.5c-0.4-0.5-0.8-0.9-1.4-1.3c-0.5-0.3-1.1-0.6-1.7-0.8l0,0
			c-0.1,0-0.2-0.2-0.2-0.3C129.7,106.6,129.8,106.5,130,106.5C129.9,106.5,130,106.5,130,106.5L130,106.5z"/>
		<path d="M132,106.7c0.3,0.1,0.5,0.2,0.7,0.3c0.2,0.1,0.4,0.3,0.7,0.4c0.4,0.3,0.8,0.7,1.1,1.1c-0.4-0.4-0.8-0.7-1.2-1
			c-0.2-0.1-0.4-0.3-0.7-0.4c-0.2-0.1-0.4-0.2-0.7-0.2l0,0c-0.1,0-0.1-0.1-0.1-0.2C131.9,106.8,132,106.7,132,106.7
			C132.1,106.8,132.1,106.8,132,106.7L132,106.7z"/>
		<path class="st1" d="M120.8,111.6c1.6-0.7,2.6-2.7,3.5-2.2s2,2.2,1.6,3c-0.8,1.4-2.4,2.2-4,1.9c-1.4-0.3-2.8-0.9-3.9-1.9
			C117.5,112.1,119.4,112.2,120.8,111.6z"/>
		<path d="M128.1,115.7c0.2-0.2,0.5-0.4,0.7-0.6c0.2-0.2,0.5-0.4,0.7-0.6c0.4-0.4,0.8-0.9,1-1.5c0,0.3-0.1,0.6-0.3,0.9
			c-0.2,0.3-0.3,0.5-0.6,0.8C129.2,115.1,128.7,115.5,128.1,115.7z"/>
		<path d="M125.5,117.2c0.7-0.2,1.4-0.5,2.1-0.8c0.7-0.2,1.3-0.6,1.9-1c0.6-0.4,1.1-1,1.5-1.6c0.2-0.3,0.4-0.6,0.6-0.9
			c0.3-0.2,0.5-0.5,0.7-0.8c-0.2,0.3-0.4,0.6-0.6,0.9c-0.2,0.3-0.4,0.6-0.6,0.9c-0.4,0.6-0.9,1.2-1.5,1.7
			C128.4,116.5,127,117,125.5,117.2z"/>
		<path d="M125.5,117.6c0.7,0,1.5-0.2,2.2-0.4c0.7-0.3,1.3-0.6,1.9-1.1c0.6-0.4,1.1-1,1.6-1.5c0.6-0.5,1-1,1.5-1.6
			c-0.3,0.7-0.8,1.3-1.3,1.8c-0.5,0.5-1,1.1-1.6,1.5c-0.6,0.5-1.3,0.8-2,1.1C126.9,117.6,126.2,117.7,125.5,117.6z"/>
		<path d="M131.5,120.8c0.5-0.2,0.9-0.4,1.4-0.7c0.4-0.3,0.9-0.6,1.2-0.9c0.9-0.6,1.8-1.1,2.8-1.5l-1.3,0.8
			c-0.4,0.3-0.9,0.6-1.3,0.9c-0.4,0.3-0.8,0.6-1.3,0.9C132.5,120.5,132,120.6,131.5,120.8z"/>
		<path d="M135.5,118.4c0.1-0.2,0.3-0.5,0.4-0.7s0.3-0.4,0.4-0.6c0.3-0.4,0.7-0.8,1.1-1.2c-0.3,0.4-0.6,0.9-0.9,1.3
			C136.3,117.6,135.9,118,135.5,118.4z"/>
		<path d="M135.2,119.8c0.5-0.4,1-0.8,1.5-1.2c0.5-0.4,1.1-0.7,1.6-1c-0.5,0.4-1,0.9-1.5,1.2C136.3,119.2,135.7,119.5,135.2,119.8z"
			/>
		<path d="M137.5,117.2c0.1-0.3,0.3-0.7,0.5-1c0.1-0.2,0.2-0.3,0.3-0.5s0.2-0.3,0.4-0.4c0,0.1-0.1,0.1-0.1,0.2l-0.1,0.3
			c-0.1,0.2-0.2,0.3-0.2,0.5C138,116.6,137.8,116.9,137.5,117.2z"/>
		<path class="st0" d="M116.3,109.3c0,0-2.3-2.2-4.4-2.6c-1.8-0.5-3.8,0-5.1,1.4c-1.2,1.3-3.1,3.4-1.6,5.6s2.6,2.1,3.9,4.3
			c1.3,1.8,2.7,3.6,4.3,5.1c1.7,1.8,1.8,3,4.9,5.3c2.7,1.9,6.2,2.2,9.1,0.8c2.5-1.1,5.7-4.6,5.2-7.8"/>
		<path class="st1" d="M109.9,113.3c3.3-1.6,3.4-3.3,3.9-2.3c0.4,0.8,2,3.8-0.2,5.3c-1.5,1-3.5,0.9-4.8-0.3c-0.8-0.7-2.6-2.3-2-2.2
			C107.8,114,108.9,113.8,109.9,113.3z"/>
		<path d="M112.7,121.2c0.4,0,0.9,0,1.3,0c0.4,0,0.8-0.1,1.2-0.3c0.8-0.4,1.6-0.7,2.5-1c-0.4,0.2-0.8,0.4-1.2,0.6s-0.8,0.4-1.2,0.6
			c-0.4,0.2-0.9,0.3-1.3,0.3C113.5,121.4,113.1,121.3,112.7,121.2z"/>
		<path d="M112.8,121.9c0.7,0.2,1.5,0.2,2.2,0c1.5-0.2,2.9-1,3.9-2.2c0.6-0.5,1.1-1,1.6-1.6c-0.5,0.6-1,1.2-1.5,1.7
			c-0.3,0.3-0.5,0.5-0.8,0.8c-0.3,0.3-0.6,0.5-0.9,0.7c-0.7,0.3-1.4,0.6-2.2,0.7C114.3,122.2,113.5,122.1,112.8,121.9z"/>
		<path d="M114.4,122.5c0.5,0,1,0,1.5-0.1c0.5-0.1,0.9-0.3,1.4-0.5c0.9-0.4,1.8-0.9,2.7-1.3c-0.8,0.6-1.7,1.1-2.6,1.5
			c-0.5,0.2-0.9,0.4-1.4,0.5C115.4,122.7,114.9,122.6,114.4,122.5z"/>
		<path d="M121.7,128.9c0.8-0.1,1.6-0.3,2.4-0.6c0.8-0.3,1.5-0.7,2.1-1.2c0.6-0.5,1.2-1.1,1.8-1.7c0.6-0.6,1-1.3,1.4-2.1
			c-0.2,0.8-0.7,1.6-1.2,2.2c-0.5,0.6-1.1,1.3-1.8,1.8C125.1,128.2,123.4,128.8,121.7,128.9z"/>
		<path d="M124.2,129.6c0.4-0.2,0.8-0.4,1.2-0.6c0.4-0.2,0.8-0.4,1.2-0.6l1.1-0.8c0.4-0.2,0.7-0.5,1.1-0.8c-0.6,0.7-1.2,1.3-2,1.8
			c-0.4,0.2-0.8,0.4-1.2,0.6C125.1,129.3,124.6,129.4,124.2,129.6z"/>
		<path d="M123.5,127.8c0.4-0.2,0.9-0.5,1.3-0.7c0.4-0.2,0.8-0.5,1.2-0.8c0.7-0.7,1.4-1.4,2.2-2.1c-0.6,0.8-1.3,1.5-2,2.3
			c-0.4,0.3-0.8,0.6-1.3,0.8C124.5,127.5,124,127.7,123.5,127.8z"/>
		<path class="st0" d="M104.9,113.2c-1.1-0.4-2.3-0.4-3.4,0.1c-1.9,1-3.2,2.8-3.7,4.9c-0.2,2,0.9,2.9,2.4,4.6s2.8,3.4,3.7,4.7
			c1.2,1.9,2.9,3.5,5,4.4c2.8,1.2,5.5,1.6,7.6-0.2s2.3-2,2.3-2.9"/>
		<path class="st1" d="M103.5,120.6c3.1-1.2,2.7-4.4,3.3-2.8s0.9,3.9-0.8,4.9c-1.5,0.8-3.3,0.6-4.6-0.5c-0.9-0.9-1.9-2.1-1.1-1.7
			C101.4,121,102.5,121.1,103.5,120.6z"/>
		<path d="M104.1,126.8c0.6,0.3,1.3,0.4,2,0.3c0.7-0.1,1.3-0.4,1.9-0.8c0.6-0.3,1.3-0.6,1.9-1s1-1,1.4-1.5c-0.2,0.3-0.3,0.6-0.5,0.9
			c-0.2,0.3-0.5,0.6-0.8,0.8c-0.6,0.4-1.2,0.7-1.9,1c-0.6,0.4-1.3,0.6-2,0.7C105.4,127.3,104.7,127.2,104.1,126.8z"/>
		<path d="M105.2,126.5c0.5,0,1-0.1,1.5-0.2c0.5-0.1,0.9-0.3,1.4-0.5c0.5-0.2,0.9-0.5,1.3-0.7s1-0.3,1.2-0.8
			c-0.1,0.3-0.2,0.5-0.5,0.6c-0.2,0.1-0.4,0.2-0.7,0.4c-0.4,0.3-0.9,0.5-1.3,0.8c-0.5,0.2-1,0.4-1.5,0.5
			C106.2,126.6,105.7,126.6,105.2,126.5z"/>
		<path d="M105.2,127.6c0.5,0.1,1.1,0,1.6-0.2c0.5-0.2,1-0.4,1.5-0.6l1.5-0.5c0.5-0.3,0.9-0.6,1.3-1c-0.3,0.4-0.7,0.8-1.2,1.2
			c-0.5,0.2-1,0.4-1.5,0.6s-1,0.4-1.6,0.5C106.3,127.8,105.7,127.8,105.2,127.6z"/>
		<path class="st0" d="M94.8,121.6c0.5-1.4,1.6-2.5,3-3"/>
		<path class="st1" d="M94.3,123.8c0,0,0.2,1.4,0.8,1.9s1.2,0.6,1.5,0.9c0.8,0.7,2,0.9,2.9,0.4c1.1-0.6,1.7-1.8,1.5-3"/>
		<path class="st1" d="M96.5,126.5c1.5,0.9,3.6,0.5,4.5-1.1c0,0,0,0,0,0"/>
		<path class="st0" d="M94,125.4c0,0.1,0.2,2.4,1.9,3.2c1.7,0.8,3.1,1.6,4.5,1.1c1.3-0.4,2.6-1,3.7-1.8"/>
		<path d="M97.3,128.9c0.5,0.3,1.1,0.5,1.7,0.4c0.6,0,1.2-0.2,1.7-0.4c0.5-0.2,1.1-0.5,1.5-0.9c0.4-0.4,0.7-0.9,0.7-1.5
			c0-0.1,0.1-0.1,0.2-0.1c0,0,0.1,0,0.1,0.1l0,0c-0.1,0.6-0.4,1.2-0.9,1.6c-0.5,0.4-1,0.7-1.6,0.9c-0.6,0.2-1.2,0.4-1.8,0.4
			C98.4,129.4,97.9,129.2,97.3,128.9z"/>
		<path d="M51,61.2c2.4-1.7,5.1-2.9,8-3.3c1.4-0.2,2.9-0.2,4.4,0.1c1.4,0.2,2.8,0.7,4.1,1.4c-0.6-0.3-1.3-0.6-2-0.8l-1-0.3l-1.1-0.2
			c-1.4-0.2-2.9-0.2-4.3,0c-1.4,0.2-2.8,0.6-4.2,1.1C53.6,59.7,52.2,60.4,51,61.2z"/>
		<path class="st0" d="M91.8,18.2c9.8,0.1,19.8,6,23.5,15.2s2.6,17.1-2.8,25.4s-6.3,9.6-6.5,12.8s-0.4,5.6-3.2,5.6H81
			c0,0-2.7-0.1-2.7-4.3s-2.6-8-5.5-12.4s-7.9-12.3-5.5-22.6S79.8,18.1,91.8,18.2z"/>
		<path class="st0" d="M83.2,81.6c-0.1,0-2.2,0.2-2.3-0.6s-0.1-0.8,1.6-0.9s20.1-1.7,20.1-1.7c0.3,0,0.6,0.2,0.7,0.6
			c0,0,0,0.1,0,0.1c0,0.8-0.4,0.9-2,1S83.2,81.6,83.2,81.6z"/>
		<path class="st0" d="M81,80.4v-3.2"/>
		<path class="st0" d="M103.3,78.8c0-0.1-0.1-1.1,0.1-1.2c0.3-0.2,0.5-0.4,0.8-0.6"/>
		<path class="st0" d="M80.9,84.2c-0.1-1,1-1.2,2.2-1.3s18.4-1,19.1-1.1s1.1,0.2,1.1,0.7s0,1-1.9,1.1s-18.1,1.3-19,1.3
			S81,84.9,80.9,84.2z"/>
		<path class="st0" d="M80.9,87.6c-0.1-1,1-1.2,2.2-1.3s18.4-1,19.1-1.1s1.1,0.2,1.1,0.7s0,1-1.9,1.1s-18.1,1.3-19,1.3
			S81,88.3,80.9,87.6z"/>
		<path class="st0" d="M80.9,91c-0.1-1,1-1.2,2.2-1.3s18.4-1,19.1-1.1s1.1,0.2,1.1,0.7s0,1-1.9,1.1s-18.1,1.3-19,1.3
			S81,91.7,80.9,91z"/>
		<path class="st0" d="M84.1,93h19.3c0-0.1,0-0.3,0-0.4c-0.1-0.5-0.4-0.7-1.1-0.7S84.2,93,83.1,93s-2.3-0.1-2.2,1.1s1.1,2.4,3.9,4"
			/>
		<path class="st0" d="M82.5,83c0.1-0.4,0.1-0.9,0-1.3"/>
		<path class="st0" d="M82.5,85c0,0.5,0,0.9,0,1.4"/>
		<path class="st0" d="M82.6,88.3c0.1,0.5,0.1,0.9,0,1.4"/>
		<path class="st0" d="M82.5,91.7c0,0.5,0,0.9,0,1.4"/>
		<path class="st0" d="M102.3,80.1c0,0-1.7,0.9-0.1,1.8"/>
		<path class="st0" d="M102.3,83.5c0,0-1.8,0.9-0.1,1.7"/>
		<path class="st0" d="M102.3,86.9c0,0-1.8,1.1-0.2,1.7"/>
		<path class="st0" d="M102.5,90.2c0,0-2.3,0.9-0.3,1.8"/>
		<path class="st0" d="M102.7,93.1c0,0,0.7,0.1,0.7,0.7s-0.4,1.9-3.8,4.4"/>
		<path class="st0" d="M89.4,102c-0.2,0-0.3,0.1-0.4,0.3c0,0,0,0,0,0.1c0,0.4,1.2,1.7,3,1.7s3.2-1.3,3.2-1.8c0-0.3-0.2-0.3-0.4-0.3
			L89.4,102z"/>
		<path class="st0" d="M89.1,102.1c0,0-4.2-2-4.4-3.5c-0.1-0.6,0.8-0.5,1.4-0.5h13.1c0,0,1,0,0.4,0.8c-1.1,1.5-2.6,2.6-4.3,3.3"/>
	</g>
</g>
</svg>
