<svg xmlns="http://www.w3.org/2000/svg" viewBox="0 0 183.59 133.54"><defs><style>.cls-1,.cls-2,.cls-3{fill:none;}.cls-1,.cls-2{stroke:#000;stroke-linecap:round;stroke-linejoin:round;}.cls-1{stroke-width:0.5px;}.cls-2{stroke-width:0.25px;}</style></defs><g id="Layer_2" data-name="Layer 2"><g id="Layer_1-2" data-name="Layer 1"><path d="M64.44,65.34a24.81,24.81,0,0,0-5.69-1.69,13,13,0,0,0-5.82.26A13.75,13.75,0,0,0,48,67,47.39,47.39,0,0,0,43.64,71c-.68.71-1.35,1.45-2.07,2.16s-1.49,1.35-2.24,2a21.5,21.5,0,0,0-4,4.32,14.65,14.65,0,0,0-2.28,5.36,20.21,20.21,0,0,0-.18,5.87c.12,2,.23,4,.42,6s.4,4,1.57,5.51,2.89,2.66,4.14,4.29a6,6,0,0,1,.8,1.34c.19.48.35,1,.52,1.42a11.18,11.18,0,0,0,1.23,2.61,2.64,2.64,0,0,0,2.26,1.27,5.62,5.62,0,0,0,2.63-.92,8.28,8.28,0,0,0,3.35-4.55,10.93,10.93,0,0,0,.05-5.76,22.06,22.06,0,0,0-1.79-5.62h0v0a.14.14,0,0,1,0-.11c.27-1.31.76-2.37.89-3.6a19.42,19.42,0,0,0,.24-3.65,11.3,11.3,0,0,0-.69-3.57A25.89,25.89,0,0,0,46.92,82a18.11,18.11,0,0,1,1.81,3.25,11.63,11.63,0,0,1,.89,3.64,19.42,19.42,0,0,1-.19,3.74,10.66,10.66,0,0,1-.38,1.85,17.63,17.63,0,0,0-.52,1.74l0-.13h0a22.42,22.42,0,0,1,1.84,5.71,11.33,11.33,0,0,1,0,6,8.77,8.77,0,0,1-3.56,4.87,6.11,6.11,0,0,1-2.93,1,3.13,3.13,0,0,1-1.58-.41,3.73,3.73,0,0,1-1.16-1.11,11.2,11.2,0,0,1-1.3-2.76c-.17-.47-.33-.94-.51-1.39a5.52,5.52,0,0,0-.72-1.21c-1.17-1.55-2.85-2.68-4.13-4.3a7,7,0,0,1-1.24-2.82,27.78,27.78,0,0,1-.43-3c-.19-2-.29-4-.42-6a20.91,20.91,0,0,1,.21-6,15.21,15.21,0,0,1,2.37-5.55A22.48,22.48,0,0,1,39,74.8c.77-.65,1.53-1.27,2.23-2s1.37-1.43,2.06-2.15a46.9,46.9,0,0,1,4.38-4.08l1.16-1a13.61,13.61,0,0,1,1.22-.89l.64-.41.69-.33a8.16,8.16,0,0,1,1.43-.52,12.65,12.65,0,0,1,6-.14A22.35,22.35,0,0,1,64.44,65.34Z"/><path d="M48.05,96.25a6.3,6.3,0,0,0-.62-1.17,12.34,12.34,0,0,0-.8-1.1,18.79,18.79,0,0,0-1.9-2,19.93,19.93,0,0,1,2.08,1.82,13.17,13.17,0,0,1,.93,1,8.1,8.1,0,0,1,.78,1.21.24.24,0,0,1-.12.33.25.25,0,0,1-.33-.11v0Z"/><path class="cls-1" d="M34.91,102.69s1.3,4.41,1.6,6.46.27,5.7,2.89,7.12,4.88,4.18,6.33,4.94,3.16,1.26,4.12,1.86a6.27,6.27,0,0,0,6.14.84c2.86-1.25,7.26-3.68,9.52-4.56s7.23-2.83,7.94-4,1.32-5-3.63-7c-2.7-1.09-4.36-.27-6-.3a11.93,11.93,0,0,0-5.21.87,11.83,11.83,0,0,0-3.27.33,14.76,14.76,0,0,0-5-2.82"/><path class="cls-2" d="M40.76,111.06A37.72,37.72,0,0,1,39.67,107c-.23-1.35-.93-2.3,0-4s1.82-2.63,3-2.08,2.1,1.63,1.83,2.73c-.58,2.38-2.91,5-3.07,8.5"/><path d="M35.72,103.69a12.63,12.63,0,0,1-.22-2.52,17.37,17.37,0,0,1,.26-2.5,16.08,16.08,0,0,1,.48-2.47,3.73,3.73,0,0,1,1.56-1.9,3.69,3.69,0,0,0-1.5,1.92,15.74,15.74,0,0,0-.42,2.47,18.82,18.82,0,0,0-.19,2.48,12.61,12.61,0,0,0,.27,2.46h0a.12.12,0,0,1-.09.15.13.13,0,0,1-.15-.1Z"/><path d="M34.23,101.9a3.3,3.3,0,0,0,0-2.47A3.89,3.89,0,0,1,34,98.12a3.07,3.07,0,0,1,.37-1.27l.48-1.21a2.75,2.75,0,0,1,.32-.58,4.81,4.81,0,0,1,.52-.4,15.74,15.74,0,0,1,2.11-1.53,15.73,15.73,0,0,0-2.07,1.58c-.15.15-.38.24-.5.4a2.35,2.35,0,0,0-.29.57l-.45,1.22a2.72,2.72,0,0,0-.33,1.22,3.63,3.63,0,0,0,.26,1.25c.07.2.16.39.23.62a2.23,2.23,0,0,1,0,.68,6.64,6.64,0,0,1-.22,1.31.12.12,0,1,1-.24-.06Z"/><path d="M33.12,98.51c.07-.7.22-1.27.33-1.9l.36-1.85a4.36,4.36,0,0,1,1-1.64,2.65,2.65,0,0,1,1.55-1,2.62,2.62,0,0,0-1.5,1,4.21,4.21,0,0,0-.88,1.62l-.3,1.86c-.1.61-.22,1.28-.27,1.83v.06a.12.12,0,0,1-.13.11.13.13,0,0,1-.11-.13Z"/><path d="M38.41,94.87A10.43,10.43,0,0,0,37.14,97a4.88,4.88,0,0,0-.36,1.18c-.06.4-.08.83-.12,1.24a17,17,0,0,0,.06,4.94.12.12,0,0,1-.1.14.13.13,0,0,1-.15-.1h0a17.45,17.45,0,0,1,.06-5c.06-.41.09-.82.16-1.24A4.81,4.81,0,0,1,37.08,97,10.72,10.72,0,0,1,38.41,94.87Z"/><path d="M49.08,92.61a9.49,9.49,0,0,0,2.51-3.23,9.78,9.78,0,0,1-2.35,3.43.13.13,0,0,1-.17-.19h0Z"/><path d="M49.88,100.62a73.88,73.88,0,0,0,8.8.58,70.18,70.18,0,0,0,8.81-.46,72.15,72.15,0,0,1-8.81.59,74.68,74.68,0,0,1-8.84-.46.12.12,0,0,1-.1-.14.12.12,0,0,1,.13-.11Z"/><path d="M54.19,101.07a12.13,12.13,0,0,0,4.61-1.36,20.71,20.71,0,0,0,7.41-6.17,24.83,24.83,0,0,0,2.53-4.16,24.85,24.85,0,0,1-2.5,4.18,20.44,20.44,0,0,1-3.33,3.56,19.6,19.6,0,0,1-4.06,2.69,12.13,12.13,0,0,1-4.67,1.41.08.08,0,0,1,0-.15h0Z"/><path d="M39.2,108.43a6.76,6.76,0,0,0-.83,2.34,3.9,3.9,0,0,0,0,1.23,10.11,10.11,0,0,0,.35,1.19,8.71,8.71,0,0,0,2.55,4.17.12.12,0,0,1,0,.17.12.12,0,0,1-.18,0h0a9,9,0,0,1-2.51-4.32,9.78,9.78,0,0,1-.32-1.21,3.8,3.8,0,0,1,0-1.26A6.67,6.67,0,0,1,39.2,108.43Z"/><path d="M49,122.77a9.83,9.83,0,0,1-2-1.46,5,5,0,0,1-1.34-2,6.64,6.64,0,0,1-.15-2.43,8.82,8.82,0,0,1,.57-2.37,9.3,9.3,0,0,0-.51,2.37,6.67,6.67,0,0,0,.21,2.4,4.94,4.94,0,0,0,1.35,1.94,8.59,8.59,0,0,0,2,1.37h0a.13.13,0,0,1,.06.17.13.13,0,0,1-.17,0Z"/><path d="M55.47,124.24a1.21,1.21,0,0,1-.44-.11l-.36-.13-.72-.3c-.46-.21-.93-.44-1.37-.69a9.52,9.52,0,0,1-2.39-1.93,14.8,14.8,0,0,1-2-2.36,6.17,6.17,0,0,1-.51-1.44l-.43-1.47.46,1.46a5.72,5.72,0,0,0,.54,1.41,14.62,14.62,0,0,0,2,2.31,9.56,9.56,0,0,0,2.39,1.86c.44.24.9.45,1.37.65l.71.28.65.22.11,0a.1.1,0,0,1,.06.13A.09.09,0,0,1,55.47,124.24Z"/><path d="M46.39,116.1A10.75,10.75,0,0,0,46.8,118c.21.6.52,1.17.73,1.77.12.3.23.59.37.88a7.57,7.57,0,0,0,.5.8,5.19,5.19,0,0,0,1.27,1.37.12.12,0,0,1,0,.17.13.13,0,0,1-.18,0h0a5.45,5.45,0,0,1-1.28-1.47,9.48,9.48,0,0,1-.48-.83c-.14-.3-.24-.6-.35-.9-.19-.62-.48-1.18-.67-1.8A11,11,0,0,1,46.39,116.1Z"/><path d="M57.9,114.88a12.55,12.55,0,0,0,1.41,1.68c.52.51,1.08,1,1.65,1.45a5.63,5.63,0,0,0,1.89,1,7.44,7.44,0,0,0,2.12.41.12.12,0,0,1,.13.12.13.13,0,0,1-.12.13h0a8,8,0,0,1-2.18-.48,5.76,5.76,0,0,1-1.91-1.12c-.56-.47-1.1-1-1.62-1.49A14.18,14.18,0,0,1,57.9,114.88Z"/><path d="M56.39,114.46c.46.67,1,1.24,1.46,1.94a5.54,5.54,0,0,0,1.55,1.81,15.38,15.38,0,0,0,2.15,1.07,13.23,13.23,0,0,0,2.3.69.13.13,0,0,1,.1.15.12.12,0,0,1-.15.09h0a14.6,14.6,0,0,1-2.32-.75,15.84,15.84,0,0,1-2.15-1.15,5.72,5.72,0,0,1-1.54-1.88C57.4,115.73,56.83,115.14,56.39,114.46Z"/><path class="cls-2" d="M72.08,115.7a9.9,9.9,0,0,1-3.18-1.43c-.9-.68-2.65-2.2-3.49-1.89S63,113.93,64,115.27s2.59,2.3,3.77,2S72.6,115.86,72.08,115.7Z"/><path class="cls-1" d="M55.11,124.22a4,4,0,0,0,2.53,3.9c2.78,1.35,5.82,2.67,8.51,1.82s5.66-1.85,8-4a78.82,78.82,0,0,1,6.92-5.45c.72-.5,3.39-3.3,4.42-4.07s3-3,.18-6.24-5.47-2.4-7.66-1.45-4.81,2.2-4.81,2.2"/><path d="M58.44,123.86a3.55,3.55,0,0,0,.61,2.54,14,14,0,0,0,2.05,1.7c.38.24.68.61,1,.87a3.69,3.69,0,0,0,1.17.59,8.47,8.47,0,0,0,2.61.33A.13.13,0,0,1,66,130a.12.12,0,0,1-.12.12h0a9.29,9.29,0,0,1-2.67-.4,3.88,3.88,0,0,1-1.2-.65c-.37-.29-.63-.64-1-.9a13.5,13.5,0,0,1-2-1.75A3.56,3.56,0,0,1,58.44,123.86Z"/><path d="M60.84,124.4c.09.32.39.55.55.85A2.29,2.29,0,0,0,62,126a8,8,0,0,0,1.68,1.16,11.71,11.71,0,0,0,1.61,1.26,4.74,4.74,0,0,0,1.94.56,4.08,4.08,0,0,1-2-.39,9.92,9.92,0,0,1-1.66-1.23,6.82,6.82,0,0,1-1.67-1.22,2.44,2.44,0,0,1-.59-.87C61.16,125,60.89,124.74,60.84,124.4Z"/><path d="M59.28,124l.46,1.17a4.58,4.58,0,0,0,.5,1.13,3.25,3.25,0,0,0,.89.84c.33.27.63.56.93.84a6.47,6.47,0,0,0,2.11,1.26,8.67,8.67,0,0,0,2.42.48.11.11,0,0,1,.11.13.12.12,0,0,1-.13.12h0a8.62,8.62,0,0,1-2.46-.56A6.54,6.54,0,0,1,62,128.05a12.21,12.21,0,0,0-.91-.86,3.24,3.24,0,0,1-.88-.89,4.45,4.45,0,0,1-.48-1.15Z"/><path d="M71.1,118a19.18,19.18,0,0,0,1.51,1.82,5.53,5.53,0,0,0,2,1.24,6.93,6.93,0,0,0,2.27.55l2.36.07h0a.12.12,0,0,1,.12.13.12.12,0,0,1-.13.12h0l-2.37-.13a7.39,7.39,0,0,1-2.31-.62,5.71,5.71,0,0,1-2-1.31A18.88,18.88,0,0,1,71.1,118Z"/><path d="M70.91,119.19a10.62,10.62,0,0,0,1.51,1.56,11.27,11.27,0,0,0,1.87,1.09,4.91,4.91,0,0,0,2,.61l2.17-.21a.12.12,0,0,1,.13.11.11.11,0,0,1-.11.13h0l-2.17.16a5,5,0,0,1-2.09-.69,11.5,11.5,0,0,1-1.86-1.15A10.69,10.69,0,0,1,70.91,119.19Z"/><path d="M71.26,121.12c.4.16.8.33,1.19.51s.78.4,1.16.56.8.3,1.2.43a7.59,7.59,0,0,0,1.25.3,6.24,6.24,0,0,1-2.55-.5c-.4-.19-.77-.4-1.15-.62S71.62,121.36,71.26,121.12Z"/><path class="cls-2" d="M85.41,115.1c.55-.08-2.11,2.14-2.9,2.57a5.24,5.24,0,0,1-4.42,0c-1.41-.87-1.91-1.71-1.32-3s1.5-2.55,2.18-2.08,1.73,2,3.19,2.29A11.86,11.86,0,0,0,85.41,115.1Z"/><path class="cls-1" d="M68.27,129.24a3,3,0,0,0,2.16,3.46c2.74,1.07,5.63.47,8.07-.25a14.55,14.55,0,0,0,2.09-1,12,12,0,0,0,3.62-2.16c1.58-1.55,5-4.61,6.15-5.53a5.35,5.35,0,0,0,2.53-4,5.53,5.53,0,0,0-2.09-5.58A5,5,0,0,0,87.09,113"/><path d="M70.1,130a3.49,3.49,0,0,0,1.34,1.19,14.64,14.64,0,0,1,1.74.56,7.68,7.68,0,0,0,3.42,1,.12.12,0,0,1,.12.13.14.14,0,0,1-.13.12h0a7.82,7.82,0,0,1-3.46-1.19,15,15,0,0,0-1.71-.62A3.39,3.39,0,0,1,70.1,130Z"/><path d="M71.94,129.59a1.74,1.74,0,0,0,.85.64c.32.16.62.37.93.55a6.79,6.79,0,0,0,1.93.9,10.18,10.18,0,0,0,2.14.12,13.71,13.71,0,0,0,2.13-.18h0a.13.13,0,1,1,0,.25h0a14.43,14.43,0,0,1-2.17.12,10.61,10.61,0,0,1-2.17-.19,7.32,7.32,0,0,1-1.94-1,8.73,8.73,0,0,0-.91-.58A1.81,1.81,0,0,1,71.94,129.59Z"/><path d="M78.86,124.64a5,5,0,0,0,1.46,1.44,8.75,8.75,0,0,0,1.88.81,7.74,7.74,0,0,0,2,.46,8.9,8.9,0,0,0,1,0l1,0a14.24,14.24,0,0,1-2.08.25,7,7,0,0,1-2.07-.42,8.06,8.06,0,0,1-1.91-.88A4.34,4.34,0,0,1,78.86,124.64Z"/><path d="M79.22,122.75a2.5,2.5,0,0,0,.85,1.38,13.53,13.53,0,0,0,1.39.94,4.7,4.7,0,0,0,1.53.6,4.23,4.23,0,0,0,1.66.1,3.45,3.45,0,0,1-1.69.09,4.31,4.31,0,0,1-1.63-.58,10.55,10.55,0,0,1-1.38-1A2.26,2.26,0,0,1,79.22,122.75Z"/><path d="M79.12,124a2.74,2.74,0,0,0,1.26,1.12c.51.28,1,.56,1.53.8a5.13,5.13,0,0,0,.78.32c.27.05.57.1.85.17a12.44,12.44,0,0,0,1.7.33,6.79,6.79,0,0,1-1.74-.14l-.86-.14a4.7,4.7,0,0,1-.84-.32,15.19,15.19,0,0,1-1.52-.86A2.46,2.46,0,0,1,79.12,124Z"/><path class="cls-2" d="M84.79,118.17l-1.42,2.37a3.11,3.11,0,0,0,1.28,3.17,3.82,3.82,0,0,0,4.58-.46c1.15-1.21,2.3-2.39,1.84-2.27a5,5,0,0,1-3.52-.74C86.15,119.32,85,117.81,84.79,118.17Z"/><path class="cls-1" d="M93,118.85a2.63,2.63,0,0,1,1.81,2.26,24.53,24.53,0,0,1-.58,3.37c-.11,1-.61,3.33-2,3.87s-2.71,1.39-3.78,1.46a15.29,15.29,0,0,1-4.22-.57"/><path class="cls-2" d="M89.68,124.26a3.22,3.22,0,0,0,1.82,1,3.51,3.51,0,0,0,2-.59A4.79,4.79,0,0,1,91.61,126a3.07,3.07,0,0,1-3.31-.5"/><path d="M85.91,128.37a3.42,3.42,0,0,0,1,.49,6.35,6.35,0,0,0,1.13.25,8.37,8.37,0,0,0,2.29-.07.13.13,0,0,1,0,.25h0a8.73,8.73,0,0,1-2.34-.06,6.3,6.3,0,0,1-1.13-.31A3.36,3.36,0,0,1,85.91,128.37Z"/><path d="M77.54,69.17l-4.06-2.38c-.67-.4-1.35-.82-2-1.28a13.53,13.53,0,0,0-2.11-1,41.53,41.53,0,0,0-4.47-1.44,29.16,29.16,0,0,0-4.62-.87,29.14,29.14,0,0,1,4.63.81,41,41,0,0,1,4.5,1.38,14.3,14.3,0,0,1,2.15,1,23,23,0,0,0,2,1.26L77.66,69a.13.13,0,1,1-.12.22Z"/><path class="cls-2" d="M91.8,115.07a13,13,0,0,1,0-4c.35-2.1.47-2.86.23-3.53s-.39-1.11-.39-1.11a14.27,14.27,0,0,0,.12-2.35"/><path d="M62.58,107.47a31.44,31.44,0,0,1,3.59-.91c1.22-.22,2.46-.2,3.69-.32a22.36,22.36,0,0,0,3.64-.54,26.24,26.24,0,0,1,3.62-.79,24.44,24.44,0,0,1,7.39-.28c1.22.16,2.45.28,3.67.5a10.39,10.39,0,0,1,3.53,1.19.12.12,0,0,1,0,.17.13.13,0,0,1-.17.05h0a10.14,10.14,0,0,0-3.44-1.2c-1.21-.23-2.43-.36-3.66-.53a24.78,24.78,0,0,0-7.34.22,26,26,0,0,0-3.61.76,22.82,22.82,0,0,1-3.67.51c-1.23.11-2.47.08-3.69.29A31.85,31.85,0,0,0,62.58,107.47Z"/><path d="M55.93,102a11.66,11.66,0,0,1,4.5,1.08,7,7,0,0,1,1.32.83,14.83,14.83,0,0,0-2.84-1.15C57.93,102.44,56.93,102.21,55.93,102Z"/><path d="M50.12,101.61l2.32.9c.77.34,1.5.72,2.25,1.07s1.53.61,2.27,1A6.88,6.88,0,0,1,59,106a7.08,7.08,0,0,0-2.05-1.37c-.74-.36-1.56-.56-2.3-.93s-1.51-.7-2.27-1L50,101.84h0a.13.13,0,0,1-.07-.16.12.12,0,0,1,.16-.07Z"/><path d="M50.49,104.07A6.49,6.49,0,0,1,53,105.34a7,7,0,0,1,1.76,2.13,7,7,0,0,0-1.84-2,6.41,6.41,0,0,0-2.47-1.11h0a.13.13,0,0,1-.1-.15.13.13,0,0,1,.15-.1Z"/><path d="M52.33,104.87a23.29,23.29,0,0,1,3.39,1.69A23.44,23.44,0,0,0,52.26,105Z"/><path class="cls-1" d="M113.71,30.22c4-8.09,10.57-29.23,10.57-30"/><path class="cls-1" d="M66.68,44.71c-2.24-5.75-5.17-14.18-6.09-16-1.78-3.54-7.48-24.56-9-27.83"/><path d="M110.09,62.39A21.72,21.72,0,0,1,116,61.31a21.29,21.29,0,0,0-5.78,1.32.13.13,0,1,1-.08-.24Z"/><path d="M110.38,66.32a11.91,11.91,0,0,1,5-3.24,15.56,15.56,0,0,1,6-.6,16.61,16.61,0,0,1,5.85,1.32c1.86.79,3.57,1.79,5.37,2.62l5.4,2.56c.89.44,1.79.88,2.65,1.41a19,19,0,0,1,2.37,1.88A16.91,16.91,0,0,1,146.71,77a6.73,6.73,0,0,1,.51,1.47c.09.49.18,1,.25,1.48l.39,3a12.09,12.09,0,0,0,.68,2.85,12.32,12.32,0,0,1,.51,3,24.07,24.07,0,0,1-.52,6,16.31,16.31,0,0,1-.79,2.93,4.72,4.72,0,0,1-.8,1.36,7.77,7.77,0,0,1-1.25.93,2.15,2.15,0,0,0-.49.37,3.41,3.41,0,0,0,0,.6q0,.76-.09,1.5c-.08,1-.19,2-.37,3a8.84,8.84,0,0,1-.39,1.49,2.52,2.52,0,0,1-.39.74,3,3,0,0,1-.67.51,4.42,4.42,0,0,1-3,.7,6.3,6.3,0,0,1-2.84-1.26,7.94,7.94,0,0,1-1.93-2.39A12.09,12.09,0,0,1,134,99.36c0-1,.08-2,.13-3a10.48,10.48,0,0,1,.5-3v.16a27.68,27.68,0,0,1-1.77-4.68v0l.09.14a13,13,0,0,1-1.1-.82A3.87,3.87,0,0,1,131,87a7.47,7.47,0,0,1-.72-2.65,7.7,7.7,0,0,0,.93,2.53,3.87,3.87,0,0,0,.88,1,12.58,12.58,0,0,0,1.16.71.21.21,0,0,1,.08.11v.06a26.57,26.57,0,0,0,1.74,4.58.25.25,0,0,1,0,.19h0v0a10.76,10.76,0,0,0-.45,2.87c0,1-.09,2-.11,3a11.51,11.51,0,0,0,1.44,5.58,7.29,7.29,0,0,0,1.8,2.21,5.62,5.62,0,0,0,2.57,1.13,3.83,3.83,0,0,0,2.65-.63,2.63,2.63,0,0,0,.53-.37,2.85,2.85,0,0,0,.3-.58,10.1,10.1,0,0,0,.36-1.39c.18-1,.28-1.95.37-2.93,0-.49.07-1,.09-1.48v-.36a1,1,0,0,1,.11-.5,2.23,2.23,0,0,1,.66-.56,7.1,7.1,0,0,0,1.15-.83,4.07,4.07,0,0,0,.7-1.2,14.84,14.84,0,0,0,.76-2.82,23.77,23.77,0,0,0,.53-5.87A12,12,0,0,0,148,85.9a12.35,12.35,0,0,1-.7-2.94L147,80c-.07-.49-.15-1-.24-1.46a6,6,0,0,0-.47-1.35,16.6,16.6,0,0,0-3.64-4.56,18.1,18.1,0,0,0-2.3-1.83c-.82-.52-1.72-1-2.61-1.4l-5.38-2.57c-.9-.43-1.79-.86-2.68-1.33s-1.75-.93-2.65-1.33a16.54,16.54,0,0,0-5.71-1.38,15.41,15.41,0,0,0-5.86.48A12.06,12.06,0,0,0,110.38,66.32Z"/><path d="M132.84,88.8A10.71,10.71,0,0,1,133,85a12.14,12.14,0,0,1,1.37-3.48,12.38,12.38,0,0,0-1.15,3.53,10.34,10.34,0,0,0,0,3.64v0a.25.25,0,0,1-.19.28.24.24,0,0,1-.27-.18Z"/><path d="M134.59,93.37a11.17,11.17,0,0,1,2-4,7.53,7.53,0,0,1,1.62-1.52,6.6,6.6,0,0,1,2-.92,6.69,6.69,0,0,0-1.92,1,7.45,7.45,0,0,0-1.5,1.57,10.71,10.71,0,0,0-1.7,3.94h0a.25.25,0,1,1-.49-.1Z"/><path d="M146.44,89.27a10.72,10.72,0,0,1,1.42,2.37,6.21,6.21,0,0,1,.55,2.73.12.12,0,0,1-.13.12.13.13,0,0,1-.12-.13h0a6,6,0,0,0-.42-2.66A10.48,10.48,0,0,0,146.44,89.27Z"/><path d="M145.51,90.18a6.41,6.41,0,0,1,.9,1.22,5,5,0,0,1,.56,1.42,8,8,0,0,1,.4,3,7.27,7.27,0,0,0-.25-1.48c-.12-.49-.25-1-.39-1.45a5.93,5.93,0,0,0-.48-1.4C146,91,145.77,90.6,145.51,90.18Z"/><path class="cls-2" d="M144.89,100.48s.09-2.68-.84-3.57a1.33,1.33,0,0,0-2.35.66,3,3,0,0,0,.28,2.35,8.59,8.59,0,0,1,1.64,4.37A5.7,5.7,0,0,1,143,108"/><path class="cls-1" d="M37.41,76.61S27.29,60.36,23.27,54.4C15.94,43.54,6.69,18.59.25,8.72"/><path class="cls-1" d="M140.2,70.45a174.55,174.55,0,0,1,10.72-23.69C158.07,34,168.37,12.07,172.25.89"/><path d="M134.28,97.45a8.05,8.05,0,0,0-3.62.25,31.57,31.57,0,0,1-3.5,1.25c-1.23.24-2.46.32-3.68.56a7.75,7.75,0,0,0-3.41,1.35,7.76,7.76,0,0,1,3.4-1.41c1.21-.26,2.46-.36,3.66-.62a28.64,28.64,0,0,0,3.47-1.31,8.36,8.36,0,0,1,3.72-.32.14.14,0,0,1,.11.13.14.14,0,0,1-.14.12h0Z"/><path d="M126.74,98.17a16.87,16.87,0,0,1-5.13-.76A17.51,17.51,0,0,1,117,95.07a44,44,0,0,1-4.12-3.19,28.35,28.35,0,0,1-3.65-3.7A39.66,39.66,0,0,0,113,91.75a44.86,44.86,0,0,0,4.15,3.11,17,17,0,0,0,4.56,2.39A19.87,19.87,0,0,0,126.74,98.17Z"/><path d="M92,109.18a8.55,8.55,0,0,1,2.64-2.58,5.32,5.32,0,0,1,1.74-.65c.6-.13,1.21-.23,1.82-.31,1.23-.13,2.43-.17,3.66-.34a18,18,0,0,1,3.67.06,22.38,22.38,0,0,0,3.66.17c1.22,0,2.44-.07,3.66-.12s2.45-.08,3.66-.21a4.6,4.6,0,0,0,3.13-1.72,4.66,4.66,0,0,1-3.12,1.76c-1.22.13-2.44.14-3.66.23s-2.45.12-3.67.15a21.42,21.42,0,0,1-3.67-.13,17.13,17.13,0,0,0-3.65,0c-1.2.18-2.44.23-3.65.37a18.13,18.13,0,0,0-1.79.32,5.25,5.25,0,0,0-1.68.63,8.51,8.51,0,0,0-2.54,2.53h0a.14.14,0,0,1-.18,0,.14.14,0,0,1,0-.18Z"/><path d="M124.75,103.29a16.4,16.4,0,0,1,2.24-1.53,25.79,25.79,0,0,1,2.51-1,4.91,4.91,0,0,0,1.15-.68,12.85,12.85,0,0,1,1.08-.83,5.58,5.58,0,0,1,2.52-1.08.12.12,0,0,1,.14.11.14.14,0,0,1-.11.14h0a5.5,5.5,0,0,0-2.44,1q-.56.38-1.08.81a5.21,5.21,0,0,1-1.2.66c-.83.38-1.75.5-2.53,1A17,17,0,0,0,124.75,103.29Z"/><path d="M134.17,100.79s0,.1.1.11,0,0,0,0h0l-.05,0-.11,0-.22.09-.44.2-.89.37a7.69,7.69,0,0,1-.93.29,6,6,0,0,0-.88.36c-.57.28-1.14.59-1.69.92a7.49,7.49,0,0,0-1.54,1.14,7.92,7.92,0,0,1,1.51-1.19c.54-.35,1.09-.68,1.67-1a5.13,5.13,0,0,1,.89-.4,6,6,0,0,0,.9-.32l.87-.39.44-.21.22-.1.11,0,.06,0h.1a.14.14,0,0,1,.12.11.12.12,0,0,1-.11.14A.14.14,0,0,1,134.17,100.79Z"/><path d="M138.68,109.38a7.3,7.3,0,0,0-1.89-1.34,6.2,6.2,0,0,0-2.21-.6A40.32,40.32,0,0,0,130,107h0a.32.32,0,0,1-.14,0,9.91,9.91,0,0,0-3.84-.94,29.1,29.1,0,0,0-4-.35,6.34,6.34,0,0,0-3.69,1.16,4.49,4.49,0,0,0-1.84,3.24,3,3,0,0,0,.6,1.74,11.35,11.35,0,0,0,1.5,1.29c.53.42,1.07.86,1.57,1.34s1,.93,1.5,1.34a13.46,13.46,0,0,0,3.56,1.83,14.55,14.55,0,0,1,3.48,2.2,7.59,7.59,0,0,0,3.68,1.27,3.77,3.77,0,0,0,.95-.06c.28-.07.62-.2.94-.3a19.22,19.22,0,0,0,1.88-.72,4.16,4.16,0,0,0,1.54-1.15,2.84,2.84,0,0,1,.82-.74,8.64,8.64,0,0,0,.95-.37,7.33,7.33,0,0,0,2.76-2.74c1.35-2.35,2.73-4.72,3.07-7.4a45.54,45.54,0,0,0,.34-8.09.24.24,0,0,1,.24-.26.25.25,0,0,1,.26.23h0a46.75,46.75,0,0,1-.34,8.19c-.36,2.78-1.79,5.23-3.14,7.57a8,8,0,0,1-3,2.94c-.31.19-.73.25-1,.37a2.57,2.57,0,0,0-.68.62,4.64,4.64,0,0,1-1.7,1.27,17.41,17.41,0,0,1-1.93.74c-.33.11-.62.23-1,.32a4.36,4.36,0,0,1-1.08.07,8.2,8.2,0,0,1-3.94-1.36A14,14,0,0,0,125,118.1a14.37,14.37,0,0,1-3.67-1.89c-.55-.43-1-.92-1.53-1.38s-1-.89-1.54-1.3a11.83,11.83,0,0,1-1.58-1.38,3.33,3.33,0,0,1-.71-2.05,3.93,3.93,0,0,1,.63-2.06,6.39,6.39,0,0,1,1.4-1.58,6.91,6.91,0,0,1,4-1.26,30.63,30.63,0,0,1,4.1.35,10.82,10.82,0,0,1,4,1l-.15,0h0a17.13,17.13,0,0,1,4.7.52,6.3,6.3,0,0,1,4,2.34Z"/><path d="M130,106.77a9.76,9.76,0,0,1,2.3-1.94,9.42,9.42,0,0,1,1.34-.69,7.23,7.23,0,0,1,1.43-.46c-.46.2-.91.4-1.35.63a14.78,14.78,0,0,0-1.29.73c-.43.26-.84.54-1.24.83S130.35,106.45,130,106.77Z"/><path d="M130,106.53a6.65,6.65,0,0,1,1.68,1,5.42,5.42,0,0,1,1.22,1.48,5.2,5.2,0,0,0-1.37-1.28,6.14,6.14,0,0,0-1.68-.75h0a.25.25,0,1,1,.13-.48Z"/><path d="M132,106.73a3.92,3.92,0,0,1,.74.35,7.57,7.57,0,0,1,.66.44,6.48,6.48,0,0,1,1.12,1.1,6.2,6.2,0,0,0-1.19-1,6.38,6.38,0,0,0-.67-.38A4.07,4.07,0,0,0,132,107h0a.13.13,0,0,1-.09-.15.12.12,0,0,1,.15-.09Z"/><path class="cls-2" d="M120.8,111.61c1.59-.67,2.63-2.69,3.46-2.19s2,2.23,1.6,3a3.77,3.77,0,0,1-4,1.9,7.93,7.93,0,0,1-3.87-1.92C117.54,112.12,119.44,112.18,120.8,111.61Z"/><path d="M128.09,115.7c.25-.19.48-.4.71-.6a6.55,6.55,0,0,0,.66-.63,4.94,4.94,0,0,0,1-1.51,2.41,2.41,0,0,1-.28.91,4.21,4.21,0,0,1-.56.77A4.55,4.55,0,0,1,128.09,115.7Z"/><path d="M125.48,117.25c.71-.23,1.4-.47,2.08-.75a8.24,8.24,0,0,0,1.92-1,8,8,0,0,0,1.51-1.56c.23-.29.41-.61.65-.9a3.61,3.61,0,0,0,.71-.85,3.87,3.87,0,0,1-.61.92c-.21.29-.38.63-.59.94a7.67,7.67,0,0,1-1.52,1.65A10.67,10.67,0,0,1,125.48,117.25Z"/><path d="M125.48,117.62a8.13,8.13,0,0,0,2.15-.43,7.33,7.33,0,0,0,1.86-1.11c.58-.44,1.07-1,1.63-1.48a9.17,9.17,0,0,0,1.47-1.64,6.78,6.78,0,0,1-1.34,1.77c-.53.51-1,1.07-1.6,1.54a6.77,6.77,0,0,1-2,1.1A6.38,6.38,0,0,1,125.48,117.62Z"/><path d="M131.5,120.78c.47-.23.95-.44,1.39-.71a10.64,10.64,0,0,0,1.25-.93,15.46,15.46,0,0,1,2.76-1.52l-1.32.85c-.44.29-.88.56-1.3.87a8.7,8.7,0,0,1-1.29.9A8.32,8.32,0,0,1,131.5,120.78Z"/><path d="M135.53,118.39c.14-.23.26-.46.4-.68s.3-.43.45-.64a6.91,6.91,0,0,1,1.08-1.15,14.12,14.12,0,0,1-.88,1.3A8.88,8.88,0,0,1,135.53,118.39Z"/><path d="M135.16,119.84a15,15,0,0,1,1.5-1.21,17.17,17.17,0,0,1,1.64-1,13.23,13.23,0,0,1-1.49,1.22A14.18,14.18,0,0,1,135.16,119.84Z"/><path d="M137.54,117.15a5,5,0,0,1,.46-1c.1-.16.2-.32.31-.47s.25-.35.37-.37a.9.9,0,0,0-.09.21l-.12.26c-.07.17-.17.33-.25.49A4.53,4.53,0,0,1,137.54,117.15Z"/><path class="cls-1" d="M116.29,109.34s-2.33-2.16-4.4-2.55a5.42,5.42,0,0,0-5.14,1.37c-1.16,1.29-3.11,3.38-1.56,5.58s2.55,2.09,3.92,4.29a32,32,0,0,0,4.31,5.1c1.67,1.82,1.76,3,4.89,5.3a8.81,8.81,0,0,0,9.13.75c2.47-1.11,5.69-4.58,5.15-7.81"/><path class="cls-2" d="M109.92,113.34c3.26-1.58,3.39-3.31,3.91-2.32.43.83,2,3.84-.25,5.26a3.91,3.91,0,0,1-4.84-.35c-.84-.65-2.56-2.34-2-2.19A4.64,4.64,0,0,0,109.92,113.34Z"/><path d="M112.66,121.22c.45,0,.89,0,1.33,0a3,3,0,0,0,1.23-.34,19.74,19.74,0,0,1,2.47-1c-.4.19-.77.44-1.17.64s-.79.41-1.2.6a2.77,2.77,0,0,1-1.33.31A7.23,7.23,0,0,1,112.66,121.22Z"/><path d="M112.81,121.86a5.68,5.68,0,0,0,2.25,0,6.27,6.27,0,0,0,3.86-2.16c.55-.52,1.11-1,1.64-1.6a19.1,19.1,0,0,1-1.5,1.74c-.26.28-.54.54-.82.8a4.37,4.37,0,0,1-.93.72,8.85,8.85,0,0,1-2.21.69A4.92,4.92,0,0,1,112.81,121.86Z"/><path d="M114.4,122.51a5.55,5.55,0,0,0,1.47-.11,5,5,0,0,0,1.37-.5c.9-.4,1.77-.87,2.67-1.3a14.77,14.77,0,0,1-2.57,1.53,4.5,4.5,0,0,1-1.44.46A3.79,3.79,0,0,1,114.4,122.51Z"/><path d="M121.71,128.85a10.61,10.61,0,0,0,2.43-.64,7.26,7.26,0,0,0,2.14-1.24,21.07,21.07,0,0,0,1.8-1.74,6.76,6.76,0,0,0,1.37-2.09,5.69,5.69,0,0,1-1.23,2.21,16,16,0,0,1-1.78,1.81A8,8,0,0,1,121.71,128.85Z"/><path d="M124.19,129.56c.39-.24.8-.43,1.2-.63a8.75,8.75,0,0,0,1.17-.64l1.12-.75a7.06,7.06,0,0,0,1.07-.82,8.12,8.12,0,0,1-2,1.78,6.66,6.66,0,0,1-1.23.6C125.05,129.27,124.61,129.4,124.19,129.56Z"/><path d="M123.54,127.81c.45-.23.89-.48,1.32-.73a7.49,7.49,0,0,0,1.21-.85c.71-.71,1.41-1.45,2.17-2.1-.63.81-1.3,1.54-2,2.28a6.15,6.15,0,0,1-1.29.83A9,9,0,0,1,123.54,127.81Z"/><path class="cls-1" d="M104.89,113.23a5,5,0,0,0-3.43.08,7.44,7.44,0,0,0-3.73,4.86c-.24,2,.91,2.87,2.37,4.57s2.75,3.4,3.7,4.65a11.56,11.56,0,0,0,5,4.44c2.83,1.21,5.49,1.62,7.64-.21s2.33-2,2.34-2.87"/><path class="cls-2" d="M103.53,120.6c3.08-1.17,2.71-4.42,3.31-2.82s.88,3.91-.8,4.89a3.91,3.91,0,0,1-4.55-.54c-.88-.9-1.88-2.08-1.08-1.7A3.26,3.26,0,0,0,103.53,120.6Z"/><path d="M104.06,126.8a3.81,3.81,0,0,0,2,.3,6.22,6.22,0,0,0,1.93-.76c.64-.3,1.26-.63,1.88-1s1-1,1.38-1.51c-.19.29-.31.63-.5.93a2.19,2.19,0,0,1-.79.75c-.6.38-1.23.71-1.86,1a5.84,5.84,0,0,1-2,.73A3.39,3.39,0,0,1,104.06,126.8Z"/><path d="M105.16,126.48a7.49,7.49,0,0,0,1.5-.17,5.57,5.57,0,0,0,1.38-.54c.46-.21.9-.46,1.35-.7s1-.32,1.22-.81a1,1,0,0,1-.47.6c-.23.14-.45.24-.66.38-.43.27-.87.52-1.33.75a5.27,5.27,0,0,1-1.46.51A4.62,4.62,0,0,1,105.16,126.48Z"/><path d="M105.16,127.62a4.3,4.3,0,0,0,1.6-.15c.5-.17,1-.38,1.51-.56l1.53-.54a8.37,8.37,0,0,0,1.27-1,5.16,5.16,0,0,1-1.18,1.15c-.5.24-1,.4-1.52.61s-1,.38-1.57.51A3.15,3.15,0,0,1,105.16,127.62Z"/><path class="cls-1" d="M94.75,121.62a5.08,5.08,0,0,1,3-3"/><path class="cls-2" d="M94.31,123.79s.15,1.44.83,1.92,1.18.59,1.48.89a2.53,2.53,0,0,0,2.95.36,2.84,2.84,0,0,0,1.54-3"/><path class="cls-2" d="M96.48,126.48a3.27,3.27,0,0,0,4.5-1.1"/><path class="cls-1" d="M94,125.38c0,.07.22,2.41,1.93,3.22s3.13,1.56,4.52,1.11a9.79,9.79,0,0,0,3.66-1.85"/><path d="M97.34,128.89a3,3,0,0,0,1.7.43,4.42,4.42,0,0,0,1.71-.44,5.57,5.57,0,0,0,1.51-.89,2.34,2.34,0,0,0,.74-1.51.13.13,0,0,1,.25,0h0a2.6,2.6,0,0,1-.87,1.61,5.82,5.82,0,0,1-1.58.87,4.65,4.65,0,0,1-1.76.39A3.1,3.1,0,0,1,97.34,128.89Z"/><path d="M51,61.16a18.34,18.34,0,0,1,8-3.32,14.16,14.16,0,0,1,4.36.06,13,13,0,0,1,4.11,1.43,16.59,16.59,0,0,0-2-.77l-1-.3-1.06-.19a13.78,13.78,0,0,0-4.3,0,17.67,17.67,0,0,0-4.17,1.09A21.64,21.64,0,0,0,51,61.16Z"/><path class="cls-1" d="M91.81,18.23c9.75.11,19.78,6,23.53,15.19s2.57,17.1-2.81,25.39-6.3,9.63-6.47,12.8-.39,5.56-3.25,5.56H81s-2.69-.14-2.69-4.26-2.56-8-5.51-12.41-7.94-12.28-5.47-22.61S79.82,18.1,91.81,18.23Z"/><path class="cls-1" d="M83.22,81.6c-.09,0-2.17.24-2.26-.56s-.13-.83,1.63-.94,20.06-1.67,20.06-1.67a.62.62,0,0,1,.68.7c0,.78-.36.89-2,1S83.22,81.6,83.22,81.6Z"/><path class="cls-1" d="M81,80.42s0-3.25,0-3.25"/><path class="cls-1" d="M103.26,78.76c0-.06-.1-1.11.07-1.21a8.18,8.18,0,0,1,.8-.61"/><path class="cls-1" d="M80.93,84.23c-.12-1,1-1.25,2.15-1.29s18.37-1,19.13-1.13,1.06.19,1.12.66,0,1-1.88,1.13-18.12,1.31-19,1.35S81,84.93,80.93,84.23Z"/><path class="cls-1" d="M80.93,87.61c-.12-1,1-1.25,2.15-1.29s18.37-1,19.13-1.13,1.06.19,1.12.66,0,1-1.88,1.13-18.12,1.31-19,1.35S81,88.31,80.93,87.61Z"/><path class="cls-1" d="M80.93,91c-.12-1,1-1.25,2.15-1.29s18.37-1,19.13-1.13,1.06.19,1.12.66,0,1-1.88,1.13-18.12,1.31-19,1.35S81,91.69,80.93,91Z"/><path class="cls-1" d="M84.05,93l19.26,0a.74.74,0,0,0,0-.44c-.06-.47-.36-.74-1.12-.66s-18,1.09-19.13,1.13-2.29-.06-2.16,1.08,1.06,2.42,3.86,4"/><path class="cls-1" d="M82.49,83a4.42,4.42,0,0,0,0-1.34"/><path class="cls-1" d="M82.52,85a6.85,6.85,0,0,1,0,1.4"/><path class="cls-1" d="M82.57,88.34a4.69,4.69,0,0,1,0,1.39"/><path class="cls-1" d="M82.52,91.72a7.46,7.46,0,0,1,0,1.4"/><path class="cls-1" d="M102.31,80.05s-1.72.94-.1,1.76"/><path class="cls-1" d="M102.31,83.49s-1.81.9-.1,1.7"/><path class="cls-1" d="M102.31,86.87s-1.81,1.07-.21,1.69"/><path class="cls-1" d="M102.53,90.19s-2.33.92-.32,1.76"/><path class="cls-1" d="M102.67,93.05s.7.1.68.67-.4,1.88-3.77,4.41"/><path class="cls-1" d="M89.36,102a.33.33,0,0,0-.36.37c0,.41,1.22,1.73,3,1.73s3.25-1.32,3.25-1.78c0-.27-.19-.32-.44-.32Z"/><path class="cls-1" d="M89.05,102.12s-4.22-2-4.4-3.54c-.08-.63.83-.53,1.43-.53H99.14s1,0,.4.8a9.78,9.78,0,0,1-4.31,3.27"/><rect class="cls-3" x="0.25" y="0.25" width="183.34" height="133.04"/></g></g></svg>