<svg xmlns="http://www.w3.org/2000/svg" viewBox="0 0 236.38 119.06"><defs><style>.cls-1,.cls-2,.cls-3,.cls-4{fill:none;stroke:#000;stroke-linecap:round;stroke-linejoin:round;}.cls-1{stroke-width:0.4px;}.cls-2{stroke-width:0.25px;}.cls-3{stroke-width:0.5px;}.cls-4{stroke-width:0.5px;}</style></defs><g id="Layer_2" data-name="Layer 2"><g id="Layer_1-2" data-name="Layer 1"><polyline class="cls-1" points="45.11 49.89 46.76 49.89 43.29 51.21 21.4 50.91 23.32 50.27"/><ellipse class="cls-1" cx="35.82" cy="49.44" rx="1.65" ry="0.29"/><path class="cls-1" d="M37.47,49.44v1.33c0,.15-.74.28-1.65.28s-1.65-.13-1.65-.28V49.44"/><ellipse class="cls-1" cx="41.36" cy="49.44" rx="1.65" ry="0.29"/><path class="cls-1" d="M43,49.44v1.33c0,.15-.73.28-1.65.28s-1.64-.13-1.64-.28V49.44"/><ellipse class="cls-1" cx="47.07" cy="56.65" rx="1.65" ry="0.29"/><path class="cls-1" d="M48.72,56.65V58c0,.16-.73.28-1.65.28s-1.64-.12-1.64-.28v-1.3"/><ellipse class="cls-1" cx="48.95" cy="55.84" rx="1.65" ry="0.29"/><line class="cls-1" x1="47.3" y1="56.36" x2="47.3" y2="55.84"/><path class="cls-1" d="M50.6,55.84v1.33c0,.15-.74.28-1.65.28h-.23"/><ellipse class="cls-1" cx="30.4" cy="49.44" rx="1.65" ry="0.29"/><path class="cls-1" d="M32.05,49.44v1.33c0,.15-.74.28-1.65.28s-1.65-.13-1.65-.28V49.44"/><ellipse class="cls-1" cx="24.97" cy="49.44" rx="1.65" ry="0.29"/><path class="cls-1" d="M26.62,49.44v1.25c0,.15-.74.27-1.65.27s-1.65-.12-1.65-.27V49.44"/><ellipse class="cls-1" cx="19.75" cy="56.23" rx="1.65" ry="0.29"/><path class="cls-1" d="M21.4,56.23v1.22c0,.15-.74.27-1.65.27s-1.65-.12-1.65-.27V56.23"/><path class="cls-1" d="M16.47,62.83a4,4,0,0,0-1.6-.22c-.91,0-1.65.13-1.65.29s.74.29,1.65.29A4.09,4.09,0,0,0,16.48,63"/><path class="cls-1" d="M16.5,64.08a3.75,3.75,0,0,1-1.63.22c-.91,0-1.65-.11-1.65-.25V62.9"/><path class="cls-1" d="M16.44,61.79c-.61,0-1,.15-1,.27s.43.22,1.05.27"/><line class="cls-1" x1="15.41" y1="62.63" x2="15.41" y2="62.06"/><path class="cls-1" d="M21.57,55.25c-.72,0-1.25.14-1.25.28s.54.25,1.27.28"/><line class="cls-1" x1="20.32" y1="55.96" x2="20.32" y2="55.53"/><path class="cls-1" d="M21.64,57H21.4"/><ellipse class="cls-1" cx="37.92" cy="48.78" rx="1.65" ry="0.29"/><line class="cls-1" x1="36.27" y1="49.17" x2="36.27" y2="48.78"/><path class="cls-1" d="M39.56,48.78V50.1c0,.16-.73.29-1.64.29h-.45"/><ellipse class="cls-1" cx="43.46" cy="48.78" rx="1.65" ry="0.29"/><line class="cls-1" x1="41.81" y1="49.17" x2="41.81" y2="48.78"/><path class="cls-1" d="M45.11,48.78V50.1c0,.16-.74.29-1.65.29H43"/><ellipse class="cls-1" cx="32.49" cy="48.78" rx="1.65" ry="0.29"/><line class="cls-1" x1="30.84" y1="49.17" x2="30.84" y2="48.78"/><path class="cls-1" d="M34.14,48.78V50.1c0,.16-.74.29-1.65.29h-.44"/><ellipse class="cls-1" cx="27.07" cy="48.78" rx="1.65" ry="0.29"/><line class="cls-1" x1="25.42" y1="49.17" x2="25.42" y2="48.78"/><path class="cls-1" d="M28.72,48.78V50.1c0,.16-.74.29-1.65.29h-.45"/><line class="cls-1" x1="46.76" y1="49.89" x2="46.76" y2="56.36"/><polyline class="cls-1" points="50.6 56.8 52.37 56.8 49.11 58.28 43.29 58.16 43.29 51.21"/><line class="cls-1" x1="43.29" y1="58.16" x2="45.43" y2="57.23"/><line class="cls-1" x1="49.11" y1="58.29" x2="49.15" y2="65.34"/><polyline class="cls-1" points="43.29 58.16 21.67 57.75 21.4 50.91"/><polyline class="cls-1" points="52.37 56.8 52.49 63.54 49.15 65.34 38.08 64.97 37.95 58.06"/><ellipse class="cls-1" cx="26.2" cy="89.43" rx="1.65" ry="0.29"/><path class="cls-1" d="M27.85,89.43v1.31c0,.15-.74.28-1.65.28s-1.65-.13-1.65-.28V89.43"/><ellipse class="cls-1" cx="28.07" cy="88.44" rx="1.65" ry="0.29"/><line class="cls-1" x1="26.42" y1="89.15" x2="26.42" y2="88.44"/><path class="cls-1" d="M29.72,88.44v1.33c0,.16-.74.29-1.65.29h-.22"/><line class="cls-1" x1="28.23" y1="91.23" x2="28.27" y2="97.95"/><polyline class="cls-1" points="31.49 89.25 31.6 95.62 28.27 97.95 17.69 97.59 17.38 90.83"/><polyline class="cls-1" points="21.67 57.75 16.32 57.67 16.52 64.36"/><line class="cls-1" x1="27.37" y1="64.75" x2="27.11" y2="57.81"/><line class="cls-1" x1="16.32" y1="57.67" x2="18.1" y2="57.09"/><polyline class="cls-1" points="13.22 63.62 11.39 64.17 27.37 64.75 31.03 63.06 30.86 57.85"/><polyline class="cls-1" points="11.39 64.17 12.29 90.65 28.23 91.23 31.49 89.25 29.72 89.25"/><line class="cls-1" x1="25.84" y1="64.75" x2="26.45" y2="88.39"/><line class="cls-1" x1="22.49" y1="91.02" x2="21.64" y2="64.55"/><line class="cls-1" x1="22.49" y1="91.02" x2="24.55" y2="90.06"/><polyline class="cls-1" points="12.07 84.12 22.28 84.47 26.3 82.31"/><polyline class="cls-1" points="12.07 77.5 22.28 77.84 26.13 75.78"/><polyline class="cls-1" points="11.73 70.59 21.94 70.94 25.95 68.78"/><ellipse class="cls-1" cx="47.36" cy="90.47" rx="1.65" ry="0.29"/><path class="cls-1" d="M49,90.47v1.3c0,.16-.74.29-1.65.29s-1.65-.13-1.65-.29v-1.3"/><ellipse class="cls-1" cx="49.24" cy="89.35" rx="1.65" ry="0.29"/><line class="cls-1" x1="47.59" y1="90.18" x2="47.59" y2="89.35"/><path class="cls-1" d="M50.89,89.35v1.33c0,.16-.74.29-1.65.29H49"/><ellipse class="cls-1" cx="42.06" cy="90.41" rx="1.65" ry="0.29"/><path class="cls-1" d="M43.71,90.41v1.3c0,.16-.74.28-1.65.28s-1.65-.12-1.65-.28v-1.3"/><ellipse class="cls-1" cx="43.94" cy="89.17" rx="1.65" ry="0.29"/><line class="cls-1" x1="42.29" y1="90.12" x2="42.29" y2="89.17"/><path class="cls-1" d="M45.59,89.17v1.32c0,.16-.74.29-1.65.29h-.23"/><line class="cls-1" x1="49.39" y1="92.49" x2="49.44" y2="98.98"/><polyline class="cls-1" points="52.65 90.18 52.76 96.39 49.44 98.98 38.86 98.63 38.64 92.13"/><line class="cls-1" x1="47.59" y1="90.01" x2="45.59" y2="89.94"/><polyline class="cls-1" points="38.64 92.13 49.39 92.49 52.65 90.18 50.89 90.12"/><line class="cls-1" x1="41.63" y1="90.13" x2="42.29" y2="89.69"/><line class="cls-1" x1="38.64" y1="92.13" x2="40.41" y2="90.95"/><ellipse class="cls-1" cx="7.73" cy="104.4" rx="1.89" ry="1.58" transform="translate(-96.59 95.64) rotate(-80.96)"/><path class="cls-1" d="M7.44,106.27l-.87-.14a1.92,1.92,0,0,1,.59-3.73l.87.14"/><ellipse class="cls-1" cx="12.62" cy="103.12" rx="1.89" ry="1.58" transform="translate(-91.2 99.38) rotate(-80.96)"/><path class="cls-1" d="M12.33,105l-.87-.14a1.92,1.92,0,0,1,.59-3.74l.87.14"/><ellipse class="cls-1" cx="17.51" cy="101.84" rx="1.89" ry="1.58" transform="translate(-85.81 103.13) rotate(-80.96)"/><path class="cls-1" d="M17.22,103.7l-.87-.14a1.92,1.92,0,0,1,.59-3.73l.87.14"/><ellipse class="cls-1" cx="7.93" cy="110.26" rx="1.89" ry="1.58" transform="translate(-102.21 100.77) rotate(-80.96)"/><path class="cls-1" d="M7.63,112.13,6.76,112a1.92,1.92,0,0,1,.6-3.73l.86.13"/><ellipse class="cls-1" cx="12.82" cy="108.98" rx="1.89" ry="1.58" transform="translate(-96.82 104.51) rotate(-80.96)"/><path class="cls-1" d="M12.52,110.84l-.87-.13a1.93,1.93,0,0,1,.6-3.74l.86.14"/><ellipse class="cls-1" cx="17.71" cy="107.69" rx="1.89" ry="1.58" transform="matrix(0.16, -0.99, 0.99, 0.16, -91.43, 108.26)"/><path class="cls-1" d="M17.41,109.56l-.87-.14a1.92,1.92,0,0,1,.6-3.73l.86.14"/><polyline class="cls-1" points="19.08 108.55 19.1 109.7 4.73 113.24 4.18 101.83 18.88 98.42 18.93 100.88"/><line class="cls-1" x1="18.96" y1="102.52" x2="19.04" y2="106.58"/><polyline class="cls-1" points="18.88 98.42 14.43 97.14 0.2 100.3 4.18 101.83"/><polyline class="cls-1" points="0.2 100.3 0.66 111.3 4.73 113.24"/><ellipse class="cls-1" cx="36.73" cy="106.37" rx="1.78" ry="0.5"/><path class="cls-1" d="M38.51,106.37v1.31c0,.27-.8.5-1.78.5S35,108,35,107.68v-1.31"/><ellipse class="cls-1" cx="32.31" cy="107.77" rx="1.78" ry="0.5"/><path class="cls-1" d="M34.09,107.77v1.31c0,.28-.8.5-1.78.5s-1.78-.22-1.78-.5v-1.31"/><ellipse class="cls-1" cx="37.15" cy="108.87" rx="1.78" ry="0.5"/><path class="cls-1" d="M38.93,108.87v1.31c0,.27-.8.5-1.78.5s-1.78-.23-1.78-.5v-1.31"/><ellipse class="cls-1" cx="41.31" cy="107.46" rx="1.78" ry="0.5"/><path class="cls-1" d="M43.09,107.46v1.31c0,.28-.8.5-1.78.5s-1.78-.22-1.78-.5v-1.31"/><polyline class="cls-1" points="43.09 107.86 45.79 108.37 37.33 111.34 28.28 109.21 30.53 108.5"/><line class="cls-1" x1="38.51" y1="107.01" x2="39.73" y2="107.24"/><line class="cls-1" x1="33.77" y1="107.49" x2="34.95" y2="107.12"/><polyline class="cls-1" points="28.28 109.21 28.36 116.62 37.45 118.86 37.33 111.34"/><polyline class="cls-1" points="37.45 118.86 46.02 115.8 45.79 108.37"/><g id="Layer_1-2-2" data-name="Layer 1-2"><path d="M124.83,39.89a9.36,9.36,0,0,1-4.2,1.72,22.51,22.51,0,0,1-4.57.16l-4.57-.2c-.76,0-1.52-.06-2.27,0a17.5,17.5,0,0,1-2.29,0A34.21,34.21,0,0,1,98,39.47a21,21,0,0,1-4.08-2.1c-.65-.4-1.3-.8-1.93-1.22l-1-.67a1.53,1.53,0,0,1-.8-1h0l.28.23a13.75,13.75,0,0,1-2.93-.37c-1-.22-1.86-.49-2.8-.64a16.25,16.25,0,0,0-5.65-.15c-1.84.31-3.49,1.38-5.21,2.22a10,10,0,0,1-5.64,1.34c-3.75-.29-7.71.73-11.5-.56A5.5,5.5,0,0,1,53.1,32.2a4.61,4.61,0,0,1,.69-2.87,8.43,8.43,0,0,1,2-2.17,25.84,25.84,0,0,1,5.07-2.8A52.23,52.23,0,0,1,66.21,22a35.49,35.49,0,0,1,5.69-1,38.46,38.46,0,0,0,5.59-1.32c1.82-.58,3.61-1.3,5.41-2s3.58-1.37,5.34-2.13a26.3,26.3,0,0,0,5-2.65,11.32,11.32,0,0,0,1.89-2.08,8.59,8.59,0,0,1,2-2.08A11.61,11.61,0,0,0,95.4,11a10.32,10.32,0,0,1-1.91,2.26A26.86,26.86,0,0,1,88.39,16c-1.77.76-3.56,1.45-5.36,2.14s-3.58,1.37-5.42,2A37.52,37.52,0,0,1,72,21.42a35.89,35.89,0,0,0-5.63,1,53.09,53.09,0,0,0-5.25,2.29,25.8,25.8,0,0,0-5,2.73,8.19,8.19,0,0,0-1.88,2.06,4.18,4.18,0,0,0-.65,2.62,4.55,4.55,0,0,0,1.14,2.47A5.41,5.41,0,0,0,57,36.13a15.27,15.27,0,0,0,5.62.61c1.91,0,3.82-.27,5.78-.11a9.55,9.55,0,0,0,5.4-1.3c1.7-.83,3.35-1.93,5.33-2.29a16.92,16.92,0,0,1,5.81.14c1,.15,1.9.44,2.82.64a14.4,14.4,0,0,0,2.77.36.29.29,0,0,1,.28.23h0c0,.19.31.5.58.71s.6.44.91.65c.63.41,1.28.81,1.92,1.21a21.11,21.11,0,0,0,4,2.08,35.45,35.45,0,0,0,8.8,2.06,17,17,0,0,0,2.26,0c.76,0,1.53,0,2.29.06l4.55.24a21.34,21.34,0,0,0,4.52,0,12.82,12.82,0,0,0,2.2-.53A6.74,6.74,0,0,0,124.83,39.89Z"/><path d="M90.4,34.19a18.33,18.33,0,0,0,2.78-1.84A21.64,21.64,0,0,0,95.49,30a46.27,46.27,0,0,1,5-4.59,44.66,44.66,0,0,0-4.78,4.75,21,21,0,0,1-2.28,2.53,19.37,19.37,0,0,1-2.78,2,.26.26,0,0,1-.35-.09.25.25,0,0,1,.09-.34h0Z"/><path class="cls-2" d="M61.67,33.79s-4.06,1.58-5.77.83A3.46,3.46,0,0,1,54,30.12l0-.05c1.1-2.52,4.4-4.2,7-5.07C60.49,27.46,59.57,29.68,61.67,33.79Z"/><path d="M66.75,32.16a3.9,3.9,0,0,1-1.21-1.4A3.72,3.72,0,0,1,65.12,29a12.59,12.59,0,0,1,.17-1.84c.1-.61.27-1.2.39-1.8-.08,1.23-.34,2.43-.31,3.64a3.71,3.71,0,0,0,.34,1.74A5.14,5.14,0,0,0,66.75,32.16Z"/><path d="M68.64,31.68a3.06,3.06,0,0,1-.71-.53,2.39,2.39,0,0,1-.45-.79,6.26,6.26,0,0,1-.17-1.78,13.16,13.16,0,0,1,.12-1.77,12.69,12.69,0,0,1,.42-1.72,19.42,19.42,0,0,0-.29,3.49,7.16,7.16,0,0,0,.1,1.73A2.39,2.39,0,0,0,68.64,31.68Z"/><path d="M69.74,29.28a1.65,1.65,0,0,1-.5-.9,3.35,3.35,0,0,1,0-1,5.74,5.74,0,0,1,.21-1l.15-.49a.8.8,0,0,0,.07-.48,1.89,1.89,0,0,1,0,1c-.06.33-.12.66-.15,1a3.35,3.35,0,0,0,0,1A2,2,0,0,0,69.74,29.28Z"/><line class="cls-3" x1="54.54" y1="28.29" x2="54.82" y2="28.31"/><line class="cls-3" x1="49.13" y1="27.87" x2="50.64" y2="27.98"/><line class="cls-3" x1="43.63" y1="27.44" x2="45.24" y2="27.55"/><polyline class="cls-3" points="59.04 36.82 59.03 38.79 36.83 37.03 36.74 31.26 39.72 27.43"/><line class="cls-3" x1="59.03" y1="38.79" x2="60.04" y2="36.97"/><line class="cls-3" x1="36.74" y1="31.26" x2="53.43" y2="32.59"/><path class="cls-3" d="M66.91,36.77s-3.29,3.13-4.17,3.76A7.3,7.3,0,0,0,60.49,43,14.7,14.7,0,0,1,59,45.59c-.35.4-2.88,6.35-1.78,7.27s3.44,2.66,5.9,2.42,4-2.22,6.9-5.54,3.81-4.5,4.65-5.12,4.56-4.53,6.21-5.9A47.37,47.37,0,0,1,87.49,34"/><path class="cls-3" d="M59.88,54.61s-3.51-1.71-2.59-4.44"/><path class="cls-3" d="M82,37.83a23.84,23.84,0,0,1-2.42,3.07c-1,.89-1.85,2.07-3.3,3.28s-4.47,4.64-4.74,5.62-2.09,4.44-.09,6.34,4.35,2.34,5.76,1.51a27.85,27.85,0,0,0,5.06-5,17.58,17.58,0,0,1,2.43-2.81,26.62,26.62,0,0,0,3.7-3.5,13.39,13.39,0,0,1,3.43-3.24,50.94,50.94,0,0,0,6.62-3.68"/><path d="M90,44.48a16.57,16.57,0,0,0-1-3.9,8.57,8.57,0,0,0-1-1.77,10.1,10.1,0,0,0-.62-.84,1.61,1.61,0,0,0-.79-.59,1.61,1.61,0,0,1,.81.57,8.27,8.27,0,0,1,.65.79,8.77,8.77,0,0,1,1,1.76,16.2,16.2,0,0,1,1.15,3.92.12.12,0,0,1-.1.14h0a.12.12,0,0,1-.14-.1h0Z"/><path d="M86.37,38.87a6.33,6.33,0,0,1,1.43,1.4,4.41,4.41,0,0,1,.85,1.82A18.05,18.05,0,0,0,86.37,38.87Z"/><path d="M79.11,43.42a5.61,5.61,0,0,1,2,1.07,6.45,6.45,0,0,1,1.38,1.78,9.4,9.4,0,0,1,1.61,4.26.14.14,0,0,1-.12.14.12.12,0,0,1-.13-.11h0a9.1,9.1,0,0,0-1.47-4.21A6.83,6.83,0,0,0,81,44.54,5.41,5.41,0,0,0,79.11,43.42Z"/><path d="M68,37.88a11.09,11.09,0,0,1,2,1.34,10.32,10.32,0,0,1,1.41,2c.41.69,1,1.26,1.45,1.92a10.77,10.77,0,0,1,1.29,2.06.12.12,0,0,1-.06.16h0A.13.13,0,0,1,74,45.3h0a10.49,10.49,0,0,0-1.22-2,22.89,22.89,0,0,1-1.4-2,10,10,0,0,0-1.35-2A11.31,11.31,0,0,0,68,37.88Z"/><path d="M79.74,33.74a7.45,7.45,0,0,0,.65,1,10.77,10.77,0,0,0,.77.88,9.48,9.48,0,0,1,1.16,2.06.13.13,0,1,1-.2.16.07.07,0,0,1,0-.06h0a9,9,0,0,0-1-2.07,9.21,9.21,0,0,1-.73-.92A6.16,6.16,0,0,1,79.74,33.74Z"/><path class="cls-3" d="M100.62,40.09A30.84,30.84,0,0,1,97,42.85c-1.46.87-4.32,2.06-5.26,3.38a5.89,5.89,0,0,1-2.87,2.34c-1.08.43-4.48,1.82-5.2,4s-.32,4.31,1.3,5.08a8.64,8.64,0,0,0,6.64-.24c1.82-1,2.86-2.12,3.55-2.38a19.89,19.89,0,0,0,4.47-2.63,10.4,10.4,0,0,1,3.06-2.29c1.24-.54,3.86-1.43,3.89-2.33a5.59,5.59,0,0,0,2.44-.12,7.81,7.81,0,0,0,1-.55s0,.27.94.69.63.85,2.11,1.28,3.46,1.13,5,1.63a10.17,10.17,0,0,0,5.68.8c2.77-.41,2.91.09,4.57-.42a14.39,14.39,0,0,1,4.61-.63,9.33,9.33,0,0,0,4.15-.6c1-.54.74-.76,1.6-.31s2.69.61,4.26,1.45,10.3,6.59,17.27,11S178,72.31,180.84,74s9.36,5.89,18.44,11.85,28.29,18,28.29,18"/><path d="M138.26,49.59a.51.51,0,0,1-.21-.1l-.06-.05-.11-.11-.2-.22c-.13-.15-.26-.3-.38-.46a11,11,0,0,1-.68-1,14.17,14.17,0,0,1-1.13-2,12.14,12.14,0,0,1-.75-2.2,12.57,12.57,0,0,1-.35-2.28,13.23,13.23,0,0,0,.47,2.25,12.33,12.33,0,0,0,.86,2.13,13.27,13.27,0,0,0,1.19,1.94,10.26,10.26,0,0,0,.71.89l.38.42c.06.07.13.12.2.19l.1.09h0a.06.06,0,0,0-.08,0,.24.24,0,0,1,.24.24v0A.24.24,0,0,1,138.26,49.59Z"/><path d="M115.17,41.52a9.75,9.75,0,0,0,3.16,4,23.7,23.7,0,0,0,2.26,1.26,20.74,20.74,0,0,1,2.23,1.32,23.79,23.79,0,0,0-2.26-1.27,21.89,21.89,0,0,1-2.3-1.21,8.92,8.92,0,0,1-1.92-1.76,10.19,10.19,0,0,1-1.4-2.21.13.13,0,0,1,.06-.17.14.14,0,0,1,.17.07h0Z"/><path d="M110,47.2a12.61,12.61,0,0,1-1.09-2.85,8.41,8.41,0,0,1-.21-3,10.06,10.06,0,0,0,1.52,5.73h0a.12.12,0,0,1,0,.17h0a.13.13,0,0,1-.17,0Z"/><path d="M106.49,47.89a61.27,61.27,0,0,1-6-7.71,60.53,60.53,0,0,0,6.19,7.54.13.13,0,1,1-.14.22.08.08,0,0,1,0,0Z"/><path d="M95.07,55.06a10.91,10.91,0,0,0-1.3-4.24,7.17,7.17,0,0,0-1.42-1.73,5.91,5.91,0,0,0-2-1.09,6.26,6.26,0,0,1,2,1,7.32,7.32,0,0,1,1.48,1.71A11.31,11.31,0,0,1,95.28,55a.12.12,0,0,1-.11.14A.12.12,0,0,1,95,55h0Z"/><path d="M95.12,44.81a3.54,3.54,0,0,1,2,1c.5.58.9,1.22,1.35,1.82s.85,1.23,1.33,1.84a5.4,5.4,0,0,1,.77,2.15.12.12,0,0,1-.08.15h0a.13.13,0,0,1-.15-.1h0a5.41,5.41,0,0,0-.68-2.1c-.44-.59-.86-1.25-1.28-1.87s-.82-1.28-1.29-1.85A3.61,3.61,0,0,0,95.12,44.81Z"/><path d="M99.12,46.53a7,7,0,0,1,1.18,2.29,15.83,15.83,0,0,1,.62,2.53.12.12,0,0,1-.24,0h0a16.9,16.9,0,0,0-.5-2.53A6.93,6.93,0,0,0,99.12,46.53Z"/><path d="M85.84,33.6a10.9,10.9,0,0,1,1.31-2.17,14.7,14.7,0,0,1,1.67-1.86A33.52,33.52,0,0,0,92.27,26a35.39,35.39,0,0,1-3.37,3.66,14.24,14.24,0,0,0-1.6,1.87,11.6,11.6,0,0,0-1.22,2.1h0a.1.1,0,0,1-.13.08h0a.11.11,0,0,1-.07-.14v0Z"/><path d="M87.32,33.81a10.25,10.25,0,0,0,2.09-1.56c.6-.66,1.3-1.21,2-1.8a14.24,14.24,0,0,0,3.34-4.07,14.15,14.15,0,0,1-3.21,4.16c-.64.62-1.33,1.17-1.91,1.83A9.55,9.55,0,0,1,87.49,34a.14.14,0,0,1-.18-.05.14.14,0,0,1,0-.17h0Z"/><ellipse class="cls-4" cx="45.82" cy="29.66" rx="0.61" ry="1.95" transform="matrix(0.04, -1, 1, 0.04, 14.45, 74.33)"/><path class="cls-3" d="M47.78,29.74v.91c0,.34-.9.58-2,.54s-1.94-.35-1.92-.69v-.91"/><ellipse class="cls-4" cx="51.24" cy="30.04" rx="0.61" ry="1.95" transform="translate(19.28 80.1) rotate(-87.83)"/><path class="cls-3" d="M53.19,30.12V31c0,.34-.89.58-2,.54s-1.94-.35-1.92-.68V30"/><ellipse class="cls-4" cx="40.32" cy="29.3" rx="0.61" ry="1.95" transform="translate(9.51 68.49) rotate(-87.83)"/><path class="cls-3" d="M42.27,29.38v.91c0,.33-.9.57-2,.53s-1.94-.34-1.93-.68v-.91"/><ellipse class="cls-4" cx="47.19" cy="27.62" rx="0.61" ry="1.95" transform="translate(17.8 73.72) rotate(-87.83)"/><path class="cls-3" d="M49.14,27.69v.92c0,.33-.89.57-2,.53s-1.94-.35-1.92-.68v-.91"/><ellipse class="cls-4" cx="52.59" cy="27.99" rx="0.61" ry="1.95" transform="translate(22.62 79.49) rotate(-87.83)"/><path class="cls-3" d="M54.55,28.08l-.06.89c0,.33-.89.57-2,.53s-1.94-.34-1.93-.68v-.91"/><ellipse class="cls-4" cx="41.69" cy="27.26" rx="0.61" ry="1.95" transform="translate(12.87 67.88) rotate(-87.83)"/><path class="cls-3" d="M43.63,27.33v.91c0,.34-.9.58-2,.54s-1.93-.35-1.92-.68v-.92"/><path class="cls-3" d="M70.82,52c0,.09-2,3-.65,4.19s1.47,1.25,4,1.6"/><path class="cls-3" d="M83.64,52.77s-1.38,2.89-.43,4,1.07,1.19,3.5,1.39"/><path class="cls-3" d="M47.6,27s.44-1.41,4.56-3.9,7.09-3.8,9.65-5.71,3.31-2.92,5.45-4.06a65.09,65.09,0,0,1,6.23-3c4.13-1.87,11.57-4.5,13-5.49s3.3-2.26,4.89-2.37a15.33,15.33,0,0,0,5.11-1.25,7.83,7.83,0,0,1,6.25-.47c2.33,1,2.58,1.11,7.21,1.8s8.21,1.6,12.25,1.89S129,4.71,136.71,8s11.51,6.38,16,8.23,20.17,8.12,31.42,12,31.16,11.85,52,20.62"/><path d="M85.92,16.76l-.82-1.6a8,8,0,0,1-.61-1.72,8.31,8.31,0,0,1,0-3.58,8.34,8.34,0,0,0,.13,3.55,8.14,8.14,0,0,0,.61,1.67l.88,1.57a.12.12,0,0,1,0,.16h0a.12.12,0,0,1-.17,0h0Z"/><path d="M84,13.09a24.58,24.58,0,0,1,1.53,2.42.14.14,0,0,1,0,.17.11.11,0,0,1-.16,0h0A23,23,0,0,0,84,13.09Z"/><path d="M92.4,6A18,18,0,0,0,91,10.31a16.79,16.79,0,0,0-.36,4.47.11.11,0,0,1-.11.13h0a.11.11,0,0,1-.13-.09v0h0a17.14,17.14,0,0,1,.49-4.51A18,18,0,0,1,92.4,6Z"/><path d="M92.85,13.32a4.56,4.56,0,0,0,.72-1.2c.21-.44.38-.89.55-1.36s.32-.92.51-1.38a4,4,0,0,1,.73-1.27,4,4,0,0,0-.67,1.3c-.17.46-.31.92-.46,1.39a13.64,13.64,0,0,1-.49,1.4A4.16,4.16,0,0,1,93,13.53a.12.12,0,0,1-.17,0,.13.13,0,0,1,0-.18h0Z"/><path d="M71.65,14.69A15,15,0,0,0,75,20.5a.13.13,0,0,1,0,.18.12.12,0,0,1-.17,0h0A15.26,15.26,0,0,1,71.65,14.69Z"/><path d="M70.68,16.73A11.57,11.57,0,0,0,72.86,21a.13.13,0,0,1,0,.18.13.13,0,0,1-.18,0l0,0h0A11.69,11.69,0,0,1,70.68,16.73Z"/><path d="M70.57,19.31A3.86,3.86,0,0,1,72.49,21a.14.14,0,0,1,0,.17.13.13,0,0,1-.18,0h0A3.75,3.75,0,0,0,70.57,19.31Z"/><path d="M59.31,20.37a22.29,22.29,0,0,0,1.7,4.1.12.12,0,0,1-.07.17.12.12,0,0,1-.16-.05h0A22.44,22.44,0,0,1,59.31,20.37Z"/></g></g></g></svg>