<?xml version="1.0" encoding="utf-8"?>
<!-- Generator: Adobe Illustrator 25.0.1, SVG Export Plug-In . SVG Version: 6.00 Build 0)  -->
<svg version="1.1" id="Layer_1" xmlns="http://www.w3.org/2000/svg" xmlns:xlink="http://www.w3.org/1999/xlink" x="0px" y="0px"
	 viewBox="0 0 289.4 146.1" style="enable-background:new 0 0 289.4 146.1;" xml:space="preserve">
<style type="text/css">
	.st0{fill:none;stroke:#000000;stroke-width:0.4;stroke-linecap:round;stroke-linejoin:round;stroke-miterlimit:10;}
	.st1{fill:none;stroke:#000000;stroke-width:0.25;stroke-linecap:round;stroke-linejoin:round;}
	.st2{fill:none;stroke:#000000;stroke-width:0.5;stroke-linecap:round;stroke-linejoin:round;}
</style>
<image style="display:none;overflow:visible;opacity:0.57;" width="2694" height="2020" xlink:href="../../../../../../Desktop/20201222_220034.jpg"  transform="matrix(4.638825e-02 0 0 4.638825e-02 6.9915 49.5322)">
</image>
<g id="Layer_2">
	<g>
		<polyline class="st0" points="80.3,60.4 82,60.4 78.5,61.7 56.6,61.4 58.5,60.7 		"/>
		<g>
			<ellipse class="st0" cx="71" cy="59.9" rx="1.6" ry="0.3"/>
			<path class="st0" d="M72.7,59.9v1.3c0,0.2-0.7,0.3-1.6,0.3s-1.6-0.1-1.6-0.3v-1.3"/>
		</g>
		<g>
			<ellipse class="st0" cx="76.6" cy="59.9" rx="1.6" ry="0.3"/>
			<path class="st0" d="M78.2,59.9v1.3c0,0.2-0.7,0.3-1.6,0.3c-0.9,0-1.6-0.1-1.6-0.3v-1.3"/>
		</g>
		<g>
			<ellipse class="st0" cx="82.3" cy="67.1" rx="1.6" ry="0.3"/>
			<path class="st0" d="M83.9,67.1v1.3c0,0.2-0.7,0.3-1.6,0.3s-1.6-0.1-1.6-0.3v-1.3"/>
		</g>
		<g>
			<ellipse class="st0" cx="84.2" cy="66.3" rx="1.6" ry="0.3"/>
			<line class="st0" x1="82.5" y1="66.8" x2="82.5" y2="66.3"/>
			<path class="st0" d="M85.8,66.3v1.3c0,0.2-0.7,0.3-1.6,0.3c-0.1,0-0.2,0-0.2,0"/>
		</g>
		<g>
			<ellipse class="st0" cx="65.6" cy="59.9" rx="1.6" ry="0.3"/>
			<path class="st0" d="M67.2,59.9v1.3c0,0.2-0.7,0.3-1.6,0.3s-1.6-0.1-1.6-0.3v-1.3"/>
		</g>
		<g>
			<ellipse class="st0" cx="60.2" cy="59.9" rx="1.6" ry="0.3"/>
			<path class="st0" d="M61.8,59.9v1.2c0,0.1-0.7,0.3-1.6,0.3c-0.9,0-1.6-0.1-1.6-0.3v-1.2"/>
		</g>
		<g>
			<ellipse class="st0" cx="55" cy="66.7" rx="1.6" ry="0.3"/>
			<path class="st0" d="M56.6,66.7v1.2c0,0.1-0.7,0.3-1.6,0.3c-0.9,0-1.6-0.1-1.6-0.3v-1.2"/>
		</g>
		<g>
			<path class="st0" d="M51.7,73.3c-0.2-0.1-0.8-0.2-1.6-0.2c-0.9,0-1.6,0.1-1.6,0.3c0,0.2,0.7,0.3,1.6,0.3c0.8,0,1.4-0.1,1.6-0.2"
				/>
			<path class="st0" d="M51.7,74.6c-0.1,0.1-0.8,0.2-1.6,0.2c-0.9,0-1.6-0.1-1.6-0.2v-1.1"/>
		</g>
		<g>
			<path class="st0" d="M51.6,72.3c-0.6,0-1,0.1-1,0.3c0,0.1,0.4,0.2,1.1,0.3"/>
			<line class="st0" x1="50.6" y1="73.1" x2="50.6" y2="72.5"/>
		</g>
		<g>
			<path class="st0" d="M56.8,65.7c-0.7,0-1.2,0.1-1.2,0.3c0,0.1,0.5,0.2,1.3,0.3"/>
			<line class="st0" x1="55.5" y1="66.4" x2="55.5" y2="66"/>
			<path class="st0" d="M56.8,67.5c-0.1,0-0.2,0-0.2,0"/>
		</g>
		<g>
			<ellipse class="st0" cx="73.1" cy="59.3" rx="1.6" ry="0.3"/>
			<line class="st0" x1="71.5" y1="59.6" x2="71.5" y2="59.3"/>
			<path class="st0" d="M74.8,59.3v1.3c0,0.2-0.7,0.3-1.6,0.3c-0.2,0-0.3,0-0.4,0"/>
		</g>
		<g>
			<ellipse class="st0" cx="78.7" cy="59.3" rx="1.6" ry="0.3"/>
			<line class="st0" x1="77" y1="59.6" x2="77" y2="59.3"/>
			<path class="st0" d="M80.3,59.3v1.3c0,0.2-0.7,0.3-1.6,0.3c-0.2,0-0.3,0-0.4,0"/>
		</g>
		<g>
			<ellipse class="st0" cx="67.7" cy="59.3" rx="1.6" ry="0.3"/>
			<line class="st0" x1="66" y1="59.6" x2="66" y2="59.3"/>
			<path class="st0" d="M69.3,59.3v1.3c0,0.2-0.7,0.3-1.6,0.3c-0.2,0-0.3,0-0.4,0"/>
		</g>
		<g>
			<ellipse class="st0" cx="62.3" cy="59.3" rx="1.6" ry="0.3"/>
			<line class="st0" x1="60.6" y1="59.6" x2="60.6" y2="59.3"/>
			<path class="st0" d="M63.9,59.3v1.3c0,0.2-0.7,0.3-1.6,0.3c-0.2,0-0.3,0-0.4,0"/>
		</g>
		<line class="st0" x1="82" y1="60.4" x2="82" y2="66.8"/>
		<polyline class="st0" points="85.8,67.3 87.6,67.3 84.3,68.8 78.5,68.6 78.5,61.7 		"/>
		<line class="st0" x1="78.5" y1="68.6" x2="80.6" y2="67.7"/>
		<line class="st0" x1="84.3" y1="68.8" x2="84.3" y2="75.8"/>
		<polyline class="st0" points="78.5,68.6 56.9,68.2 56.6,61.4 		"/>
		<polyline class="st0" points="87.6,67.3 87.7,74 84.3,75.8 73.3,75.5 73.2,68.5 		"/>
		<g>
			<ellipse class="st0" cx="61.4" cy="99.9" rx="1.6" ry="0.3"/>
			<path class="st0" d="M63,99.9v1.3c0,0.2-0.7,0.3-1.6,0.3c-0.9,0-1.6-0.1-1.6-0.3v-1.3"/>
		</g>
		<g>
			<ellipse class="st0" cx="63.3" cy="98.9" rx="1.6" ry="0.3"/>
			<line class="st0" x1="61.6" y1="99.6" x2="61.6" y2="98.9"/>
			<path class="st0" d="M64.9,98.9v1.3c0,0.2-0.7,0.3-1.6,0.3c-0.1,0-0.2,0-0.2,0"/>
		</g>
		<line class="st0" x1="63.4" y1="101.7" x2="63.5" y2="108.4"/>
		<polyline class="st0" points="66.7,99.7 66.8,106.1 63.5,108.4 52.9,108.1 52.6,101.3 		"/>
		<polyline class="st0" points="56.9,68.2 51.5,68.1 51.7,74.8 		"/>
		<line class="st0" x1="62.6" y1="75.2" x2="62.3" y2="68.3"/>
		<line class="st0" x1="51.5" y1="68.1" x2="53.3" y2="67.6"/>
		<polyline class="st0" points="48.4,74.1 46.6,74.6 62.6,75.2 66.2,73.5 66.1,68.3 		"/>
		<polyline class="st0" points="46.6,74.6 47.5,101.1 63.4,101.7 66.7,99.7 64.9,99.7 		"/>
		<line class="st0" x1="61" y1="75.2" x2="61.7" y2="98.9"/>
		<line class="st0" x1="57.7" y1="101.5" x2="56.8" y2="75"/>
		<line class="st0" x1="57.7" y1="101.5" x2="59.7" y2="100.5"/>
		<polyline class="st0" points="47.3,94.6 57.5,94.9 61.5,92.8 		"/>
		<polyline class="st0" points="47.3,88 57.5,88.3 61.3,86.3 		"/>
		<polyline class="st0" points="46.9,81.1 57.1,81.4 61.2,79.3 		"/>
	</g>
	<g>
		<g>
			<ellipse class="st0" cx="82.6" cy="100.9" rx="1.6" ry="0.3"/>
			<path class="st0" d="M84.2,100.9v1.3c0,0.2-0.7,0.3-1.6,0.3c-0.9,0-1.6-0.1-1.6-0.3v-1.3"/>
		</g>
		<g>
			<ellipse class="st0" cx="84.4" cy="99.8" rx="1.6" ry="0.3"/>
			<line class="st0" x1="82.8" y1="100.7" x2="82.8" y2="99.8"/>
			<path class="st0" d="M86.1,99.8v1.3c0,0.2-0.7,0.3-1.6,0.3c-0.1,0-0.2,0-0.2,0"/>
		</g>
		<g>
			<ellipse class="st0" cx="77.3" cy="100.9" rx="1.6" ry="0.3"/>
			<path class="st0" d="M78.9,100.9v1.3c0,0.2-0.7,0.3-1.6,0.3s-1.6-0.1-1.6-0.3v-1.3"/>
		</g>
		<g>
			<ellipse class="st0" cx="79.1" cy="99.6" rx="1.6" ry="0.3"/>
			<line class="st0" x1="77.5" y1="100.6" x2="77.5" y2="99.6"/>
			<path class="st0" d="M80.8,99.6v1.3c0,0.2-0.7,0.3-1.6,0.3c-0.1,0-0.2,0-0.2,0"/>
		</g>
		<line class="st0" x1="84.6" y1="103" x2="84.6" y2="109.5"/>
		<polyline class="st0" points="87.9,100.7 88,106.9 84.6,109.5 74.1,109.1 73.8,102.6 		"/>
		<line class="st0" x1="82.8" y1="100.5" x2="80.8" y2="100.4"/>
		<polyline class="st0" points="73.8,102.6 84.6,103 87.9,100.7 86.1,100.6 		"/>
		<line class="st0" x1="76.8" y1="100.6" x2="77.5" y2="100.2"/>
		<line class="st0" x1="73.8" y1="102.6" x2="75.6" y2="101.4"/>
	</g>
	<g>
		<g>
			
				<ellipse transform="matrix(0.1571 -0.9876 0.9876 0.1571 -77.265 139.232)" class="st0" cx="42.9" cy="114.9" rx="1.9" ry="1.6"/>
			<path class="st0" d="M42.6,116.7l-0.9-0.1c-0.9-0.1-1.4-1.1-1.3-2.1c0.2-1,1-1.8,1.9-1.6l0.9,0.1"/>
		</g>
		<g>
			
				<ellipse transform="matrix(0.1571 -0.9876 0.9876 0.1571 -71.8752 142.9789)" class="st0" cx="47.8" cy="113.6" rx="1.9" ry="1.6"/>
			<path class="st0" d="M47.5,115.5l-0.9-0.1c-0.9-0.1-1.4-1.1-1.3-2.1c0.2-1,1-1.8,1.9-1.6l0.9,0.1"/>
		</g>
		<g>
			
				<ellipse transform="matrix(0.1571 -0.9876 0.9876 0.1571 -66.4854 146.7257)" class="st0" cx="52.7" cy="112.3" rx="1.9" ry="1.6"/>
			<path class="st0" d="M52.4,114.2l-0.9-0.1c-0.9-0.1-1.4-1.1-1.3-2.1c0.2-1,1-1.8,1.9-1.6l0.9,0.1"/>
		</g>
		<g>
			
				<ellipse transform="matrix(0.1571 -0.9876 0.9876 0.1571 -82.8846 144.3613)" class="st0" cx="43.1" cy="120.7" rx="1.9" ry="1.6"/>
			<path class="st0" d="M42.8,122.6l-0.9-0.1c-0.9-0.1-1.4-1.1-1.3-2.1c0.2-1,1-1.8,1.9-1.6l0.9,0.1"/>
		</g>
		<g>
			
				<ellipse transform="matrix(0.1571 -0.9876 0.9876 0.1571 -77.4948 148.1081)" class="st0" cx="48" cy="119.5" rx="1.9" ry="1.6"/>
			<path class="st0" d="M47.7,121.3l-0.9-0.1c-0.9-0.1-1.4-1.1-1.3-2.1c0.2-1,1-1.8,1.9-1.6l0.9,0.1"/>
		</g>
		<g>
			
				<ellipse transform="matrix(0.1571 -0.9876 0.9876 0.1571 -72.105 151.855)" class="st0" cx="52.9" cy="118.2" rx="1.9" ry="1.6"/>
			<path class="st0" d="M52.6,120l-0.9-0.1c-0.9-0.1-1.4-1.1-1.3-2.1c0.2-1,1-1.8,1.9-1.6l0.9,0.1"/>
		</g>
		<polyline class="st0" points="54.3,119 54.3,120.2 39.9,123.7 39.4,112.3 54.1,108.9 54.1,111.4 		"/>
		<line class="st0" x1="54.2" y1="113" x2="54.2" y2="117.1"/>
		<polyline class="st0" points="54.1,108.9 49.6,107.6 35.4,110.8 39.4,112.3 		"/>
		<polyline class="st0" points="35.4,110.8 35.9,121.8 39.9,123.7 		"/>
	</g>
	<g>
		<g>
			<ellipse class="st0" cx="71.9" cy="116.8" rx="1.8" ry="0.5"/>
			<path class="st0" d="M73.7,116.8v1.3c0,0.3-0.8,0.5-1.8,0.5s-1.8-0.2-1.8-0.5v-1.3"/>
		</g>
		<g>
			<ellipse class="st0" cx="67.5" cy="118.2" rx="1.8" ry="0.5"/>
			<path class="st0" d="M69.3,118.2v1.3c0,0.3-0.8,0.5-1.8,0.5s-1.8-0.2-1.8-0.5v-1.3"/>
		</g>
		<g>
			<ellipse class="st0" cx="72.4" cy="119.3" rx="1.8" ry="0.5"/>
			<path class="st0" d="M74.1,119.3v1.3c0,0.3-0.8,0.5-1.8,0.5s-1.8-0.2-1.8-0.5v-1.3"/>
		</g>
		<g>
			<ellipse class="st0" cx="76.5" cy="117.9" rx="1.8" ry="0.5"/>
			<path class="st0" d="M78.3,117.9v1.3c0,0.3-0.8,0.5-1.8,0.5s-1.8-0.2-1.8-0.5v-1.3"/>
		</g>
		<polyline class="st0" points="78.3,118.3 81,118.8 72.5,121.8 63.5,119.7 65.7,119 		"/>
		<line class="st0" x1="73.7" y1="117.5" x2="74.9" y2="117.7"/>
		<line class="st0" x1="69" y1="118" x2="70.1" y2="117.6"/>
		<polyline class="st0" points="63.5,119.7 63.6,127.1 72.7,129.3 72.5,121.8 		"/>
		<polyline class="st0" points="72.7,129.3 81.2,126.3 81,118.8 		"/>
	</g>
</g>
<g id="Layer_1-2">
	<path d="M160,50.4c-1.2,0.9-2.7,1.5-4.2,1.7c-1.5,0.2-3,0.3-4.6,0.2l-4.6-0.2c-0.8,0-1.5-0.1-2.3,0c-0.8,0-1.5,0-2.3,0
		c-3.1-0.3-6.1-1-8.9-2c-1.4-0.6-2.8-1.3-4.1-2.1c-0.7-0.4-1.3-0.8-1.9-1.2c-0.3-0.2-0.6-0.4-1-0.7s-0.7-0.5-0.8-1l0,0l0.3,0.2
		c-1,0-2-0.1-2.9-0.4c-1-0.2-1.9-0.5-2.8-0.6c-1.9-0.4-3.8-0.4-5.7-0.2c-1.8,0.3-3.5,1.4-5.2,2.2c-1.7,1-3.7,1.5-5.6,1.3
		c-3.8-0.3-7.7,0.7-11.5-0.6c-1.9-0.7-3.3-2.3-3.7-4.3c-0.1-1,0.2-2,0.7-2.9c0.5-0.8,1.2-1.6,2-2.2c1.6-1.1,3.3-2.1,5.1-2.8
		c1.7-0.9,3.5-1.7,5.3-2.4c1.9-0.5,3.8-0.8,5.7-1c1.9-0.3,3.8-0.7,5.6-1.3c1.8-0.6,3.6-1.3,5.4-2c1.8-0.7,3.6-1.4,5.3-2.1
		c1.8-0.7,3.4-1.6,5-2.7c0.7-0.6,1.3-1.3,1.9-2.1c0.5-0.8,1.2-1.5,2-2.1c-0.7,0.7-1.2,1.5-1.7,2.3c-0.5,0.8-1.2,1.6-1.9,2.3
		c-1.6,1.1-3.3,2-5.1,2.7c-1.8,0.8-3.6,1.5-5.4,2.1c-1.8,0.7-3.6,1.4-5.4,2c-1.8,0.6-3.7,1-5.6,1.3c-1.9,0.2-3.8,0.5-5.6,1
		c-1.8,0.7-3.5,1.4-5.2,2.3c-1.8,0.7-3.4,1.6-5,2.7c-0.7,0.6-1.4,1.3-1.9,2.1c-0.5,0.8-0.7,1.7-0.7,2.6c0.1,0.9,0.5,1.8,1.1,2.5
		c0.6,0.7,1.4,1.2,2.3,1.5c1.8,0.5,3.7,0.8,5.6,0.6c1.9,0,3.8-0.3,5.8-0.1c1.9,0.1,3.8-0.3,5.4-1.3c1.7-0.8,3.3-1.9,5.3-2.3
		c1.9-0.3,3.9-0.2,5.8,0.1c1,0.2,1.9,0.4,2.8,0.6c0.9,0.2,1.8,0.3,2.8,0.4c0.1,0,0.3,0.1,0.3,0.2l0,0c0,0.2,0.3,0.5,0.6,0.7
		c0.3,0.2,0.6,0.4,0.9,0.7c0.6,0.4,1.3,0.8,1.9,1.2c1.3,0.8,2.6,1.5,4,2.1c2.8,1.1,5.8,1.8,8.8,2.1c0.8,0,1.5,0,2.3,0
		c0.8,0,1.5,0,2.3,0.1l4.6,0.2c1.5,0.2,3,0.2,4.5,0c0.7-0.1,1.5-0.3,2.2-0.5C158.7,51.1,159.4,50.8,160,50.4z"/>
	<path d="M125.6,44.7c1-0.5,1.9-1.1,2.8-1.8c0.8-0.7,1.6-1.5,2.3-2.4c1.6-1.7,3.2-3.2,5-4.6c-1.7,1.5-3.3,3.1-4.8,4.8
		c-0.7,0.9-1.5,1.7-2.3,2.5c-0.9,0.7-1.8,1.4-2.8,2c-0.1,0.1-0.3,0-0.3-0.1C125.4,44.9,125.5,44.8,125.6,44.7L125.6,44.7L125.6,44.7
		z"/>
	<path class="st1" d="M96.9,44.3c0,0-4.1,1.6-5.8,0.8c-1.8-0.7-2.6-2.7-1.9-4.5c0,0,0,0,0,0c1.1-2.5,4.4-4.2,7-5.1
		C95.7,37.9,94.8,40.2,96.9,44.3z"/>
	<path d="M102,42.6c-0.5-0.4-0.9-0.8-1.2-1.4c-0.3-0.6-0.4-1.2-0.4-1.8c0-0.6,0.1-1.2,0.2-1.8c0.1-0.6,0.3-1.2,0.4-1.8
		c-0.1,1.2-0.3,2.4-0.3,3.6c0,0.6,0.1,1.2,0.3,1.7C101.2,41.7,101.5,42.2,102,42.6z"/>
	<path d="M103.8,42.2c-0.3-0.1-0.5-0.3-0.7-0.5c-0.2-0.2-0.4-0.5-0.5-0.8c-0.1-0.6-0.2-1.2-0.2-1.8c0-0.6,0-1.2,0.1-1.8
		c0.1-0.6,0.2-1.2,0.4-1.7c-0.2,1.2-0.3,2.3-0.3,3.5c0,0.6,0,1.2,0.1,1.7C103,41.3,103.4,41.8,103.8,42.2z"/>
	<path d="M104.9,39.8c-0.3-0.2-0.4-0.6-0.5-0.9c-0.1-0.3-0.1-0.7,0-1c0-0.3,0.1-0.7,0.2-1l0.2-0.5c0.1-0.1,0.1-0.3,0.1-0.5
		c0.1,0.3,0.1,0.7,0,1c-0.1,0.3-0.1,0.7-0.2,1c0,0.3,0,0.7,0,1C104.7,39.2,104.8,39.5,104.9,39.8z"/>
	<line class="st2" x1="89.7" y1="38.8" x2="90" y2="38.8"/>
	<line class="st2" x1="84.3" y1="38.3" x2="85.8" y2="38.5"/>
	<line class="st2" x1="78.8" y1="37.9" x2="80.4" y2="38"/>
	<polyline class="st2" points="94.2,47.3 94.2,49.3 72,47.5 71.9,41.7 74.9,37.9 	"/>
	<line class="st2" x1="94.2" y1="49.3" x2="95.2" y2="47.4"/>
	<line class="st2" x1="71.9" y1="41.7" x2="88.6" y2="43.1"/>
	<path class="st2" d="M102.1,47.2c0,0-3.3,3.1-4.2,3.8c-0.9,0.6-1.7,1.5-2.2,2.4c-0.4,0.9-0.9,1.8-1.5,2.6c-0.3,0.4-2.9,6.3-1.8,7.3
		s3.4,2.7,5.9,2.4c2.5-0.2,4-2.2,6.9-5.5s3.8-4.5,4.7-5.1c0.8-0.6,4.6-4.5,6.2-5.9c2.1-1.8,4.3-3.4,6.6-4.7"/>
	<path class="st2" d="M95.1,65.1c0,0-3.5-1.7-2.6-4.4"/>
	<path class="st2" d="M117.2,48.3c-0.7,1.1-1.5,2.1-2.4,3.1c-1,0.9-1.8,2.1-3.3,3.3c-1.4,1.2-4.5,4.6-4.7,5.6
		c-0.3,1-2.1,4.4-0.1,6.3c2,1.9,4.3,2.3,5.8,1.5c1.9-1.4,3.6-3.1,5.1-5c0.7-1,1.5-2,2.4-2.8c1.3-1,2.6-2.2,3.7-3.5
		c0.9-1.3,2.1-2.4,3.4-3.2c2.3-1.1,4.5-2.3,6.6-3.7"/>
	<path d="M125.2,55c-0.2-1.3-0.5-2.6-1-3.9c-0.3-0.6-0.6-1.2-1-1.8c-0.2-0.3-0.4-0.6-0.6-0.8c-0.2-0.3-0.5-0.5-0.8-0.6
		c0.3,0.1,0.6,0.3,0.8,0.6c0.2,0.2,0.5,0.5,0.7,0.8c0.4,0.5,0.7,1.1,1,1.8c0.5,1.3,0.9,2.6,1.2,3.9c0,0.1,0,0.1-0.1,0.1c0,0,0,0,0,0
		C125.2,55.1,125.2,55,125.2,55C125.2,54.9,125.2,54.9,125.2,55L125.2,55L125.2,55z"/>
	<path d="M121.6,49.3c0.6,0.4,1,0.9,1.4,1.4c0.4,0.5,0.7,1.2,0.8,1.8C123.2,51.4,122.4,50.3,121.6,49.3z"/>
	<path d="M114.3,53.9c0.7,0.2,1.4,0.6,2,1.1c0.6,0.5,1,1.1,1.4,1.8c0.9,1.3,1.4,2.7,1.6,4.3c0,0.1-0.1,0.1-0.1,0.1
		c-0.1,0-0.1,0-0.1-0.1c0,0,0,0,0,0l0,0c-0.1-1.5-0.6-3-1.5-4.2c-0.3-0.7-0.8-1.3-1.4-1.8C115.7,54.5,115,54.1,114.3,53.9z"/>
	<path d="M103.2,48.4c0.7,0.4,1.4,0.8,2,1.3c0.5,0.6,1,1.3,1.4,2c0.4,0.7,1,1.3,1.4,1.9c0.5,0.6,0.9,1.3,1.3,2.1
		c0,0.1,0,0.1-0.1,0.2c0,0,0,0,0,0c-0.1,0-0.1,0-0.2-0.1l0,0c-0.3-0.7-0.7-1.4-1.2-2c-0.5-0.7-1-1.3-1.4-2c-0.4-0.7-0.8-1.4-1.3-2
		C104.6,49.2,103.9,48.8,103.2,48.4z"/>
	<path d="M114.9,44.2c0.2,0.4,0.4,0.7,0.7,1c0.2,0.3,0.5,0.6,0.8,0.9c0.5,0.6,0.9,1.3,1.2,2.1c0,0.1,0,0.1,0,0.2c-0.1,0-0.1,0-0.2,0
		c0,0,0,0,0-0.1l0,0c-0.2-0.7-0.6-1.4-1-2.1c-0.3-0.3-0.5-0.6-0.7-0.9C115.3,44.9,115.1,44.6,114.9,44.2z"/>
	<path class="st2" d="M135.8,50.6c-1.1,1-2.3,1.9-3.6,2.8c-1.5,0.9-4.3,2.1-5.3,3.4c-0.7,1.1-1.7,1.9-2.9,2.3
		c-1.1,0.4-4.5,1.8-5.2,4c-0.7,2.2-0.3,4.3,1.3,5.1c2.2,0.8,4.5,0.7,6.6-0.2c1.8-1,2.9-2.1,3.6-2.4c1.6-0.7,3.1-1.6,4.5-2.6
		c0.9-0.9,1.9-1.7,3.1-2.3c1.2-0.5,3.9-1.4,3.9-2.3c0.8,0.1,1.6,0.1,2.4-0.1c0.7-0.3,1-0.5,1-0.5s0.1,0.3,0.9,0.7s0.6,0.8,2.1,1.3
		c1.5,0.4,3.5,1.1,5,1.6c1.8,0.8,3.7,1.1,5.7,0.8c2.8-0.4,2.9,0.1,4.6-0.4c1.5-0.5,3-0.7,4.6-0.6c1.4,0.1,2.8-0.1,4.1-0.6
		c1-0.5,0.7-0.8,1.6-0.3s2.7,0.6,4.3,1.5c1.6,0.8,10.3,6.6,17.3,11s17.8,10.3,20.6,12s9.4,5.9,18.4,11.8s28.3,18,28.3,18"/>
	<path d="M173.5,60.1c-0.1,0-0.1-0.1-0.2-0.1l-0.1,0l-0.1-0.1l-0.2-0.2c-0.1-0.2-0.3-0.3-0.4-0.5s-0.5-0.6-0.7-1
		c-0.4-0.6-0.8-1.3-1.1-2c-0.3-0.7-0.6-1.4-0.8-2.2c-0.2-0.7-0.3-1.5-0.4-2.3c0.1,0.8,0.2,1.5,0.5,2.2c0.2,0.7,0.5,1.4,0.9,2.1
		c0.3,0.7,0.7,1.3,1.2,1.9c0.2,0.3,0.5,0.6,0.7,0.9l0.4,0.4c0.1,0.1,0.1,0.1,0.2,0.2l0.1,0.1l0,0c0,0-0.1,0-0.1,0
		c0.1,0,0.2,0.1,0.2,0.2c0,0,0,0,0,0C173.7,59.9,173.6,60,173.5,60.1z"/>
	<path d="M150.4,52c0.7,1.6,1.8,3,3.2,4c0.7,0.5,1.5,0.9,2.3,1.3c0.8,0.4,1.5,0.8,2.2,1.3c-0.7-0.5-1.5-0.9-2.3-1.3
		c-0.8-0.4-1.6-0.8-2.3-1.2c-0.7-0.5-1.4-1.1-1.9-1.8c-0.6-0.7-1-1.4-1.4-2.2c0-0.1,0-0.1,0.1-0.2C150.3,51.9,150.3,52,150.4,52
		L150.4,52L150.4,52z"/>
	<path d="M145.2,57.7c-0.5-0.9-0.8-1.9-1.1-2.8c-0.3-1-0.3-2-0.2-3c-0.1,2,0.4,4,1.5,5.7l0,0c0,0,0,0.1,0,0.2c0,0,0,0,0,0
		C145.3,57.8,145.3,57.7,145.2,57.7L145.2,57.7z"/>
	<path d="M141.7,58.4c-2.2-2.4-4.2-5-6-7.7c1.9,2.7,3.9,5.2,6.2,7.5c0.1,0,0.1,0.1,0,0.2C141.9,58.4,141.8,58.5,141.7,58.4
		C141.7,58.4,141.7,58.4,141.7,58.4L141.7,58.4z"/>
	<path d="M130.3,65.5c-0.1-1.5-0.6-2.9-1.3-4.2c-0.4-0.6-0.9-1.2-1.4-1.7c-0.6-0.5-1.3-0.9-2-1.1c0.7,0.2,1.4,0.5,2,1
		c0.6,0.5,1.1,1.1,1.5,1.7c0.8,1.3,1.3,2.8,1.5,4.3c0,0.1,0,0.1-0.1,0.1C130.3,65.6,130.2,65.6,130.3,65.5
		C130.2,65.5,130.2,65.5,130.3,65.5L130.3,65.5L130.3,65.5z"/>
	<path d="M130.3,55.3c0.8,0.1,1.5,0.5,2,1c0.5,0.6,0.9,1.2,1.3,1.8s0.9,1.2,1.3,1.8c0.4,0.7,0.7,1.4,0.8,2.2c0,0.1,0,0.1-0.1,0.1
		c0,0,0,0,0,0c-0.1,0-0.1,0-0.2-0.1l0,0c-0.1-0.7-0.3-1.5-0.7-2.1c-0.4-0.6-0.9-1.2-1.3-1.9s-0.8-1.3-1.3-1.8
		C131.8,55.8,131.1,55.4,130.3,55.3z"/>
	<path d="M134.3,57c0.5,0.7,0.9,1.5,1.2,2.3c0.3,0.8,0.5,1.7,0.6,2.5c0,0.1-0.1,0.1-0.1,0.1c-0.1,0-0.1-0.1-0.1-0.1c0,0,0,0,0,0l0,0
		c-0.1-0.9-0.3-1.7-0.5-2.5C135.2,58.5,134.8,57.7,134.3,57z"/>
	<path d="M121,44.1c0.3-0.8,0.8-1.5,1.3-2.2c0.5-0.7,1.1-1.3,1.7-1.9c1.2-1.1,2.4-2.3,3.5-3.6c-1,1.3-2.2,2.5-3.4,3.7
		c-0.6,0.6-1.1,1.2-1.6,1.9c-0.5,0.7-0.9,1.4-1.2,2.1l0,0c0,0.1-0.1,0.1-0.1,0.1C121.1,44.2,121.1,44.2,121,44.1
		C121.1,44.1,121,44.1,121,44.1C121.1,44,121.1,44,121,44.1L121,44.1z"/>
	<path d="M122.5,44.3c0.8-0.4,1.5-1,2.1-1.6c0.6-0.7,1.3-1.2,2-1.8c1.4-1.1,2.5-2.5,3.3-4.1c-0.8,1.6-1.9,3-3.2,4.2
		c-0.6,0.6-1.3,1.2-1.9,1.8c-0.6,0.6-1.3,1.2-2.1,1.7c-0.1,0-0.1,0-0.2,0C122.5,44.4,122.5,44.3,122.5,44.3L122.5,44.3L122.5,44.3z"
		/>
	
		<ellipse transform="matrix(3.786456e-02 -0.9993 0.9993 3.786456e-02 37.8454 119.5849)" class="st2" cx="81" cy="40.1" rx="0.6" ry="2"/>
	<path class="st2" d="M83,40.2v0.9c0,0.3-0.9,0.6-2,0.5c-1.1,0-1.9-0.3-1.9-0.7v-0.9"/>
	
		<ellipse transform="matrix(3.786456e-02 -0.9993 0.9993 3.786456e-02 42.6766 125.3599)" class="st2" cx="86.4" cy="40.5" rx="0.6" ry="1.9"/>
	<path class="st2" d="M88.4,40.6v0.9c0,0.3-0.9,0.6-2,0.5c-1.1,0-1.9-0.4-1.9-0.7v-0.9"/>
	
		<ellipse transform="matrix(3.786456e-02 -0.9993 0.9993 3.786456e-02 32.9126 113.7464)" class="st2" cx="75.5" cy="39.8" rx="0.6" ry="2"/>
	<path class="st2" d="M77.5,39.9v0.9c0,0.3-0.9,0.6-2,0.5c-1.1,0-1.9-0.3-1.9-0.7v-0.9"/>
	
		<ellipse transform="matrix(3.786456e-02 -0.9993 0.9993 3.786456e-02 41.2016 118.9781)" class="st2" cx="82.4" cy="38.1" rx="0.6" ry="2"/>
	<path class="st2" d="M84.3,38.2v0.9c0,0.3-0.9,0.6-2,0.5c-1.1,0-1.9-0.4-1.9-0.7V38"/>
	
		<ellipse transform="matrix(3.786442e-02 -0.9993 0.9993 3.786442e-02 46.0235 124.7427)" class="st2" cx="87.8" cy="38.5" rx="0.6" ry="2"/>
	<path class="st2" d="M89.8,38.6l-0.1,0.9c0,0.3-0.9,0.6-2,0.5c-1.1,0-1.9-0.3-1.9-0.7v-0.9"/>
	
		<ellipse transform="matrix(3.786456e-02 -0.9993 0.9993 3.786456e-02 36.2687 113.1396)" class="st2" cx="76.9" cy="37.7" rx="0.6" ry="2"/>
	<path class="st2" d="M78.8,37.8v0.9c0,0.3-0.9,0.6-2,0.5c-1.1,0-1.9-0.3-1.9-0.7v-0.9"/>
	<path class="st2" d="M106,62.4c0,0.1-2,3-0.7,4.2c1.3,1.2,1.5,1.2,4,1.6"/>
	<path class="st2" d="M118.8,63.2c0,0-1.4,2.9-0.4,4c0.9,1.1,1.1,1.2,3.5,1.4"/>
	<path class="st2" d="M82.8,37.4c0,0,0.4-1.4,4.6-3.9c4.1-2.5,7.1-3.8,9.7-5.7c2.6-1.9,3.3-2.9,5.4-4.1c2-1.1,4.1-2.1,6.2-3
		c4.1-1.9,11.6-4.5,13-5.5s3.3-2.3,4.9-2.4c1.8-0.1,3.5-0.5,5.1-1.2c1.9-1,4.2-1.2,6.2-0.5c2.3,1,2.6,1.1,7.2,1.8
		c4.6,0.7,8.2,1.6,12.2,1.9c4,0.3,6.8,0.3,14.5,3.6c7.7,3.3,11.5,6.4,16,8.2c4.5,1.9,20.2,8.1,31.4,12s31.2,11.9,52,20.6"/>
	<path d="M121.1,27.2l-0.8-1.6c-0.3-0.5-0.5-1.1-0.6-1.7c-0.3-1.2-0.3-2.4,0-3.6c-0.2,1.2-0.2,2.4,0.1,3.5c0.1,0.6,0.3,1.1,0.6,1.7
		l0.9,1.6c0,0,0.1,0.1,0,0.2c0,0,0,0,0,0C121.3,27.3,121.2,27.3,121.1,27.2C121.1,27.3,121.1,27.3,121.1,27.2L121.1,27.2L121.1,27.2
		z"/>
	<path d="M119.2,23.6c0.6,0.8,1.1,1.6,1.5,2.4c0,0,0,0.1,0,0.2c-0.1,0-0.1,0-0.2,0c0,0,0,0,0,0l0,0
		C120.2,25.2,119.7,24.4,119.2,23.6z"/>
	<path d="M127.6,16.5c-0.7,1.4-1.1,2.8-1.4,4.3c-0.3,1.5-0.4,3-0.4,4.5c0,0.1,0,0.1-0.1,0.1c0,0,0,0,0,0c-0.1,0-0.1,0-0.1-0.1
		c0,0,0,0,0,0l0,0c0-1.5,0.1-3,0.5-4.5C126.4,19.3,126.9,17.9,127.6,16.5z"/>
	<path d="M128.1,23.8c0.3-0.4,0.5-0.8,0.7-1.2c0.2-0.4,0.4-0.9,0.6-1.4s0.3-0.9,0.5-1.4c0.2-0.5,0.4-0.9,0.7-1.3
		c-0.3,0.4-0.5,0.8-0.7,1.3c-0.2,0.5-0.3,0.9-0.5,1.4c-0.1,0.5-0.3,0.9-0.5,1.4c-0.2,0.5-0.4,0.9-0.8,1.3c0,0-0.1,0.1-0.2,0
		C128,24,128,23.9,128.1,23.8L128.1,23.8L128.1,23.8z"/>
	<path d="M106.9,25.2c0.7,2.2,1.8,4.2,3.4,5.8c0,0.1,0,0.1,0,0.2c0,0-0.1,0-0.2,0c0,0,0,0,0,0l0,0C108.5,29.4,107.5,27.4,106.9,25.2
		z"/>
	<path d="M105.9,27.2c0.4,1.5,1.2,3,2.2,4.2c0.1,0,0.1,0.1,0,0.2s-0.1,0.1-0.2,0c0,0,0,0,0,0l0,0C106.9,30.3,106.2,28.8,105.9,27.2z
		"/>
	<path d="M105.8,29.8c0.8,0.3,1.5,0.9,1.9,1.7c0,0,0,0.1,0,0.2c-0.1,0-0.1,0-0.2,0l0,0C107.2,30.9,106.6,30.2,105.8,29.8z"/>
	<path d="M94.5,30.8c0.4,1.4,1,2.8,1.7,4.1c0,0.1,0,0.1-0.1,0.2c-0.1,0-0.1,0-0.2-0.1l0,0C95.4,33.7,94.9,32.3,94.5,30.8z"/>
</g>
</svg>
