<svg xmlns="http://www.w3.org/2000/svg" viewBox="0 0 37.86 65.36"><defs><style>.cls-1{fill:none;stroke:#000;stroke-miterlimit:10;stroke-width:0.5px;}</style></defs><g id="Layer_2" data-name="Layer 2"><g id="Layer_1-2" data-name="Layer 1"><path class="cls-1" d="M15.13,1.57C14.47,2.15,2,13.08,1,14.1S-1.42,18.8,7.39,24c8,4.78,13.44,3.52,15,2.2S36.24,15,37,14.09,39.49,8,29.42,2.63C21.45-1.61,15.79,1,15.13,1.57Z"/><path class="cls-1" d="M.25,24.41c0,1.78,1.46,4.51,7.14,7.89,8,4.78,13.44,3.51,15,2.2S36.24,23.21,37,22.34a3.52,3.52,0,0,0,.62-2.25"/><line class="cls-1" x1="0.25" y1="24.41" x2="0.25" y2="16.09"/><line class="cls-1" x1="37.61" y1="20.04" x2="37.61" y2="11.72"/><path class="cls-1" d="M10.2,33.79s-.2,13.82,0,20-.11,10.72.25,11,3.05.48,3.17-.57,0-10.95,0-15.8c0-5.48,0-13.44,0-13.44"/><path class="cls-1" d="M26.42,31.2s-.15,9.85-.15,15.79,0,9.28,0,10.77c0,1.07,3.4.75,3.4-.38,0-1.39-.14-10.68-.14-15.53,0-6.59.23-13.37.23-13.37"/><path class="cls-1" d="M36.77,8.92c-1,.69-10.46,8.87-12.1,10.36-.82.75-2,1.25-2.84.77s-.11-1.18.7-2,4.14-3.48,4.14-3.48c.73-.62,2.74-2.52.25-3.86-1.41-.76-2.21-.95-3.52,0-.39.27-4.08,3.45-4.93,4.11-1.64,1.27-2,1.87-3,.77-.76-.84,1.12-1.68,4.36-4.39,1.18-1,1.73-1.77,1.75-2.58a2.34,2.34,0,0,0-1-1.76c-1.17-1-2.88-.3-3.69.41l-1.17,1C14.4,9.33,12.39,11,11.4,11.91c-1.38,1.31-2,1.09-2.46.6s.09-.72.24-.86c0,0,3.32-3,4.65-4.08,1-.84,1.41-1.52,1.39-2.21A1.71,1.71,0,0,0,14.47,4a1.78,1.78,0,0,0-2-.12l-1.4,1.23c.23-.06,1.63-.62,2.27,0,.47.42.38.59-.49,1.34-1.33,1.14-4.67,4.09-4.68,4.11a2.66,2.66,0,0,0-.86,1.8A1.76,1.76,0,0,0,8,13.66c2,1.68,3.85-.09,4.46-.67,1-.9,2.93-2.51,4.25-3.58.59-.48,1.05-.85,1.22-1,.38-.33,1.32-.8,1.7-.41.64.65.34,1.14-1.06,2.26-.45.36-3.08,2.53-4.39,3.78-1,1-.26,1.87.27,2.36,2,1.88,3.4.83,5-.38.88-.67,4.55-3.83,4.88-4.07,1-.71,1.61-.4,2-.09.58.47.32.87-.55,1.6,0,0-3.94,3.53-4.66,4.16-1.88,1.65-1.22,2.47-.63,3.16a3.3,3.3,0,0,0,1.88,1.08h.24a4.9,4.9,0,0,0,3.14-1.48c1.78-1.61,8.27-7.27,9.16-7.86l2.71.23"/><ellipse class="cls-1" cx="10.95" cy="18.53" rx="2.3" ry="1.95"/><path class="cls-1" d="M8.65,19.91a2.15,2.15,0,0,0,2.3,2,2.15,2.15,0,0,0,2.3-2"/><line class="cls-1" x1="8.65" y1="19.91" x2="8.65" y2="18.53"/><line class="cls-1" x1="13.25" y1="19.91" x2="13.25" y2="18.53"/><ellipse class="cls-1" cx="27.43" cy="3.88" rx="2.3" ry="1.95"/><path class="cls-1" d="M25.13,5.26a2.15,2.15,0,0,0,2.3,2,2.15,2.15,0,0,0,2.3-2"/><line class="cls-1" x1="25.13" y1="5.26" x2="25.13" y2="3.88"/><line class="cls-1" x1="29.73" y1="5.26" x2="29.73" y2="3.88"/></g></g></svg>