<svg xmlns="http://www.w3.org/2000/svg" viewBox="0 0 31.42 81.34"><defs><style>.cls-1,.cls-2,.cls-3{fill:none;stroke:#000;}.cls-1{stroke-linecap:round;stroke-linejoin:round;}.cls-1,.cls-2{stroke-width:0.5px;}.cls-2,.cls-3{stroke-miterlimit:10;}.cls-3{stroke-width:0.25px;}</style></defs><g id="Layer_2" data-name="Layer 2"><g id="Layer_1-2" data-name="Layer 1"><g id="led"><polygon class="cls-1" points="23.28 42.3 31.17 38.94 31.17 43.63 23.28 47.21 23.28 42.3"/><path class="cls-2" d="M23.28,42.31a111.84,111.84,0,0,1-14.75,0C1.67,41.73.08,40.14.26,39.15.48,38,2.93,37.34,2.93,37.34"/><path class="cls-2" d="M23.28,47.21a111.84,111.84,0,0,1-14.75,0C1.67,46.63.08,45.05.26,44.05"/><path class="cls-2" d="M28.48,37.34a4.37,4.37,0,0,1,2.69,1.6"/><line class="cls-2" x1="0.25" y1="39.32" x2="0.25" y2="44.32"/><path class="cls-2" d="M28.48,39.62s-.45,2-12.43,2c-13.54,0-13.29-2-13.29-2V15.12C2.76,10.76,5.08.25,15.87.25c11.06,0,12.61,11.32,12.61,13.56Z"/><path class="cls-2" d="M7.39,47.1V80.71a3.23,3.23,0,0,0,1.52.38,3.33,3.33,0,0,0,1.58-.38V47.34"/><path class="cls-2" d="M20.09,47.37V72a3.08,3.08,0,0,0,1.63.45A3,3,0,0,0,23.28,72V47.21"/><polyline class="cls-3" points="5.06 40.83 5.06 25.35 6.13 24.96 8.93 25.26 8.93 27.28 13.74 34.95 12.5 35.48 7.85 35.73 7.85 41.28"/><line class="cls-3" x1="9.02" y1="41.4" x2="9.02" y2="35.67"/><polyline class="cls-3" points="12.5 35.48 7.87 27.73 7.87 25.66 8.93 25.26"/><line class="cls-3" x1="8.93" y1="27.28" x2="7.87" y2="27.73"/><line class="cls-3" x1="7.87" y1="25.66" x2="5.06" y2="25.35"/><polyline class="cls-3" points="20.68 41.53 20.68 36.76 14.95 35.87 10.7 27.95 10.7 25.91 11.4 25.66"/><path class="cls-3" d="M11.4,25.66A4.82,4.82,0,0,0,16,28.55a3.71,3.71,0,0,0,3.55-2l3.26.16V41.35"/><polyline class="cls-3" points="24.43 41.15 24.43 26.34 21.5 26.18"/><line class="cls-3" x1="24.43" y1="26.33" x2="22.85" y2="26.69"/><path class="cls-3" d="M21.5,25.66c0-.46-2.24-.83-5-.83s-5.1.37-5.1.83,2.33.83,5.1.83S21.5,26.11,21.5,25.66Z"/><line class="cls-3" x1="21.5" y1="25.66" x2="21.5" y2="26.19"/><line class="cls-3" x1="21.5" y1="26.19" x2="19.59" y2="26.53"/><line class="cls-3" x1="5.2" y1="41.88" x2="5.2" y2="46.78"/><line class="cls-3" x1="9.02" y1="42.34" x2="9.02" y2="47.24"/><line class="cls-3" x1="20.68" y1="42.45" x2="20.68" y2="47.35"/><line class="cls-3" x1="25.25" y1="41.4" x2="25.25" y2="46.31"/></g></g></g></svg>