<svg xmlns="http://www.w3.org/2000/svg" viewBox="0 0 136.01 136.01"><defs><style>.cls-1,.cls-2,.cls-3,.cls-4{fill:none;stroke:#000333;}.cls-1,.cls-3,.cls-4{stroke-miterlimit:10;}.cls-2{stroke-linecap:round;stroke-linejoin:round;}.cls-2,.cls-3{stroke-width:0.5px;}.cls-4{stroke-width:0.25px;}.cls-5{fill:#000333;}</style></defs><g id="Layer_2" data-name="Layer 2"><g id="HOME"><rect class="cls-1" x="0.5" y="0.5" width="135.01" height="135.01" rx="12"/><polygon class="cls-2" points="75.58 67.64 83.47 64.27 83.47 68.97 75.58 72.54 75.58 67.64"/><path class="cls-3" d="M75.57,67.64a111.67,111.67,0,0,1-14.74,0c-6.87-.58-8.46-2.16-8.27-3.16.22-1.16,2.66-1.81,2.66-1.81"/><path class="cls-3" d="M75.57,72.54a111.67,111.67,0,0,1-14.74,0C54,72,52.37,70.38,52.56,69.38"/><path class="cls-3" d="M80.78,62.67a4.39,4.39,0,0,1,2.69,1.6"/><line class="cls-3" x1="52.54" y1="64.65" x2="52.54" y2="69.65"/><path class="cls-3" d="M80.78,65s-.46,2-12.43,2c-13.54,0-13.29-2-13.29-2V40.45c0-4.35,2.31-14.87,13.11-14.87,11,0,12.61,11.33,12.61,13.57Z"/><path class="cls-3" d="M59.68,72.43V106a3.33,3.33,0,0,0,1.52.39,3.39,3.39,0,0,0,1.58-.39V72.67"/><path class="cls-3" d="M72.38,72.7V97.29a3.06,3.06,0,0,0,1.63.46,3,3,0,0,0,1.56-.46V72.54"/><polyline class="cls-4" points="57.35 66.17 57.35 50.69 58.43 50.29 61.22 50.6 61.22 52.61 66.04 60.28 64.8 60.82 60.15 61.07 60.15 66.62"/><line class="cls-4" x1="61.31" y1="66.73" x2="61.31" y2="61"/><polyline class="cls-4" points="64.8 60.82 60.16 53.06 60.16 50.99 61.22 50.6"/><line class="cls-4" x1="61.22" y1="52.61" x2="60.16" y2="53.06"/><line class="cls-4" x1="60.16" y1="50.99" x2="57.35" y2="50.69"/><polyline class="cls-4" points="72.97 66.86 72.97 62.09 67.24 61.2 62.99 53.29 62.99 51.24 63.69 50.99"/><path class="cls-4" d="M63.69,51a4.82,4.82,0,0,0,4.64,2.89,3.7,3.7,0,0,0,3.55-2l3.26.17V66.69"/><polyline class="cls-4" points="76.73 66.48 76.73 51.67 73.79 51.52"/><line class="cls-4" x1="76.73" y1="51.67" x2="75.14" y2="52.03"/><path class="cls-4" d="M73.79,51c0-.46-2.24-.83-5-.83s-5.1.37-5.1.83,2.34.83,5.1.83S73.79,51.45,73.79,51Z"/><line class="cls-4" x1="73.79" y1="50.99" x2="73.79" y2="51.52"/><line class="cls-4" x1="73.79" y1="51.52" x2="71.88" y2="51.86"/><line class="cls-4" x1="57.49" y1="67.22" x2="57.49" y2="72.12"/><line class="cls-4" x1="61.31" y1="67.68" x2="61.31" y2="72.58"/><line class="cls-4" x1="72.97" y1="67.78" x2="72.97" y2="72.68"/><line class="cls-4" x1="77.54" y1="66.73" x2="77.54" y2="71.64"/><path class="cls-5" d="M11.57,125.46v-8.39H13v7.05h3.83v1.34Z"/><path class="cls-5" d="M24.25,117.07v1.33H19.78v2.22h4v1.26h-4v2.25H24.4v1.33h-6v-8.39Z"/><path class="cls-5" d="M32.56,118.17a3.93,3.93,0,0,1,1.21,3,4.09,4.09,0,0,1-1.18,3.1,5,5,0,0,1-3.6,1.14H26.21v-8.39h2.88A5,5,0,0,1,32.56,118.17Zm-.22,3.09q0-2.88-3.3-2.88H27.62v5.75h1.57a3.37,3.37,0,0,0,2.34-.73A2.72,2.72,0,0,0,32.34,121.26Z"/></g></g></svg>