<svg xmlns="http://www.w3.org/2000/svg" viewBox="0 0 1114.83 277.41">
  <defs>
    <style>
      .b2409293-3569-4cd6-8737-014e3c250f75 {
        fill: #0070c0;
      }

      .efa7c51c-32da-44ca-9f88-2ecd5b344922 {
        fill: red;
      }

      .b2ad7ebc-9082-40e2-a043-e28c10b05359 {
        fill: none;
        stroke: #050505;
        stroke-miterlimit: 10;
        stroke-width: 6px;
      }
    </style>
  </defs>
  <g id="a3b094d8-bf94-40ab-8fd9-d80b28418d47" data-name="Layer 2">
    <g id="e291d0dc-74cf-4ec5-935b-54a280b9fd65" data-name="Logotipo">
      <g>
        <polygon class="b2409293-3569-4cd6-8737-014e3c250f75" points="43.21 234.2 43.21 138.78 3 138.78 3 274.41 36.77 274.41 43.21 274.41 101.36 274.41 101.36 234.2 43.21 234.2"/>
        <polygon class="efa7c51c-32da-44ca-9f88-2ecd5b344922" points="101.36 43.36 101.36 3.15 3 3.15 3 9 3 43.36 3 80.17 3 120.14 3 138.78 43.21 138.78 43.21 120.37 73.36 120.37 73.36 80.17 43.21 80.17 43.21 43.36 101.36 43.36"/>
        <polygon class="b2ad7ebc-9082-40e2-a043-e28c10b05359" points="194.37 120.37 194.37 80.17 43.21 80.17 43.21 43.36 155.47 43.36 155.47 3.15 3 3.15 3 27.03 3 43.36 3 80.17 3 120.37 3 157.19 3 197.39 3 234.2 3 262.14 3 274.41 194.37 274.41 194.37 234.2 43.21 234.2 43.21 197.39 194.37 197.39 194.37 157.19 43.21 157.19 43.21 120.37 194.37 120.37"/>
        <g>
          <path d="M243,125.19V20.38h96.51V39.74H262.37V63h62V82.54h-62v42.65Z" transform="translate(0 -20.23)"/>
          <path d="M356.26,125.19V40.61a19.46,19.46,0,0,1,6-14.26,19.46,19.46,0,0,1,14.26-6h64.2a20.38,20.38,0,0,1,20.38,20.23v84.58H441.71V90H375.48v35.23Zm19.22-54.44h66.23V44.84c0-2.72-.19-4.25-.58-4.59s-1.89-.51-4.51-.51H380.57c-2.72,0-4.25.17-4.58.51s-.51,1.87-.51,4.59Z" transform="translate(0 -20.23)"/>
          <path d="M486.11,125.19V20.38h80.35a19.46,19.46,0,0,1,14.27,6,19.46,19.46,0,0,1,6,14.26V61.14a22.64,22.64,0,0,1-.29,3.64,14,14,0,0,1-1,3.35,33.77,33.77,0,0,1,4,7,18.7,18.7,0,0,1,1.53,7.28V105a20.38,20.38,0,0,1-20.38,20.23Zm24.31-63h51.82c2.72,0,4.22-.17,4.52-.51s.43-1.87.43-4.59V44.84c0-2.72-.14-4.25-.43-4.59s-1.8-.51-4.52-.51H510.42q-4.08,0-4.59.51t-.51,4.59V57.06q0,4.08.51,4.59T510.42,62.16Zm0,43.67h56c2.62,0,4.13-.17,4.52-.51s.58-1.87.58-4.59V86.61c0-2.71-.2-4.24-.58-4.58s-1.9-.51-4.52-.51h-56q-4.08,0-4.59.51c-.34.34-.51,1.87-.51,4.58v14.12q0,4.08.51,4.59T510.42,105.83Z" transform="translate(0 -20.23)"/>
          <path d="M614.94,125.19v-105h19.21v85.6h85.6v19.36Z" transform="translate(0 -20.23)"/>
          <path d="M736.49,125.19V40.61a19.46,19.46,0,0,1,6-14.26,19.44,19.44,0,0,1,14.26-6h64.2A20.38,20.38,0,0,1,841.3,40.61v84.58H821.94V90H755.7v35.23ZM755.7,70.75h66.24V44.84c0-2.72-.2-4.25-.58-4.59s-1.9-.51-4.52-.51h-56q-4.08,0-4.59.51t-.51,4.59Z" transform="translate(0 -20.23)"/>
          <path d="M866.34,125.19V20.38h80.35a19.48,19.48,0,0,1,14.27,6,19.46,19.46,0,0,1,6,14.26V61.14a21.54,21.54,0,0,1-.3,3.64,13.5,13.5,0,0,1-1,3.35,34.23,34.23,0,0,1,4,7,18.7,18.7,0,0,1,1.53,7.28V105a20.38,20.38,0,0,1-20.38,20.23Zm24.31-63h51.82c2.72,0,4.22-.17,4.51-.51s.44-1.87.44-4.59V44.84c0-2.72-.15-4.25-.44-4.59s-1.79-.51-4.51-.51H890.65q-4.08,0-4.59.51t-.51,4.59V57.06q0,4.08.51,4.59T890.65,62.16Zm0,43.67h56c2.62,0,4.13-.17,4.51-.51s.59-1.87.59-4.59V86.61c0-2.71-.2-4.24-.59-4.58s-1.89-.51-4.51-.51h-56q-4.08,0-4.59.51c-.34.34-.51,1.87-.51,4.58v14.12q0,4.08.51,4.59T890.65,105.83Z" transform="translate(0 -20.23)"/>
        </g>
        <g>
          <path d="M243.15,297.6V192.79h80.36A20.38,20.38,0,0,1,343.74,213v20.52a22.46,22.46,0,0,1-.29,3.64,13,13,0,0,1-1,3.35,33.63,33.63,0,0,1,4,7,18.82,18.82,0,0,1,1.52,7.28v22.56a20.35,20.35,0,0,1-20.38,20.23Zm24.31-63h51.83c2.71,0,4.22-.17,4.51-.51s.44-1.86.44-4.58V217.25c0-2.72-.15-4.24-.44-4.59s-1.8-.51-4.51-.51H267.46c-2.71,0-4.24.18-4.58.51s-.51,1.87-.51,4.59v12.23c0,2.72.17,4.24.51,4.58S264.75,234.57,267.46,234.57Zm0,43.67h56.05c2.62,0,4.12-.16,4.51-.51s.58-1.86.58-4.58V259c0-2.72-.19-4.25-.58-4.59s-1.89-.51-4.51-.51H267.46c-2.71,0-4.24.17-4.58.51s-.51,1.87-.51,4.59v14.12c0,2.72.17,4.25.51,4.58S264.75,278.24,267.46,278.24Z" transform="translate(0 -20.23)"/>
          <path d="M372.13,297.6V213a20.38,20.38,0,0,1,20.23-20.24h64.2A20.38,20.38,0,0,1,476.94,213V297.6H457.58V262.38H391.34V297.6Zm19.21-54.44h66.24V217.25c0-2.72-.2-4.24-.59-4.59s-1.89-.51-4.51-.51h-56c-2.72,0-4.25.18-4.59.51s-.51,1.87-.51,4.59Z" transform="translate(0 -20.23)"/>
          <path d="M501.83,297.6V192.79h84.43A20.38,20.38,0,0,1,606.64,213v64.34a20.37,20.37,0,0,1-20.38,20.23Zm24.31-19.36h56c2.62,0,4.13-.16,4.52-.51s.58-1.86.58-4.58v-55.9c0-2.72-.2-4.24-.58-4.59s-1.9-.51-4.52-.51h-56c-2.72,0-4.25.18-4.59.51s-.51,1.87-.51,4.59v55.9c0,2.72.17,4.25.51,4.58S523.42,278.24,526.14,278.24Z" transform="translate(0 -20.23)"/>
          <path d="M631.24,297.6V213a20.38,20.38,0,0,1,20.24-20.24h64.19A20.38,20.38,0,0,1,736.05,213V297.6H716.69V262.38H650.46V297.6Zm19.22-54.44h66.23V217.25c0-2.72-.19-4.24-.58-4.59s-1.89-.51-4.51-.51H655.55c-2.72,0-4.24.18-4.58.51s-.51,1.87-.51,4.59Z" transform="translate(0 -20.23)"/>
          <path d="M773.32,297.6a20.37,20.37,0,0,1-20.24-20.23V265.43H772.3v7.72c0,2.72.17,4.25.51,4.58s1.87.51,4.59.51h56c2.62,0,4.12-.16,4.51-.51s.59-1.86.59-4.58V192.79H857.9v84.58a20.37,20.37,0,0,1-20.24,20.23Z" transform="translate(0 -20.23)"/>
          <path d="M902.15,297.6a20.37,20.37,0,0,1-20.24-20.23V213a20.38,20.38,0,0,1,20.24-20.24h64.34A20.38,20.38,0,0,1,986.73,213v64.34a20.37,20.37,0,0,1-20.24,20.23Zm4.07-19.36h56c2.62,0,4.12-.16,4.51-.51s.58-1.86.58-4.58v-55.9c0-2.72-.19-4.24-.58-4.59s-1.89-.51-4.51-.51h-56c-2.71,0-4.24.18-4.58.51s-.51,1.87-.51,4.59v55.9c0,2.72.17,4.25.51,4.58S903.51,278.24,906.22,278.24Z" transform="translate(0 -20.23)"/>
          <path d="M1010,297.6v-21l76.72-64.49H1010V192.79h104.82v21l-76.72,64.48h76.72V297.6Z" transform="translate(0 -20.23)"/>
        </g>
      </g>
    </g>
  </g>
</svg>
