<svg xmlns="http://www.w3.org/2000/svg" viewBox="0 0 208.22 224.22"><defs><style>.cls-1,.cls-2{fill:none;stroke:#000;stroke-linecap:round;stroke-linejoin:round;}.cls-1{stroke-width:0.5px;}.cls-2{stroke-width:0.15px;}</style></defs><g id="Layer_2" data-name="Layer 2"><g id="Layer_1-2" data-name="Layer 1"><path class="cls-1" d="M5.41,39.66S3.06,40,3,37.74,2.14,28,2,27.15c-.19-1-1.48-1.42-1.62-2.62S0,21.66,1,21.17C1.68,20.81,50.2.06,103.17.25s100,19,103.51,21c1.18.68,1.29,1.05,1.29,1.82s-.05,2.73-.58,2.77a2.07,2.07,0,0,0-1.77,1.78c-.05,1.14-1.07,9.74-1.31,10.53a2.18,2.18,0,0,1-2.11,1.54C201.08,39.7,5.41,39.66,5.41,39.66Z"/><line class="cls-1" x1="0.74" y1="21.36" x2="207.39" y2="21.71"/><line class="cls-1" x1="1.71" y1="26.53" x2="206.32" y2="26.31"/><path class="cls-1" d="M10.76,39.69A3.94,3.94,0,0,1,13,42.52c.24,1.94.51,4.06,3.24,5s9.25,3.64,9.25,8.82a2.17,2.17,0,0,0-1.72,2.26s-2.37.23-2.37,3.17,3.16,3.41,3.14,3.63-.63.08-.63,1,.65,1.37,2,1.4c0,0,48.2,1.25,72.48,1.25s83.52-.57,83.52-.57c2.73-.08,2.31-1.6,2.31-1.6,0-.48-.36-.73-.36-.92s2.92-.64,2.92-3.24a3.82,3.82,0,0,0-2.4-3.48,2.7,2.7,0,0,0-1.13-2.48c.34-3.85,2.46-6.58,6.69-7.92s5.86-3.51,6-6.24a2.82,2.82,0,0,1,2.35-2.94"/><path class="cls-1" d="M25.47,56.33S65,57.49,98.32,57.49s84.88-.7,84.88-.7"/><path class="cls-1" d="M23.75,58.59s52.49,1.06,73.82,1.06,86.76-.38,86.76-.38"/><path class="cls-1" d="M24.52,65.39S80,66.93,98.82,66.75l85-.76"/><line class="cls-1" x1="25.86" y1="67.83" x2="25.86" y2="223.31"/><line class="cls-1" x1="181.86" y1="68.51" x2="181.03" y2="222.53"/><polygon class="cls-1" points="89.76 70.16 105.94 70.16 105.94 85.05 89.83 84.92 89.76 70.16"/><path class="cls-1" d="M86,69.08V83.76a2.45,2.45,0,0,0,1.47,1.12,1.45,1.45,0,0,0,1.43-.29V69"/><path class="cls-1" d="M106.64,69.08V84.56a1.59,1.59,0,0,0,1.47.32,2,2,0,0,0,1.43-1.27V69"/><path class="cls-1" d="M86,83.19s-28.38-.29-29.41,0c-.6.19,0,3.69.55,3.86s23,.59,41.08.59,41.74.21,42.18-1,1.37-3.74.33-4c-1.39-.33-31.22.31-31.22.31"/><path class="cls-1" d="M141.19,84.09s-.35,3.58-.66,5.47c-.26,1.53-1,1.28-1.68,1.45s-29.8.54-40.47.6-39.5-.78-40.52-.78-1.49-6.49-1.49-6.49"/><polyline class="cls-1" points="91.56 70.16 91.56 71.72 104.32 71.72 104.32 70.16"/><line class="cls-1" x1="104.32" y1="71.72" x2="104.32" y2="85.03"/><line class="cls-1" x1="91.56" y1="71.72" x2="91.56" y2="84.93"/><path class="cls-1" d="M124.72,119c7-.06,12.59-.39,12.53-1.4-.13-2.23.26-23.47,0-26.53"/><path class="cls-1" d="M59,90.85s.44,23.83.38,25.17.26,2,2.68,2c1.19,0,8.17.17,16.08.34"/><path class="cls-1" d="M78.51,114.06c-6.9-.31-12.2-.73-13.33-1-2.05-.41-2.05-1-2.11-3.1s.24-12.35.24-14.4c0-.82,3.74-1.46,6.55-1.58s26.46.29,31.61.29,31.37-.41,31.32,1.64.29,13.29.17,15,.29,3.16-5.68,3.46q-1.34.06-2.94.09"/><path class="cls-1" d="M125.08,122.32c6.69-.08,12.17-.17,13.33-.24,2.58-.14,3.05.43,2.91-4s.79-34.65-.18-35.06"/><path class="cls-1" d="M56.37,83.93s.27,31.76.22,34.19-.24,3.87,2.1,3.82c1.23,0,9.71.13,19.11.29"/><path class="cls-1" d="M75.18,151.53c0-10.29.06-18.26,0-18.72-.07-1.32.73-1.46,1.73-1.45"/><path class="cls-1" d="M75.15,158.44c0-2.38,0-4.7,0-6.91"/><path class="cls-1" d="M104.35,202.72c-12-.24-27.73-.6-28.21-.6-.76,0-1.18-.27-1.18-2.35,0-1.2.11-22.94.19-41.33"/><path class="cls-1" d="M105.7,208.09c-14.67-.29-33.34-.69-33.91-.69-.92,0-2,.31-2-2.14s-.08-75.88-.2-78.5c0-.83-.39-2.05,2.54-1.85.53,0,2.52.06,5.44.07"/><path class="cls-1" d="M125.34,124.9c1.22-.11,1.35-.2,1.31,1.52,0,.44-.08,4.2-.17,9.87"/><path class="cls-1" d="M75.65,131.61s-5.93-6.14-5.94-6.12"/><path class="cls-1" d="M125.57,127.1a6.82,6.82,0,0,0,1.07-1.45"/><path class="cls-1" d="M75.23,201.65s-2.79,3.26-4.94,5.47"/><path class="cls-1" d="M96.54,35.58v-5.2a2.09,2.09,0,0,1,2.51-2.17c1.5.15,1.84,1.8,1.8,2.93s0,4.48,0,4.48Z"/><polyline class="cls-1" points="96.54 35.59 94.86 37.34 102.28 37.44 100.81 35.62"/><path class="cls-1" d="M109.26,35.08V30.23a1.88,1.88,0,0,1,2.21-2c1.32.14,1.62,1.68,1.59,2.73s0,4.17,0,4.17Z"/><polyline class="cls-1" points="109.26 35.08 107.77 37.27 114.33 37.24 113.02 35.13"/><path class="cls-1" d="M121.32,35.16V30.31a2,2,0,0,1,2.45-2c1.47.14,1.8,1.68,1.76,2.73s0,4.17,0,4.17Z"/><polyline class="cls-1" points="121.32 35.16 120.4 36.67 126.48 36.67 125.49 35.21"/><path class="cls-1" d="M133.16,35.93V30.78a2,2,0,0,1,2.45-2.14c1.46.14,1.79,1.78,1.75,2.89s0,4.44,0,4.44Z"/><polyline class="cls-1" points="133.16 35.93 132.24 37.53 138.31 37.53 137.32 35.98"/><path class="cls-1" d="M144.78,37V30.87a2.31,2.31,0,0,1,2.65-2.55c1.58.17,1.94,2.12,1.9,3.44s0,5.29,0,5.29Z"/><polyline class="cls-1" points="144.78 37 143.79 38.91 149.78 38.38 149.29 37.06"/><path class="cls-1" d="M155.69,36.46V30.78a2.15,2.15,0,0,1,2.47-2.37c1.47.16,1.81,2,1.77,3.19s0,4.9,0,4.9Z"/><polyline class="cls-1" points="155.69 36.46 154.36 37.8 160.3 37.8 159.89 36.51"/><path class="cls-1" d="M165.45,35.89v-5.3a2,2,0,0,1,2.35-2.22c1.41.16,1.72,1.84,1.69,3s0,4.57,0,4.57Z"/><polyline class="cls-1" points="165.45 35.89 164.9 37.25 169.67 37.86 169.45 35.95"/><path class="cls-1" d="M175,36.11V30.94c0-1.24.6-2.32,1.81-2.15s1.32,1.79,1.3,2.9,0,4.46,0,4.46Z"/><polyline class="cls-1" points="174.97 36.11 174.3 37.66 177.87 37.8 178.05 36.17"/><path class="cls-1" d="M183.07,36.18V31c0-1.24.56-2.32,1.71-2.16s1.25,1.8,1.23,2.91,0,4.46,0,4.46Z"/><polyline class="cls-1" points="183.06 36.18 182.44 37.52 186.15 37.83 185.98 36.24"/><path class="cls-1" d="M190.18,35.94V30.77c0-1.24.4-2.32,1.21-2.16s.88,1.8.86,2.91,0,4.46,0,4.46Z"/><polyline class="cls-1" points="190.18 35.94 189.27 37.01 191.88 37.35 192.23 36"/><path class="cls-1" d="M195.72,35.36s.34-4,.45-5.08c.12-1.24.4-1.88,1-1.72s.41,1.43.35,2.54c-.07,1.27-.11,4.37-.11,4.37Z"/><polyline class="cls-1" points="195.72 35.36 195.38 36.87 197.47 36.87 197.4 35.5"/><path class="cls-1" d="M199.84,35.53s.34-4,.45-5.08c.12-1.23.4-1.64,1-1.48s.23,1.33.17,2.44c-.06,1.27-.24,4.17-.24,4.17Z"/><polyline class="cls-1" points="199.84 35.53 199.15 37.01 201.59 37.04 201.21 35.6"/><path class="cls-1" d="M202.79,35.52s.42-4.07.54-5.15c.14-1.25.35-1.65.74-1.47s.1,1.36,0,2.49c-.1,1.29-.35,4.22-.35,4.22Z"/><polyline class="cls-1" points="202.79 35.52 202.66 36.73 203.69 36.8 203.72 35.64"/><path class="cls-1" d="M84.86,35.58v-5.2c0-1.25.73-2.34,2.18-2.17s1.6,1.8,1.57,2.93,0,4.48,0,4.48Z"/><polyline class="cls-1" points="84.86 35.59 83.4 37.34 89.85 37.44 88.57 35.62"/><path class="cls-1" d="M73,35.58v-5.2c0-1.25.71-2.34,2.15-2.17,1.28.15,1.57,1.8,1.53,2.93s0,4.48,0,4.48Z"/><polyline class="cls-1" points="72.95 35.59 71.51 37.34 77.86 37.44 76.6 35.62"/><path class="cls-1" d="M61.49,35.58v-5.2c0-1.25.72-2.34,2.17-2.17,1.29.15,1.59,1.8,1.56,2.93s0,4.48,0,4.48Z"/><polyline class="cls-1" points="61.49 35.59 60.04 37.34 66.45 37.44 65.18 35.62"/><path class="cls-1" d="M50.76,35.58v-5.2c0-1.25.66-2.34,2-2.17s1.45,1.8,1.42,2.93,0,4.48,0,4.48Z"/><polyline class="cls-1" points="50.76 35.59 49.84 37.24 54.98 37.24 54.13 35.62"/><path class="cls-1" d="M40.28,35.58v-5.2c0-1.25.7-2.34,2.1-2.17s1.54,1.8,1.51,2.93,0,4.48,0,4.48Z"/><polyline class="cls-1" points="40.28 35.59 39.43 37.21 44.42 37.24 43.86 35.62"/><path class="cls-1" d="M31.27,35.58v-5.2c0-1.25.62-2.34,1.89-2.17s1.39,1.8,1.36,2.93,0,4.48,0,4.48Z"/><polyline class="cls-1" points="31.27 35.59 30.5 37.21 34.84 37.19 34.49 35.62"/><path class="cls-1" d="M24.16,35.58v-5.2c0-1.25.54-2.34,1.62-2.17S27,30,27,31.14s0,4.48,0,4.48Z"/><polyline class="cls-1" points="24.16 35.59 23.5 37.21 27.23 37.19 26.93 35.62"/><path class="cls-1" d="M17.51,35.58v-5.2c0-1.25.49-2.34,1.47-2.17S20.06,30,20,31.14s0,4.48,0,4.48Z"/><polyline class="cls-1" points="17.51 35.59 16.92 37.21 20.28 37.19 20.01 35.62"/><path class="cls-1" d="M12,35.39V30.32c0-1.21.34-2.27,1-2.11s.75,1.76.74,2.85,0,4.37,0,4.37Z"/><polyline class="cls-1" points="12 35.39 11.59 36.98 13.94 36.95 13.75 35.43"/><path class="cls-1" d="M7.89,35V30.21c0-1.15.24-2.15.73-2s.53,1.66.52,2.69,0,4.13,0,4.13Z"/><polyline class="cls-1" points="7.89 35 7.6 36.49 9.26 36.47 9.13 35.03"/><path class="cls-1" d="M5.19,34.5V30.06c0-1.06.15-2,.46-1.85S6,29.75,6,30.71v3.82Z"/><polyline class="cls-1" points="5.19 34.5 5 35.89 6.06 35.87 5.98 34.53"/><path d="M115,224.07l-3.51-6.63a30,30,0,0,0-1.86-3.19c-.77-.94-1.7-1.79-2.5-2.77a11.12,11.12,0,0,1-1.7-3.41,30.51,30.51,0,0,1-1-3.63,44.46,44.46,0,0,1-.9-7.45l0,.08a68.45,68.45,0,0,1-4.47-13.94,36.8,36.8,0,0,1-.39-7.33c0-1.22,0-2.44.07-3.67a12.21,12.21,0,0,1,.56-3.69h0l0,.12c-.08-2.71,0-5.36,0-8a32.29,32.29,0,0,0-.16-3.95,2.24,2.24,0,0,0-.24-.84l-.12-.15a1.62,1.62,0,0,1-.18-.23,3.77,3.77,0,0,1-.27-.47c-.31-.6-.52-1.3-.83-1.77s-.81-1.06-1.16-1.65a6,6,0,0,1-.46-.95,6.88,6.88,0,0,1-.25-1c-.26-1.31-.47-2.64-.62-4a11.91,11.91,0,0,1,.08-4.08,5.36,5.36,0,0,1,.8-1.94,3.32,3.32,0,0,1,1.69-1.3,4.69,4.69,0,0,1,2.1-.18,5.94,5.94,0,0,1,2,.57,6.24,6.24,0,0,1,1.67,1.25c.48.5.88,1,1.38,1.44a25,25,0,0,1,2.74,3,5.74,5.74,0,0,1,.89,1.87c.2.65.36,1.3.53,2a18.69,18.69,0,0,0,3.16,7.18c.38.53.84,1,1.27,1.52s.85,1,1.27,1.56c.86,1,1.58,2.15,2.51,3.09a8.26,8.26,0,0,1-1.5-1.33c-.46-.49-.91-1-1.34-1.49-.87-1-1.75-2-2.61-3.06a19.38,19.38,0,0,1-3.26-7.35c-.17-.64-.33-1.29-.53-1.91a5.14,5.14,0,0,0-.81-1.72,26.19,26.19,0,0,0-2.69-2.9c-1-.92-1.75-2-2.92-2.58a5.42,5.42,0,0,0-1.83-.51,4.25,4.25,0,0,0-1.85.15,3.57,3.57,0,0,0-2.12,2.85,11.47,11.47,0,0,0,0,3.88c.15,1.32.36,2.63.62,3.93A7.29,7.29,0,0,0,98,152.78a17.56,17.56,0,0,1,.87,1.84c.08.15.15.29.23.41a1.11,1.11,0,0,0,.12.16,1.26,1.26,0,0,1,.19.24,2.84,2.84,0,0,1,.32,1.07,32.27,32.27,0,0,1,.13,4c0,2.66-.14,5.35-.08,8a.43.43,0,0,1,0,.12h0a11.76,11.76,0,0,0-.52,3.5c0,1.22-.06,2.43-.07,3.65a35.67,35.67,0,0,0,.39,7.24A67.89,67.89,0,0,0,104,196.89a.19.19,0,0,1,0,.08,43.39,43.39,0,0,0,.89,7.37,33.67,33.67,0,0,0,1,3.57,10.74,10.74,0,0,0,1.61,3.25c.78,1,1.7,1.79,2.51,2.78a28.54,28.54,0,0,1,1.91,3.26l3.48,6.59,0,0a.25.25,0,1,1-.43.24Z"/><path class="cls-2" d="M95.23,142.4a19.42,19.42,0,0,1,1.44,1.95c.15.3.87-1.58,3-2.15s3.58-.6,3-1.33-2.33-2.5-3.2-2.55"/><path class="cls-1" d="M99.62,158.32l-25.08.1s3.19-35,4-44.73,1.77-19.37,1.92-19.46"/><path class="cls-1" d="M122.31,94.44s1.54,17.47,2.18,22.53,3.86,37.75,3.62,37.93-9.85,1.33-15,2"/><path class="cls-1" d="M75.17,158.44l7.23-3.29s9.73-25,10.93-28.07,2.69-6.58.91-11-8.21-22-8.21-22"/><path class="cls-1" d="M128,152.3a22.73,22.73,0,0,0,3,2.47c1.44.9,3.9,2.22,3.66,6.74s-.23,16.26-.08,19.91,0,14.25,0,14.25,1.46,4.06,1.87,5.57a49.87,49.87,0,0,0,5.93,11.55c2.71,3.53,8.38,9.83,9.26,11.18"/><path d="M134.29,195.78a37.15,37.15,0,0,1-1.56-4.56,34.87,34.87,0,0,0,2,4.34h0a.25.25,0,0,1-.11.34.25.25,0,0,1-.33-.11Z"/><path d="M101.29,190.07a6.26,6.26,0,0,0,1.08,1,13.3,13.3,0,0,0,1.25.87,21,21,0,0,0,2.72,1.38,19.38,19.38,0,0,1-2.76-1.32,11.74,11.74,0,0,1-1.28-.84,6.52,6.52,0,0,1-1.13-1,.07.07,0,0,1,0-.1.06.06,0,0,1,.1,0h0Z"/><path d="M105.08,194.8a19,19,0,0,1,4.91,3.32,19.85,19.85,0,0,1,2,2.2,16,16,0,0,1,1.61,2.49,21.5,21.5,0,0,0-1.69-2.43,18.72,18.72,0,0,0-2-2.15,19.63,19.63,0,0,0-2.28-1.88A20.27,20.27,0,0,0,105.08,194.8Z"/><path d="M99.77,168.49a3.65,3.65,0,0,0,.86,1.49A6.16,6.16,0,0,0,102,171.1a9.71,9.71,0,0,0,1.67.76,17.91,17.91,0,0,0,1.78.47,16.26,16.26,0,0,1-1.82-.36,10.24,10.24,0,0,1-1.74-.67,6.63,6.63,0,0,1-1.55-1.08,4,4,0,0,1-1.06-1.63.23.23,0,0,1,.15-.29.22.22,0,0,1,.28.15h0Z"/><path d="M96.75,148.15a3.67,3.67,0,0,1,.31-1.76,2.54,2.54,0,0,1,1.31-1.23,31.83,31.83,0,0,1,3.44-1.07,13.45,13.45,0,0,1,1.78-.28,3.8,3.8,0,0,1,1.8.2,5.94,5.94,0,0,1,2.2,2.8,7.69,7.69,0,0,0-.94-1.52,4.46,4.46,0,0,0-1.3-1.19,3.82,3.82,0,0,0-1.75-.17,13.24,13.24,0,0,0-1.76.31,29.34,29.34,0,0,0-3.43,1A2.88,2.88,0,0,0,96.75,148.15Z"/><path d="M98.22,147.55a14.66,14.66,0,0,0,1.72-.49c.56-.21,1.07-.54,1.61-.8a14.39,14.39,0,0,1,1.68-.68,3,3,0,0,1,1.78-.14,3.39,3.39,0,0,0-1.75.24,14.06,14.06,0,0,0-1.64.72c-.55.24-1.07.55-1.64.75A9,9,0,0,1,98.22,147.55Z"/><path d="M100.62,148.1a13.64,13.64,0,0,1,2.08-1.16,5.13,5.13,0,0,1,2.31-.51,4.58,4.58,0,0,0-1.16.22,10.28,10.28,0,0,0-1.09.43C102,147.37,101.33,147.75,100.62,148.1Z"/><path d="M102,148.53c.7-.26,1.42-.44,2.13-.67.37-.07.74-.11,1.11-.15s.74-.07,1.1-.16c-.7.27-1.46.26-2.17.46S102.78,148.4,102,148.53Z"/><path d="M92.16,158.6a2,2,0,0,0-1.29,2.12l.23,2.95.22,3c0,.5,0,1,0,1.49,0,.24,0,.48,0,.72a1.75,1.75,0,0,0,0,.33c0,.12.12.14-.06.09h0l.24.12a3,3,0,0,0,1.55,1.24,2.9,2.9,0,0,0,2-.36,5,5,0,0,0,2.9-2.84,20.21,20.21,0,0,0,.24-4.37,3.85,3.85,0,0,1,.15-1.16,7,7,0,0,0,.21-1,1.56,1.56,0,0,0-.87-1.66,1.29,1.29,0,0,1,1.09.49,1.83,1.83,0,0,1,.29,1.21,6.77,6.77,0,0,1-.21,1.14,3.57,3.57,0,0,0-.11,1,20.33,20.33,0,0,1-.18,4.52,4.25,4.25,0,0,1-1.31,2,7.71,7.71,0,0,1-2,1.25,6.59,6.59,0,0,1-1.11.38,2.31,2.31,0,0,1-1.25,0,3.52,3.52,0,0,1-1.82-1.53l.23.13h0a.43.43,0,0,1-.37-.24,1,1,0,0,1-.08-.24,3,3,0,0,1-.06-.4c0-.26,0-.51,0-.76,0-.5,0-1,0-1.48l-.22-2.95-.23-3a2.34,2.34,0,0,1,.36-1.56,3,3,0,0,1,1.23-1,.26.26,0,0,1,.34.12.25.25,0,0,1-.12.33h0Z"/><path class="cls-1" d="M98.71,160s.05-.44.89-.52"/><path class="cls-2" d="M90.85,163.51s.67-1.19,1.37-.84,2.27,1.86,2.06,2.05a11.12,11.12,0,0,0-3,4.79"/><path class="cls-1" d="M91.51,169.81a10.52,10.52,0,0,0,.54,2,15.71,15.71,0,0,1,1,1.93c.24.7.77,4.35,1.1,3.58,0,0,1.62,2,3,.95A4.73,4.73,0,0,0,99,174"/><path class="cls-2" d="M94.12,177.31a7.27,7.27,0,0,1,1.64-2.57c1.24-1.28,1.57-1.65,1.26-1.92s-.31-1.26-1.28-.71a4.66,4.66,0,0,0-2.5,2.46"/></g></g></svg>