<svg xmlns="http://www.w3.org/2000/svg" viewBox="0 0 60.87 44.27"><defs><style>.cls-1{fill:#eab292;stroke:#000;stroke-miterlimit:10;}.cls-2{font-size:12px;font-family:Montserrat-Medium, Montserrat;font-weight:500;}.cls-3{letter-spacing:0em;}.cls-4{letter-spacing:-0.01em;}</style></defs><g id="Layer_2" data-name="Layer 2"><g id="SECTION"><path class="cls-1" d="M59,25.41c-10.47-4.25-12.27-7.18-5.5-14.25C43.75,14,41,13.39,43.62,5.88c-7.79,5.59-10.17,4.25-12.54-4.2-2.72,8-5.19,8.86-12.43,2.46,1.92,7.38-.91,7.48-9.82,3.59C14,15.15,11.68,17.7,1.68,20c9.43,3.77,11.24,6.7,5.35,13.21,9-2.31,11.71-1.7,8.9,5.06C23.74,33.42,26,34.74,27.3,42.68c3.8-7.46,6.39-8.33,12.57-1.61-.81-7.62,2-7.65,10.51-3C45.68,29.75,48,27.21,59,25.41Z"/><text class="cls-2" transform="translate(17.01 24.58) rotate(5.36)"><tspan class="cls-3">n</tspan><tspan class="cls-4" x="8.21" y="0">e</tspan><tspan x="15.43" y="0">w</tspan></text></g></g></svg>