<svg id="Layer_1" data-name="Layer 1" xmlns="http://www.w3.org/2000/svg" viewBox="0 0 1000 1000"><path d="M942.77,988c-7.78-16.94-15.59-33.88-23.9-50.57-3.31-6.65-5.65-13.2-4.44-20.63.63-4,1.21-8.35-2.35-10.65-7.87-5.06-8.73-13-10.73-21-2.9-11.53-8-22.64-9.77-34.3-1.31-8.82-1.45-17.16-9.33-23a5.49,5.49,0,0,1-2.26-3.55c-.25-12.2-12-21.11-9.67-34.11.51-2.92-2.08-5.35-4.3-7.18-5.34-4.41-8.78-10.37-11.87-16.17a75.5,75.5,0,0,0-13.58-18.38c-.6-.59-.67-1.72-1.13-3,.79-3.28,5.65-5.27,4-10.59a7.26,7.26,0,0,0-4.57-4.24c-11.08-3.15-15.76-11.44-18.67-21.7a100,100,0,0,0-6.46-16c-4.94-10.29-12.82-16.8-24.67-16.84a25,25,0,0,1-12.26-3.56,208.5,208.5,0,0,0-33-14.23,10.69,10.69,0,0,0-.72-2.2h0c-1.56-23.5,4.8-46.66,3-70.19a10.14,10.14,0,0,1,2-6.67c5.8-6.93,4.43-14.49,1.87-21.74-4.11-11.67-6.68-23.8-12.21-35.08-3.67-7.47-7-15.7-3.59-24.78a7.59,7.59,0,0,0-2.68-9.05c.24-5,.09-10-3-14.28,4.63-7.71.54-16.61,3.51-24.67,3.1-8.43,2.7-8.57-5.6-13.48-1.28-4.24,3.91-7.95.75-12.26-1.8-1.94-4.27-1.72-6.57-2.05h0c-2.42-4.61-2-9.28-.33-14,2.71-2.41,2.65-5.57,2.38-8.79A19.37,19.37,0,0,1,726,387.94c5-2.6,6.67-6.33,4.33-11.73-4.24-9.8-4.81-20.17-4.71-30.67.08-8.55-.8-17-5.22-24.61,1.9-21.4-6.87-41.62-7-62.82,0-1.78-1.31-3.57-2-5.34l-14.73-35.72c-3.33-10.61-10.82-18.94-16.06-28.5-6.32-11.5-13.59-22.87-26.89-28.55a15.48,15.48,0,0,1-8.84-10.91c-.86-4.08-3.55-6.69-6.64-9.11-22.44-17.52-47.72-29.63-74.36-39.2a40.09,40.09,0,0,0-14.08-2.51c-14,.12-28,0-41.92.08-3.69,0-7.88-1.09-10.46,3-2.27.67-4.53,1.86-6.82,1.91a193.68,193.68,0,0,0-61.47,11.47,137.84,137.84,0,0,0-55.68,36.45c-11.48,12.46-20.17,27.47-32.33,39.56a20.78,20.78,0,0,0-8.75,9.16c-5.63,10.5-11.55,20.86-17.14,31.39-8.52,16.05-14.56,33.14-20.95,50.09-1.15,3-2.17,8.1-4.08,8.52-8.61,1.91-5.9,8.5-6.79,13.65-3.29,1.4-5,3.88-5.76,7.39-2.7,12-8.65,22.58-14.4,33.26-10.71,14.69-16.9,31.27-20.56,48.93-5,4.86-2,9.65.14,14.44-1.79,6,6.29,4.59,7,9.26-7.9,9.89-12.86,21.06-13,34-4.13,2.83-6.06,6.67-5.38,11.7-2.8,5.55-5.54,11.18-11.25,14.39-3.65,2.06-3.17,5.5-3.39,8.77-8.89,6.1-6.13,15-5.58,23.35a8.76,8.76,0,0,0,.13,2.75,54.67,54.67,0,0,1-4.69,19.27c-5.33,12.29-8.14,25.26-10.26,38.41-8.23,3.48-3.81,9.29-2.68,14.5h0c6.17-.35,4.7,6.47,8.15,8.68,5.88,8.45,10.94,17.58,19.83,22.66-1.41,5.81-6,7-9.15,7.41-15.66,1.91-30.24,8.57-46,10a44.82,44.82,0,0,0-24.9,10.12c-21.12,17.56-31.45,40.6-32.27,67.84-.46,14.89,1.19,30-.49,44.68-2.94,25.65-6.78,51.19-8.43,77-.45,7.09-.14,15.39-3.67,20.89-6.92,10.79-5.22,20-2.76,31.79,3,14.23,1.73,29.82-.22,44.48A198.81,198.81,0,0,0,94.38,984c.78,5.54-1,11.78,3.92,16.36H534.89c3.79-3.27,6.94-7.16,6.31-12.36-2.74-22.41-1.27-45.19-5.46-67.42-5-26.55-13.86-52.07-22-77.78-3.46-7.36-9.14-13.54-11-21.72-5-21.54-13-42.07-21.28-62.46-13.28-32.67-23-66.42-32.2-100.39-4.72-17.4-7.15-35.59-16.24-51.61a17.9,17.9,0,0,0-2.19-1c1.6-12.66,3.85-25.26,3-38.14-.26-4,.88-7.71,6.71-8.72,6.5,7.68,15.7,8.26,25.56,8.17,8.46-.08,16.95,1.62,25.42,2.53,15.5-.35,30.61,5.17,46.22,3,33.09.4,39.81-1.1,47.24-10.65l-4.38-3.57c-27.16,1.94-53.62.13-77.62-14.66l-2.85-3.05c-3.95-2.3-7.83-4.74-11.88-6.86S480.35,530.9,477,535c-8-1.5-12.81-6.33-14.7-14.18a52.36,52.36,0,0,1-12.43-16.77,85.08,85.08,0,0,1-3-20.95c.37-28.06-.84-56.23,5.28-84-9.21-14.59-7.63-29.83-2.69-45.27,6.08-16.23,9-34.78,30.64-38.77,2.27-.42,3.88-2.62,5.31-4.53a11.64,11.64,0,0,0,1.37-4.31c.18-3,.58-6-.71-8.88-2.92-5.53-9.86-2.59-15.25-8.17-.7-14.83,7-28,15.93-40.7,3.94-12.3,13.63-17.89,24.92-21.62,3-2.9,6.7-5.09,9.15-8.61,1.08-14.17,6.35-17.87,19.6-21.85,12.85-3.86,22.67,6.34,34.5,4.24a9.18,9.18,0,0,0,3.89-1.53c4.05-5.53,7.7-10.33,16.37-7.4,6.14,2.08,13.28.18,20,.75,2.5.06,4.51.64,4.54,3.54a22.74,22.74,0,0,0,4.4,12.15,9.58,9.58,0,0,0,3.83,2.48c5.28.71,7.91,4.89,11.33,8.26,22.6,22.22,26.14,50.42,23.86,79.7q-1,12.62-1.19,25.18a7.7,7.7,0,0,1,0,8,405.19,405.19,0,0,0,3.21,49.65,137.9,137.9,0,0,1-.53,40.26c-7,42.24-26.12,78.16-55.83,108.77C601.63,538,593.06,544.7,591.3,556c1.52,15.86-10.37,29-8.78,45.1,1.5,15.35-.62,30.83-4.77,45.54-5,17.69-.63,35.91-4.94,53.5-1.08,4.41,2,7.08,6.28,8,5.75-.52,12.09-3.72,14.78,5.33,8,26.86,15.9,53.74,24,80.56a52.5,52.5,0,0,1,2.69,11c1.58,17.4,12.2,33.28,8.56,51.5,1.22,7.19,4.49,13.66,7.06,20.39,10.4,27.3,15.32,54.94,9.14,84.39-2.63,12.6-7.78,25.62-3.45,39.09H945.46C947,995.75,944.53,991.84,942.77,988Z"/><path d="M615,919.1l-19.41,6.59v74.7h8.67l7.54-9c-14.11-15.21-3.73-34.25-9.38-51.54C609.52,935.28,610.25,927.38,615,919.1Z"/><path d="M597.22,903.08c-1.57-3.2-1.14-6.49-2-9.67.1-8.12,1.49-16.35,5.22-23.22,4.95-9.11,7-18.54,8-28.53.59-3,1.17-6,1.76-9-3.65.09-7.26,1.26-7.93,5-1.88,10.31-8.5,19.51-6.84,30.68.54,3.66.8,7.8-2.59,10.78.47,4.18-1.07,7.72-3.46,11-7.27-.67-11.9-5.88-16.91-10.18-6.9-5.92-13.41-12.31-20.09-18.5-.44-4.93-3.3-7.61-8-8.77-3.92-1-7.38-3.42-8.31-7.12-2.37-9.43-10.45-12.07-17.29-17-2.14,4.44.88,7.07,1.47,10.15,5.74,7.72,13,13.93,20.07,20.3,1.11,5,5.4,7.64,8.37,11.27,12.68,15.51,30.43,25.39,43.47,40.1C596.39,909.07,599.13,907,597.22,903.08Z"/><path d="M566,914.35c-2.61-7.54-7.88-13.91-18.6-14.6-.88,10,4.13,15.25,9.56,19.92a36.46,36.46,0,0,1,12.57,22c.4,2.24.26,5,3.94,5.21,4.42-4.5,6.61-9.36,1.35-14.8C569.94,927,568.21,920.79,566,914.35Z"/><path d="M488.52,702.94c-.45-.6-1.79-.52-2.72-.76-.89,2-1.79,4-2.68,6,4.73,3.66,10.7,4.93,15.22,9.45,6.17,6.19,7,5.61,16.37-.56l-2.55-5.49C503.3,712.05,494.58,711.08,488.52,702.94Z"/><path d="M633.06,312.84c8-1.35,15.85-1.88,23.27,2.32,4.91-7.5-3.43-8-6.09-11.45-7.77.89-14.71-4.59-22.62-2.89-12.1,2.6-24.55,4.11-35.11,11.44.37,2.3-.11,4.85,2.61,7.47C606.7,313.27,619.62,311.41,633.06,312.84Z"/><path d="M568.82,514.12l9.36-2.53q0-4.24.08-8.51c2.84-3.52,6.9-4.8,11-6.09,9.9-3.09,16.36-9.32,17.87-19.95,3.77-6.58,11.24-10.27,14.56-17.74-6.62-9.44-12.54-1-18.75-.85-1.67,5.69-3.12,10.66-4.58,15.63-4.39,3.1-9.45,2.76-14.43,2.85-6.1,4.72,3.84,7.33,1.39,11.78-2.35,3.23-5.35,5.88-9.88,6.09h0c-5.83-.6-12,.67-17.16-3.48-5,.92-10.76-1.76-14.86,3.22,4.33,4,10.43,4,15.41,6.77C559.35,507.59,563.6,511.06,568.82,514.12Z"/><path d="M578.19,416.54c-1-.46-2-.91-2.93-1.39-9.76-1.12-19.45-9.39-29.28-.7-3.22-11.55-8-14-22.63-12.5l-11.7,11.45c.28,3.59,2.13,5.59,5.82,5.71,4.57-2.34,9.33-3.66,14.51-2.73,6.35-1.63,10,3,14.28,6.15,6.64,3.89,14,6.09,21.09,8.86a16.3,16.3,0,0,0,13.92-.43c9.64,1.09,13.08-8.29,20-11.83,3.9-2.28,7.77-2.63,11.6.15,4.06,6.45,7.36,13.59,12.39,19.17,4.66,5.19,2.08,15.62,12.44,17.28,1.9-4.81,2.74-9.57-.48-12.71-6.87-6.72-10.35-14.3-10.64-23.94-.08-2.9-3.17-5.71-4.89-8.56l-.14.14-2.81-3c-5.44-.35-8.24-3.28-8.57-8.7-.18-3.15.12-6.49-3-8.66.74-10.81-3.16-20.36-7.75-29.82-1.66-3.43-5.85-7.15-.76-11.22,7.67-.78,15.3-.72,22.65,1.92,6.09,2.19,12.37,1.71,18.56,1.49,9.6-.33,13.38-4.47,13.91-14.45.16-2.87-.17-5.76-.28-8.64h0l-8.95-6.34h0c-11,.17-22,.12-33,.58-7.6.31-14.16,2.75-16.19,11.33-4.88.85-5.39,4.47-5.42,8.46v.27c-.09,10.71-.23,21.42-.35,32.13a44.12,44.12,0,0,1-5.43-20.27v-.23C582.66,362,581,368.36,581.27,375a60.39,60.39,0,0,0,4.08,13.11c.89,1.89,1.72,3.84,2.59,5.74-.71,6.18,1.66,12.78.75,18.93a9.1,9.1,0,0,0,1,2.66C585.58,414.47,581.64,414.17,578.19,416.54ZM632.69,333a8.72,8.72,0,0,1,6.17,3.24c1.55,1.88,2.69,4.09,1.37,6.52-1.49,2.76-4,4.22-7.12,3.55-3.93-.85-5.93-4.56-9.16-6.71C626.85,337.22,627.91,332.62,632.69,333Z"/><path d="M493.77,457.16c12.82,13.21,28.75,19.16,46.85,20q.09,1.19.24,2.37c3.51,1.42,7,2.95,10.54,4.24,7.8,2.8,15.31,3.17,23.58-3.27-8.41-4.15-17.59.1-24.3-4.73.53-1.88-.55-3.89,0-5.86A94.88,94.88,0,0,0,570,471.54c6-.16,13.72,2.55,16.79-6.2,2.07-3.55,8.17-.94,10.6-6.81-9.26-.85-17.43,2.63-25.08.19-8-2.56-16-2.16-24-2.05-5.72.08-11.36-.75-17-1.27-11.34-1-22.29-5.08-33.83-4.24-3.56-1.15-5.46-5.7-10.33-4.84-4.32,3.15-5.21,7.09-2.82,11.56C488.1,459.3,490.37,453.33,493.77,457.16Z"/><path d="M476.08,326.6c-7.1,2.58-12.15,6.78-13.52,14.54,4.11,4.83,9.77,2.12,14.69,3,2.73-.79,2.9-5.08,6.29-4.76,3.15.77,4.51,3.45,6.61,5.24,9.22,7.89,13.66,6.12,16.14-6.39-1.16-5.73,1.45-8.86,7.07-10.05a29.61,29.61,0,0,1,10,7.14c3.85,4.22,6.33,10.66,14,8.59-.11-4.15-2.4-8.12-.89-12.45-5.65-3.3-8.56-10.55-16.41-10.33-10.41.28-20.83-1.67-31.24.15C485.29,324.77,480.39,325,476.08,326.6Z"/><path d="M490,302.86c2.26,1.29,5.66,1,7.38,3.58,6.86,1.47,13.68,3.83,20.61,4.2,9.88.53,18,4.5,25.68,10,4.2-.18,7.69-1.21,7.56-7.52-15.66-13.93-35.5-15.92-55.64-16.53C493.1,296.52,490.47,299,490,302.86Z"/><path d="M557.81,335.49c-3.54.18-6.39,1.37-7.71,5.82,2.62,6.1,2.2,13.14,2.1,20.16,1.73,3.71,4.55,5.77,8.72,5.82,3.12-2.21,4.08-5.21,3.21-8.87C559.08,351.59,563.32,342.19,557.81,335.49Z"/><path d="M543.93,725.6c7.64-.43,9.43-2.75,10.84-11.29-7.66-.35-14.68,4.43-22.5,2.86-2.85,4.25-8.54,1.21-12.48,4.13C527.82,726.13,536,726,543.93,725.6Z"/><path d="M558.13,381.86l-11.81,8.31c1.28,8.39,6.36,12,14.61,11.73,4-3,2.54-7.51,3.22-11.43C566.63,384.46,566.94,380,558.13,381.86Z"/></svg>