<svg xmlns="http://www.w3.org/2000/svg" viewBox="0 0 83.58 52.92"><defs><style>.cls-1,.cls-2{fill:none;stroke:#000;stroke-miterlimit:10;}.cls-1{stroke-width:0.5px;}.cls-2{stroke-width:0.25px;}</style></defs><g id="Layer_2" data-name="Layer 2"><g id="Layer_1-2" data-name="Layer 1"><path class="cls-1" d="M13.17,21.38s-4.7,2.44-7.5,3.8S-1.18,29.91.75,33.69c1,1.9,3.19,3.48,4.65,6s6.12,13.64,7.26,13,3.48-2.53,2.65-3.92-3.6-4.93-4.8-8A22.61,22.61,0,0,0,6.34,34c-1.07-1.2-2.75-2.17.35-4.68,1.3-1,8.12-4.16,8.12-4.16S14.94,22.33,13.17,21.38Z"/><path class="cls-1" d="M13.17,21.38s-.89-5.28,1.9-7.95c2.25-2.15,3.54-2.69,6.9-3a26.59,26.59,0,0,0,8.26-1.84c2.79-1.14,7.22-2.55,9-4s4.68-4.2,8-4.29A8.29,8.29,0,0,1,55,4.17a13.48,13.48,0,0,1,1.56,3.4c.23.67.71,5.76-2.55,8.17s-5.95,2.37-7.7,2.67a55.25,55.25,0,0,0-9.2,3A23.49,23.49,0,0,0,29,26.32c-1.84,1.84-5.43,3.4-8,2.93a10.8,10.8,0,0,1-6.17-4.08"/><path class="cls-1" d="M55,4.17s4.32-2.31,7-1.69,4.84.34,9.43,5.46S84.09,19.19,83.28,20.43s-1.44,2.88-2.21,2.4S72.12,14.62,70.4,12.64s-5-5.85-7.61-6.14-3.52-.06-6.26,1.07"/><path class="cls-2" d="M59.69,5.49a7.25,7.25,0,0,1,6.94,1.78"/><path class="cls-1" d="M19.92,10.69s7.56,4.1,7.56,16.84"/><path class="cls-1" d="M23,10.3s6.33,4.22,6.69,15.35"/><path class="cls-1" d="M30.23,8.57s6.2,3.62,5.74,13.28"/><path class="cls-1" d="M32.35,7.75S38.76,11.07,38,21"/><path class="cls-1" d="M36.84,5.93s6.25,3.42,5.59,13.51"/><path class="cls-1" d="M38.57,5s6.48,2.56,5.78,13.86"/><path class="cls-1" d="M42.48,2c2.84-.43,9.54,6.6,7.35,15.82"/><path class="cls-1" d="M45.11.65S49,1.27,51.56,8c2.12,5.7.79,8.74.79,8.74"/></g></g></svg>