<svg xmlns="http://www.w3.org/2000/svg" viewBox="0 0 136.01 136.01"><defs><style>.cls-1,.cls-2,.cls-3{fill:none;stroke:#000333;stroke-miterlimit:10;}.cls-2{stroke-width:0.5px;}.cls-3{stroke-width:0.25px;}.cls-4{fill:#000333;}</style></defs><g id="Layer_2" data-name="Layer 2"><g id="HOME"><rect class="cls-1" x="0.5" y="0.5" width="135.01" height="135.01" rx="12"/><path class="cls-2" d="M43.66,61.63s-4.7,2.44-7.5,3.8-6.85,4.73-4.92,8.51c1,1.91,3.19,3.48,4.65,6s6.12,13.64,7.26,13S46.63,90.37,45.8,89s-3.6-4.92-4.8-8a22.67,22.67,0,0,0-4.17-6.69c-1.07-1.2-2.75-2.18.35-4.69,1.3-1,8.12-4.16,8.12-4.16S45.43,62.58,43.66,61.63Z"/><path class="cls-2" d="M43.66,61.63s-.89-5.28,1.9-8c2.25-2.15,3.54-2.69,6.9-3a26.59,26.59,0,0,0,8.26-1.84c2.79-1.14,7.22-2.55,9-4s4.68-4.2,8-4.29a8.28,8.28,0,0,1,7.79,3.92A13.15,13.15,0,0,1,87,47.83c.23.67.71,5.76-2.55,8.16s-6,2.37-7.7,2.67a55.25,55.25,0,0,0-9.2,3,23.49,23.49,0,0,0-8.08,4.94c-1.84,1.84-5.43,3.4-8,2.93a10.75,10.75,0,0,1-6.17-4.08"/><path class="cls-2" d="M85.46,44.43s4.32-2.32,7-1.7,4.84.34,9.43,5.46,12.69,11.25,11.88,12.5-1.44,2.87-2.21,2.39-9-8.21-10.67-10.18-5-5.86-7.61-6.14S89.76,46.7,87,47.83"/><path class="cls-3" d="M90.18,45.74a7.24,7.24,0,0,1,6.94,1.79"/><path class="cls-2" d="M50.41,50.94S58,55,58,67.78"/><path class="cls-2" d="M53.52,50.55s6.33,4.22,6.69,15.35"/><path class="cls-2" d="M60.72,48.82s6.2,3.63,5.74,13.28"/><path class="cls-2" d="M62.84,48s6.41,3.32,5.65,13.26"/><path class="cls-2" d="M67.33,46.19s6.25,3.42,5.59,13.5"/><path class="cls-2" d="M69.06,45.26s6.48,2.55,5.79,13.86"/><path class="cls-2" d="M73,42.23c2.84-.44,9.54,6.59,7.35,15.81"/><path class="cls-2" d="M75.61,40.9s3.92.63,6.44,7.39c2.12,5.7.79,8.74.79,8.74"/><path class="cls-4" d="M18.36,119.8a2.43,2.43,0,0,1-1.81,2.61l2.19,3h-1.8l-2-2.82H13.08v2.82H11.66v-8.39h3.12a4.54,4.54,0,0,1,2.75.65A2.48,2.48,0,0,1,18.36,119.8ZM16.48,121a1.5,1.5,0,0,0,.43-1.19,1.28,1.28,0,0,0-.45-1.13,3,3,0,0,0-1.58-.3h-1.8v3h1.76A2.6,2.6,0,0,0,16.48,121Z"/><path class="cls-4" d="M26.15,122.86h-5a1.5,1.5,0,0,0,.64,1.12,2.5,2.5,0,0,0,3.17-.33l.77.84A3.59,3.59,0,0,1,23,125.56a3.19,3.19,0,0,1-2.29-.9,3.49,3.49,0,0,1,0-4.79A3.22,3.22,0,0,1,23,119a3.31,3.31,0,0,1,2.22.78,2.75,2.75,0,0,1,.91,2.17Zm-5-1.06H24.8a1.53,1.53,0,0,0-.5-1.24,1.89,1.89,0,0,0-1.24-.43,2.14,2.14,0,0,0-1.33.45A1.47,1.47,0,0,0,21.14,121.8Z"/><path class="cls-4" d="M32.17,123.55a1.79,1.79,0,0,1-.66,1.46,2.58,2.58,0,0,1-1.69.55,4.54,4.54,0,0,1-1.45-.26,4.17,4.17,0,0,1-1.32-.7l.65-1a3.6,3.6,0,0,0,2.16.84,1.14,1.14,0,0,0,.72-.21.67.67,0,0,0,.26-.53c0-.32-.42-.61-1.27-.87l-.15,0c-1.32-.35-2-1-2-1.79a1.72,1.72,0,0,1,.69-1.43,2.89,2.89,0,0,1,1.8-.53,3.73,3.73,0,0,1,2.08.65l-.5,1a3,3,0,0,0-1.69-.51,1.61,1.61,0,0,0-.78.17.57.57,0,0,0-.3.52.48.48,0,0,0,.31.46,2.89,2.89,0,0,0,.61.2c.26.07.49.13.69.2a5.71,5.71,0,0,1,.58.21,3.11,3.11,0,0,1,.6.34A1.47,1.47,0,0,1,32.17,123.55Z"/><path class="cls-4" d="M33.78,117.8a.79.79,0,0,1-.25-.6.82.82,0,0,1,.25-.6.85.85,0,0,1,1.2,0,.82.82,0,0,1,.25.6.79.79,0,0,1-.25.6.82.82,0,0,1-1.2,0ZM35,125.46H33.7v-6.38H35Z"/><path class="cls-4" d="M41.53,123.55a1.79,1.79,0,0,1-.66,1.46,2.58,2.58,0,0,1-1.69.55,4.54,4.54,0,0,1-1.45-.26,4.17,4.17,0,0,1-1.32-.7l.65-1a3.6,3.6,0,0,0,2.16.84,1.14,1.14,0,0,0,.72-.21.67.67,0,0,0,.26-.53c0-.32-.42-.61-1.27-.87l-.15,0c-1.32-.35-2-1-2-1.79a1.72,1.72,0,0,1,.69-1.43,2.89,2.89,0,0,1,1.8-.53,3.73,3.73,0,0,1,2.08.65l-.5,1a3,3,0,0,0-1.69-.51,1.61,1.61,0,0,0-.78.17.57.57,0,0,0-.3.52.48.48,0,0,0,.31.46,2.89,2.89,0,0,0,.61.2c.26.07.49.13.69.2a5.71,5.71,0,0,1,.58.21,3.11,3.11,0,0,1,.6.34A1.47,1.47,0,0,1,41.53,123.55Z"/><path class="cls-4" d="M44.71,120.16v3.24a1,1,0,0,0,.24.72.86.86,0,0,0,.67.27,1.14,1.14,0,0,0,.83-.42l.55,1a2.3,2.3,0,0,1-1.56.64A2,2,0,0,1,44,125a2.14,2.14,0,0,1-.6-1.6v-3.2h-.81v-1.08h.81v-2h1.34v2h1.68v1.08Z"/><path class="cls-4" d="M53.36,124.6a3.48,3.48,0,0,1-4.8,0,3.15,3.15,0,0,1-1-2.33,3.18,3.18,0,0,1,1-2.34,3.51,3.51,0,0,1,4.8,0,3.18,3.18,0,0,1,1,2.34A3.15,3.15,0,0,1,53.36,124.6Zm-3.84-.83a2.06,2.06,0,0,0,2.89,0,2,2,0,0,0,.57-1.5,2.07,2.07,0,0,0-.57-1.51,2.09,2.09,0,0,0-2.89,0,2.07,2.07,0,0,0-.57,1.51A2,2,0,0,0,49.52,123.77Z"/><path class="cls-4" d="M59.2,120.34a1.77,1.77,0,0,0-1.5.64,2.77,2.77,0,0,0-.51,1.74v2.74H55.85v-6.38h1.34v1.28a2.77,2.77,0,0,1,.88-1,2.15,2.15,0,0,1,1.19-.4v1.36Z"/></g></g></svg>