<svg xmlns="http://www.w3.org/2000/svg" viewBox="0 0 136.01 136.01"><defs><style>.cls-1,.cls-3{fill:none;stroke:#000333;stroke-miterlimit:10;}.cls-2{fill:#000333;}.cls-3{stroke-width:0.5px;}</style></defs><g id="Layer_2" data-name="Layer 2"><g id="HOME"><rect class="cls-1" x="0.5" y="0.5" width="135.01" height="135.01" rx="12"/><path class="cls-2" d="M14.2,118.18a1.82,1.82,0,0,0-1,.25.83.83,0,0,0-.4.76.88.88,0,0,0,.4.78,6,6,0,0,0,1.68.58,4.66,4.66,0,0,1,2,.88,2.08,2.08,0,0,1,.65,1.66,2.17,2.17,0,0,1-.83,1.78,3.26,3.26,0,0,1-2.17.69A5.13,5.13,0,0,1,11,124.2l.89-1.07a4,4,0,0,0,2.64,1.11,1.75,1.75,0,0,0,1.08-.3.91.91,0,0,0,.41-.78.88.88,0,0,0-.38-.75,4,4,0,0,0-1.3-.5,11.19,11.19,0,0,1-1.41-.4,3.37,3.37,0,0,1-.85-.49,2,2,0,0,1-.74-1.73,2.11,2.11,0,0,1,.84-1.79,3.42,3.42,0,0,1,2.1-.63,5.19,5.19,0,0,1,1.59.26,4.21,4.21,0,0,1,1.37.75l-.76,1.06a2.94,2.94,0,0,0-1-.55A4.06,4.06,0,0,0,14.2,118.18Z"/><path class="cls-2" d="M25,122.86H20A1.46,1.46,0,0,0,20.6,124a2.28,2.28,0,0,0,1.35.42,2.22,2.22,0,0,0,1.82-.75l.77.84a3.58,3.58,0,0,1-2.69,1.07,3.17,3.17,0,0,1-2.28-.9,3.13,3.13,0,0,1-.95-2.4,3.1,3.1,0,0,1,1-2.39,3.41,3.41,0,0,1,4.48-.1,2.68,2.68,0,0,1,.91,2.16Zm-5-1.06h3.66a1.54,1.54,0,0,0-.51-1.24,1.87,1.87,0,0,0-1.24-.43,2.11,2.11,0,0,0-1.32.45A1.44,1.44,0,0,0,20,121.8Z"/><path class="cls-2" d="M29.8,120.34a1.77,1.77,0,0,0-1.5.64,2.77,2.77,0,0,0-.51,1.74v2.74H26.45v-6.38h1.34v1.28a2.77,2.77,0,0,1,.88-1,2.15,2.15,0,0,1,1.19-.4v1.36Z"/><path class="cls-2" d="M32.9,125.46l-2.56-6.38h1.39l1.94,4.82,1.95-4.82H37l-2.57,6.38Z"/><path class="cls-2" d="M43.31,124.6a3.48,3.48,0,0,1-4.8,0,3.15,3.15,0,0,1-1-2.33,3.18,3.18,0,0,1,1-2.34,3.51,3.51,0,0,1,4.8,0,3.18,3.18,0,0,1,1,2.34A3.15,3.15,0,0,1,43.31,124.6Zm-3.85-.83a2.06,2.06,0,0,0,2.89,0,2,2,0,0,0,.57-1.5,2.07,2.07,0,0,0-.57-1.51,2.09,2.09,0,0,0-2.89,0,2.07,2.07,0,0,0-.57,1.51A2,2,0,0,0,39.46,123.77Z"/><path class="cls-2" d="M50.69,125.46H49.27v-8.39h2.21L54,122.34l2.53-5.27h2.2v8.39H57.32v-6.55l-2.92,5.82h-.8l-2.91-5.82Z"/><path class="cls-2" d="M66.21,124.6a3.23,3.23,0,0,1-2.39,1,3.28,3.28,0,0,1-2.41-1,3.18,3.18,0,0,1-1-2.33,3.22,3.22,0,0,1,1-2.34,3.31,3.31,0,0,1,2.41-1,3.26,3.26,0,0,1,2.39,1,3.15,3.15,0,0,1,1,2.34A3.11,3.11,0,0,1,66.21,124.6Zm-3.84-.83a2.06,2.06,0,0,0,2.89,0,2,2,0,0,0,.57-1.5,2.07,2.07,0,0,0-.57-1.51,2.09,2.09,0,0,0-2.89,0,2.07,2.07,0,0,0-.57,1.51A2,2,0,0,0,62.37,123.77Z"/><path class="cls-2" d="M70.26,120.16v3.24a1,1,0,0,0,.24.72.85.85,0,0,0,.67.27A1.14,1.14,0,0,0,72,124l.55,1a2.3,2.3,0,0,1-1.56.64,2,2,0,0,1-1.47-.6,2.15,2.15,0,0,1-.61-1.6v-3.2h-.8v-1.08h.8v-2h1.35v2h1.68v1.08Z"/><path class="cls-2" d="M78.91,124.6a3.48,3.48,0,0,1-4.8,0,3.15,3.15,0,0,1-1-2.33,3.18,3.18,0,0,1,1-2.34,3.51,3.51,0,0,1,4.8,0,3.18,3.18,0,0,1,1,2.34A3.15,3.15,0,0,1,78.91,124.6Zm-3.85-.83a2.08,2.08,0,0,0,2.9,0,2,2,0,0,0,.57-1.5,2.07,2.07,0,0,0-.57-1.51,2.1,2.1,0,0,0-2.9,0,2.07,2.07,0,0,0-.57,1.51A2,2,0,0,0,75.06,123.77Z"/><path class="cls-2" d="M84.74,120.34a1.79,1.79,0,0,0-1.5.64,2.83,2.83,0,0,0-.5,1.74v2.74H81.39v-6.38h1.35v1.28a2.68,2.68,0,0,1,.88-1,2.12,2.12,0,0,1,1.18-.4v1.36Z"/><path class="cls-3" d="M44.32,71V81.44a3.09,3.09,0,0,0,3.09,3.09H90a3.09,3.09,0,0,0,3.1-3.09V71"/><path class="cls-3" d="M77.75,45.46H49.32a5,5,0,0,0-5,5v.08a5,5,0,0,0,5,5H88.11a5,5,0,0,0,5-5v-.08a5,5,0,0,0-5-5H85.77"/><line class="cls-3" x1="44.32" y1="50.5" x2="44.32" y2="71"/><line class="cls-3" x1="93.11" y1="50.5" x2="93.11" y2="71"/><path class="cls-3" d="M85.77,40.84v9.24c0,.74-1.8,1.34-4,1.34s-4-.6-4-1.34V40.84"/><ellipse class="cls-3" cx="81.76" cy="40.84" rx="4.01" ry="1.34"/></g></g></svg>