<svg xmlns="http://www.w3.org/2000/svg" viewBox="0 0 136.01 136.01"><defs><style>.cls-1,.cls-3{fill:none;stroke:#000333;stroke-miterlimit:10;}.cls-2{fill:#000333;}.cls-3{stroke-width:0.5px;}</style></defs><g id="Layer_2" data-name="Layer 2"><g id="HOME"><rect class="cls-1" x="0.5" y="0.5" width="135.01" height="135.01" rx="12"/><path class="cls-2" d="M14.2,118.18a1.82,1.82,0,0,0-1,.25.83.83,0,0,0-.4.76.88.88,0,0,0,.4.78,6,6,0,0,0,1.68.58,4.66,4.66,0,0,1,2,.88,2.08,2.08,0,0,1,.65,1.66,2.17,2.17,0,0,1-.83,1.78,3.26,3.26,0,0,1-2.17.69A5.13,5.13,0,0,1,11,124.2l.89-1.07a4,4,0,0,0,2.64,1.11,1.75,1.75,0,0,0,1.08-.3.91.91,0,0,0,.41-.78.88.88,0,0,0-.38-.75,4,4,0,0,0-1.3-.5,11.19,11.19,0,0,1-1.41-.4,3.37,3.37,0,0,1-.85-.49,2,2,0,0,1-.74-1.73,2.11,2.11,0,0,1,.84-1.79,3.42,3.42,0,0,1,2.1-.63,5.19,5.19,0,0,1,1.59.26,4.21,4.21,0,0,1,1.37.75l-.76,1.06a2.94,2.94,0,0,0-1-.55A4.06,4.06,0,0,0,14.2,118.18Z"/><path class="cls-2" d="M20.54,120.16v3.24a1,1,0,0,0,.24.72.87.87,0,0,0,.68.27,1.14,1.14,0,0,0,.82-.42l.56,1a2.34,2.34,0,0,1-1.57.64,2,2,0,0,1-1.46-.6,2.11,2.11,0,0,1-.61-1.6v-3.2h-.8v-1.08h.8v-2h1.34v2h1.68v1.08Z"/><path class="cls-2" d="M29.84,122.86h-5a1.44,1.44,0,0,0,.64,1.12,2.25,2.25,0,0,0,1.34.42,2.22,2.22,0,0,0,1.82-.75l.77.84a3.58,3.58,0,0,1-2.69,1.07,3.19,3.19,0,0,1-2.28-.9,3.49,3.49,0,0,1,0-4.79,3.4,3.4,0,0,1,4.47-.1,2.68,2.68,0,0,1,.91,2.16Zm-5-1.06H28.5a1.56,1.56,0,0,0-.5-1.24,1.9,1.9,0,0,0-1.25-.43,2.11,2.11,0,0,0-1.32.45A1.47,1.47,0,0,0,24.84,121.8Z"/><path class="cls-2" d="M34.74,119a3.05,3.05,0,0,1,2.2.89,3.17,3.17,0,0,1,.91,2.36,3.24,3.24,0,0,1-.91,2.4,2.86,2.86,0,0,1-2.11.93,2.91,2.91,0,0,1-2.17-1.06v3.29H31.32v-8.71h1.34v1.11A2.39,2.39,0,0,1,34.74,119Zm-2.1,3.3a2,2,0,0,0,.55,1.49,1.8,1.8,0,0,0,1.35.59,2,2,0,0,0,1.38-.58,2,2,0,0,0,.58-1.49,2.15,2.15,0,0,0-.57-1.53,1.86,1.86,0,0,0-1.38-.6,1.78,1.78,0,0,0-1.36.6A2.17,2.17,0,0,0,32.64,122.28Z"/><path class="cls-2" d="M42.8,119a3.05,3.05,0,0,1,2.2.89,3.13,3.13,0,0,1,.91,2.36,3.28,3.28,0,0,1-.9,2.4,2.8,2.8,0,0,1-4.28-.13v3.29H39.38v-8.71h1.35v1.11A2.38,2.38,0,0,1,42.8,119Zm-2.1,3.3a2.05,2.05,0,0,0,.56,1.49,1.76,1.76,0,0,0,1.34.59,1.92,1.92,0,0,0,1.38-.58,2,2,0,0,0,.59-1.49,2.11,2.11,0,0,0-.58-1.53,1.83,1.83,0,0,0-1.38-.6,1.76,1.76,0,0,0-1.35.6A2.18,2.18,0,0,0,40.7,122.28Z"/><path class="cls-2" d="M53.39,122.86h-5A1.5,1.5,0,0,0,49,124a2.5,2.5,0,0,0,3.17-.33l.77.84a3.59,3.59,0,0,1-2.69,1.07,3.19,3.19,0,0,1-2.29-.9,3.49,3.49,0,0,1,0-4.79,3.22,3.22,0,0,1,2.26-.89,3.26,3.26,0,0,1,2.22.79,2.71,2.71,0,0,1,.91,2.16Zm-5-1.06H52a1.53,1.53,0,0,0-.5-1.24,1.89,1.89,0,0,0-1.24-.43,2.14,2.14,0,0,0-1.33.45A1.47,1.47,0,0,0,48.38,121.8Z"/><path class="cls-2" d="M58.21,120.34a1.79,1.79,0,0,0-1.5.64,2.83,2.83,0,0,0-.5,1.74v2.74H54.86v-6.38h1.35v1.28a2.68,2.68,0,0,1,.88-1,2.12,2.12,0,0,1,1.18-.4v1.36Z"/><path class="cls-2" d="M64.52,125.46H63.11v-8.39h2.2l2.54,5.27,2.53-5.27h2.19v8.39H71.16v-6.55l-2.93,5.82h-.79l-2.92-5.82Z"/><path class="cls-2" d="M80.05,124.6a3.48,3.48,0,0,1-4.8,0,3.15,3.15,0,0,1-1-2.33,3.18,3.18,0,0,1,1-2.34,3.51,3.51,0,0,1,4.8,0,3.18,3.18,0,0,1,1,2.34A3.15,3.15,0,0,1,80.05,124.6Zm-3.85-.83a2.08,2.08,0,0,0,2.9,0,2,2,0,0,0,.57-1.5,2.07,2.07,0,0,0-.57-1.51,2.1,2.1,0,0,0-2.9,0,2.07,2.07,0,0,0-.57,1.51A2,2,0,0,0,76.2,123.77Z"/><path class="cls-2" d="M84.09,120.16v3.24a1,1,0,0,0,.25.72.83.83,0,0,0,.67.27,1.15,1.15,0,0,0,.83-.42l.55,1a2.34,2.34,0,0,1-1.57.64,2,2,0,0,1-1.46-.6,2.11,2.11,0,0,1-.61-1.6v-3.2H82v-1.08h.8v-2h1.34v2h1.68v1.08Z"/><path class="cls-2" d="M92.75,124.6a3.48,3.48,0,0,1-4.8,0,3.15,3.15,0,0,1-1-2.33,3.18,3.18,0,0,1,1-2.34,3.51,3.51,0,0,1,4.8,0,3.18,3.18,0,0,1,1,2.34A3.15,3.15,0,0,1,92.75,124.6Zm-3.85-.83a2.06,2.06,0,0,0,2.89,0,2,2,0,0,0,.57-1.5,2.07,2.07,0,0,0-.57-1.51,2.09,2.09,0,0,0-2.89,0,2.07,2.07,0,0,0-.57,1.51A2,2,0,0,0,88.9,123.77Z"/><path class="cls-2" d="M98.58,120.34a1.77,1.77,0,0,0-1.5.64,2.77,2.77,0,0,0-.51,1.74v2.74H95.23v-6.38h1.34v1.28a2.8,2.8,0,0,1,.89-1,2.09,2.09,0,0,1,1.18-.4v1.36Z"/><path class="cls-3" d="M40.85,75.51V86A3.09,3.09,0,0,0,43.94,89h42.6A3.09,3.09,0,0,0,89.64,86V75.51"/><path class="cls-3" d="M61.23,43.43H45.85a5,5,0,0,0-5,5v6.62a5,5,0,0,0,5,5H84.64a5,5,0,0,0,5-5V48.43a5,5,0,0,0-5-5H69.25"/><line class="cls-3" x1="40.85" y1="51.74" x2="40.85" y2="75.51"/><line class="cls-3" x1="89.64" y1="51.74" x2="89.64" y2="75.51"/><path class="cls-3" d="M69.25,33.8V50.94c0,.73-1.79,1.33-4,1.33s-4-.6-4-1.33V33.8"/><ellipse class="cls-3" cx="65.24" cy="33.8" rx="4.01" ry="1.34"/></g></g></svg>