<svg xmlns="http://www.w3.org/2000/svg" viewBox="0 0 136.01 136.01"><defs><style>.cls-1{fill:none;stroke:#000333;stroke-miterlimit:10;}.cls-2{fill:#000333;}</style></defs><g id="Layer_2" data-name="Layer 2"><g id="HOME"><rect class="cls-1" x="0.5" y="0.5" width="135.01" height="135.01" rx="12"/><path class="cls-2" d="M15.54,20.35l2.5-8h1.69l2.5,8.05,2.81-8h2L23.17,23.49H21.3L19,15.82h-.13l-2.35,7.67H14.6L10.69,12.3h2Z"/><path class="cls-2" d="M35.08,22.34a4.64,4.64,0,0,1-6.4,0,4.42,4.42,0,0,1,0-6.22,4.67,4.67,0,0,1,6.4,0,4.42,4.42,0,0,1,0,6.22ZM30,21.24a2.77,2.77,0,0,0,3.85,0,2.75,2.75,0,0,0,.76-2,2.75,2.75,0,0,0-.76-2,2.79,2.79,0,0,0-3.85,0,2.75,2.75,0,0,0-.76,2A2.75,2.75,0,0,0,30,21.24Z"/><path class="cls-2" d="M42.85,16.66a2.37,2.37,0,0,0-2,.86,3.68,3.68,0,0,0-.67,2.32v3.65H38.39V15h1.79v1.71a3.63,3.63,0,0,1,1.18-1.31,2.74,2.74,0,0,1,1.57-.53l0,1.81Z"/><path class="cls-2" d="M46.53,23.49H44.74V11.62h1.79v7L50,15h2.3l-3.23,3.37,3.47,5.14H50.35l-2.52-3.73-1.3,1.31Z"/><path class="cls-2" d="M54.15,13.28a1.11,1.11,0,0,1,0-1.6,1.1,1.1,0,0,1,.8-.34,1.12,1.12,0,0,1,.8.34,1.13,1.13,0,0,1,0,1.6,1.12,1.12,0,0,1-.8.34A1.1,1.1,0,0,1,54.15,13.28Zm1.68,10.21H54V15h1.8Z"/><path class="cls-2" d="M60.21,18.88v4.61H58.42V15h1.79v1.55A3.23,3.23,0,0,1,63,14.85a3.15,3.15,0,0,1,2.33.88,3.41,3.41,0,0,1,.89,2.54v5.22H64.47V18.82c0-1.57-.65-2.36-2-2.36a2.35,2.35,0,0,0-1.61.62A2.29,2.29,0,0,0,60.21,18.88Z"/><path class="cls-2" d="M76.63,15V22.4a4.09,4.09,0,0,1-4.37,4.51,5.52,5.52,0,0,1-3.47-1.2l.84-1.36a4.2,4.2,0,0,0,2.52.95,2.94,2.94,0,0,0,2-.66,2.66,2.66,0,0,0,.74-2.1V21.46a3,3,0,0,1-1.14,1.2,3.25,3.25,0,0,1-1.67.44,3.63,3.63,0,0,1-2.79-1.18A4.2,4.2,0,0,1,68.23,19,4.21,4.21,0,0,1,69.31,16a3.61,3.61,0,0,1,2.78-1.18,3.26,3.26,0,0,1,2.74,1.39V15ZM70,18.9a2.69,2.69,0,0,0,.64,1.81,2.19,2.19,0,0,0,1.75.76,2.29,2.29,0,0,0,1.77-.73,2.59,2.59,0,0,0,.68-1.84,2.67,2.67,0,0,0-.68-1.85,2.28,2.28,0,0,0-1.78-.76,2.15,2.15,0,0,0-1.74.78A2.8,2.8,0,0,0,70,18.9Z"/><path class="cls-2" d="M15.78,42.69h-2l-2.94-8.51h1.85l2.12,6.43,2.11-6.43h1.85l2.12,6.43L23,34.18H24.8l-2.94,8.51H19.81l-2-5.83Z"/><path class="cls-2" d="M26.5,32.48a1.11,1.11,0,1,1,.8.34A1.1,1.1,0,0,1,26.5,32.48Zm1.68,10.21H26.39V34.18h1.79Z"/><path class="cls-2" d="M33,35.62v4.32a1.41,1.41,0,0,0,.32,1,1.13,1.13,0,0,0,.9.36,1.5,1.5,0,0,0,1.1-.56L36,42a3.09,3.09,0,0,1-2.09.85,2.66,2.66,0,0,1-2-.8,2.83,2.83,0,0,1-.81-2.13V35.62H30.12V34.18h1.07V31.5H33v2.68h2.24v1.44Z"/><path class="cls-2" d="M39.25,38.08v4.61H37.46V30.83h1.79v4.9a2.81,2.81,0,0,1,1.16-1.23,3.3,3.3,0,0,1,1.67-.45,3.15,3.15,0,0,1,2.33.88,3.41,3.41,0,0,1,.89,2.54v5.22H43.51V38c0-1.57-.65-2.36-1.95-2.36a2.36,2.36,0,0,0-1.62.62A2.29,2.29,0,0,0,39.25,38.08Z"/><path class="cls-2" d="M13.94,61.89H12.05V50.7H15l3.37,7,3.38-7h2.93V61.89H22.79V53.15l-3.91,7.76H17.83l-3.89-7.76Z"/><path class="cls-2" d="M34.64,60.74a4.64,4.64,0,0,1-6.4,0,4.42,4.42,0,0,1,0-6.22,4.67,4.67,0,0,1,6.4,0,4.42,4.42,0,0,1,0,6.22Zm-5.12-1.1a2.55,2.55,0,0,0,1.92.78,2.58,2.58,0,0,0,1.93-.78,3,3,0,0,0,0-4,2.61,2.61,0,0,0-1.93-.77,2.58,2.58,0,0,0-1.92.77,3,3,0,0,0,0,4Z"/><path class="cls-2" d="M40,54.82v4.32a1.36,1.36,0,0,0,.32,1,1.12,1.12,0,0,0,.89.36,1.52,1.52,0,0,0,1.11-.56l.73,1.27A3.07,3.07,0,0,1,41,62a2.69,2.69,0,0,1-2-.8,2.83,2.83,0,0,1-.81-2.13V54.82H37.17V53.38h1.07V50.7H40v2.68h2.24v1.44Z"/><path class="cls-2" d="M51.57,60.74a4.64,4.64,0,0,1-6.4,0,4.42,4.42,0,0,1,0-6.22,4.67,4.67,0,0,1,6.4,0,4.42,4.42,0,0,1,0,6.22Zm-5.13-1.1a2.78,2.78,0,0,0,3.86,0,3,3,0,0,0,0-4,2.8,2.8,0,0,0-3.86,0,3,3,0,0,0,0,4Z"/><path class="cls-2" d="M59.35,55.06a2.36,2.36,0,0,0-2,.86,3.68,3.68,0,0,0-.67,2.32v3.65h-1.8V53.38h1.8v1.71a3.6,3.6,0,0,1,1.17-1.31,2.77,2.77,0,0,1,1.58-.53v1.81Z"/><path class="cls-2" d="M67.3,59.34a2.4,2.4,0,0,1-.88,1.95,3.46,3.46,0,0,1-2.26.73,6.19,6.19,0,0,1-1.93-.34,5.83,5.83,0,0,1-1.76-.94l.86-1.4a4.8,4.8,0,0,0,2.88,1.12,1.46,1.46,0,0,0,1-.28.84.84,0,0,0,.35-.71c0-.42-.56-.81-1.69-1.15l-.2-.06C61.86,57.78,61,57,61,55.86A2.29,2.29,0,0,1,61.9,54a3.82,3.82,0,0,1,2.39-.71,5.05,5.05,0,0,1,2.79.86l-.68,1.33a4,4,0,0,0-2.25-.69,2.08,2.08,0,0,0-1,.23.76.76,0,0,0-.4.7.64.64,0,0,0,.41.61,4.73,4.73,0,0,0,.81.27c.35.09.65.17.92.26s.53.18.78.28a5.1,5.1,0,0,1,.8.45A2,2,0,0,1,67.3,59.34Z"/><path class="cls-2" d="M120.21,118.85l-3.66-3.68.94-.94,5.28,5.28-5.28,5.28-.94-.94,3.66-3.68h-8v-1.32Z"/></g></g></svg>